<?xml version="1.0" encoding="utf-8"?>
<!-- Generator: Adobe Illustrator 24.1.1, SVG Export Plug-In . SVG Version: 6.00 Build 0)  -->
<svg version="1.1" id="Calque_1" xmlns="http://www.w3.org/2000/svg" xmlns:xlink="http://www.w3.org/1999/xlink" x="0px" y="0px"
	 viewBox="0 0 8.6 11.4" style="enable-background:new 0 0 8.6 11.4;" xml:space="preserve">
<style type="text/css">
	.st0{fill:#FFFFFF;}
</style>
<g>
	<g>
		<path class="st0" d="M4.2,4.1c-0.8,0-1.4,0.6-1.4,1.4v1.9C2.9,7.7,3.2,8,3.5,8H5c0.4,0,0.7-0.3,0.7-0.7V5.4c0-0.8-0.6-1.4-1.4-1.4
			L4.2,4.1L4.2,4.1z M5.1,8.4H3.5c-0.5,0-1-0.4-1-1V5.4c0-0.9,0.8-1.7,1.7-1.7h0.1c0.9,0,1.7,0.8,1.7,1.7v1.9
			C6.1,7.9,5.6,8.4,5.1,8.4"/>
		<path class="st0" d="M4.6,5.6H4c-0.2,0-0.4-0.2-0.4-0.4C3.6,5,3.8,4.8,4,4.8h0.6C4.8,4.8,5,5,5,5.2C5,5.4,4.8,5.6,4.6,5.6"/>
		<path class="st0" d="M1,2.4C0.9,2.4,0.9,2.4,1,2.4C0.5,2.2,0.3,1.8,0.3,1.3C0.3,0.6,0.8,0,1.5,0c0.6,0,1.1,0.4,1.3,0.9
			c0,0.1,0,0.2-0.1,0.2c-0.1,0-0.2,0-0.2-0.1C2.4,0.6,2,0.3,1.5,0.3c-0.5,0-1,0.4-1,1c0,0.3,0.2,0.6,0.5,0.8c0.1,0,0.1,0.2,0.1,0.2
			C1.1,2.4,1,2.4,1,2.4"/>
		<path class="st0" d="M7.5,2.5c-0.1,0-0.1,0-0.2-0.1c0-0.1,0-0.2,0.1-0.2C7.8,2,8,1.7,8,1.3c0-0.5-0.4-1-1-1C6.6,0.3,6.2,0.6,6.1,1
			c0,0.1-0.1,0.1-0.2,0.1C5.8,1.1,5.7,1,5.8,0.9C5.9,0.4,6.4,0,7,0c0.7,0,1.3,0.6,1.3,1.3C8.3,1.8,8.1,2.2,7.5,2.5
			C7.6,2.5,7.6,2.5,7.5,2.5"/>
		<path class="st0" d="M3,3.8C3,4,2.8,4.1,2.6,4.1S2.2,4,2.2,3.8s0.2-0.4,0.4-0.4C2.8,3.4,3,3.5,3,3.8"/>
		<path class="st0" d="M6.3,3.8C6.3,4,6.2,4.1,6,4.1C5.8,4.1,5.6,4,5.6,3.8c0-0.2,0.2-0.4,0.4-0.4C6.2,3.4,6.3,3.5,6.3,3.8"/>
		<path class="st0" d="M5.2,6.6L5.2,6.6c-0.1,0-0.2,0-0.3,0c-0.1,0-0.2,0-0.3,0C4.1,6.6,4.1,6.2,4.1,6V5.6c0-0.1,0.1-0.2,0.2-0.2
			s0.2,0.1,0.2,0.2V6c0,0.2,0,0.2,0.1,0.2c0.1,0,0.2,0,0.3,0c0.1,0,0.2,0,0.3,0c0.1,0,0.2,0.1,0.2,0.2C5.3,6.5,5.3,6.6,5.2,6.6"/>
		<path class="st0" d="M3.4,6.6c-0.1,0-0.2-0.1-0.2-0.2s0.1-0.2,0.2-0.2c0.1,0,0.2,0,0.3,0c0.1,0,0.2,0,0.3,0c0.1,0,0.1,0,0.1-0.2
			V5.6c0-0.1,0.1-0.2,0.2-0.2s0.2,0.1,0.2,0.2V6c0,0.2,0,0.6-0.5,0.6c-0.1,0-0.2,0-0.3,0C3.6,6.6,3.5,6.5,3.4,6.6L3.4,6.6z"/>
		<path class="st0" d="M2,8.5L2,8.5c0.1,0,0.1,0.1,0.2,0.1h0c0.6,0.2,1.7,0.9,2.1,1.8c0.4-1,1.6-1.6,2.1-1.8h0c0.1,0,0.1,0,0.2-0.1
			l0,0c0,0,0,0,0,0c1-0.4,1.6-1.4,1.6-2.5V4.8c0-2.2-1.8-3.9-3.9-3.9S0.3,2.6,0.3,4.8V6C0.3,7.1,1,8.1,2,8.5L2,8.5 M4.3,11.4
			c-0.1,0-0.2-0.1-0.2-0.2c0-1.3-1.6-2.1-2.1-2.3c-0.1,0-0.1,0-0.2-0.1l0,0c0,0,0,0,0,0C0.7,8.3,0,7.2,0,6V4.8
			c0-2.4,1.9-4.3,4.3-4.3s4.3,1.9,4.3,4.3V6c0,1.2-0.7,2.3-1.8,2.8c0,0,0,0,0,0l0,0c-0.1,0-0.1,0.1-0.2,0.1c-0.5,0.2-2.1,1-2.1,2.3
			C4.4,11.3,4.4,11.4,4.3,11.4"/>
	</g>
</g>
</svg>
