<?xml version="1.0" encoding="utf-8"?>
<!-- Generator: Adobe Illustrator 24.1.1, SVG Export Plug-In . SVG Version: 6.00 Build 0)  -->
<svg version="1.1" id="Calque_1" xmlns="http://www.w3.org/2000/svg" xmlns:xlink="http://www.w3.org/1999/xlink" x="0px" y="0px"
	 viewBox="0 0 56.69 12.35" style="enable-background:new 0 0 56.69 12.35;" xml:space="preserve">
<style type="text/css">
	.st0{fill:#FFFFFF;}
</style>
<g>
	<g>
		<path class="st0" d="M37.98,3.41c-0.06-0.01-0.12,0-0.18,0.02c-0.31,0.12-0.59,0.26-0.73,0.59c-0.01,0.03-0.05,0.07-0.02,0.09
			c0.04,0.02,0.06-0.04,0.08-0.06c0.2-0.25,0.44-0.43,0.72-0.57C37.9,3.46,37.96,3.46,37.98,3.41 M38.23,6.83
			c0.76,0.07,1.27-0.55,1.29-0.98C39.21,6.31,38.81,6.68,38.23,6.83 M37.38,4.84c0.01,0.31,0.01,0.6,0.1,0.87
			c0.07,0.25,0.18,0.48,0.38,0.65c0.1,0.08,0.2,0.13,0.33,0.12c0.19-0.03,0.39-0.06,0.57-0.14c0.14-0.06,0.27-0.12,0.35-0.26
			c0.08-0.15,0.12-0.31,0.14-0.47c0.03-0.41-0.01-0.82-0.17-1.19c-0.13-0.31-0.23-0.65-0.65-0.72c-0.1-0.02-0.19-0.03-0.29-0.01
			c-0.17,0.04-0.31,0.11-0.44,0.23c-0.09,0.08-0.17,0.15-0.22,0.26C37.36,4.38,37.4,4.63,37.38,4.84 M40,5.14
			c-0.03,0.64-0.31,1.16-0.77,1.58C38.94,7,38.6,7.18,38.2,7.24c-0.59,0.09-1.11-0.14-1.39-0.67c-0.38-0.71-0.45-1.46-0.18-2.23
			c0.06-0.16,0.15-0.31,0.26-0.43c0.26-0.29,0.5-0.62,0.88-0.77c0.23-0.09,0.45-0.16,0.7-0.15c0.07,0,0.14,0.02,0.22,0.04
			c0.23,0.05,0.45,0.12,0.64,0.26c0.31,0.23,0.5,0.53,0.5,0.92c0,0.16,0.07,0.32,0.1,0.47C39.97,4.83,40.01,4.98,40,5.14"/>
		<path class="st0" d="M48.82,6.98c0.26-0.02,0.55-0.07,0.81-0.24c0.1-0.07,0.15-0.16,0.15-0.28c0-0.12-0.04-0.23-0.12-0.33
			c-0.25-0.32-0.57-0.55-0.98-0.65c-0.32-0.08-0.5-0.01-0.66,0.27C48,5.78,47.98,5.81,47.97,5.84c-0.22,0.43-0.09,0.86,0.31,1.04
			C48.44,6.95,48.6,6.98,48.82,6.98 M48.74,7.61c-0.18-0.04-0.36-0.01-0.53-0.06c-0.73-0.22-1.05-0.78-0.8-1.48
			c0.19-0.54,0.56-0.95,1.08-1.21c0.14-0.07,0.29-0.04,0.43-0.01c0.03,0.01,0.06,0.02,0.09,0.02c0.6,0.01,0.94,0.36,1.14,0.88
			c0.05,0.14,0.15,0.26,0.15,0.41c0,0.38-0.12,0.71-0.4,0.98c-0.11,0.1-0.22,0.2-0.33,0.29c-0.13,0.11-0.28,0.17-0.46,0.17
			C49,7.61,48.87,7.61,48.74,7.61"/>
		<path class="st0" d="M55.18,6.98c0.25-0.02,0.53-0.07,0.78-0.22c0.18-0.11,0.22-0.24,0.17-0.44c-0.03-0.1-0.09-0.19-0.16-0.26
			c-0.24-0.27-0.53-0.47-0.89-0.57c-0.34-0.09-0.53-0.02-0.7,0.28c-0.02,0.04-0.04,0.07-0.06,0.11c-0.19,0.42-0.06,0.82,0.33,1
			C54.81,6.95,54.97,6.98,55.18,6.98 M55.09,7.59c-0.17-0.02-0.37,0.01-0.57-0.06c-0.72-0.24-0.95-0.82-0.73-1.47
			c0.16-0.47,0.48-0.81,0.87-1.09c0.19-0.14,0.41-0.19,0.65-0.13c0.03,0.01,0.06,0.02,0.09,0.02c0.61,0.01,0.94,0.38,1.15,0.9
			c0.04,0.1,0.09,0.18,0.12,0.28c0.06,0.19,0,0.36-0.05,0.54c-0.07,0.25-0.2,0.45-0.4,0.61c-0.05,0.04-0.09,0.08-0.13,0.12
			c-0.23,0.25-0.51,0.32-0.84,0.28C55.2,7.6,55.16,7.6,55.09,7.59"/>
		<path class="st0" d="M46.47,7.25c-0.01,0-0.02,0-0.03,0.01c-0.04,0.02-0.09,0.04-0.12,0c-0.03-0.04-0.02-0.08,0-0.12
			c0.07-0.15,0.11-0.31,0.14-0.48c0.09-0.44-0.01-0.84-0.24-1.21c-0.12-0.2-0.26-0.23-0.49-0.13c-0.14,0.06-0.27,0.14-0.4,0.21
			c-0.05,0.02-0.07,0.06-0.07,0.12c0,0.46,0.03,0.92,0.2,1.35c0.03,0.07,0.02,0.13-0.02,0.19c-0.07,0.09-0.14,0.18-0.24,0.24
			c-0.07,0.04-0.13,0.04-0.16-0.05c-0.02-0.06-0.04-0.16-0.08-0.17c-0.06-0.02-0.08,0.09-0.14,0.12c-0.02,0.01-0.04,0.03-0.06,0.04
			c-0.07,0.03-0.12,0.03-0.13-0.06c-0.05-0.28-0.08-0.56-0.09-0.84c-0.04-0.54-0.03-1.08,0.06-1.61c0.03-0.18,0.17-0.29,0.33-0.39
			c0.06-0.03,0.09,0,0.09,0.07c0,0.09-0.01,0.17-0.01,0.26c0,0.02-0.01,0.05,0.02,0.06c0.02,0.01,0.04-0.01,0.06-0.02
			c0.06-0.04,0.12-0.11,0.19-0.07c0.08,0.04,0.03,0.13,0.04,0.2c0,0.01,0,0.01,0,0.02c0,0.07-0.07,0.16,0,0.19
			c0.05,0.03,0.1-0.06,0.16-0.1c0.31-0.23,0.63-0.4,1.03-0.4c0.2,0,0.32,0.09,0.38,0.29c0.08,0.24,0.1,0.49,0.12,0.74
			c0.02,0.2,0.03,0.41,0.01,0.62c-0.02,0.17,0.03,0.32,0.05,0.48c0.01,0.11-0.01,0.2-0.11,0.26c-0.07,0.04-0.12,0.09-0.17,0.16
			c-0.03,0.03-0.06,0.07-0.09,0.09C46.53,7.42,46.49,7.41,46.47,7.25"/>
		<path class="st0" d="M52.21,6.78c0.34,0.01,0.64-0.13,0.93-0.31c0.11-0.07,0.18-0.18,0.3-0.25c0.03-0.02,0.06-0.06,0.1-0.02
			c0.03,0.03,0.02,0.07,0,0.1c-0.07,0.16-0.15,0.31-0.29,0.41c-0.29,0.21-0.56,0.44-0.87,0.63c-0.34,0.2-0.68,0.2-1.01-0.02
			c-0.09-0.06-0.17-0.11-0.26-0.18c-0.14-0.1-0.27-0.22-0.38-0.35c-0.32-0.36-0.34-0.76-0.07-1.15c0.35-0.5,0.79-0.88,1.39-1.05
			c0.26-0.07,0.52-0.07,0.78-0.07c0.06,0,0.1-0.01,0.13-0.06c0.06-0.08,0.13-0.16,0.22-0.22c0.03-0.02,0.06-0.05,0.1-0.04
			c0.04,0.02,0.04,0.06,0.04,0.09c0,0.09,0,0.18-0.01,0.28c-0.01,0.08-0.04,0.15,0.01,0.23c0.02,0.04,0.01,0.08-0.02,0.11
			c-0.09,0.1-0.1,0.23-0.13,0.36c-0.01,0.04-0.02,0.09-0.04,0.12c-0.05,0.07-0.04,0.13,0.04,0.18c0.07,0.04,0.04,0.08,0,0.12
			c-0.08,0.08-0.16,0.16-0.24,0.23c-0.04,0.03-0.06,0.11-0.13,0.07c-0.07-0.04-0.14-0.1-0.12-0.2c0.03-0.1,0.02-0.21,0.04-0.31
			c0.06-0.33-0.06-0.34-0.31-0.44C52.22,4.97,52.05,5,51.88,5.12c-0.24,0.17-0.46,0.34-0.66,0.56c-0.18,0.2-0.18,0.31,0,0.51
			c0.06,0.07,0.12,0.13,0.17,0.2C51.59,6.67,51.86,6.8,52.21,6.78"/>
		<path class="st0" d="M41.14,4.89c-0.01,0.13-0.02,0.26-0.04,0.4c0.06,0.01,0.08-0.03,0.11-0.06c0.18-0.16,0.36-0.31,0.6-0.37
			c0.21-0.06,0.42-0.06,0.61,0.07c0.02,0.01,0.04,0.03,0.07,0.03c0.17,0.05,0.26,0.18,0.3,0.34c0.02,0.06,0.03,0.13,0.04,0.2
			c0.01,0.06,0.01,0.11-0.08,0.1c-0.05-0.01-0.07,0.03-0.09,0.07c-0.03,0.07-0.06,0.14-0.09,0.21c-0.02,0.04-0.06,0.07-0.1,0.07
			c-0.05,0-0.06-0.05-0.06-0.09c0-0.02,0-0.05-0.03-0.05c-0.11,0-0.15-0.09-0.22-0.15c-0.12-0.09-0.25-0.1-0.39-0.09
			c-0.19,0.01-0.38,0.07-0.55,0.16c-0.08,0.05-0.11,0.11-0.1,0.21c0.02,0.25,0.09,0.49,0.18,0.73c0.03,0.07,0.04,0.14,0.02,0.23
			c-0.03,0.11,0.03,0.22,0.07,0.32c0.03,0.08-0.01,0.19,0.08,0.25c0,0,0,0.01,0,0.01c0.01,0.09-0.26,0.38-0.36,0.39
			c-0.04,0-0.07-0.02-0.09-0.05c-0.05-0.06-0.09-0.14-0.12-0.21c-0.03-0.07-0.06-0.07-0.1-0.02c-0.05,0.05-0.09,0.1-0.15,0.13
			c-0.06,0.02-0.1,0.03-0.13-0.05c-0.02-0.05-0.04-0.1-0.04-0.16c-0.03-0.26-0.05-0.51-0.08-0.77c-0.03-0.21-0.06-0.42-0.1-0.62
			c-0.03-0.18-0.05-0.35-0.06-0.53c0-0.03-0.01-0.08,0.01-0.09c0.14-0.08,0.15-0.24,0.24-0.36c0.06-0.07,0.12-0.14,0.2-0.19
			c0.03-0.02,0.08-0.05,0.1-0.02c0.06,0.09,0.09,0.03,0.14-0.01c0.04-0.03,0.08-0.08,0.09,0.02c0,0.06,0.04,0.04,0.06,0.01
			c0.02-0.02,0.04-0.04,0.06-0.06C41.12,4.89,41.13,4.89,41.14,4.89"/>
		<path class="st0" d="M43.92,5.66c-0.03,0.49,0.02,0.98,0.14,1.46c0.01,0.03,0.01,0.05,0,0.07c-0.09,0.16-0.2,0.28-0.36,0.37
			c-0.12,0.06-0.22,0-0.32,0c-0.04,0-0.04-0.04-0.04-0.07c-0.05-0.24-0.08-0.48-0.08-0.72c0-0.41-0.04-0.82-0.04-1.24
			c0-0.25,0.12-0.42,0.32-0.56c0.03-0.02,0.07-0.04,0.1-0.07c0.05-0.05,0.1-0.1,0.14,0.02c0.01,0.04,0.04,0.01,0.06,0
			c0.08-0.04,0.11-0.01,0.11,0.08C43.91,5.23,43.92,5.45,43.92,5.66"/>
		<path class="st0" d="M43.28,4.52c-0.03-0.3,0.05-0.56,0.24-0.8c0.04-0.06,0.1-0.1,0.16-0.13c0.05-0.02,0.12-0.07,0.15,0.03
			c0,0.01,0.01,0.02,0.02,0.02c0.15-0.04,0.09,0.09,0.11,0.15C44,3.92,43.92,4.01,43.9,4.12c-0.05,0.22-0.19,0.39-0.31,0.56
			c-0.05,0.07-0.11,0.13-0.18,0.17c-0.08,0.05-0.12,0.03-0.12-0.06C43.28,4.7,43.28,4.61,43.28,4.52"/>
	</g>
	<g>
		<path class="st0" d="M30,7.5V4.15h0.56v1.32c0.09-0.1,0.2-0.18,0.31-0.23s0.25-0.09,0.41-0.09c0.13,0,0.24,0.03,0.35,0.08
			c0.1,0.05,0.2,0.13,0.27,0.23c0.08,0.1,0.13,0.22,0.18,0.37c0.04,0.15,0.06,0.31,0.06,0.5c0,0.17-0.02,0.33-0.07,0.48
			c-0.05,0.15-0.11,0.28-0.2,0.38c-0.09,0.11-0.19,0.19-0.31,0.25c-0.12,0.06-0.26,0.09-0.41,0.09c-0.07,0-0.14-0.01-0.19-0.02
			c-0.06-0.01-0.11-0.03-0.16-0.06c-0.05-0.03-0.09-0.06-0.13-0.09c-0.04-0.04-0.08-0.08-0.12-0.12L30.5,7.4
			c-0.01,0.04-0.02,0.07-0.05,0.08C30.43,7.5,30.4,7.5,30.37,7.5C30.37,7.5,30,7.5,30,7.5z M31.08,5.59c-0.12,0-0.21,0.02-0.3,0.07
			s-0.16,0.12-0.23,0.21V6.9c0.06,0.08,0.13,0.13,0.21,0.16c0.07,0.03,0.15,0.05,0.24,0.05c0.08,0,0.16-0.01,0.23-0.05
			c0.07-0.03,0.12-0.08,0.17-0.15c0.05-0.07,0.08-0.15,0.11-0.24c0.03-0.1,0.04-0.21,0.04-0.35c0-0.14-0.01-0.25-0.03-0.34
			c-0.02-0.09-0.05-0.17-0.09-0.23c-0.04-0.06-0.09-0.1-0.15-0.13C31.22,5.6,31.15,5.59,31.08,5.59z"/>
		<path class="st0" d="M33.31,8.14c-0.02,0.04-0.04,0.07-0.06,0.09c-0.03,0.02-0.07,0.03-0.12,0.03h-0.42l0.43-0.93l-0.94-2.14h0.49
			c0.04,0,0.08,0.01,0.1,0.03s0.04,0.04,0.05,0.07l0.49,1.2c0.02,0.04,0.03,0.08,0.04,0.12c0.01,0.04,0.02,0.08,0.03,0.13
			c0.01-0.04,0.03-0.09,0.04-0.13c0.01-0.04,0.03-0.08,0.05-0.12l0.47-1.2c0.01-0.03,0.03-0.05,0.06-0.07
			c0.03-0.02,0.06-0.03,0.09-0.03h0.45L33.31,8.14z"/>
	</g>
	<g>
		<path class="st0" d="M12.51,10.63C12.51,10.63,12.51,10.63,12.51,10.63c0.01,0,0.01,0,0.02,0C12.52,10.63,12.51,10.63,12.51,10.63
			 M9.96,1.4c-0.01,0-0.02,0-0.04,0C9.94,1.4,9.95,1.4,9.96,1.4C9.97,1.4,9.97,1.4,9.96,1.4 M18.75,0c-0.31-0.01-1.32,0-1.63,0
			c-0.97,0-1.95,0.05-2.92,0.15c-0.06-0.05-0.13-0.08-0.22-0.08c-0.1,0-0.18,0.04-0.23,0.12c-1.29,0.15-2.58,0.39-3.82,0.71h0h0
			C9.82,0.94,9.73,1.02,9.7,1.13c-0.04,0.11-0.02,0.21,0.05,0.3C9.8,1.5,9.88,1.54,9.96,1.54c0.03,0,0.06,0,0.09-0.01
			c1.14-0.29,2.31-0.51,3.5-0.66c-0.96,3.56-1.4,6.79-1.33,9.62c0,0.04,0.01,0.07,0.01,0.09c0.04,0.12,0.14,0.19,0.26,0.19
			c0.03,0,0.07-0.01,0.1-0.01c0.17-0.04,0.26-0.17,0.25-0.34c-0.07-2.8,0.39-6.05,1.37-9.64c0.96-0.1,1.94-0.15,2.89-0.15
			c0.29,0,1.29-0.01,1.58,0c0.01,0,0.03,0,0.04,0c0.03,0,0.06-0.01,0.09-0.02c0.14-0.05,0.22-0.16,0.21-0.32
			C19.03,0.12,18.93,0.01,18.75,0"/>
		<path class="st0" d="M24.79,7.29c-0.01,0-0.01,0-0.01,0c0.02,0,0.04,0,0.06,0C24.82,7.29,24.81,7.29,24.79,7.29 M24.64,7.26
			c-0.02-0.01-0.04-0.02-0.05-0.03C24.6,7.24,24.62,7.25,24.64,7.26 M21.22,7.38c0.03-0.01,0.06-0.02,0.08-0.04
			C21.28,7.35,21.25,7.37,21.22,7.38 M21.13,7.41c0.03-0.01,0.05-0.01,0.08-0.03C21.18,7.4,21.16,7.4,21.13,7.41 M21.04,7.43
			c0.03,0,0.05-0.01,0.08-0.01C21.09,7.42,21.06,7.43,21.04,7.43 M21.32,7.33c0.03-0.02,0.06-0.04,0.09-0.06
			C21.38,7.3,21.35,7.32,21.32,7.33 M20.97,7.43c0.02,0,0.04,0,0.06,0c-0.01,0-0.03,0-0.04,0C20.98,7.43,20.97,7.43,20.97,7.43
			 M20.78,7.38c-0.02-0.01-0.05-0.03-0.07-0.04C20.73,7.35,20.76,7.37,20.78,7.38 M17.28,7.38c0.03-0.01,0.06-0.02,0.08-0.04
			C17.33,7.35,17.31,7.37,17.28,7.38 M17.18,7.41c0.03-0.01,0.05-0.01,0.08-0.03C17.24,7.4,17.21,7.4,17.18,7.41 M17.09,7.43
			c0.03,0,0.05-0.01,0.08-0.01C17.14,7.42,17.12,7.43,17.09,7.43 M17.37,7.33c0.03-0.02,0.06-0.04,0.09-0.06
			C17.43,7.3,17.4,7.32,17.37,7.33 M17.02,7.43c0.02,0,0.04,0,0.06,0c-0.01,0-0.03,0-0.04,0C17.04,7.43,17.03,7.43,17.02,7.43
			 M16.83,7.38c-0.02-0.01-0.05-0.03-0.07-0.04C16.78,7.35,16.81,7.37,16.83,7.38 M16.33,6.87C16.27,6.92,16.21,6.96,16.15,7
			C16.21,6.96,16.27,6.91,16.33,6.87c0.05-0.04,0.09-0.07,0.13-0.11C16.42,6.79,16.37,6.83,16.33,6.87 M15.58,7.34
			c-0.03,0.01-0.07,0.03-0.1,0.04c-0.06,0.03-0.13,0.05-0.19,0.07c0.06-0.02,0.12-0.04,0.19-0.07C15.52,7.37,15.55,7.35,15.58,7.34
			c0.07-0.03,0.13-0.06,0.19-0.1C15.71,7.27,15.64,7.31,15.58,7.34 M14.79,7.52c0.03,0,0.05,0,0.08,0
			C14.84,7.52,14.82,7.52,14.79,7.52 M14.38,7.37c0.1,0.07,0.21,0.12,0.34,0.14C14.59,7.49,14.48,7.44,14.38,7.37 M14.13,7.07
			c0.04,0.07,0.08,0.14,0.14,0.2C14.21,7.21,14.17,7.15,14.13,7.07 M14.03,6.75C13.99,6.52,14,6.27,14.06,6.03
			c0.03-0.12,0.07-0.25,0.12-0.37c-0.05,0.12-0.09,0.25-0.12,0.37C14,6.27,13.99,6.51,14.03,6.75c0.01,0.06,0.02,0.12,0.04,0.17
			C14.05,6.87,14.04,6.81,14.03,6.75 M15.56,4.31c-0.02,0-0.04,0-0.06,0c0,0,0,0,0,0C15.52,4.3,15.54,4.3,15.56,4.31 M15.18,5.84
			c0.09-0.07,0.18-0.14,0.28-0.22C15.37,5.7,15.27,5.78,15.18,5.84 M14.95,4.53c0.03-0.02,0.05-0.04,0.08-0.06
			C15.01,4.49,14.98,4.51,14.95,4.53 M15.41,4.31c0.02,0,0.04,0,0.07-0.01C15.46,4.3,15.44,4.3,15.41,4.31 M15.33,4.33
			c0.02-0.01,0.04-0.01,0.06-0.01C15.37,4.32,15.35,4.32,15.33,4.33 M15.22,4.36c0.03-0.01,0.05-0.02,0.08-0.03
			C15.28,4.34,15.25,4.35,15.22,4.36 M15.14,4.4c0.02-0.01,0.05-0.03,0.07-0.04C15.19,4.38,15.17,4.39,15.14,4.4 M15.06,4.45
			c0.02-0.01,0.04-0.03,0.06-0.04C15.1,4.43,15.08,4.44,15.06,4.45 M15.47,4.72c0.01,0,0.03,0,0.04,0
			C15.5,4.72,15.48,4.72,15.47,4.72 M15.58,4.31c0.03,0,0.06,0.01,0.09,0.02C15.64,4.32,15.61,4.31,15.58,4.31 M15.13,4.95
			c0.15-0.14,0.28-0.21,0.39-0.21c0.01,0,0.03,0,0.05,0.01c0.05,0.01,0.07,0.01,0.08,0.02c-0.01,0.06-0.07,0.17-0.31,0.39
			c-0.2,0.18-0.44,0.38-0.73,0.58c0.03-0.08,0.07-0.16,0.12-0.23C14.84,5.27,14.98,5.09,15.13,4.95 M14.71,5.49
			c0.01-0.03,0.03-0.06,0.05-0.08C14.74,5.44,14.72,5.46,14.71,5.49c-0.05,0.09-0.1,0.19-0.14,0.29
			C14.61,5.68,14.65,5.59,14.71,5.49 M14.77,7.11c-0.04-0.01-0.08-0.02-0.11-0.04C14.69,7.09,14.72,7.1,14.77,7.11 M14.85,7.12
			c-0.02,0-0.04,0-0.07-0.01C14.8,7.12,14.82,7.12,14.85,7.12 M14.64,7.06c-0.02-0.01-0.03-0.02-0.05-0.04
			C14.61,7.03,14.62,7.05,14.64,7.06 M14.87,7.12c-0.01,0-0.02,0-0.03,0C14.86,7.12,14.86,7.12,14.87,7.12 M14.96,7.11
			c0.08-0.01,0.16-0.04,0.24-0.07C15.11,7.07,15.03,7.09,14.96,7.11c-0.02,0-0.04,0.01-0.06,0.01C14.92,7.11,14.94,7.11,14.96,7.11
			 M16.25,6.4c-0.09,0.07-0.17,0.14-0.27,0.2C16.07,6.53,16.16,6.47,16.25,6.4 M16.99,7.43c-0.02,0-0.03-0.01-0.05-0.01
			C16.96,7.42,16.97,7.43,16.99,7.43 M16.91,7.41c-0.02-0.01-0.03-0.01-0.05-0.02C16.87,7.4,16.89,7.4,16.91,7.41 M17.03,7.07
			c-0.01,0-0.01,0-0.01,0C17.02,7.07,17.02,7.07,17.03,7.07 M17.08,7.07c-0.01,0-0.01,0-0.02,0C17.07,7.07,17.07,7.07,17.08,7.07
			 M17.14,7.06c-0.01,0-0.02,0.01-0.02,0.01C17.12,7.06,17.13,7.06,17.14,7.06 M17.2,7.03c-0.01,0.01-0.02,0.01-0.03,0.01
			C17.18,7.04,17.19,7.03,17.2,7.03 M17.27,6.99C17.26,7,17.25,7,17.24,7.01C17.25,7,17.26,7,17.27,6.99 M17.34,6.94
			c-0.01,0.01-0.02,0.01-0.03,0.02C17.32,6.95,17.33,6.94,17.34,6.94 M17.42,6.87C17.42,6.88,17.41,6.88,17.42,6.87
			C17.42,6.88,17.42,6.87,17.42,6.87 M17.74,6.55c-0.01,0.02-0.03,0.03-0.04,0.05C17.71,6.58,17.73,6.57,17.74,6.55 M17.85,6.43
			c-0.01,0.02-0.03,0.04-0.05,0.05C17.82,6.46,17.83,6.45,17.85,6.43 M17.96,6.29c-0.02,0.02-0.03,0.04-0.05,0.06
			C17.93,6.33,17.94,6.31,17.96,6.29 M18.08,6.14c-0.02,0.02-0.03,0.04-0.05,0.06C18.05,6.19,18.06,6.17,18.08,6.14 M18.2,5.98
			c-0.02,0.02-0.03,0.04-0.05,0.06C18.17,6.03,18.19,6.01,18.2,5.98 M18.33,5.81c-0.01,0.02-0.03,0.04-0.04,0.06
			C18.3,5.85,18.32,5.83,18.33,5.81 M17.54,6.77c-0.01,0.01-0.02,0.02-0.03,0.03C17.52,6.78,17.52,6.78,17.54,6.77 M17.6,6.7
			c0.01-0.01,0.03-0.03,0.04-0.04C17.62,6.68,17.61,6.69,17.6,6.7 M20.6,0.7c-0.02,0.02-0.05,0.04-0.07,0.05
			C20.56,0.73,20.58,0.71,20.6,0.7 M20.85,0.57c0.02-0.01,0.04-0.01,0.05-0.01C20.88,0.57,20.86,0.57,20.85,0.57 M20.77,0.6
			c0.02-0.01,0.04-0.01,0.05-0.02C20.81,0.59,20.79,0.59,20.77,0.6 M20.97,0.56c-0.02,0-0.04,0-0.06,0
			C20.93,0.56,20.95,0.56,20.97,0.56C20.97,0.56,20.97,0.56,20.97,0.56 M21.04,0.56c-0.01,0-0.01,0-0.02,0
			C21.03,0.56,21.03,0.56,21.04,0.56 M20.69,0.64c0.02-0.01,0.04-0.02,0.07-0.03C20.74,0.61,20.72,0.63,20.69,0.64 M20.62,0.68
			c0.02-0.01,0.04-0.02,0.05-0.03C20.66,0.66,20.64,0.67,20.62,0.68 M19.1,4.59c0.17-0.65,0.41-1.31,0.72-1.97
			c0.36-0.78,0.69-1.3,0.98-1.54c0.04-0.03,0.07-0.05,0.09-0.07c-0.01,0.16-0.11,0.52-0.49,1.32C20.08,3.01,19.65,3.77,19.1,4.59
			 M19.32,7.3c-0.02-0.01-0.05-0.01-0.07-0.02C19.27,7.29,19.29,7.3,19.32,7.3 M19.33,7.31c0.02,0,0.05,0.01,0.07,0.01
			C19.38,7.31,19.36,7.31,19.33,7.31 M20.93,7.43c-0.02,0-0.03-0.01-0.05-0.01C20.9,7.42,20.92,7.43,20.93,7.43 M20.86,7.41
			c-0.02-0.01-0.03-0.01-0.05-0.02C20.82,7.4,20.84,7.4,20.86,7.41 M20.97,7.07c-0.01,0-0.01,0-0.01,0
			C20.97,7.07,20.97,7.07,20.97,7.07 M21.03,7.07c-0.01,0-0.01,0-0.02,0C21.01,7.07,21.02,7.07,21.03,7.07 M21.08,7.06
			c-0.01,0-0.02,0.01-0.02,0.01C21.07,7.06,21.08,7.06,21.08,7.06 M21.15,7.03c-0.01,0.01-0.02,0.01-0.03,0.01
			C21.13,7.04,21.14,7.03,21.15,7.03 M21.21,6.99C21.21,7,21.2,7,21.19,7.01C21.2,7,21.21,7,21.21,6.99 M21.29,6.94
			c-0.01,0.01-0.02,0.01-0.03,0.02C21.27,6.95,21.28,6.94,21.29,6.94 M21.37,6.87C21.36,6.88,21.36,6.88,21.37,6.87
			C21.36,6.88,21.36,6.87,21.37,6.87 M21.69,6.55c-0.01,0.02-0.03,0.03-0.04,0.05C21.66,6.58,21.67,6.57,21.69,6.55 M21.79,6.43
			c-0.01,0.02-0.03,0.04-0.05,0.05C21.76,6.46,21.78,6.45,21.79,6.43 M21.91,6.29c-0.02,0.02-0.03,0.04-0.05,0.06
			C21.88,6.33,21.89,6.31,21.91,6.29 M22.03,6.14c-0.02,0.02-0.03,0.04-0.05,0.06C21.99,6.19,22.01,6.17,22.03,6.14 M22.15,5.98
			c-0.02,0.02-0.03,0.04-0.05,0.06C22.12,6.03,22.13,6.01,22.15,5.98 M22.28,5.81c-0.01,0.02-0.03,0.04-0.04,0.06
			C22.25,5.85,22.27,5.83,22.28,5.81 M21.48,6.77c-0.01,0.01-0.02,0.02-0.03,0.03C21.46,6.78,21.47,6.78,21.48,6.77 M21.55,6.7
			c0.01-0.01,0.02-0.03,0.04-0.04C21.57,6.68,21.56,6.69,21.55,6.7 M24.55,0.7c-0.02,0.02-0.05,0.04-0.07,0.05
			C24.5,0.73,24.53,0.71,24.55,0.7 M24.79,0.57c0.02-0.01,0.04-0.01,0.05-0.01C24.83,0.57,24.81,0.57,24.79,0.57 M24.72,0.6
			c0.02-0.01,0.04-0.01,0.05-0.02C24.76,0.59,24.74,0.59,24.72,0.6 M24.92,0.56c-0.02,0-0.04,0-0.06,0
			C24.88,0.56,24.9,0.56,24.92,0.56C24.91,0.56,24.92,0.56,24.92,0.56 M24.99,0.56c-0.01,0-0.01,0-0.02,0
			C24.97,0.56,24.98,0.56,24.99,0.56 M24.64,0.64c0.02-0.01,0.04-0.02,0.07-0.03C24.69,0.61,24.66,0.63,24.64,0.64 M24.57,0.68
			c0.02-0.01,0.04-0.02,0.05-0.03C24.61,0.66,24.59,0.67,24.57,0.68 M23.05,4.59c0.17-0.65,0.41-1.31,0.72-1.97
			c0.36-0.78,0.69-1.3,0.98-1.54c0.04-0.03,0.07-0.05,0.09-0.07c-0.01,0.16-0.11,0.52-0.49,1.32C24.03,3.01,23.59,3.77,23.05,4.59
			 M23.26,7.3c-0.02-0.01-0.05-0.01-0.07-0.02C23.22,7.29,23.24,7.3,23.26,7.3 M23.28,7.31c0.02,0,0.05,0.01,0.07,0.01
			C23.33,7.31,23.3,7.31,23.28,7.31 M25.19,4.63c-0.01,0-0.02,0.01-0.04,0.01C25.16,4.64,25.17,4.63,25.19,4.63 M25.22,4.63
			c-0.01,0-0.01,0-0.02,0C25.2,4.63,25.21,4.63,25.22,4.63C25.22,4.63,25.22,4.63,25.22,4.63 M25.25,4.63c0,0-0.01,0-0.01,0
			C25.25,4.63,25.25,4.63,25.25,4.63 M24.69,7.28c-0.01,0-0.03-0.01-0.04-0.01C24.67,7.27,24.68,7.28,24.69,7.28 M24.75,7.29
			c-0.01,0-0.03,0-0.04-0.01C24.73,7.29,24.74,7.29,24.75,7.29 M26.82,4.96c-0.01,0-0.01,0-0.02,0C26.8,4.96,26.81,4.96,26.82,4.96
			 M26.77,4.96c0,0,0.01,0,0.01,0c-0.01,0-0.02,0-0.03,0C26.75,4.96,26.76,4.96,26.77,4.96 M26.83,4.97c0.01,0,0.01,0.01,0.02,0.01
			C26.85,4.97,26.84,4.97,26.83,4.97 M26.87,4.98C26.88,4.99,26.89,4.99,26.9,5C26.89,4.99,26.88,4.99,26.87,4.98 M23.72,11.92
			c-0.01,0-0.01,0-0.02,0C23.7,11.92,23.71,11.92,23.72,11.92 M23.6,11.91C23.6,11.9,23.59,11.9,23.6,11.91
			C23.59,11.9,23.6,11.91,23.6,11.91 M23.65,11.92C23.65,11.92,23.65,11.92,23.65,11.92C23.65,11.92,23.65,11.92,23.65,11.92
			 M23.6,11.83c-0.11-0.09-0.13-0.28-0.07-0.57c0.07-0.38,0.27-0.84,0.57-1.35c0.31-0.52,0.71-1.05,1.21-1.59
			c0.46-0.5,0.94-0.92,1.44-1.25c-0.06,0.54-0.17,1.04-0.35,1.48c-0.19,0.51-0.46,1.01-0.79,1.52c-0.34,0.5-0.68,0.92-1.01,1.24
			c-0.33,0.31-0.61,0.5-0.83,0.55c-0.03,0.01-0.06,0.01-0.08,0.01C23.64,11.85,23.62,11.85,23.6,11.83 M27.87,6.01
			c-0.01,0-0.02,0-0.03,0.01C27.85,6.01,27.86,6.01,27.87,6.01 M27.9,6c-0.01,0-0.01,0-0.02,0C27.89,6,27.89,6,27.9,6
			C27.9,6,27.9,6,27.9,6 M27.94,6.01c0,0-0.01,0-0.01,0C27.93,6.01,27.94,6.01,27.94,6.01 M28.14,6.1C28.11,6.03,28.07,5.99,28,5.96
			c-0.04-0.01-0.07-0.02-0.11-0.02c-0.03,0-0.05,0-0.08,0.01c-0.18,0.06-0.36,0.14-0.54,0.23c-0.01-0.64-0.12-1.04-0.33-1.23
			c-0.05-0.04-0.11-0.06-0.18-0.06c-0.01,0-0.02,0-0.03,0c-0.09,0.01-0.19,0.06-0.3,0.18c-0.1,0.1-0.27,0.31-0.53,0.62
			c-0.74,0.92-0.98,1.13-1.06,1.17c-0.01-0.05-0.03-0.2,0.09-0.62c0.11-0.41,0.28-0.86,0.5-1.33c0.04-0.06,0.04-0.12,0.01-0.19
			c-0.02-0.07-0.07-0.11-0.13-0.14c-0.03-0.01-0.07-0.02-0.1-0.02c-0.03,0-0.06,0.01-0.09,0.02c-0.07,0.02-0.11,0.07-0.14,0.12
			c-0.15,0.32-0.29,0.67-0.42,1.04c-0.11,0.33-0.18,0.6-0.2,0.83c0,0-0.01,0.01-0.01,0.01L24.34,6.6V6.6c0,0-0.01,0.01-0.01,0.01
			c-0.01,0.01-0.03,0.04-0.06,0.08c-0.03,0.04-0.06,0.07-0.09,0.1c-0.03,0.03-0.07,0.07-0.12,0.12C24.02,6.96,23.97,7,23.93,7.03
			c-0.04,0.03-0.1,0.07-0.17,0.1c-0.06,0.04-0.12,0.06-0.17,0.07c-0.06,0.01-0.12,0.03-0.19,0.03c-0.01,0-0.03,0-0.04,0
			c-0.05,0-0.09-0.01-0.13-0.02l0,0l0,0c-0.18-0.05-0.3-0.21-0.37-0.5c-0.05-0.25-0.06-0.56-0.02-0.93
			c0.03-0.04,0.06-0.09,0.11-0.15c0.69-0.96,1.28-1.94,1.77-2.9c0.5-0.99,0.7-1.63,0.6-1.96c-0.04-0.12-0.11-0.21-0.22-0.26h0h0
			c-0.05-0.02-0.11-0.03-0.17-0.03c-0.15,0-0.31,0.07-0.48,0.21c-0.39,0.33-0.82,1.02-1.26,2.05c-0.44,1.02-0.72,1.98-0.82,2.85
			c-0.89,1.22-1.23,1.41-1.36,1.41c-0.01,0-0.02,0-0.03-0.01c-0.08-0.09-0.08-0.23,0-0.44c0.09-0.24,0.25-0.47,0.46-0.68
			c0.28-0.28,0.39-0.31,0.42-0.31c0.07,0,0.13-0.02,0.18-0.07c0.05-0.05,0.07-0.11,0.07-0.18c0-0.07-0.02-0.12-0.07-0.18
			c-0.05-0.05-0.11-0.07-0.18-0.07c-0.23,0-0.47,0.14-0.76,0.44c-0.27,0.28-0.47,0.58-0.58,0.87c-0.02,0.05-0.04,0.1-0.05,0.15
			c-0.01,0.01-0.03,0.03-0.04,0.04L20.39,6.6V6.6c0,0-0.01,0.01-0.01,0.01c-0.01,0.01-0.03,0.04-0.06,0.08
			c-0.03,0.04-0.06,0.07-0.09,0.1c-0.03,0.03-0.07,0.07-0.12,0.12C20.07,6.96,20.02,7,19.98,7.03c-0.05,0.03-0.1,0.07-0.17,0.1
			c-0.06,0.04-0.12,0.06-0.17,0.07c-0.06,0.01-0.12,0.03-0.19,0.03c-0.01,0-0.03,0-0.04,0c-0.05,0-0.09-0.01-0.13-0.02l0,0l0,0
			c-0.18-0.05-0.3-0.21-0.37-0.5c-0.05-0.25-0.06-0.56-0.02-0.93c0.03-0.04,0.06-0.09,0.11-0.15c0.69-0.96,1.28-1.94,1.77-2.9
			c0.5-0.99,0.7-1.63,0.6-1.96c-0.04-0.12-0.11-0.21-0.22-0.26h0h0c-0.05-0.02-0.11-0.03-0.17-0.03c-0.15,0-0.31,0.07-0.48,0.21
			c-0.39,0.33-0.82,1.02-1.26,2.05c-0.44,1.02-0.72,1.98-0.82,2.85C17.51,6.82,17.17,7,17.04,7C17.03,7,17.02,7,17.01,7
			c-0.08-0.09-0.08-0.23,0-0.44c0.09-0.24,0.25-0.47,0.46-0.68c0.28-0.28,0.39-0.31,0.42-0.31c0.07,0,0.13-0.02,0.18-0.07
			c0.05-0.05,0.07-0.11,0.07-0.18s-0.02-0.12-0.07-0.18c-0.05-0.05-0.11-0.07-0.18-0.07c-0.22,0-0.47,0.14-0.76,0.44
			c-0.09,0.09-0.17,0.19-0.25,0.28c0,0-0.01,0.01-0.01,0.01c-0.12,0.12-0.25,0.25-0.4,0.38c-0.15,0.13-0.32,0.27-0.51,0.4
			s-0.36,0.25-0.53,0.33C15.26,7,15.1,7.06,14.95,7.09c-0.04,0.01-0.07,0.01-0.11,0.01c-0.1,0-0.18-0.03-0.24-0.09
			c-0.14-0.13-0.2-0.34-0.17-0.63c0.17-0.11,0.34-0.22,0.5-0.33c0.16-0.11,0.35-0.25,0.54-0.41c0.2-0.16,0.35-0.33,0.46-0.49
			c0.11-0.17,0.16-0.32,0.14-0.45c-0.03-0.19-0.17-0.32-0.41-0.38c-0.06-0.02-0.12-0.02-0.18-0.02c-0.19,0-0.37,0.08-0.56,0.23
			c-0.24,0.2-0.44,0.46-0.61,0.76c-0.13,0.25-0.23,0.5-0.29,0.74c-0.06,0.25-0.07,0.49-0.04,0.73c0.04,0.24,0.14,0.44,0.3,0.58
			c0.15,0.13,0.34,0.2,0.56,0.2c0.22,0,0.46-0.06,0.72-0.19c0.26-0.12,0.51-0.28,0.75-0.47c0.04-0.03,0.08-0.07,0.12-0.1
			c-0.01,0.24,0.06,0.43,0.23,0.59c0.01,0.02,0.03,0.03,0.04,0.03c0.1,0.07,0.2,0.1,0.31,0.1c0.14,0,0.3-0.06,0.46-0.17
			c0.24-0.17,0.53-0.46,0.87-0.87c0.01,0.13,0.02,0.25,0.05,0.36c0.1,0.47,0.34,0.77,0.71,0.87c0.1,0.03,0.2,0.04,0.31,0.04
			c0.15,0,0.3-0.03,0.45-0.09c0.15-0.06,0.27-0.13,0.37-0.2c0.09-0.06,0.17-0.14,0.25-0.22c0.03,0.05,0.08,0.1,0.13,0.15
			c0.01,0.02,0.03,0.03,0.04,0.03c0.1,0.07,0.2,0.1,0.31,0.1c0.14,0,0.3-0.06,0.46-0.17c0.24-0.17,0.53-0.46,0.87-0.87
			c0.01,0.13,0.02,0.25,0.05,0.36c0.1,0.47,0.34,0.77,0.71,0.87c0.1,0.03,0.21,0.04,0.31,0.04c0.15,0,0.3-0.03,0.45-0.09
			c0.15-0.06,0.27-0.13,0.37-0.2c0.09-0.07,0.18-0.15,0.27-0.23c0.02,0.03,0.04,0.05,0.07,0.07c0.07,0.06,0.16,0.09,0.25,0.09
			c0.02,0,0.03,0,0.05,0c0.12-0.02,0.26-0.09,0.43-0.23c0.16-0.13,0.31-0.28,0.45-0.44c0.14-0.16,0.34-0.4,0.57-0.69
			c0.18-0.22,0.31-0.39,0.4-0.49c0.06,0.22,0.09,0.54,0.08,0.95c-0.59,0.36-1.17,0.84-1.72,1.41c-0.56,0.59-1.02,1.18-1.37,1.76
			c-0.35,0.58-0.57,1.1-0.65,1.53c-0.09,0.47-0.02,0.82,0.23,1.04c0.11,0.1,0.25,0.15,0.41,0.15c0.06,0,0.13-0.01,0.2-0.02
			c0.3-0.07,0.65-0.3,1.04-0.67c0.39-0.36,0.76-0.82,1.11-1.35c0.35-0.53,0.63-1.06,0.84-1.6c0.23-0.6,0.37-1.27,0.41-1.98
			c0.24-0.13,0.48-0.23,0.72-0.32c0.04-0.01,0.08-0.04,0.11-0.07c0.03-0.03,0.04-0.07,0.05-0.11C28.15,6.19,28.15,6.15,28.14,6.1"/>
	</g>
	<g>
		<path class="st0" d="M4.22,4.06c-0.75,0-1.36,0.61-1.36,1.36v1.92c0,0.36,0.3,0.66,0.66,0.66h1.53c0.36,0,0.66-0.3,0.66-0.66V5.43
			c0-0.75-0.61-1.36-1.36-1.36H4.22z M5.05,8.35H3.52c-0.55,0-1-0.45-1-1V5.43c0-0.94,0.77-1.71,1.71-1.71h0.12
			c0.94,0,1.71,0.77,1.71,1.71v1.92C6.05,7.91,5.6,8.35,5.05,8.35"/>
		<path class="st0" d="M4.59,5.6H3.98c-0.22,0-0.4-0.18-0.4-0.4c0-0.22,0.18-0.39,0.4-0.39h0.61c0.22,0,0.4,0.18,0.4,0.39
			C4.98,5.42,4.8,5.6,4.59,5.6"/>
		<path class="st0" d="M0.97,2.44c-0.03,0-0.06-0.01-0.09-0.02C0.5,2.19,0.25,1.76,0.25,1.3c0-0.72,0.58-1.3,1.3-1.3
			C2.12,0,2.64,0.38,2.8,0.93c0.03,0.09-0.02,0.19-0.12,0.21C2.6,1.17,2.5,1.12,2.47,1.02c-0.12-0.4-0.5-0.68-0.92-0.68
			c-0.53,0-0.96,0.43-0.96,0.96c0,0.34,0.18,0.65,0.47,0.82c0.08,0.05,0.11,0.15,0.06,0.23C1.09,2.42,1.03,2.44,0.97,2.44"/>
		<path class="st0" d="M7.54,2.47c-0.06,0-0.12-0.03-0.15-0.09C7.35,2.3,7.38,2.19,7.46,2.15C7.77,1.98,7.97,1.66,7.97,1.3
			c0-0.53-0.43-0.96-0.96-0.96c-0.42,0-0.8,0.28-0.92,0.68C6.06,1.11,5.97,1.16,5.88,1.14C5.79,1.11,5.74,1.02,5.76,0.92
			C5.93,0.38,6.44,0,7.01,0c0.72,0,1.3,0.58,1.3,1.3c0,0.48-0.26,0.92-0.69,1.15C7.6,2.47,7.57,2.47,7.54,2.47"/>
		<path class="st0" d="M2.96,3.76c0,0.21-0.17,0.37-0.37,0.37S2.21,3.97,2.21,3.76c0-0.21,0.17-0.37,0.37-0.37
			C2.79,3.39,2.96,3.55,2.96,3.76"/>
		<path class="st0" d="M6.35,3.76c0,0.21-0.17,0.37-0.37,0.37c-0.21,0-0.37-0.17-0.37-0.37c0-0.21,0.17-0.37,0.37-0.37
			C6.18,3.39,6.35,3.55,6.35,3.76"/>
		<path class="st0" d="M5.15,6.55L5.15,6.55c-0.09,0-0.17,0-0.28,0c-0.07,0-0.16,0-0.28,0C4.11,6.55,4.11,6.19,4.11,6V5.55
			c0-0.09,0.08-0.17,0.17-0.17s0.17,0.08,0.17,0.17V6c0,0.2,0,0.2,0.14,0.2c0.12,0,0.21,0,0.28,0c0.11,0,0.18,0,0.28,0
			c0.09,0,0.17,0.08,0.17,0.17C5.32,6.47,5.25,6.55,5.15,6.55"/>
		<path class="st0" d="M3.41,6.55c-0.09,0-0.17-0.08-0.17-0.17c0-0.09,0.07-0.17,0.17-0.17c0.09,0,0.17,0,0.28,0
			c0.07,0,0.16,0,0.28,0c0.14,0,0.14,0,0.14-0.2V5.55c0-0.09,0.08-0.17,0.17-0.17c0.09,0,0.17,0.08,0.17,0.17V6
			c0,0.19,0,0.55-0.48,0.55c-0.12,0-0.21,0-0.28,0C3.58,6.55,3.51,6.54,3.41,6.55L3.41,6.55z"/>
		<path class="st0" d="M1.95,8.51C1.95,8.51,1.95,8.51,1.95,8.51c0.07,0.03,0.12,0.05,0.18,0.07c0,0,0.01,0,0.01,0
			c0.56,0.24,1.71,0.85,2.14,1.84c0.43-0.99,1.58-1.6,2.14-1.84c0,0,0.01,0,0.01,0c0.05-0.02,0.11-0.04,0.18-0.07c0,0,0,0,0,0
			c0,0,0,0,0.01,0c0.97-0.44,1.6-1.41,1.6-2.48V4.8c0-2.17-1.77-3.94-3.94-3.94S0.34,2.63,0.34,4.8v1.22
			C0.34,7.09,0.97,8.07,1.95,8.51C1.95,8.51,1.95,8.51,1.95,8.51 M4.28,11.4c-0.09,0-0.17-0.08-0.17-0.17c0-1.31-1.6-2.11-2.1-2.33
			C1.95,8.88,1.89,8.86,1.82,8.83l0,0c-0.01,0-0.02-0.01-0.03-0.01C0.7,8.31,0,7.22,0,6.03V4.8c0-2.36,1.92-4.28,4.28-4.28
			S8.56,2.44,8.56,4.8v1.22c0,1.2-0.7,2.28-1.79,2.78C6.77,8.81,6.76,8.82,6.75,8.82l0,0C6.68,8.85,6.61,8.88,6.56,8.9
			c-0.5,0.22-2.1,1.02-2.1,2.33C4.45,11.33,4.38,11.4,4.28,11.4"/>
	</g>
</g>
</svg>
