<?xml version="1.0" encoding="utf-8"?>
<!-- Generator: Adobe Illustrator 24.1.1, SVG Export Plug-In . SVG Version: 6.00 Build 0)  -->
<svg version="1.1" id="Calque_1" xmlns="http://www.w3.org/2000/svg" xmlns:xlink="http://www.w3.org/1999/xlink" x="0px" y="0px"
	 viewBox="0 0 28.1 12.4" style="enable-background:new 0 0 28.1 12.4;" xml:space="preserve">
<style type="text/css">
	.st0{fill:#161827;}
</style>
<g>
	<g>
		<path class="st0" d="M12.5,10.6L12.5,10.6C12.5,10.6,12.5,10.6,12.5,10.6C12.5,10.6,12.5,10.6,12.5,10.6 M10,1.4
			C9.9,1.4,9.9,1.4,10,1.4C9.9,1.4,9.9,1.4,10,1.4S10,1.4,10,1.4 M18.8,0c-0.3,0-1.3,0-1.6,0c-1,0-1.9,0-2.9,0.2
			c-0.1-0.1-0.1-0.1-0.2-0.1c-0.1,0-0.2,0-0.2,0.1c-1.3,0.2-2.6,0.4-3.8,0.7l0,0l0,0C9.8,0.9,9.7,1,9.7,1.1c0,0.1,0,0.2,0.1,0.3
			C9.8,1.5,9.9,1.5,10,1.5c0,0,0.1,0,0.1,0c1.1-0.3,2.3-0.5,3.5-0.7c-1,3.6-1.4,6.8-1.3,9.6c0,0,0,0.1,0,0.1c0,0.1,0.1,0.2,0.3,0.2
			c0,0,0.1,0,0.1,0c0.2,0,0.3-0.2,0.3-0.3c-0.1-2.8,0.4-6,1.4-9.6c1-0.1,1.9-0.1,2.9-0.1c0.3,0,1.3,0,1.6,0c0,0,0,0,0,0
			c0,0,0.1,0,0.1,0C19,0.6,19,0.5,19,0.3C19,0.1,18.9,0,18.8,0"/>
		<path class="st0" d="M24.8,7.3C24.8,7.3,24.8,7.3,24.8,7.3S24.8,7.3,24.8,7.3C24.8,7.3,24.8,7.3,24.8,7.3 M24.6,7.3
			C24.6,7.3,24.6,7.2,24.6,7.3C24.6,7.2,24.6,7.3,24.6,7.3 M21.2,7.4C21.3,7.4,21.3,7.4,21.2,7.4C21.3,7.4,21.3,7.4,21.2,7.4
			 M21.1,7.4C21.2,7.4,21.2,7.4,21.1,7.4C21.2,7.4,21.2,7.4,21.1,7.4 M21,7.4C21.1,7.4,21.1,7.4,21,7.4C21.1,7.4,21.1,7.4,21,7.4
			 M21.3,7.3C21.4,7.3,21.4,7.3,21.3,7.3C21.4,7.3,21.4,7.3,21.3,7.3 M21,7.4C21,7.4,21,7.4,21,7.4C21,7.4,21,7.4,21,7.4
			C21,7.4,21,7.4,21,7.4 M20.8,7.4C20.8,7.4,20.7,7.4,20.8,7.4C20.7,7.4,20.8,7.4,20.8,7.4 M17.3,7.4C17.3,7.4,17.3,7.4,17.3,7.4
			C17.3,7.4,17.3,7.4,17.3,7.4 M17.2,7.4C17.2,7.4,17.2,7.4,17.2,7.4C17.2,7.4,17.2,7.4,17.2,7.4 M17.1,7.4
			C17.1,7.4,17.1,7.4,17.1,7.4C17.1,7.4,17.1,7.4,17.1,7.4 M17.4,7.3C17.4,7.3,17.4,7.3,17.4,7.3C17.4,7.3,17.4,7.3,17.4,7.3
			 M17,7.4C17,7.4,17.1,7.4,17,7.4C17.1,7.4,17,7.4,17,7.4C17,7.4,17,7.4,17,7.4 M16.8,7.4C16.8,7.4,16.8,7.4,16.8,7.4
			C16.8,7.4,16.8,7.4,16.8,7.4 M16.3,6.9C16.3,6.9,16.2,7,16.1,7C16.2,7,16.3,6.9,16.3,6.9c0,0,0.1-0.1,0.1-0.1
			C16.4,6.8,16.4,6.8,16.3,6.9 M15.6,7.3c0,0-0.1,0-0.1,0c-0.1,0-0.1,0.1-0.2,0.1c0.1,0,0.1,0,0.2-0.1C15.5,7.4,15.6,7.4,15.6,7.3
			c0.1,0,0.1-0.1,0.2-0.1C15.7,7.3,15.6,7.3,15.6,7.3 M14.8,7.5C14.8,7.5,14.8,7.5,14.8,7.5C14.8,7.5,14.8,7.5,14.8,7.5 M14.4,7.4
			c0.1,0.1,0.2,0.1,0.3,0.1C14.6,7.5,14.5,7.4,14.4,7.4 M14.1,7.1c0,0.1,0.1,0.1,0.1,0.2C14.2,7.2,14.2,7.2,14.1,7.1 M14,6.8
			c0-0.2,0-0.5,0-0.7c0-0.1,0.1-0.3,0.1-0.4c-0.1,0.1-0.1,0.3-0.1,0.4C14,6.3,14,6.5,14,6.8c0,0.1,0,0.1,0,0.2
			C14.1,6.9,14,6.8,14,6.8 M15.6,4.3C15.5,4.3,15.5,4.3,15.6,4.3L15.6,4.3C15.5,4.3,15.5,4.3,15.6,4.3 M15.2,5.8
			c0.1-0.1,0.2-0.1,0.3-0.2C15.4,5.7,15.3,5.8,15.2,5.8 M14.9,4.5C15,4.5,15,4.5,14.9,4.5C15,4.5,15,4.5,14.9,4.5 M15.4,4.3
			C15.4,4.3,15.4,4.3,15.4,4.3C15.5,4.3,15.4,4.3,15.4,4.3 M15.3,4.3C15.4,4.3,15.4,4.3,15.3,4.3C15.4,4.3,15.4,4.3,15.3,4.3
			 M15.2,4.4C15.3,4.4,15.3,4.3,15.2,4.4C15.3,4.3,15.3,4.4,15.2,4.4 M15.1,4.4C15.2,4.4,15.2,4.4,15.1,4.4
			C15.2,4.4,15.2,4.4,15.1,4.4 M15.1,4.5C15.1,4.4,15.1,4.4,15.1,4.5C15.1,4.4,15.1,4.4,15.1,4.5 M15.5,4.7
			C15.5,4.7,15.5,4.7,15.5,4.7C15.5,4.7,15.5,4.7,15.5,4.7 M15.6,4.3C15.6,4.3,15.6,4.3,15.6,4.3C15.6,4.3,15.6,4.3,15.6,4.3
			 M15.1,5c0.1-0.1,0.3-0.2,0.4-0.2c0,0,0,0,0.1,0c0.1,0,0.1,0,0.1,0c0,0.1-0.1,0.2-0.3,0.4c-0.2,0.2-0.4,0.4-0.7,0.6
			c0-0.1,0.1-0.2,0.1-0.2C14.8,5.3,15,5.1,15.1,5 M14.7,5.5C14.7,5.5,14.7,5.4,14.7,5.5C14.7,5.4,14.7,5.5,14.7,5.5
			c-0.1,0.1-0.1,0.2-0.1,0.3C14.6,5.7,14.6,5.6,14.7,5.5 M14.8,7.1c0,0-0.1,0-0.1,0C14.7,7.1,14.7,7.1,14.8,7.1 M14.9,7.1
			C14.8,7.1,14.8,7.1,14.9,7.1C14.8,7.1,14.8,7.1,14.9,7.1 M14.6,7.1C14.6,7.1,14.6,7,14.6,7.1C14.6,7,14.6,7.1,14.6,7.1 M14.9,7.1
			C14.9,7.1,14.8,7.1,14.9,7.1C14.9,7.1,14.9,7.1,14.9,7.1 M15,7.1c0.1,0,0.2,0,0.2-0.1C15.1,7.1,15,7.1,15,7.1
			C14.9,7.1,14.9,7.1,15,7.1C14.9,7.1,14.9,7.1,15,7.1 M16.3,6.4c-0.1,0.1-0.2,0.1-0.3,0.2C16.1,6.5,16.2,6.5,16.3,6.4 M17,7.4
			C17,7.4,17,7.4,17,7.4C17,7.4,17,7.4,17,7.4 M16.9,7.4C16.9,7.4,16.9,7.4,16.9,7.4C16.9,7.4,16.9,7.4,16.9,7.4 M17,7.1
			C17,7.1,17,7.1,17,7.1C17,7.1,17,7.1,17,7.1 M17.1,7.1C17.1,7.1,17.1,7.1,17.1,7.1C17.1,7.1,17.1,7.1,17.1,7.1 M17.1,7.1
			C17.1,7.1,17.1,7.1,17.1,7.1C17.1,7.1,17.1,7.1,17.1,7.1 M17.2,7C17.2,7,17.2,7,17.2,7C17.2,7,17.2,7,17.2,7 M17.3,7
			C17.3,7,17.3,7,17.3,7C17.3,7,17.3,7,17.3,7 M17.3,6.9C17.3,7,17.3,7,17.3,6.9C17.3,7,17.3,6.9,17.3,6.9 M17.4,6.9
			C17.4,6.9,17.4,6.9,17.4,6.9C17.4,6.9,17.4,6.9,17.4,6.9 M17.7,6.6C17.7,6.6,17.7,6.6,17.7,6.6C17.7,6.6,17.7,6.6,17.7,6.6
			 M17.9,6.4C17.8,6.5,17.8,6.5,17.9,6.4C17.8,6.5,17.8,6.5,17.9,6.4 M18,6.3C17.9,6.3,17.9,6.3,18,6.3C17.9,6.3,17.9,6.3,18,6.3
			 M18.1,6.1C18.1,6.2,18,6.2,18.1,6.1C18,6.2,18.1,6.2,18.1,6.1 M18.2,6C18.2,6,18.2,6,18.2,6C18.2,6,18.2,6,18.2,6 M18.3,5.8
			C18.3,5.8,18.3,5.9,18.3,5.8C18.3,5.9,18.3,5.8,18.3,5.8 M17.5,6.8C17.5,6.8,17.5,6.8,17.5,6.8C17.5,6.8,17.5,6.8,17.5,6.8
			 M17.6,6.7C17.6,6.7,17.6,6.7,17.6,6.7C17.6,6.7,17.6,6.7,17.6,6.7 M20.6,0.7C20.6,0.7,20.6,0.7,20.6,0.7
			C20.6,0.7,20.6,0.7,20.6,0.7 M20.9,0.6C20.9,0.6,20.9,0.6,20.9,0.6C20.9,0.6,20.9,0.6,20.9,0.6 M20.8,0.6
			C20.8,0.6,20.8,0.6,20.8,0.6C20.8,0.6,20.8,0.6,20.8,0.6 M21,0.6C20.9,0.6,20.9,0.6,21,0.6C20.9,0.6,21,0.6,21,0.6L21,0.6 M21,0.6
			C21,0.6,21,0.6,21,0.6C21,0.6,21,0.6,21,0.6 M20.7,0.6C20.7,0.6,20.7,0.6,20.7,0.6C20.7,0.6,20.7,0.6,20.7,0.6 M20.6,0.7
			C20.6,0.7,20.7,0.7,20.6,0.7C20.7,0.7,20.6,0.7,20.6,0.7 M19.1,4.6c0.2-0.7,0.4-1.3,0.7-2c0.4-0.8,0.7-1.3,1-1.5
			c0,0,0.1,0,0.1-0.1c0,0.2-0.1,0.5-0.5,1.3C20.1,3,19.6,3.8,19.1,4.6 M19.3,7.3C19.3,7.3,19.3,7.3,19.3,7.3
			C19.3,7.3,19.3,7.3,19.3,7.3 M19.3,7.3C19.4,7.3,19.4,7.3,19.3,7.3C19.4,7.3,19.4,7.3,19.3,7.3 M20.9,7.4
			C20.9,7.4,20.9,7.4,20.9,7.4C20.9,7.4,20.9,7.4,20.9,7.4 M20.9,7.4C20.8,7.4,20.8,7.4,20.9,7.4C20.8,7.4,20.8,7.4,20.9,7.4
			 M21,7.1C21,7.1,21,7.1,21,7.1C21,7.1,21,7.1,21,7.1 M21,7.1C21,7.1,21,7.1,21,7.1C21,7.1,21,7.1,21,7.1 M21.1,7.1
			C21.1,7.1,21.1,7.1,21.1,7.1C21.1,7.1,21.1,7.1,21.1,7.1 M21.1,7C21.1,7,21.1,7,21.1,7C21.1,7,21.1,7,21.1,7 M21.2,7
			C21.2,7,21.2,7,21.2,7C21.2,7,21.2,7,21.2,7 M21.3,6.9C21.3,7,21.3,7,21.3,6.9C21.3,7,21.3,6.9,21.3,6.9 M21.4,6.9
			C21.4,6.9,21.4,6.9,21.4,6.9C21.4,6.9,21.4,6.9,21.4,6.9 M21.7,6.6C21.7,6.6,21.7,6.6,21.7,6.6C21.7,6.6,21.7,6.6,21.7,6.6
			 M21.8,6.4C21.8,6.5,21.8,6.5,21.8,6.4C21.8,6.5,21.8,6.5,21.8,6.4 M21.9,6.3C21.9,6.3,21.9,6.3,21.9,6.3
			C21.9,6.3,21.9,6.3,21.9,6.3 M22,6.1C22,6.2,22,6.2,22,6.1C22,6.2,22,6.2,22,6.1 M22.1,6C22.1,6,22.1,6,22.1,6
			C22.1,6,22.1,6,22.1,6 M22.3,5.8C22.3,5.8,22.3,5.9,22.3,5.8C22.3,5.9,22.3,5.8,22.3,5.8 M21.5,6.8C21.5,6.8,21.5,6.8,21.5,6.8
			C21.5,6.8,21.5,6.8,21.5,6.8 M21.5,6.7C21.6,6.7,21.6,6.7,21.5,6.7C21.6,6.7,21.6,6.7,21.5,6.7 M24.5,0.7
			C24.5,0.7,24.5,0.7,24.5,0.7C24.5,0.7,24.5,0.7,24.5,0.7 M24.8,0.6C24.8,0.6,24.8,0.6,24.8,0.6C24.8,0.6,24.8,0.6,24.8,0.6
			 M24.7,0.6C24.7,0.6,24.8,0.6,24.7,0.6C24.8,0.6,24.7,0.6,24.7,0.6 M24.9,0.6C24.9,0.6,24.9,0.6,24.9,0.6
			C24.9,0.6,24.9,0.6,24.9,0.6C24.9,0.6,24.9,0.6,24.9,0.6 M25,0.6C25,0.6,25,0.6,25,0.6C25,0.6,25,0.6,25,0.6 M24.6,0.6
			C24.7,0.6,24.7,0.6,24.6,0.6C24.7,0.6,24.7,0.6,24.6,0.6 M24.6,0.7C24.6,0.7,24.6,0.7,24.6,0.7C24.6,0.7,24.6,0.7,24.6,0.7
			 M23,4.6c0.2-0.7,0.4-1.3,0.7-2c0.4-0.8,0.7-1.3,1-1.5c0,0,0.1,0,0.1-0.1c0,0.2-0.1,0.5-0.5,1.3C24,3,23.6,3.8,23,4.6 M23.3,7.3
			C23.2,7.3,23.2,7.3,23.3,7.3C23.2,7.3,23.2,7.3,23.3,7.3 M23.3,7.3C23.3,7.3,23.3,7.3,23.3,7.3C23.3,7.3,23.3,7.3,23.3,7.3
			 M25.2,4.6C25.2,4.6,25.2,4.6,25.2,4.6C25.2,4.6,25.2,4.6,25.2,4.6 M25.2,4.6C25.2,4.6,25.2,4.6,25.2,4.6
			C25.2,4.6,25.2,4.6,25.2,4.6L25.2,4.6 M25.3,4.6L25.3,4.6C25.3,4.6,25.3,4.6,25.3,4.6 M24.7,7.3C24.7,7.3,24.7,7.3,24.7,7.3
			C24.7,7.3,24.7,7.3,24.7,7.3 M24.8,7.3C24.7,7.3,24.7,7.3,24.8,7.3C24.7,7.3,24.7,7.3,24.8,7.3 M26.8,5C26.8,5,26.8,5,26.8,5
			C26.8,5,26.8,5,26.8,5 M26.8,5L26.8,5C26.8,5,26.8,5,26.8,5C26.8,5,26.8,5,26.8,5 M26.8,5C26.8,5,26.8,5,26.8,5
			C26.9,5,26.8,5,26.8,5 M26.9,5C26.9,5,26.9,5,26.9,5C26.9,5,26.9,5,26.9,5 M23.7,11.9C23.7,11.9,23.7,11.9,23.7,11.9
			C23.7,11.9,23.7,11.9,23.7,11.9 M23.6,11.9C23.6,11.9,23.6,11.9,23.6,11.9C23.6,11.9,23.6,11.9,23.6,11.9 M23.6,11.9L23.6,11.9
			L23.6,11.9 M23.6,11.8c-0.1-0.1-0.1-0.3-0.1-0.6c0.1-0.4,0.3-0.8,0.6-1.4c0.3-0.5,0.7-1.1,1.2-1.6c0.5-0.5,0.9-0.9,1.4-1.2
			c-0.1,0.5-0.2,1-0.4,1.5c-0.2,0.5-0.5,1-0.8,1.5c-0.3,0.5-0.7,0.9-1,1.2c-0.3,0.3-0.6,0.5-0.8,0.6C23.7,11.9,23.7,11.9,23.6,11.8
			C23.6,11.9,23.6,11.9,23.6,11.8 M27.9,6C27.9,6,27.9,6,27.9,6C27.9,6,27.9,6,27.9,6 M27.9,6C27.9,6,27.9,6,27.9,6
			C27.9,6,27.9,6,27.9,6L27.9,6 M27.9,6L27.9,6L27.9,6 M28.1,6.1C28.1,6,28.1,6,28,6c0,0-0.1,0-0.1,0c0,0,0,0-0.1,0
			c-0.2,0.1-0.4,0.1-0.5,0.2c0-0.6-0.1-1-0.3-1.2c0,0-0.1-0.1-0.2-0.1c0,0,0,0,0,0c-0.1,0-0.2,0.1-0.3,0.2c-0.1,0.1-0.3,0.3-0.5,0.6
			c-0.7,0.9-1,1.1-1.1,1.2c0-0.1,0-0.2,0.1-0.6c0.1-0.4,0.3-0.9,0.5-1.3c0-0.1,0-0.1,0-0.2c0-0.1-0.1-0.1-0.1-0.1c0,0-0.1,0-0.1,0
			s-0.1,0-0.1,0C25,4.6,25,4.7,25,4.7c-0.1,0.3-0.3,0.7-0.4,1c-0.1,0.3-0.2,0.6-0.2,0.8l0,0l0,0l0,0l0,0c0,0,0,0-0.1,0.1
			c0,0-0.1,0.1-0.1,0.1c0,0-0.1,0.1-0.1,0.1C24,7,24,7,23.9,7c0,0-0.1,0.1-0.2,0.1c-0.1,0-0.1,0.1-0.2,0.1c-0.1,0-0.1,0-0.2,0
			c0,0,0,0,0,0c0,0-0.1,0-0.1,0l0,0l0,0C23,7.2,22.9,7,22.9,6.7c0-0.3-0.1-0.6,0-0.9c0,0,0.1-0.1,0.1-0.2c0.7-1,1.3-1.9,1.8-2.9
			c0.5-1,0.7-1.6,0.6-2c0-0.1-0.1-0.2-0.2-0.3l0,0l0,0c0,0-0.1,0-0.2,0c-0.1,0-0.3,0.1-0.5,0.2c-0.4,0.3-0.8,1-1.3,2
			c-0.4,1-0.7,2-0.8,2.8C21.5,6.8,21.1,7,21,7c0,0,0,0,0,0c-0.1-0.1-0.1-0.2,0-0.4c0.1-0.2,0.3-0.5,0.5-0.7c0.3-0.3,0.4-0.3,0.4-0.3
			c0.1,0,0.1,0,0.2-0.1c0-0.1,0.1-0.1,0.1-0.2c0-0.1,0-0.1-0.1-0.2c0-0.1-0.1-0.1-0.2-0.1c-0.2,0-0.5,0.1-0.8,0.4
			c-0.3,0.3-0.5,0.6-0.6,0.9c0,0.1,0,0.1,0,0.2c0,0,0,0,0,0l0,0l0,0l0,0c0,0,0,0-0.1,0.1c0,0-0.1,0.1-0.1,0.1c0,0-0.1,0.1-0.1,0.1
			C20.1,7,20,7,20,7c0,0-0.1,0.1-0.2,0.1c-0.1,0-0.1,0.1-0.2,0.1c-0.1,0-0.1,0-0.2,0c0,0,0,0,0,0c0,0-0.1,0-0.1,0l0,0l0,0
			C19.1,7.2,19,7,18.9,6.7c0-0.3-0.1-0.6,0-0.9c0,0,0.1-0.1,0.1-0.2c0.7-1,1.3-1.9,1.8-2.9c0.5-1,0.7-1.6,0.6-2
			c0-0.1-0.1-0.2-0.2-0.3l0,0l0,0c0,0-0.1,0-0.2,0c-0.1,0-0.3,0.1-0.5,0.2c-0.4,0.3-0.8,1-1.3,2c-0.4,1-0.7,2-0.8,2.8
			C17.5,6.8,17.2,7,17,7c0,0,0,0,0,0c-0.1-0.1-0.1-0.2,0-0.4c0.1-0.2,0.3-0.5,0.5-0.7c0.3-0.3,0.4-0.3,0.4-0.3c0.1,0,0.1,0,0.2-0.1
			c0-0.1,0.1-0.1,0.1-0.2s0-0.1-0.1-0.2c0-0.1-0.1-0.1-0.2-0.1c-0.2,0-0.5,0.1-0.8,0.4C17,5.6,17,5.7,16.9,5.8l0,0
			c-0.1,0.1-0.3,0.3-0.4,0.4S16.1,6.5,16,6.6s-0.4,0.3-0.5,0.3c-0.2,0.1-0.3,0.1-0.5,0.2c0,0-0.1,0-0.1,0c-0.1,0-0.2,0-0.2-0.1
			c-0.1-0.1-0.2-0.3-0.2-0.6c0.2-0.1,0.3-0.2,0.5-0.3s0.4-0.3,0.5-0.4c0.2-0.2,0.4-0.3,0.5-0.5C16,5,16.1,4.8,16.1,4.7
			c0-0.2-0.2-0.3-0.4-0.4c-0.1,0-0.1,0-0.2,0c-0.2,0-0.4,0.1-0.6,0.2c-0.2,0.2-0.4,0.5-0.6,0.8C14.2,5.5,14.1,5.8,14,6
			c-0.1,0.3-0.1,0.5,0,0.7c0,0.2,0.1,0.4,0.3,0.6c0.1,0.1,0.3,0.2,0.6,0.2s0.5-0.1,0.7-0.2c0.3-0.1,0.5-0.3,0.8-0.5
			c0,0,0.1-0.1,0.1-0.1c0,0.2,0.1,0.4,0.2,0.6c0,0,0,0,0,0c0.1,0.1,0.2,0.1,0.3,0.1c0.1,0,0.3-0.1,0.5-0.2c0.2-0.2,0.5-0.5,0.9-0.9
			c0,0.1,0,0.3,0,0.4c0.1,0.5,0.3,0.8,0.7,0.9c0.1,0,0.2,0,0.3,0c0.1,0,0.3,0,0.5-0.1c0.1-0.1,0.3-0.1,0.4-0.2
			c0.1-0.1,0.2-0.1,0.3-0.2c0,0.1,0.1,0.1,0.1,0.2c0,0,0,0,0,0c0.1,0.1,0.2,0.1,0.3,0.1c0.1,0,0.3-0.1,0.5-0.2
			c0.2-0.2,0.5-0.5,0.9-0.9c0,0.1,0,0.3,0,0.4c0.1,0.5,0.3,0.8,0.7,0.9c0.1,0,0.2,0,0.3,0c0.1,0,0.3,0,0.5-0.1
			c0.1-0.1,0.3-0.1,0.4-0.2c0.1-0.1,0.2-0.2,0.3-0.2c0,0,0,0.1,0.1,0.1c0.1,0.1,0.2,0.1,0.3,0.1c0,0,0,0,0,0c0.1,0,0.3-0.1,0.4-0.2
			c0.2-0.1,0.3-0.3,0.5-0.4C25.8,6.5,26,6.3,26.3,6c0.2-0.2,0.3-0.4,0.4-0.5c0.1,0.2,0.1,0.5,0.1,0.9c-0.6,0.4-1.2,0.8-1.7,1.4
			c-0.6,0.6-1,1.2-1.4,1.8s-0.6,1.1-0.6,1.5c-0.1,0.5,0,0.8,0.2,1c0.1,0.1,0.3,0.1,0.4,0.1c0.1,0,0.1,0,0.2,0c0.3-0.1,0.6-0.3,1-0.7
			c0.4-0.4,0.8-0.8,1.1-1.4c0.4-0.5,0.6-1.1,0.8-1.6c0.2-0.6,0.4-1.3,0.4-2c0.2-0.1,0.5-0.2,0.7-0.3c0,0,0.1,0,0.1-0.1s0-0.1,0-0.1
			C28.1,6.2,28.1,6.2,28.1,6.1"/>
	</g>
	<g>
		<path class="st0" d="M4.2,4.1c-0.8,0-1.4,0.6-1.4,1.4v1.9C2.9,7.7,3.2,8,3.5,8H5c0.4,0,0.7-0.3,0.7-0.7V5.4c0-0.8-0.6-1.4-1.4-1.4
			L4.2,4.1L4.2,4.1z M5.1,8.4H3.5c-0.5,0-1-0.4-1-1V5.4c0-0.9,0.8-1.7,1.7-1.7h0.1c0.9,0,1.7,0.8,1.7,1.7v1.9
			C6.1,7.9,5.6,8.4,5.1,8.4"/>
		<path class="st0" d="M4.6,5.6H4c-0.2,0-0.4-0.2-0.4-0.4C3.6,5,3.8,4.8,4,4.8h0.6C4.8,4.8,5,5,5,5.2C5,5.4,4.8,5.6,4.6,5.6"/>
		<path class="st0" d="M1,2.4C0.9,2.4,0.9,2.4,1,2.4C0.5,2.2,0.3,1.8,0.3,1.3C0.3,0.6,0.8,0,1.5,0c0.6,0,1.1,0.4,1.3,0.9
			c0,0.1,0,0.2-0.1,0.2c-0.1,0-0.2,0-0.2-0.1C2.4,0.6,2,0.3,1.5,0.3c-0.5,0-1,0.4-1,1c0,0.3,0.2,0.6,0.5,0.8c0.1,0,0.1,0.2,0.1,0.2
			C1.1,2.4,1,2.4,1,2.4"/>
		<path class="st0" d="M7.5,2.5c-0.1,0-0.1,0-0.2-0.1c0-0.1,0-0.2,0.1-0.2C7.8,2,8,1.7,8,1.3c0-0.5-0.4-1-1-1C6.6,0.3,6.2,0.6,6.1,1
			c0,0.1-0.1,0.1-0.2,0.1C5.8,1.1,5.7,1,5.8,0.9C5.9,0.4,6.4,0,7,0c0.7,0,1.3,0.6,1.3,1.3C8.3,1.8,8.1,2.2,7.5,2.5
			C7.6,2.5,7.6,2.5,7.5,2.5"/>
		<path class="st0" d="M3,3.8C3,4,2.8,4.1,2.6,4.1S2.2,4,2.2,3.8s0.2-0.4,0.4-0.4C2.8,3.4,3,3.6,3,3.8"/>
		<path class="st0" d="M6.3,3.8C6.3,4,6.2,4.1,6,4.1C5.8,4.1,5.6,4,5.6,3.8c0-0.2,0.2-0.4,0.4-0.4C6.2,3.4,6.3,3.6,6.3,3.8"/>
		<path class="st0" d="M5.2,6.6L5.2,6.6c-0.1,0-0.2,0-0.3,0c-0.1,0-0.2,0-0.3,0C4.1,6.6,4.1,6.2,4.1,6V5.6c0-0.1,0.1-0.2,0.2-0.2
			s0.2,0.1,0.2,0.2V6c0,0.2,0,0.2,0.1,0.2c0.1,0,0.2,0,0.3,0c0.1,0,0.2,0,0.3,0c0.1,0,0.2,0.1,0.2,0.2C5.3,6.5,5.3,6.6,5.2,6.6"/>
		<path class="st0" d="M3.4,6.6c-0.1,0-0.2-0.1-0.2-0.2s0.1-0.2,0.2-0.2c0.1,0,0.2,0,0.3,0c0.1,0,0.2,0,0.3,0c0.1,0,0.1,0,0.1-0.2
			V5.6c0-0.1,0.1-0.2,0.2-0.2s0.2,0.1,0.2,0.2V6c0,0.2,0,0.6-0.5,0.6c-0.1,0-0.2,0-0.3,0C3.6,6.6,3.5,6.5,3.4,6.6L3.4,6.6z"/>
		<path class="st0" d="M2,8.5L2,8.5c0.1,0,0.1,0.1,0.2,0.1h0c0.6,0.2,1.7,0.9,2.1,1.8c0.4-1,1.6-1.6,2.1-1.8h0c0.1,0,0.1,0,0.2-0.1
			l0,0c0,0,0,0,0,0c1-0.4,1.6-1.4,1.6-2.5V4.8c0-2.2-1.8-3.9-3.9-3.9S0.3,2.6,0.3,4.8V6C0.3,7.1,1,8.1,2,8.5L2,8.5 M4.3,11.4
			c-0.1,0-0.2-0.1-0.2-0.2c0-1.3-1.6-2.1-2.1-2.3c-0.1,0-0.1,0-0.2-0.1l0,0c0,0,0,0,0,0C0.7,8.3,0,7.2,0,6V4.8
			c0-2.4,1.9-4.3,4.3-4.3s4.3,1.9,4.3,4.3V6c0,1.2-0.7,2.3-1.8,2.8c0,0,0,0,0,0l0,0c-0.1,0-0.1,0.1-0.2,0.1c-0.5,0.2-2.1,1-2.1,2.3
			C4.4,11.3,4.4,11.4,4.3,11.4"/>
	</g>
</g>
</svg>
