<?xml version="1.0" encoding="utf-8"?>
<!-- Generator: Adobe Illustrator 24.1.1, SVG Export Plug-In . SVG Version: 6.00 Build 0)  -->
<svg version="1.1" id="Calque_1" xmlns="http://www.w3.org/2000/svg" xmlns:xlink="http://www.w3.org/1999/xlink" x="0px" y="0px"
	 viewBox="0 0 667.3 682.5" style="enable-background:new 0 0 667.3 682.5;" xml:space="preserve">
<style type="text/css">
	.st0{fill:#464454;}
	.st1{fill:#7B9D95;}
	.st2{fill:#E46C0D;}
	.st3{fill:#006B5E;}
	.st4{fill:#407D72;}
	.st5{fill:#7D9E96;}
	.st6{fill:#4F847B;}
	.st7{fill:none;stroke:#898592;stroke-width:6.6118;stroke-linecap:round;stroke-linejoin:round;stroke-miterlimit:10;}
	.st8{opacity:0.7;fill:#FFFFFF;enable-background:new    ;}
	.st9{fill:none;stroke:#464454;stroke-width:2;stroke-linecap:round;stroke-linejoin:round;stroke-miterlimit:10;}
	.st10{fill:#FFFFFF;stroke:#464454;stroke-width:3;stroke-miterlimit:10;}
	.st11{fill:none;stroke:#464454;stroke-width:6;stroke-linecap:round;stroke-linejoin:round;stroke-miterlimit:10;}
	.st12{fill:#ACA9B2;}
	.st13{fill:none;stroke:#464454;stroke-width:2.7095;stroke-linecap:round;stroke-linejoin:round;stroke-miterlimit:10;}
	.st14{fill:none;stroke:#686472;stroke-width:2;stroke-linecap:round;stroke-linejoin:round;stroke-miterlimit:10;}
	.st15{fill:#C9C6CD;}
	.st16{fill:none;stroke:#464454;stroke-width:9;stroke-linecap:round;stroke-linejoin:round;stroke-miterlimit:10;}
	.st17{fill:none;stroke:#464454;stroke-width:2.0385;stroke-linecap:round;stroke-linejoin:round;stroke-miterlimit:10;}
	.st18{fill:none;stroke:#686472;stroke-width:1.7313;stroke-linecap:round;stroke-linejoin:round;stroke-miterlimit:10;}
	.st19{fill:#4A8278;}
	.st20{fill:none;stroke:#464454;stroke-width:2.034;stroke-linecap:round;stroke-linejoin:round;stroke-miterlimit:10;}
	.st21{opacity:0.5;fill:#E46C0D;enable-background:new    ;}
</style>
<g id="Calque_7">
</g>
<g id="Calque_3">
</g>
<g id="Calque_5">
</g>
<g id="Calque_2_1_">
</g>
<g id="Calque_6">
	<g>
		<path class="st0" d="M643.1,474.2c-0.3-3.5-1.1-6.9-4.5-10c-1.5,8.9-5.1,15.6-10.2,22.3c-3.4,4.5-13.9,14.6-18.7,17
			c3.2-8.4,2.2-16.6-1.5-24.2c-3.9-8.1-8.5-15.8-13.1-23.6c-3.5-5.9-11.7-17.9-12.3-17.7s1.2,17.4,3.6,24.6c1,2.8,1.9,5.5,2.7,8.4
			c2.7,10.6,7.1,20.5,13.4,29.6c4,5.7,2.8,12.1,2.6,18.9c-0.9-0.8-1.2-1-1.4-1.2c-2.9-3.4-11.7-12.8-12.1-13.2
			c-2.6-2.8-5.4-5.4-7.7-8.3c-4.8-5.9-7.3-12.9-9-21.2c-2.7,4.1-2.9,7.9-3.2,11.6c-1,12.6,2.1,23.6,13.2,31.2
			c4.1,2.8,8.2,5.7,12.1,8.9c3.3,2.7,5.6,6.3,5.1,10.7c-0.6,4.8-1.4,9.6-3.1,14.1c-1.9,5.1-6.2,16.9-6.8,17.4
			c-2.2-9.5-6.4-18.6-11.9-26.4c3.2-7.3,3.5-14.7-0.7-22.6c-0.4-0.7-1-1.3-1.3-1.6c-1,4.3-1.3,8.8-3.1,12.7c-0.5,1-1,2-1.5,2.9
			c-2.1-3.2-3.8-6.6-4.5-10.5c-0.2-0.9-0.5-1.7-0.9-3.2c-2.6,2.5-3.2,5.3-3.5,7.9c-0.5,5.6,0.2,10.9,2.1,15.9
			c-2.3,2.9-4.7,5.8-7,8.7c-0.3-1.9-0.2-3.6,0-5.4c0.4-6,2.7-11.9,1.8-18.1c-1.9-12.7-6-23.6-11.5-35.1c-0.1-0.3-1.6-4-1.7-1.6
			c0,2.4,0.1,10.5,0.3,15.6c0.2,4.1,0.1,8.3,0.9,12.3c1.3,6.4,3,12.8,6,18.7c1,2,1.9,4.3,1.9,6.5c0.1,5.3-0.2,10.6-0.4,16
			c0,0.2-0.1,0.6-0.2,1.3c-0.4-1.1-0.6-1.8-0.9-1.8c-0.2,0-0.3,0-0.5,0.2c-0.1-0.3-0.2-0.6-0.3-0.8c-1.6-5.2-4.5-9.3-8.6-13.2
			c-5.5-5.1-13.4-20.8-14.3-20.7c-0.9,0.2-1.1,4-1,5.9c0.6,12.3,5.1,22.8,14.8,30.8c1.9,1.6,3.6,3.5,5.2,5.4
			c-1.6,4.2-2.8,9.2-2.5,12.6c0.4,4.4,1.2,8.8,2.6,12.9c-0.2,0.7-0.4,1.4-0.6,2.2c0,0.1-0.3,0.1-0.5,0.3
			c-3.2-7.5-6.9-14.8-11.9-21.4c-2.4-3.1-3.8-6.9-5.7-10.4c-0.9-1.7-2.9-5.4-3.5-4.7s0.7,12.8,2.3,17.1c2.4,6.6,5.4,12.9,8.4,19.3
			c1.9,3.9,3.3,7.9,3.5,12.3c0.3,6.3-0.1,12.5-2.3,18.5c-2.9,7.9-2.4,15.9-0.5,23.9c0.4,1.9,1.2,7.4,3.7,6.3c2.5-1.1-1.5-7.2-1.8-10
			c-0.8-6.6,1-12.3,7-15.7c4.8-2.6,8.7-6.2,12.9-9.3c1.4-1,2.6-2.2,3.7-3.3c1.8,3.5,2.8,7.4,2.2,11.6c-0.8,5.5-1.2,11-1.1,16.5
			c0,4.1,0.4,8.4,2.7,12.3c2.9-1.9,0.7-4.6,1.5-7c1-2.9,3.5-6.2,5.4-8.5c3-3.8,6.5-7.2,10.2-10.3c5.3-4.3,7.9-10,8.9-16.4
			c0.7-4.1-0.2-8.1-3.2-12.5c-0.9,2.4-1.6,3.8-2.1,5.3c-1.1,3.2-3,5.7-5.3,8.1c-4.2,4.3-12.2,10.8-14.5,16.1
			c0.7-5.5,1.6-10.8,3.5-15.8c4.8-13.1,3.8-11.8,17.7-16.1c4.2-1.3,8.3-3.2,12.3-5.2c7.4-3.7,12.4-9.8,16.6-16.7
			c3.3-5.4,2.3-17,0.8-17.3s-3.4,6.3-11.8,12.2c-7.3,5.2-23.3,16.5-23.9,16.2c3.8-9.8,8.2-21,12.1-30.7c0.4-1,1.3-2.1,2.3-2.6
			c2.9-1.5,5.9-2.9,8.9-4c3.8-1.5,7.9-2.4,11.6-4.2c8.2-3.9,13.9-10.1,16.8-18.8c1.8-5.4,1.1-10.7-0.8-16.1
			c-0.9,0.5-2.3,7.4-14.2,15.1c-5.5,3.6-10.8,7.5-16.1,11.2c-0.8,0.5-1.7,1-2.7,1.7c0.9-5.9,1.9-11.5,2.5-17.1
			c1.4-13.7,1.3-13.1,12.7-15.5c9.5-2,16.3-7.1,20.5-15.7c1.5-3.1,2.9-6.3,3.4-9.6C643.6,482.2,643.4,478.1,643.1,474.2z
			 M589.3,624.1c-1.4-1.2-10.8,8.2-14.3,10.6c3.5-8.6,13.9-13.4,18-22c1.9,6.7-0.7,12.1-4.3,16.6c-3.2,4.1-10.8,11.9-14.3,12.7
			C576.1,635.4,590.7,625.3,589.3,624.1z M567.5,528.1c1,1.5,1.8,2.4,2.4,3.5c1,1.5,2,3,3,4.5c-1.1,1.9-2.4,3.8-3.7,5.6
			C567.8,537.5,567.1,533.1,567.5,528.1z M562.4,554.6c1.4-2.5,3.1-4.9,4.7-7.3c3.2-5,6.5-9.9,9.6-15c1.1-1.7,1.6-3.8,2.5-5.9
			c4.6,12.1-3,25.2-17.8,31.9C561.4,557.1,562,555.3,562.4,554.6z M581.7,560.5c-2.4-2.7-4.8-5.6-6.9-8.5c0.4-0.4,0.8-0.9,1.1-1.3
			C578.2,554.7,580.8,558.8,581.7,560.5z M566.2,557.9c2.2-1.1,4.4-2.4,6.3-3.9c2.3,3.3,4.6,6.6,7.1,9.8c-1.9,2.4-3.7,4.3-6,6.4
			c-3.4,3.1-6.8,6.2-10.1,9.4c-1.9-3.9-3.3-7.5-4.3-10.4C559.8,564.4,561.4,560.4,566.2,557.9z M568.4,593.3c1,2.1,1.7,4.2,2.2,6.3
			c-1,1.6-2.1,3-3.3,4.4c-1.3-4.4-3-8.9-4.7-12.8c1.3-0.6,2.6-1.2,3.9-1.8C567.2,590.7,567.8,592,568.4,593.3z M556.9,585.7
			c-0.2,0.2-0.5,0.5-0.9,0.8c0.2-0.6,0.3-1.2,0.5-1.7C556.7,585.1,556.8,585.4,556.9,585.7z M560.4,594.1c2.1,4.1,3.5,8.4,4.3,12.9
			c-0.7,0.7-1.5,1.4-2.2,2.1c-1-1.3-1.9-2.6-2.7-3.9c-1.8-2.9-3.3-5.9-4.5-9.1c1.3-1.3,2.9-2.3,4.5-3.2
			C560,593.2,560.1,593.6,560.4,594.1z M556.4,591.7c1.8-5.3,5.4-8.4,8.8-11.6c6-5.7,19.1-18.4,19.7-18.5
			c-0.4,7.7-3.2,15.4-9.3,20.3C570.2,586.3,563.9,589.3,556.4,591.7z M550.9,502c0.5-1,1.6,2,1.9,2.8c2.4,8.2,4.9,16.3,7,24.5
			c0.9,3.4,0.5,6.9-0.9,11.1C551.9,528.3,550.4,503,550.9,502z M557.8,580.2c0.3-2.1,0.6-4.2,0.8-6.3c1.2,2.3,2.4,4.6,3.6,6.9
			c-1,1-2.1,1.9-3.1,2.9c-0.5-1-1-1.9-1.5-2.7C557.7,580.8,557.8,580.5,557.8,580.2z M540.6,554.3c-6.9-9.4-7.7-21.4-7.1-21.6
			c0.6-0.2,2.6,5,3.5,6c2.8,3.4,5.3,7.2,8.6,10.1c4.2,3.7,6.8,8.1,8.4,13.3c0.6,1.9,1.1,3.7,1.7,5.8
			C553.1,566.8,542.5,557.4,540.6,554.3z M552,583.8c-0.6-4.2,0-8.4,1.5-12.7c0.4,0.4,0.8,0.8,1.2,1.2c1.4,1.5,2,3.1,1.5,5
			c-0.1,0.4-0.2,0.7-0.3,1.1c-0.1-0.1-0.1-0.1-0.2-0.1c-0.7,0.1-0.7,1.3-0.4,2.4c-0.7,2.8-1.4,5.7-2.2,8.5
			C552.6,587.5,552.3,585.7,552,583.8z M551.1,603.1c0.4-1.8,1.1-3.3,2-4.6c1.8,4.4,4.2,8.5,7.2,12.3c-4.7,3.9-9.9,7.3-14.8,11.1
			C547.2,615.5,549.6,609.5,551.1,603.1z M538.5,588.2c-2.3-5.1-4.2-10.4-6.1-15.7c-0.5-1.5-0.6-3.2-0.4-4.9
			c4.7,7.9,9.6,15.7,14,23.8c2.7,5,3.6,10.6,1.7,16.3c-0.2,0.6-0.4,1.1-0.7,1.7c-0.1,0.2-1.1,3.3-1.5-1.1
			C544.9,600.9,541.4,594.7,538.5,588.2z M569.7,618c0-0.8,0-1.7-0.1-2.6c0.5-0.8,0.9-1.6,1.4-2.4
			C570.7,614.6,570.2,616.3,569.7,618z M600.7,584.6c6.6-4.9,14.5-8,20.1-15.9c0.7,4.8,0,8.1-1.6,11c-7.1,12.5-23,23-33.9,22.4
			c2-1.8,3.5-3.6,5.3-4.6c4.4-2.4,8.9-4.5,13.4-6.5c4.1-1.8,10-7.9,9-9.1c-1-1.2-2.3,0.5-2.6,1.1c-1.8,3.6-5.1,4.9-8.4,6.5
			c-6,2.9-11.9,6.1-17.7,9.1c0.2-0.3,0.5-1.2,1.1-1.8C590.5,592.7,595.5,588.5,600.7,584.6z M584.5,589.7c-3.2,6.7-6,13.6-9,20.3
			c-0.3,0.8-1,1.4-1.5,2.1c0.3-2.7,0.3-5.3-0.1-7.8c0.6-2.6,0.9-5.4-1.5-8c-0.1,0.2-0.2,0.3-0.3,0.5c-1-2.9-2.3-5.6-3.8-8.3
			c1.4-0.7,2.8-1.4,4.1-2.2c5.4-3.3,9.7-7.2,12.2-12.2c0.5,1.7,1,3.5,1.4,5.3C587,583.4,586,586.4,584.5,589.7z M589.5,575.1
			c-0.2-3.5-1.1-6.6-2.3-9.7c0.1-0.9,0.1-1.8,0.1-2.8c0-2,0.4-4.7-2-6.3c-0.6,0.8-1.1,1.5-1.6,2.2c-1.4-2.3-2.8-4.6-4.2-6.9
			c-0.2-0.4-0.9-1.8-1.7-3.5c0.5-0.9,1.1-1.7,1.5-2.6c1.9,2.8,3.7,5.7,5.5,8.5c3.6,5.8,4.7,12.6,5.4,19.3
			C590.2,573.8,589.9,574.4,589.5,575.1z M589.3,512.7c3,2.8,6.8,4.8,8.4,8.9c0.2,0.6,0.4,1.2,1,2.9c-7-4.5-13.3-8.1-18-13.5
			c-3.9-4.4-5.9-10.1-6.4-16.1c-0.2-3.1,0-6.2,0.8-9.6c1.1,2,2.2,3.9,3.1,5.9c2.9,6.5,8.3,10.8,13.3,15.6c0.2,0.2,4.9,5.5,6.1,7.2
			c1.6,2.3,3.5,4.3,4.8,6.7c0.8,1.5,0.9,3.4,0.9,5.4c-3.2-9.5-16.4-20.8-18.5-19.5C582.6,507.7,587.4,511,589.3,512.7z M608.4,543.6
			c5.1-3.5,10.3-6.9,15.3-10.6c4-2.9,7.8-6,11.9-9.2c1.3,6.5-1.2,12-5.1,16.9c-4.3,5.4-10.2,8.8-16.6,11.1
			c-3.5,1.3-7.2,1.9-10.8,2.9c5.9-6.5,24.4-14.3,24.6-16.3c0.3-2-7.9,0.7-24.2,11.4C604.6,546.7,606.4,545,608.4,543.6z
			 M595.7,468.9c-1.7,0.3-0.3,3.6,0.3,4.8c1.9,4.1,5.6,13.5,7.3,17.6c0.8,1.8,1.2,3.8,1.7,5.8c-8.8-8.8-19.1-37.4-18.7-49.3
			c1,0.9,1.8,1.5,2.3,2.3c4,6.5,8,12.9,11.8,19.5c1.6,2.8,2.9,5.9,4.4,8.8c3,5.8,4.2,11.9,3.8,18.4
			C605.2,489.7,597.3,468.6,595.7,468.9z M613.7,509.5c2.3-1.5,4.5-3.1,6.9-4.3c5.7-2.9,15.8-14.7,14.4-15.5s-3.8,3.5-5.1,4.8
			c-4.2,4-7.6,7.7-12.7,10.2c-2.9,1.5-5.4,3.5-8.6,4.9c1.4-1.6,2.6-3.3,4.2-4.7c3.1-2.7,6.3-5.3,9.7-7.8
			c8.6-6.5,15.8-25.4,17.2-25.8C641.1,470.8,648.4,505.4,613.7,509.5z"/>
		<path class="st0" d="M205.2,556.1c-1-0.7-2.1-1-3.2-1c-1.2,0-2.3,0.4-3.3,1.1c-1.6,1.2-2.8,2.4-3.6,3.6
			c-5.8,9.8-15.7,11.7-26.2,13.8h-0.2c0.5-1.5,1-2.9,1.4-4.3c1.5-4.7,3-9.2,4.6-13.7c0.3-0.9,1.4-1.7,2.3-2.1
			c6.1-2.9,10.9-7.5,14.3-11.2c1.9-2.1,3.8-3.6,5.6-4.7c2.8-1.7,4.9-4.3,6.2-7.9c0.5-1.4,0.1-3.7-0.8-4.9c-0.7-0.8-2.2-0.9-2.9-0.9
			c-0.6,0-1.1,0.1-1.6,0.2c-1.4,0.3-3.2,1.4-3.7,2.6c-2.2,4.1-2.6,7.7-2.8,9.9c-0.1,0.9-0.2,1.7-0.3,1.9c-3.8,5-8.5,8.9-14.4,11.8
			c0-0.2,0-0.5,0-0.7c0-0.6,0-1.1,0.1-1.6c0.2-1.5,0.5-3,0.8-4.5c0.6-3.1,1.2-6.3,1.3-9.5c0.2-5.5-0.1-10.9-0.9-16.1
			c-0.5-3.1-3.9-5.6-6.4-5.6c-0.4,0-0.8,0.1-1.2,0.2c-0.8,0.3-1.4,1.1-1.8,2.2c-0.7,1.9-0.6,4.5,0.3,6.5c0.8,1.8,1.9,3.5,2.9,5.1
			c0.6,0.9,1.1,1.8,1.7,2.7c0.3,0.5,0.6,1,1,1.5c1.1,1.6,2.1,3,1.7,5c-0.6,3.4-1.3,6.9-1.9,10.4l-0.7,3.9c-3.8-2.2-9.2-9.5-9.8-13.2
			c-0.1-0.4-0.1-0.8-0.2-1.3c-0.5-3.5-1.3-8.3-4.5-8.3c-0.2,0-0.5,0-0.7,0.1c-1.3,0.3-2.1,1-2.5,2.1c-0.8,2.2,0.4,5.4,1.9,7.3
			c3.3,4.3,6.7,8.4,10.2,12.8c1.4,1.8,2.9,3.6,4.4,5.5l-7,19.5c-0.3-0.2-0.5-0.4-0.7-0.5c-0.5-0.3-0.8-0.6-1-0.8
			c-4.3-6.8-9.1-14.6-13.7-22.3c-0.5-0.8-0.6-2.1-0.2-3.1c1.5-4.4-0.4-8.3-2.1-11.7l-0.3-0.7c-0.6-1.3-2.2-3.6-4.2-3.6
			c-0.3,0-0.6,0.1-0.9,0.2c-2.3,0.9-2.6,5.2-2.3,6.6c0.6,2.6,1.7,4.6,2.8,6.6c0.4,0.8,0.9,1.6,1.3,2.5c1.8,3.7,4,7.2,6.2,10.6
			c0.5,0.8,1,1.5,1.4,2.3c0.8,1.2,1.5,2.5,2.2,3.7c2.8,4.7,5.6,9.6,10.1,13.3L153.4,596c-0.7-0.9-1.3-1.8-1.9-2.6
			c-1.4-2-2.6-3.7-3.8-5.4c-2.4-3.5-3.7-7.4-5-11.3c-0.6-1.9-1.3-3.9-2.1-5.8c-1-2.4-1.1-4.5-0.5-7.1c1.2-4.7,0.6-9.1-1.9-12.9
			c-0.8-1.2-1.9-1.8-3-1.8c-1.3,0-2.4,0.9-3,2.4c-0.6,1.6-0.8,3.5-0.5,5c0.5,2.5,1.5,5,2.6,7.7c1.5,3.7,3,7.3,4.6,10.9l0.9,2.1
			c0.4,1,0.9,2.1,1.3,3.1c1.2,2.8,2.4,5.7,3.8,8.4c1.3,2.6,2.9,5,4.4,7.4c0.6,1,1.2,1.9,1.8,2.8L137.8,623c-0.3-0.4-0.5-0.8-0.7-1.2
			c-0.5-0.8-0.8-1.3-1-1.9c-0.7-1.8-1.4-3.7-2.1-5.5c-1.9-5-3.8-10.1-5.4-15.3c-1.5-5.2-1.2-9.7,1.1-13.9c1.3-2.4,2-5.3,1.9-7.6
			c-0.1-2.2-1.1-3.5-3.2-4.3c-0.5-0.2-0.9-0.3-1.4-0.3c-1.2,0-2.3,0.6-3.4,2c-2.4,3-3.3,8.4-0.6,11.7c1.6,2.1,1.8,4.1,2,6.4l0.1,0.8
			c1.2,13.6,5.1,23.8,12,32.1c-0.4,0.9-0.8,1.8-1.2,2.7c-1,2.2-2,4.5-2.7,6.8c-1.1,3.8-1.8,7.5-2,10.9c0,0.4-0.1,0.8-0.1,1.3
			c-0.2,3.1-0.6,7.3,0.6,8.6c0.3,0.3,0.6,0.4,0.9,0.4c0.1,0,0.2,0,0.2,0c0.6-0.1,1.1-0.4,1.3-0.8c0.4-0.7,0.2-1.7-0.1-2.6
			c-0.1-0.4-0.2-0.8-0.3-1.2c-0.5-8.9,2.3-17,5.2-23.8c1.1-2.7,2.6-3.3,5.3-3.7l2.9-0.4c9.2-1.3,18.7-2.6,27.4-6.7
			c1.1-0.5,2.4-0.6,3.7-0.6h0.5c0.3,0,0.6,0,0.9,0c0.6,0,1.1,0,1.7,0s1.2,0,1.7,0c0.8,0,1.5,0,2.2-0.1c1.6-0.2,2.9-1,3.8-2.2
			c0.8-1.1,1.2-2.5,1-3.9c-0.4-2.2-2.2-3.8-4.5-3.8c-0.6,0-1.2,0.1-1.8,0.3c-2.8,0.9-5.3,2.3-6.9,4.1c-2.7,2.9-5.5,4.7-8.7,5.4
			c-3.4,0.8-7.1,1.5-11.5,2.4c-3,0.6-6.1,1.1-9.1,1.7l-2.3,0.4c-0.8,0.2-0.8,0.2-3.4,0.5h-0.1c1.9-3.4,3.7-6.9,5.4-10.2
			c1.2-2.3,2.3-4.6,3.5-6.7c2.1-3.9,5-5.6,9.1-5.6c0.5,0,1.1,0,1.7,0.1c1.2,0.1,2.4,0.2,3.6,0.2c4.7,0,9.7-0.9,15.9-2.7
			c1.6-0.5,3.3-0.7,5.1-0.7c1.1,0,2.3,0.1,3.6,0.3c1.1,0.1,2.3,0.3,3.5,0.3c1.4,0,2.5-0.2,3.5-0.6c1.9-0.7,3.9-2.8,4.4-4.6
			s-0.8-3.6-3.5-4.9c-1.3-0.6-2.6-0.9-3.9-0.9c-2.7,0-5,1.3-6.8,3.7c-2.8,3.8-6.4,4.7-10.5,5.5c-4.2,0.8-9.2,1.7-14.2,1.7
			c-1.9,0-3.8-0.1-5.6-0.4c0.1-0.2,0.1-0.5,0.2-0.7c0.2-0.7,0.4-1.3,0.7-1.8c0.7-1.2,1.4-2.4,2.1-3.6c0.9-1.5,1.9-3.1,2.7-4.7
			l0.1-0.2c4.2-7.8,4.2-7.8,13-10.1c0.3-0.1,0.5-0.1,0.8-0.2c0.6-0.1,1.1-0.2,1.7-0.5c1-0.4,2-0.8,3-1.2c2.9-1.1,5.8-2.3,8.6-3.7
			c2.3-1.2,4.2-2,6.5-2c0.1,0,0.3,0,0.4,0c0.3,0,0.5,0,0.8,0c1.8,0,3.7-0.2,5.8-0.7c2.3-0.5,3.9-2.2,4.4-4.9
			C208.1,559.7,207.3,557.5,205.2,556.1z"/>
		<g>
			<path class="st0" d="M99.6,563.4c-11.1-1.8-16.5-7.4-14.9-15.1c6.2,0.2,10.5,4.6,15.4,7.6c3.5-12,7-23.7,10.4-35.2
				c-1.7-2-4-4-5.4-6.5c-2.8-4.8-5.5-9.8-0.9-15.2c0.6-0.7,0.3-2,0.6-3c0.7-3,2.2-5.8,5.2-6.6c2.5-0.7,4.3-1.9,6-3.6
				c0.8-0.8,2-1.4,3.2-1.8c6.6-2.4,14,0.8,13.9,8.9c0,1.8,0.5,3.7,1.2,5.3c1.1,2.5,1.1,4.7-0.4,6.9c-0.8,1.1-1.6,2.2-2.3,3.2
				c1.7,3.6,1.7,4.4-1,6.2c-2.4,1.6-5.3,2.9-7.9,3.8c-6.7,2.2-10.5,5.1-12.4,11.4c-0.1,0.5-2.7,6.7-2.7,11
				c5.6-6.5,11.9-7.2,18.7-6.5c-1.2,8-8.1,12.2-20.9,12.6c-2.6,13.3-6.1,26.5-3.2,40.7c5.8-4.2,11-9.2,19.2-7.1
				c-3.2,9.1-10.7,10.6-18.8,11.9c2.6,12.5,5.2,24.8,7.8,37.5c5.3-4.9,11.3-6.5,17.8-6.2c1.5,2.4-0.5,5.8-1.5,7.6
				c-3.6,4.6-6,4.4-10.9,4.7c-1.7,0.1-3.4,0.1-5.3,0.1c0,3.6,0.4,6.9,0,10.1c-0.4,3.3-0.5,10.1-2.1,11c-1.7,0.9-2.1-2.3-1.9-1.3
				s3.5-18.4-1.2-41.4c-11.8,3.9-18.2,2.9-21.1-3.7c6.2-3.5,12.5-2.5,19.5-0.8C100.3,594.3,97.7,579,99.6,563.4z"/>
			<g>
				<path class="st1" d="M119,502.3c-3.9-1.8-4.3,5.7-6.1,9.1c-0.7-0.9-1.5-1.5-1.8-2.2c-0.9-2.2-1.5-4.5-2.6-6.7
					c-0.3-0.7-1.8-1.3-2.5-1.2c-0.6,0.1-1.3,1.5-1.4,2.3c-0.2,5,1.9,9.2,5.2,12.6c1.1,1.2,3.5,1.5,5.3,1.6
					c3.9,0.3,15.3-5.1,15.1-6.3c-0.3-2.4-4.7-1-6.9-0.4c-2.2,0.6-5.4,3.2-6.7,2.6C115.1,513.2,122.9,504.1,119,502.3z"/>
				<path class="st2" d="M129.1,506.5c3.6-1.6,4.5-6.7,1.6-8.9c-0.9-0.7-2.6-1.3-3.7-1c-2.2,0.6-4.3,1.9-6.3,2.8
					c3.1,3.7,2.7,6.5,1.5,9.4C124.5,508.1,126.9,507.5,129.1,506.5z"/>
				<path class="st2" d="M112.5,503.8c1-2.2,1.9-3.3,3.4-4.2c2-1.1,3.3-2.6,2.7-4.3c-0.7-1.7-2.4-3.2-4.1-4c-2-1-4.2-0.1-5.4,1.8
					c-0.9,1.4-1.2,3.1-1.7,4.4C109.5,498.7,110.7,499.9,112.5,503.8z"/>
				<path class="st2" d="M130,493.6c0.7-3.5,0.1-5.5-2-6.6c-4.2-2.2-7.4-1.7-10.8,1.9c3.4,1.8,4.1,3.4,4.9,6.4
					C124.8,493.6,126.9,492.5,130,493.6z"/>
				<path class="st3" d="M112,632.1c6.1,2.8,12.2-0.1,13.6-6.3C120.2,626.2,115.5,627.5,112,632.1z"/>
				<path class="st3" d="M122.7,537.2c-4.8-1.9-8.5-0.4-14.9,6.7C114.5,543.8,119,541.5,122.7,537.2z"/>
				<path class="st3" d="M99.6,559.8c-3.5-4-6.8-7-12.5-8C89.1,558.3,92.5,560.5,99.6,559.8z"/>
				<path class="st3" d="M105.4,588.1c4.9,0.5,9.4-1.9,11.7-6.2C112.2,582.2,108.9,585,105.4,588.1z"/>
				<path class="st3" d="M87.5,611.4c5.8,3.3,7.4,3.4,14.3,0.7C96.8,610.4,92.7,611.3,87.5,611.4z"/>
			</g>
		</g>
		<g>
			<path class="st0" d="M90.4,562.8c-1.3-2.1-3.1-3.1-5.9-3.1c-0.5,0-1.1,0-1.7,0.1c-4.2,0.5-6.6,3.1-8.6,5.8
				c-0.8,1.2-1.5,2.5-2.1,3.8c-0.2,0.4-0.4,0.8-0.6,1.2c-0.7-0.9-1.3-1.9-2-2.8c-1.9-2.7-3.7-5.2-5.6-7.6c-1-1.3-2.6-2.5-4.4-3.4
				c-1-0.5-2.5-1.1-3.9-1.1c-1,0-1.7,0.3-2.1,1c-1,1.4-1.1,3.4-0.4,5.7c0.3,1,0.8,2.1,1.4,3.1c2.6,4.7,6.3,8,10.9,9.8
				c2.4,0.9,3.6,2.6,4,5.4l0.1,0.7c0.3,2.4,0.8,5.8-0.4,9.8c-0.9-0.7-1.8-1.7-2.7-2.6c-1.5-1.6-2.8-3.1-4.3-3.1
				c-0.3,0-0.5,0.1-0.8,0.2c-0.7,0.3-1.2,0.7-1.4,1.3c-0.5,1.3,0.3,2.9,0.8,4.1l0.1,0.3c1.5,3.3,4.8,4.4,7.2,4.8l-1.2,25.4l-0.3-0.3
				c-0.7-0.6-1.4-1.1-2.1-1.6c-0.2-0.2-0.4-0.3-0.6-0.5c-0.6-0.4-1.1-0.9-1.8-1.3c-0.7-0.4-1.3-0.6-2-0.6c-1,0-1.9,0.5-2.5,1.6
				c-1.1,1.8,0.5,3.1,1.2,3.7c0.7,0.6,1.6,1,2.4,1.4l0.2,0.1c0.5,0.2,1,0.4,1.6,0.6c0.9,0.3,1.8,0.7,2.6,1.2
				c1.2,0.8,2.1,1.9,2.4,2.8c0.6,2,1,4.1,1.4,6.1c0.2,0.9,0.4,1.9,0.6,2.8c1.2,5.6,4.3,13.7,8.3,19.1c1,1.4,1.8,2.1,2.5,2.1
				c0.4,0,0.8-0.3,0.9-0.8c0.1-0.2-0.1-0.6-1.1-2.7c-3-6.6-12.2-26.6-10.9-46c0.8-0.2,1.6-0.3,2.4-0.5c1.8-0.4,3.5-0.7,5.1-1.2
				c2.3-0.6,3.5-1.3,4-2.2c0.3-0.6,0.3-1.3,0.1-2.1c-0.5-1.5-1.7-2.5-3.4-2.5c-0.9,0-1.8,0.2-2.8,0.7c-1.1,0.5-2.4,1.5-3.6,2.3
				c-0.5,0.4-1,0.8-1.5,1c0.2-3.1,0.8-6.2,1.3-9.3c0.9-5.5,1.9-11.1,1.2-16.4c1-0.1,1.9-0.2,2.8-0.3c2.1-0.2,4.2-0.4,6.1-0.9
				c3.9-0.8,6.9-2.7,8.9-5.7C92.3,569.3,92.3,566,90.4,562.8z"/>
			<path class="st3" d="M55.8,558.7c0.3-0.2,0.7-0.3,1.1-0.3c3.4,0,9.9,7.7,11.7,15.2c-5.9-2.2-10-5.8-12.5-11l-0.1-0.1
				C55.3,561,54.6,559.5,55.8,558.7z"/>
			<path class="st4" d="M72.8,575.7c1.2-4,2.5-7.8,5.6-10.6c1.1-1,2.5-1.8,3.7-2.2c0.8-0.3,1.6-0.4,2.3-0.4c1.9,0,3.4,0.9,4.3,2.4
				c1.3,2.3,0.4,5.8-1.8,7.4c-3.4,2.5-7,3.8-10.8,3.8C75,576,73.9,575.9,72.8,575.7z"/>
		</g>
		<path class="st3" d="M200,564.6c-0.9,0-1.8,0-2.9-0.1c-0.6,0-1.3-0.1-2.1-0.1l1.3-1.7c0.9-1.2,1.6-2.2,2.3-3.1
			c0.7-0.9,1.7-1.4,2.7-1.4c0.6,0,1.2,0.2,1.8,0.5c0.8,0.5,1.6,1.8,1.6,2.8c0,1.8-1.3,3-3.2,3.1C201,564.6,200.5,564.6,200,564.6z"
			/>
		<path class="st5" d="M158.8,529.6c0.1,0,0.3,0.1,0.6,0.5c0.9,1.3,1.6,4.1,1.3,5.7c-0.9-0.7-3.1-3.4-3.1-5
			C157.7,530.2,158,529.8,158.8,529.6C158.7,529.6,158.8,529.6,158.8,529.6z"/>
		<path class="st3" d="M171.4,515.9c0.2-0.1,0.5-0.2,0.8-0.2c0.5,0,1,0.3,1.5,0.8c1.5,1.6,2.8,5.4,2.7,10.7
			c-3.8-4.7-5.8-8.6-5.5-10.4C170.9,516.3,171.1,516,171.4,515.9z"/>
		<path class="st5" d="M201.2,528.4c-0.1,1.9-2.6,4.5-5.9,6.3c-0.6-2.7,0.4-5.1,1.5-6.5c0.8-1.1,1.8-1.7,2.7-1.7
			c0.4,0,0.7,0.1,1,0.3C200.9,527.2,201.2,527.7,201.2,528.4z"/>
		<path class="st3" d="M143.6,535.8c0.3,0,0.6,0.2,0.9,0.5c1.5,1.6,2.4,6.3,2.4,9.7c-2.8-2.4-4.8-6.7-4.5-8.9
			c0.1-0.6,0.4-1.1,0.8-1.2C143.4,535.8,143.5,535.8,143.6,535.8z"/>
		<path class="st5" d="M134.4,554.2c0.2-0.7,0.5-1.2,1.1-1.3c0.1,0,0.2,0,0.3,0c0.3,0,0.6,0.2,0.8,0.5c1.3,1.5,1.6,6.2,1.1,9.5
			C135.2,560.1,134,556.2,134.4,554.2z"/>
		<path class="st3" d="M127.6,576.4c0.5,0.1,0.7,0.7,0.9,1.2c0.6,2.2-0.2,6.7-1.9,8.7c-2.2-2.1-2.2-5.1-1.4-7.3
			c0.6-1.5,1.5-2.6,2.3-2.6C127.4,576.3,127.5,576.3,127.6,576.4z"/>
		<path class="st3" d="M186.4,610.5c0.7,0,1.3,0.1,1.7,0.4c0.2,0.3,0.3,0.7,0.2,1.2c-0.2,1.4-3.6,2.6-7.4,2.6
			c-0.8,0-1.5-0.1-2.2-0.2c2-2.8,4.2-4.1,7-4.1L186.4,610.5z"/>
		<path class="st5" d="M197.8,591c0.1,0.7-0.1,1.3-0.5,1.7c-0.6,0.7-1.9,1.1-3.9,1.1c-1.4,0-3.2-0.2-5.2-0.6c2.3-3,5-4,6.9-4
			C196.7,589.2,197.7,589.9,197.8,591z"/>
		<g>
			<path class="st3" d="M589.3,624.1c-1.4-1.2-10.8,8.2-14.3,10.6c3.5-8.6,13.9-13.4,18-22c1.9,6.7-0.7,12.1-4.3,16.6
				c-3.2,4.1-10.8,11.9-14.3,12.7C576.1,635.4,590.7,625.3,589.3,624.1z"/>
			<path class="st3" d="M567.5,528.1c1,1.5,1.8,2.4,2.4,3.5c1,1.5,2,3,3,4.5c-1.1,1.9-2.4,3.8-3.7,5.6
				C567.8,537.5,567.1,533.1,567.5,528.1z"/>
			<path class="st3" d="M562.4,554.6c1.4-2.5,3.1-4.9,4.7-7.3c3.2-5,6.5-9.9,9.6-15c1.1-1.7,1.6-3.8,2.5-5.9
				c4.6,12.1-3,25.2-17.8,31.9C561.4,557.1,562,555.3,562.4,554.6z"/>
			<path class="st3" d="M581.7,560.5c-2.4-2.7-4.8-5.6-6.9-8.5c0.4-0.4,0.8-0.9,1.1-1.3C578.2,554.7,580.8,558.8,581.7,560.5z"/>
			<path class="st3" d="M568.4,593.3c1,2.1,1.7,4.2,2.2,6.3c-1,1.6-2.1,3-3.3,4.4c-1.3-4.4-3-8.9-4.7-12.8c1.3-0.6,2.6-1.2,3.9-1.8
				C567.2,590.7,567.8,592,568.4,593.3z"/>
			<path class="st3" d="M556.9,585.7c-0.2,0.2-0.5,0.5-0.9,0.8c0.2-0.6,0.3-1.2,0.5-1.7C556.7,585.1,556.8,585.4,556.9,585.7z"/>
			<path class="st3" d="M560.4,594.1c2.1,4.1,3.5,8.4,4.3,12.9c-0.7,0.7-1.5,1.4-2.2,2.1c-1-1.3-1.9-2.6-2.7-3.9
				c-1.8-2.9-3.3-5.9-4.5-9.1c1.3-1.3,2.9-2.3,4.5-3.2C560,593.2,560.1,593.6,560.4,594.1z"/>
			<path class="st6" d="M556.4,591.7c1.8-5.3,5.4-8.4,8.8-11.6c6-5.7,19.1-18.4,19.7-18.5c-0.4,7.7-3.2,15.4-9.3,20.3
				C570.2,586.3,563.9,589.3,556.4,591.7z"/>
			<path class="st3" d="M550.9,502c0.5-1,1.6,2,1.9,2.8c2.4,8.2,4.9,16.3,7,24.5c0.9,3.4,0.5,6.9-0.9,11.1
				C551.9,528.3,550.4,503,550.9,502z"/>
			<path class="st3" d="M557.8,580.2c0.3-2.1,0.6-4.2,0.8-6.3c1.2,2.3,2.4,4.6,3.6,6.9c-1,1-2.1,1.9-3.1,2.9c-0.5-1-1-1.9-1.5-2.7
				C557.7,580.8,557.8,580.5,557.8,580.2z"/>
			<path class="st6" d="M540.6,554.3c-6.9-9.4-7.7-21.4-7.1-21.6c0.6-0.2,2.6,5,3.5,6c2.8,3.4,5.3,7.2,8.6,10.1
				c4.2,3.7,6.8,8.1,8.4,13.3c0.6,1.9,1.1,3.7,1.7,5.8C553.1,566.8,542.5,557.4,540.6,554.3z"/>
			<path class="st3" d="M552,583.8c-0.6-4.2,0-8.4,1.5-12.7c0.4,0.4,0.8,0.8,1.2,1.2c1.4,1.5,2,3.1,1.5,5c-0.1,0.4-0.2,0.7-0.3,1.1
				c-0.1-0.1-0.1-0.1-0.2-0.1c-0.7,0.1-0.7,1.3-0.4,2.4c-0.7,2.8-1.4,5.7-2.2,8.5C552.6,587.5,552.3,585.7,552,583.8z"/>
			<path class="st3" d="M538.5,588.2c-2.3-5.1-4.2-10.4-6.1-15.7c-0.5-1.5-0.6-3.2-0.4-4.9c4.7,7.9,9.6,15.7,14,23.8
				c2.7,5,3.6,10.6,1.7,16.3c-0.2,0.6-0.4,1.1-0.7,1.7c-0.1,0.2-1.1,3.3-1.5-1.1C544.9,600.9,541.4,594.7,538.5,588.2z"/>
			<path class="st3" d="M569.7,618c0-0.8,0-1.7-0.1-2.6c0.5-0.8,0.9-1.6,1.4-2.4C570.7,614.6,570.2,616.3,569.7,618z"/>
			<path class="st6" d="M600.7,584.6c6.6-4.9,14.5-8,20.1-15.9c0.7,4.8,0,8.1-1.6,11c-7.1,12.5-23,23-33.9,22.4
				c2-1.8,3.5-3.6,5.3-4.6c4.4-2.4,8.9-4.5,13.4-6.5c4.1-1.8,10-7.9,9-9.1c-1-1.2-2.3,0.5-2.6,1.1c-1.8,3.6-5.1,4.9-8.4,6.5
				c-6,2.9-11.9,6.1-17.7,9.1c0.2-0.3,0.5-1.2,1.1-1.8C590.5,592.7,595.5,588.5,600.7,584.6z"/>
			<path class="st3" d="M589.5,575.1c-0.2-3.5-1.1-6.6-2.3-9.7c0.1-0.9,0.1-1.8,0.1-2.8c0-2,0.4-4.7-2-6.3c-0.6,0.8-1.1,1.5-1.6,2.2
				c-1.4-2.3-2.8-4.6-4.2-6.9c-0.2-0.4-0.9-1.8-1.7-3.5c0.5-0.9,1.1-1.7,1.5-2.6c1.9,2.8,3.7,5.7,5.5,8.5c3.6,5.8,4.7,12.6,5.4,19.3
				C590.2,573.8,589.9,574.4,589.5,575.1z"/>
			<path class="st6" d="M589.3,512.7c3,2.8,6.8,4.8,8.4,8.9c0.2,0.6,0.4,1.2,1,2.9c-7-4.5-13.3-8.1-18-13.5
				c-3.9-4.4-5.9-10.1-6.4-16.1c-0.2-3.1,0-6.2,0.8-9.6c1.1,2,2.2,3.9,3.1,5.9c2.9,6.5,8.3,10.8,13.3,15.6c0.2,0.2,4.9,5.5,6.1,7.2
				c1.6,2.3,3.5,4.3,4.8,6.7c0.8,1.5,0.9,3.4,0.9,5.4c-3.2-9.5-16.4-20.8-18.5-19.5C582.6,507.7,587.4,511,589.3,512.7z"/>
			<path class="st3" d="M608.4,543.6c5.1-3.5,10.3-6.9,15.3-10.6c4-2.9,7.8-6,11.9-9.2c1.3,6.5-1.2,12-5.1,16.9
				c-4.3,5.4-10.2,8.8-16.6,11.1c-3.5,1.3-7.2,1.9-10.8,2.9c5.9-6.5,24.4-14.3,24.6-16.3c0.3-2-7.9,0.7-24.2,11.4
				C604.6,546.7,606.4,545,608.4,543.6z"/>
			<path class="st3" d="M595.7,468.9c-1.7,0.3-0.3,3.6,0.3,4.8c1.9,4.1,5.6,13.5,7.3,17.6c0.8,1.8,1.2,3.8,1.7,5.8
				c-8.8-8.8-19.1-37.4-18.7-49.3c1,0.9,1.8,1.5,2.3,2.3c4,6.5,8,12.9,11.8,19.5c1.6,2.8,2.9,5.9,4.4,8.8c3,5.8,4.2,11.9,3.8,18.4
				C605.2,489.7,597.3,468.6,595.7,468.9z"/>
			<path class="st6" d="M613.7,509.5c2.3-1.5,4.5-3.1,6.9-4.3c5.7-2.9,15.8-14.7,14.4-15.5s-3.8,3.5-5.1,4.8
				c-4.2,4-7.6,7.7-12.7,10.2c-2.9,1.5-5.4,3.5-8.6,4.9c1.4-1.6,2.6-3.3,4.2-4.7c3.1-2.7,6.3-5.3,9.7-7.8
				c8.6-6.5,15.8-25.4,17.2-25.8C641.1,470.8,648.4,505.4,613.7,509.5z"/>
		</g>
		<path class="st3" d="M550,629.8c-2.5,1.3-4.6,3.5-7.4,5.8c-0.1-5.8,2.7-9.7,6.5-12.9c3-2.6,6.2-5,9.2-7.5c2.5-2,5-4.1,7.3-6.3
			c2.1-2.1,6.7-8.2,7.2-7.8c0.5,0.3-2.2,10.9-5.6,14.6C562.1,621.1,556.7,626.3,550,629.8z"/>
		<line class="st7" x1="16.2" y1="657" x2="610.4" y2="657"/>
		<circle class="st8" cx="422.6" cy="587.9" r="91.6"/>
		<circle class="st8" cx="260.3" cy="652.1" r="27.4"/>
		<g>
			<line class="st9" x1="491" y1="527" x2="360.4" y2="655.2"/>
			<polyline class="st9" points="390.9,673.9 416.6,591.1 416.6,496.5 430.1,679.5 430.1,590.9 			"/>
			<line class="st9" x1="428.8" y1="588" x2="491.1" y2="648.7"/>
			<line class="st9" x1="511.6" y1="609.7" x2="339.9" y2="554.2"/>
			<line class="st9" x1="507.7" y1="554.2" x2="425.7" y2="585.3"/>
			<line class="st9" x1="504.2" y1="629.4" x2="426.1" y2="596.5"/>
			<line class="st9" x1="416.6" y1="587.9" x2="341.9" y2="631.3"/>
			<line class="st9" x1="422.6" y1="594.2" x2="336.1" y2="618.4"/>
			<line class="st9" x1="331.9" y1="575.1" x2="422.6" y2="585.3"/>
			<polyline class="st9" points="346.7,536.6 416,593 459.2,671.9 393.1,501.1 			"/>
			<polyline class="st9" points="273.6,626.9 260.3,650.8 263,678.1 			"/>
			<polyline class="st9" points="253.8,626.9 258.5,648.6 253.8,675.5 			"/>
			<polyline class="st9" points="273.6,673.2 261.2,649.2 241.4,631 			"/>
			<polyline class="st9" points="284.3,643.1 261.2,649.2 235.1,661.5 			"/>
			<polyline class="st9" points="233,648.6 260.3,650.8 283.5,665.4 			"/>
			<polyline class="st9" points="241.4,670.6 258.5,652.1 287.3,655 			"/>
		</g>
		<circle class="st10" cx="422" cy="589" r="9.1"/>
		<path class="st0" d="M309.4,529.7h-47.9c-3.8,0-6.9-3.1-6.9-6.9l0,0c0-3.8,3.1-6.9,6.9-6.9h47.9c3.8,0,6.9,3.1,6.9,6.9l0,0
			C316.4,526.6,313.3,529.7,309.4,529.7z"/>
		<path class="st0" d="M438.8,631.7h-47.9c-3.8,0-6.9-3.1-6.9-6.9l0,0c0-3.8,3.1-6.9,6.9-6.9h47.9c3.8,0,6.9,3.1,6.9,6.9l0,0
			C445.8,628.6,442.7,631.7,438.8,631.7z"/>
		<path class="st0" d="M483.1,572.8h-47.9c-3.8,0-6.9-3.1-6.9-6.9l0,0c0-3.8,3.1-6.9,6.9-6.9h47.9c3.8,0,6.9,3.1,6.9,6.9l0,0
			C490,569.7,486.9,572.8,483.1,572.8z"/>
		<path class="st11" d="M272.1,529.7c0,0,4.3,14.3,19.9,25.6"/>
		<line class="st11" x1="466.7" y1="569.7" x2="448.2" y2="585.3"/>
		<path class="st12" d="M492.6,551.6c0,0,12-87.8-9.7-113.3c-18.9-22.2-41.5-23-60.6-20.5c13.4-63.6,44.9-132.5,56.5-158.9l0,0
			c4.3-8.2,6.8-17.6,6.8-27.6c0-32.8-26.6-59.5-59.5-59.5c-10.9,0-21.1,2.9-29.8,8l0,0c-0.1,0.1-0.2,0.1-0.3,0.2
			c-0.8,0.5-1.6,1-2.4,1.5c-107.7,67-149.6,177-159.3,244c-1.3,6.1-2,12.5-2,19c0,46.5,34.8,84.9,79.7,90.6
			c33.8,4.8,56.3,14,59.2,29.2c2.9,15.6,3.1,46.3,8,52.9c4.9,6.6,57.2,5.8,68.9,3.5s-3.1-11.1-3.1-11.1s2.9-21.2,3.3-45.8
			c17.5,1.1,40.2,0.3,47.4-1.2C507.5,560.3,492.6,551.6,492.6,551.6z"/>
		<path class="st13" d="M434,230.5c0,7.6,0.2,14.1,4.8,14.1c4.3,0,6.5-5.6,6.5-9.8"/>
		<path class="st14" d="M515.4,293.4"/>
		<path class="st12" d="M447.8,330.4c0.1,1.4,0.2,2.8,0.4,4.3"/>
		<path class="st14" d="M492.6,551.6c0,0,12-87.8-9.7-113.3c-18.9-22.2-41.5-23-60.6-20.5c13.4-63.6,44.9-132.5,56.5-158.9l0,0
			c4.3-8.2,6.8-17.6,6.8-27.6c0-32.8-26.6-59.5-59.5-59.5c-10.9,0-21.1,2.9-29.8,8l0,0c-0.1,0.1-0.2,0.1-0.3,0.2
			c-0.8,0.5-1.6,1-2.4,1.5c-107.7,67-149.6,177-159.3,244c-1.3,6.1-2,12.5-2,19c0,46.5,34.8,84.9,79.7,90.6
			c33.8,4.8,56.3,14,59.2,29.2c2.9,15.6,3.1,46.3,8,52.9c4.9,6.6,57.2,5.8,68.9,3.5s-3.1-11.1-3.1-11.1s2.9-21.2,3.3-45.8
			c17.5,1.1,40.2,0.3,47.4-1.2C507.5,560.3,492.6,551.6,492.6,551.6z"/>
		<path class="st12" d="M403.1,198.1c-11.6-21.4-30.4-23-36.8-16.1s-3.1,29.5,15.3,33.2C400,218.9,403.1,198.1,403.1,198.1z"/>
		<path class="st14" d="M375.7,200.5c-2.6-5,3.7-15.3,20,0"/>
		<path class="st14" d="M403.1,198.1c-11.6-21.4-30.4-23-36.8-16.1c-4.7,5-4.2,18.6,3.7,26.9"/>
		<path class="st12" d="M441.4,178.7c16.3-13.8,41.2-19,47.9-16.6c6.8,2.4-1.5,18.3-12.3,21.8c10.8,2.4,4.4,15-10.4,14.2"/>
		<path class="st14" d="M441.4,178.7c16.3-13.8,41.2-19,47.9-16.6c6.8,2.4-1.5,18.3-12.3,21.8c10.8,2.4,4.4,15-10.4,14.2"/>
		<path class="st12" d="M256.3,470.4c-9.2-17.7-34.3-20.4-32.1-9.4c-11.9-0.2-17.1,6.1-11,8.5c-10.9,8.3-14.1,30.9-4.2,45.1
			s36.1,21,60.9,0.3C284.7,487,256.3,470.4,256.3,470.4z"/>
		<path class="st14" d="M238.6,455.7c-8.3-2.6-15.6-0.8-14.4,5.4c-11.9-0.2-17.1,6.1-11,8.5c-10.9,8.3-14.1,30.9-4.2,45.1
			s36.1,21,60.9,0.3"/>
		<path class="st12" d="M448.2,334.7c3.2,25.2,25.8,51.8,42.5,66.1c17.7,15,5.2,31.7-9.9,33.2c-9.5,0.9-37.5-4.3-54.9-30.5"/>
		<path class="st14" d="M425.9,403.4c17.4,26.2,45.4,31.4,54.9,30.5c15.1-1.5,27.6-18.2,9.9-33.2c-16.8-14.2-39.3-40.9-42.5-66.1
			l-13.4,39L425.9,403.4z"/>
		<path class="st15" d="M463,243.4c-25.3,0-29.1,41.4-7.6,45.2c19.1,3.4,28-2.3,37.3-9.6s16.7-22.3,14-26.6
			C503.9,248,498.3,243.4,463,243.4z"/>
		<path class="st0" d="M485.7,244.5c1.4,7.4,6.7,17.3,16.7,23.3c3.9-6.3,5.9-12.7,4.2-15.3C504.6,249.2,501.1,246.1,485.7,244.5z"/>
		<path class="st14" d="M460.5,269.9c-2.2,6.6,4,11.3,7.7,11.3"/>
		<path class="st14" d="M455.4,288.6c19.1,3.4,28-2.3,37.3-9.6s16.7-22.3,14-26.6c-2.7-4.4-8.3-9-43.6-9"/>
		<g>
			<path class="st16" d="M477.9,407c3.7,3.2,17.3,18.2,13.2,20.1l-76.2,35"/>
			<line class="st16" x1="448.2" y1="446.8" x2="422.6" y2="587.9"/>
			<path class="st16" d="M435.4,496.3c-17.7-8.4-90.4-14.7-128.2,35s-46.9,119.6-46.9,119.6"/>
			<circle class="st11" cx="422.6" cy="587.9" r="91.6"/>
			<circle class="st11" cx="260.3" cy="652.1" r="27.4"/>
		</g>
		<path class="st12" d="M367,334.6c-4.3,36,29.2,71,55,88c25.8,17,12,41.1-7.8,45.5s-107.6-6.9-94.1-127.8"/>
		<path class="st14" d="M367,334.6c-4.3,36,29.2,71,55,88c25.8,17,12,41.1-7.8,45.5s-107.6-6.9-94.1-127.8"/>
		<path class="st12" d="M366.7,477.1c20.6-3.5,47-6.2,68.7,19.3s9.7,113.3,9.7,113.3s14.9,8.7,3.1,11.1c-11.8,2.3-64.1,3.1-68.9-3.5
			c-4.9-6.6-5.1-37.3-8-52.9c-2.9-15.6-26.8-22.7-61.5-29.5c-7.4-1.4-20.3-5.2-25.4-7.8C303.4,496.4,366.7,477.1,366.7,477.1z"/>
		<path class="st14" d="M366.7,477.1c20.6-3.5,47-6.2,68.7,19.3s9.7,113.3,9.7,113.3s14.9,8.7,3.1,11.1c-11.8,2.3-64.1,3.1-68.9-3.5
			c-4.9-6.6-5.1-37.3-8-52.9c-2.9-15.6-26.4-24.8-61.5-29.5c0,0-18.6-4.2-25.4-7.8"/>
		<path class="st14" d="M419.8,439.9c4.4,9,13.9,12.7,13.9,12.7"/>
		<path class="st14" d="M400.3,453.7c1,5.5,11,13.3,17.2,13.4"/>
		<path class="st14" d="M411.1,447.1c2.6,4.9,11,13.3,17.2,13.4"/>
		<path class="st17" d="M452.7,477.6c10-8.1,3.6-31.9,3.6-31.9s-5.5,20.4,1.2,18.2s0.8-18.2,0.8-18.2s2.6,11.9,6.9,16.3
			c4.4,4.4,1-12.7-6.9-18.7"/>
		<path class="st14" d="M506.3,105.5h160c0,0-3.5-38-29.3-31.1c4.2-14.2-8.4-34-35.9-34s-45.4,23.5-45.4,33.5
			C544.4,62.5,506.3,72.3,506.3,105.5z"/>
		<path class="st18" d="M33,380.6c0,0,132.9,0,150.9,0c0-14-13.9-28.5-39.7-23.3c-4-12-22.6-23.9-42.1-23.9S63,349.4,63,356.9
			C51.7,348.4,23,360.3,33,380.6z"/>
		<path class="st18" d="M562.6,105.5c-8.8,21.1-29.6,35.9-53.8,35.9c-32.2,0-58.3-26.1-58.3-58.3s26.1-58.3,58.3-58.3
			c23.8,0,44.3,14.3,53.4,34.8"/>
		<path class="st14" d="M471.8,234.1c0.7-2.5,0.4-5.3-0.8-7.6"/>
		<path class="st14" d="M459,218.2c0.9,1.7,1.8,3.5,2.6,5.2"/>
		<path class="st14" d="M471.3,211.5c1.2,1.6,1.7,3.6,1.5,5.6"/>
		<path class="st14" d="M459.6,204.9c0.8,1.7,1.5,3.3,2.3,5"/>
		<path class="st14" d="M479,234.1c0.6-1.1,0.8-2.4,0.6-3.6"/>
		<path class="st14" d="M450.1,212.4c-1.3-2-2.6-4-3.9-6"/>
		<path class="st14" d="M461.3,232.5c1.2,1.4,2.3,3,3.2,4.7"/>
		<path class="st14" d="M240.7,440.2c0.6-2.6,1.1-5.3,1.7-7.9"/>
		<path class="st14" d="M250.3,448.1c0.3-3.2,0.6-6.3,0.9-9.5"/>
		<path class="st14" d="M248.8,422c-0.8-1.4-1-3.1-0.8-4.7"/>
		<path class="st14" d="M258.4,433.1c0.4-3.2,0.8-6.4,1.2-9.5"/>
		<path class="st14" d="M266.2,445.8c0-1.8,0-3.7,0-5.5"/>
		<path class="st14" d="M267,411c0.8-3.1,1.1-6.3,0.7-9.5"/>
		<path class="st14" d="M254.3,407c-0.3-1.3-0.5-2.6-0.8-4"/>
		<path class="st14" d="M271,425.2c0.8-2,1.1-4.2,0.7-6.3"/>
		<path class="st14" d="M259.7,388.8c-0.3-2.1-0.5-4.2-0.8-6.3"/>
		<path class="st14" d="M275.1,396.7c0.3-1.3,0.5-2.6,0.8-4"/>
		<path class="st14" d="M268.6,380.1c0.3-2.4,0.6-4.7,0.9-7.1"/>
		<path class="st14" d="M263.1,360.3c0.5-1.6,1.1-3.2,1.6-4.7"/>
		<path class="st14" d="M275.7,374.5c1.4-2.4,2-5.2,1.6-7.9"/>
		<path class="st14" d="M282.9,380.1c0.8-1.7,1.1-3.7,0.7-5.5"/>
		<path class="st14" d="M273.5,351.6c0.5-2.4,1-4.8,1.5-7.1"/>
		<path class="st14" d="M284.5,353.2c0.3-1.1,0.5-2.1,0.8-3.2"/>
		<path class="st14" d="M290.2,363.5c0.5-3.2,1-6.3,1.5-9.5"/>
		<path class="st14" d="M283.6,331.8c0.3-1.3,0.5-2.6,0.8-4"/>
		<path class="st14" d="M289.8,340.5c0.5-1.3,1.1-2.6,1.6-4"/>
		<path class="st14" d="M296.3,342.1c0.3-1.1,0.5-2.1,0.8-3.2"/>
		<path class="st14" d="M283.6,312.8c-0.3-2.6,0.6-5.3,2.4-7.1"/>
		<path class="st14" d="M273.4,334.2c-0.1-1.7,0.5-3.4,1.6-4.8"/>
		<path class="st14" d="M293.9,315.2c0.8-2.4,1.5-4.8,2.3-7.1"/>
		<path class="st14" d="M299.3,329.4c0.7-3.8,1.8-7.5,3.3-11"/>
		<path class="st14" d="M244.7,406.2c0.3-2.4,0.5-4.7,0.8-7.1"/>
		<path class="st14" d="M251.3,379.3c-0.3-2.6-0.7-5.3-1-7.9"/>
		<path class="st14" d="M296.6,286c0.4-2.4,0.7-4.8,1.1-7.2"/>
		<path class="st14" d="M304.3,294.7c1.3-2.1,2.6-4.2,3.9-6.4"/>
		<path class="st14" d="M311.3,303.3c1.7-1.2,3.1-2.9,3.9-4.8"/>
		<path class="st14" d="M312.2,270.9c0.6-2.6,1.1-5.3,1.7-7.9"/>
		<path class="st14" d="M318.3,279.5c0.8-1.3,1.6-2.6,2.4-4"/>
		<path class="st14" d="M333.5,275.7c0.8-2.6,1.6-5.3,2.4-7.9"/>
		<path class="st14" d="M324.6,257.5c-0.8-2.9-0.5-6.1,1-8.7"/>
		<path class="st14" d="M335.8,255.1c1.6-1.8,3.2-3.7,4.7-5.5"/>
		<path class="st14" d="M336.6,239.3c-0.1-2.1,0.8-4.2,2.4-5.5"/>
		<path class="st14" d="M348.5,254.3c1.3-2.6,2.6-5.3,3.9-7.9"/>
		<path class="st14" d="M349.3,228.2c0.5-2.3,1.9-4.4,3.9-5.6"/>
		<path class="st14" d="M361.2,233.7c1.6-1.3,3.2-2.6,4.7-4"/>
		<path class="st14" d="M365.2,215.5c0.8-1.6,1.6-3.2,2.4-4.7"/>
		<path class="st14" d="M331.9,292.3c-1,2.7-1.9,5.3-2.9,8"/>
		<path class="st14" d="M316.9,320c0.3-0.8,0.5-1.6,0.8-2.4"/>
		<path class="st14" d="M309.7,354c0-3,0.6-5.9,1.7-8.7"/>
		<path class="st14" d="M309.7,333.4c0.1,1.7-0.5,3.4-1.6,4.8"/>
		<path class="st14" d="M300.3,376.1c-0.4-3.7-0.1-7.5,0.7-11.1"/>
		<path class="st14" d="M310.5,377.7c0.8-1.6,1.6-3.2,2.4-4.8"/>
		<path class="st14" d="M301,399.9c0-1.1,0-2.1,0-3.2"/>
		<path class="st14" d="M289.2,391.2c0-1.6,0-3.2,0-4.7"/>
		<path class="st14" d="M290,421.2c0-2.6,0-5.3,0-7.9"/>
		<path class="st14" d="M302.6,422.8c-0.1-2.8,0.8-5.6,2.4-7.9"/>
		<path class="st14" d="M305.7,439.4c0.3-2.9,0.6-5.8,1-8.7"/>
		<path class="st14" d="M288.4,448.1c0.3-2.2-0.3-4.5-1.6-6.3"/>
		<path class="st14" d="M373.8,483.7c2.3-0.9,4.8-1.1,7.1-0.7"/>
		<path class="st14" d="M373,492.6c1.3,0.3,2.6,0.5,4,0.8"/>
		<path class="st14" d="M388.8,485.4c1.1,0.3,2.1,0.5,3.2,0.8"/>
		<path class="st14" d="M401.5,483c2.4,0.8,4.6,2.1,6.5,3.8"/>
		<path class="st14" d="M391.2,498c1.9,2.1,3.7,4.2,5.6,6.3"/>
		<path class="st14" d="M411,498.8c0.8,1.3,1.6,2.6,2.4,4"/>
		<path class="st14" d="M421.3,497.2c1.7,2.1,3.1,4.5,4,7.1"/>
		<path class="st14" d="M414.9,519.4c1,1.6,1.6,3.6,1.6,5.5"/>
		<path class="st14" d="M429.9,517.8c0.3,2.1,0.6,4.2,1,6.3"/>
		<path class="st14" d="M418.9,513.8c-0.2,1.1,0,2.3,0.8,3.2"/>
		<path class="st14" d="M429.2,541.5c0-2.9,0-5.8,0-8.7"/>
		<path class="st14" d="M438.7,538.3c0.2-3.2,0-6.4-0.8-9.5"/>
		<path class="st14" d="M450.7,431.2c2.1,0.9,4.2,1.7,6.2,2.6"/>
		<path class="st14" d="M476.6,448.1c0,1.8,1,3.6,2.6,4.5"/>
		<path class="st14" d="M471.8,456.9c0.5,1.6,1.1,3.2,1.6,4.7"/>
		<path class="st14" d="M484.5,466.3c0.3,2.1,0.6,4.2,0.8,6.3"/>
		<path class="st14" d="M476.7,472.7c0,1.3,0,2.6,0,4"/>
		<path class="st14" d="M483.2,457.6c0.3,0.8,0.5,1.6,0.8,2.4"/>
		<path class="st14" d="M464.8,467.1c0.5,1.3,1.1,2.6,1.6,4"/>
		<path class="st14" d="M483.9,485.3c0.5,1.6,1.1,3.1,1.6,4.7"/>
		<path class="st14" d="M335.7,406.6c0.2,2.8,1,5.5,2.5,7.9"/>
		<path class="st14" d="M345.1,409.8c1.2,2.4,2.7,4.7,4.6,6.7c0.1-0.7,0.2-1.4,0.3-2.1"/>
		<path class="st14" d="M348.6,401.8c0.8,1.1,1.5,2.2,2.3,3.2"/>
		<path class="st14" d="M347.6,424.8c1.6,1.3,3.5,2.1,5.5,2.4"/>
		<path class="st14" d="M358.6,416.2c1.3,0.8,2.6,1.6,3.9,2.4"/>
		<path class="st14" d="M360.2,405.1c1.3,1.1,2.6,2.1,4,3.2"/>
		<path class="st14" d="M363.5,426.4c1.6,2.2,4.4,3.4,7.1,3.1"/>
		<path class="st14" d="M451.3,373c1.3,2.4,2.6,4.8,3.9,7.1"/>
		<path class="st14" d="M447.3,382.6c1.1,1.6,2.2,3.1,3.3,4.7"/>
		<path class="st14" d="M456.9,391.2c1.5,0.5,2.7,1.6,3.3,3.1"/>
		<path class="st14" d="M442.7,391.1c1,1.8,2.7,3.3,4.6,4.1"/>
		<path class="st14" d="M438,374.5c1,1.6,2.1,3.2,3.1,4.8"/>
		<path class="st14" d="M442.7,367.4c1.1,1.6,2.2,3.1,3.2,4.7"/>
		<path class="st14" d="M214.1,505.1c0.5,3.3,2.5,6.4,5.4,8.1"/>
		<path class="st14" d="M226.6,517c1.7,0.8,3.7,1.1,5.5,0.7"/>
		<path class="st14" d="M223.5,504.3c1.3,0.5,2.6,1.1,4,1.6"/>
		<path class="st14" d="M241.7,510.6c1.6,0.3,3.3,0.1,4.8-0.7"/>
		<path class="st14" d="M248.8,518.6c1.8-0.6,3.3-2.2,3.9-4"/>
		<path class="st14" d="M235.4,502.7c2.2,0.8,4.8,0.1,6.3-1.6"/>
		<path class="st14" d="M258.3,509.1c1.2,0.1,2.6,0.1,3.4-0.8c0.8-0.9,0.1-2.8-1-2.4"/>
		<path class="st14" d="M415.9,306.7c-6.5,3.6-10.7,11-10.6,18.4c0,1.3,0.2,2.7,1.2,3.6c1.4,1.2,3.7,0.5,5.2-0.7
			c1.4-1.2,2.5-2.9,4.2-3.8c-2.1,5.2-2.3,11.2-0.5,16.6c0.3,0.9,0.8,2,1.8,2.2c2.1,0.4,3.4-3.5,5.4-2.6c-0.2,1.7-0.5,3.6,0,5.2
			c0.5,1.7,1.9,3.2,3.7,3.3c1.8,0,3.4-2.1,2.5-3.6"/>
		<g>
			<path class="st17" d="M461.5,439c-143.2-17.2-230.8-77.3-238.1-196.9c-6.7-108.9-81-172-81-172"/>
			<path class="st17" d="M455,439.5c-41.6,2-175,2.1-223.3-71.8C191.3,306,63.1,251.4,28.2,237.3"/>
			<path class="st19" d="M159.3,43.8c6.2-1.7,12.9-42.4,39-42.8c53.9-0.9,53.9,88.4,12.1,150.6c18.2,16.2,18.2,16.2,18.2,16.2
				l-35.7,20.7c0,0,8-17,5-29.4c-77-7.8-138.2-94.7-86.6-127.2C133.2,18,153.1,45.6,159.3,43.8z"/>
			<path class="st3" d="M56,195.2c6.5-7.1-11.3-32.7,10.8-48.6c43.8-31.4,94.1,60.2,76,132.9c22.6,9,22.6,9,22.6,9l-26.5,31.7
				c0,0,1.7-18.7-5.3-29.3C61.8,309.1-16,262.8,4.2,210.4C14.7,182.9,50.6,201,56,195.2z"/>
			<path class="st17" d="M455.9,443c-37.6-49.9-91.1-99.7-153.8-108.5c-79.8-11.3-129.9-90.3-141.8-142.4"/>
			<path class="st2" d="M122.4,82.6c7.3-4.2,6.9-38.8,32.8-40.4c58-3.4,67.2,102.7,17.4,164.6c17.3,18.3,21,22.5,21,22.5l-33.6,9.9
				c0,0,1.1-12.7-1-25.7C85.1,199.6,21.3,117.6,64.7,81.7C88.2,62.2,115.6,83.4,122.4,82.6z"/>
			<path class="st17" d="M142.8,279.5c0,0-3.3,6.8-9.2,11.4"/>
			<path class="st17" d="M173.2,208.8c0,0-6.3,4.2-13.7,5.3"/>
			<path class="st17" d="M136.2,288.5c-10.5,15.2-5.5,20.5-2.8,18.1s5-18.3,5-18.3s3.2,16.5,9.6,13.3c6.5-3.3-9.7-15.4-9.7-15.4
				c1,14.5-5.3,32.1-13.1,37.5"/>
			<path class="st20" d="M210.4,152.4c0,0-4.5,5.8-11.3,9.3"/>
			<path class="st20" d="M202.2,159.8c-13.2,12.6-8.8,18.3-5.6,16.5c3.1-1.8,7.9-16.3,7.9-16.3s0.8,15.9,8,13.8s-7.9-15.8-7.9-15.8
				c-1.1,13.7-0.1,25.6-6.3,32.2"/>
			<path class="st17" d="M166.4,212.8c-8.8,13.5-20.1,12.6-17.5,9.8c2.6-2.8,12.8-8.6,12.8-8.6l6.8-2.6c0,0,5.9,18.3,1.2,18.6
				C166.4,230.1,164.3,216.2,166.4,212.8c-4.7,8.9-4.2,27.3,4.2,32.9"/>
			<path class="st17" d="M168.5,211.3c-2.9,5.5-2.8,23.9,16.2,38.5"/>
			<g>
				<path class="st9" d="M198.3,1c-23.5,0.4-31.3,33.5-37.1,41.2c40.2,2.9,53.7,62.4,36.6,116.9l0,0c3.1,12.3-5,29.4-5,29.4
					l35.7-20.7c0,0,0,0-18.2-16.2C252.1,89.4,252.2,0.1,198.3,1z"/>
				<path class="st9" d="M122.4,82.6c7.2-4.2,6.9-38.2,32.2-40.3c-8.8-5.4-25.4-21.7-43.4-10.4C95.2,42,90.1,57.2,92.8,73.7
					C106.6,75.5,118.3,83.1,122.4,82.6z"/>
				<path class="st9" d="M63.5,149.3c-16.9,15.9-1.3,39.2-7.5,45.9c-5.4,5.8-41.2-12.3-51.8,15.2c-20.2,52.4,57.7,98.7,129.4,80.5
					c7.1,10.5,5.3,29.3,5.3,29.3l26.5-31.7c0,0,0,0-22.6-9c5.7-23.2,4.5-48.2-1.1-70.6C108.6,197.8,79.4,174.3,63.5,149.3z"/>
				<path class="st9" d="M161.1,42.3c-1.9-0.1-3.9-0.2-5.9,0c-0.2,0-0.4,0-0.7,0.1c-25.3,2.1-25,36.1-32.2,40.3
					c-4.1,0.5-15.8-7.1-29.6-8.8c-9-1.1-18.8,0.2-28.1,7.9c-20,16.5-17.2,42.8-1.3,67.7c16,24.9,45.2,48.5,78.2,59.5
					c5.7,1.9,11.5,3.4,17.4,4.6c2.1,13,1,25.7,1,25.7l33.6-9.9c0,0-3.7-4.2-21-22.5c11.4-14.2,19.7-30.7,25-47.7
					C214.8,104.6,201.3,45.2,161.1,42.3z"/>
			</g>
		</g>
	</g>
	<path class="st21" d="M401.9,255.3c-12.1,2.4-16.6,12.2-13,18.5s11.9,11.5,22.2,7.9s14.8-12.2,13.3-16.6S416,252.6,401.9,255.3z"/>
</g>
</svg>
