<?xml version="1.0" encoding="utf-8"?>
<!-- Generator: Adobe Illustrator 24.1.1, SVG Export Plug-In . SVG Version: 6.00 Build 0)  -->
<svg version="1.1" id="Calque_1" xmlns="http://www.w3.org/2000/svg" xmlns:xlink="http://www.w3.org/1999/xlink" x="0px" y="0px"
	 viewBox="0 0 680.8 684.5" style="enable-background:new 0 0 680.8 684.5;" xml:space="preserve">
<style type="text/css">
	.st0{fill:#464454;}
	.st1{fill:#7B9D95;}
	.st2{fill:#E46C0D;}
	.st3{fill:#006B5E;}
	.st4{fill:#407D72;}
	.st5{fill:#7D9E96;}
	.st6{fill:#4F847B;}
	.st7{fill:none;stroke:#898592;stroke-width:6.6118;stroke-linecap:round;stroke-linejoin:round;stroke-miterlimit:10;}
	.st8{opacity:0.7;fill:#FFFFFF;enable-background:new    ;}
	.st9{fill:none;stroke:#464454;stroke-width:2;stroke-linecap:round;stroke-linejoin:round;stroke-miterlimit:10;}
	.st10{fill:#FFFFFF;stroke:#464454;stroke-width:3;stroke-miterlimit:10;}
	.st11{fill:none;stroke:#464454;stroke-width:6;stroke-linecap:round;stroke-linejoin:round;stroke-miterlimit:10;}
	.st12{fill:#ACA9B2;}
	.st13{fill:none;stroke:#686472;stroke-width:2;stroke-linecap:round;stroke-linejoin:round;stroke-miterlimit:10;}
	.st14{fill:#C9C6CD;}
	.st15{fill:none;stroke:#464454;stroke-width:9;stroke-linecap:round;stroke-linejoin:round;stroke-miterlimit:10;}
	.st16{fill:none;stroke:#464454;stroke-width:2.0385;stroke-linecap:round;stroke-linejoin:round;stroke-miterlimit:10;}
	.st17{fill:none;stroke:#898592;stroke-width:2;stroke-linecap:round;stroke-linejoin:round;stroke-miterlimit:10;}
	.st18{fill:#4A8278;}
	.st19{fill:none;stroke:#464454;stroke-width:2.034;stroke-linecap:round;stroke-linejoin:round;stroke-miterlimit:10;}
	.st20{opacity:0.5;fill:#E46C0D;enable-background:new    ;}
</style>
<g id="Calque_7">
</g>
<g id="Calque_3">
</g>
<g id="Calque_5">
</g>
<g id="Calque_2_1_">
</g>
<g id="Calque_6">
	<g>
		<path class="st0" d="M641.6,476.2c-0.3-3.5-1.1-6.9-4.5-10c-1.5,8.9-5.1,15.6-10.2,22.3c-3.4,4.5-13.9,14.6-18.7,17
			c3.2-8.4,2.2-16.6-1.5-24.2c-3.9-8.1-8.5-15.8-13.1-23.6c-3.5-5.9-11.7-17.9-12.3-17.7s1.2,17.4,3.6,24.6c1,2.8,1.9,5.5,2.7,8.4
			c2.7,10.6,7.1,20.5,13.4,29.6c4,5.7,2.8,12.1,2.6,18.9c-0.9-0.8-1.2-1-1.4-1.2c-2.9-3.4-11.7-12.8-12.1-13.2
			c-2.6-2.8-5.4-5.4-7.7-8.3c-4.8-5.9-7.3-12.9-9-21.2c-2.7,4.1-2.9,7.9-3.2,11.6c-1,12.6,2.1,23.6,13.2,31.2
			c4.1,2.8,8.2,5.7,12.1,8.9c3.3,2.7,5.6,6.3,5.1,10.7c-0.6,4.8-1.4,9.6-3.1,14.1c-1.9,5.1-6.2,16.9-6.8,17.4
			c-2.2-9.5-6.4-18.6-11.9-26.4c3.2-7.3,3.5-14.7-0.7-22.6c-0.4-0.7-1-1.3-1.3-1.6c-1,4.3-1.3,8.8-3.1,12.7c-0.5,1-1,2-1.5,2.9
			c-2.1-3.2-3.8-6.6-4.5-10.5c-0.2-0.9-0.5-1.7-0.9-3.2c-2.6,2.5-3.2,5.3-3.5,7.9c-0.5,5.6,0.2,10.9,2.1,15.9
			c-2.3,2.9-4.7,5.8-7,8.7c-0.3-1.9-0.2-3.6,0-5.4c0.4-6,2.7-11.9,1.8-18.1c-1.9-12.7-6-23.6-11.5-35.1c-0.1-0.3-1.6-4-1.7-1.6
			c0,2.4,0.1,10.5,0.3,15.6c0.2,4.1,0.1,8.3,0.9,12.3c1.3,6.4,3,12.8,6,18.7c1,2,1.9,4.3,1.9,6.5c0.1,5.3-0.2,10.6-0.4,16
			c0,0.2-0.1,0.6-0.2,1.3c-0.4-1.1-0.6-1.8-0.9-1.8c-0.2,0-0.3,0-0.5,0.2c-0.1-0.3-0.2-0.6-0.3-0.8c-1.6-5.2-4.5-9.3-8.6-13.2
			c-5.5-5.1-13.4-20.8-14.3-20.7c-0.9,0.2-1.1,4-1,5.9c0.6,12.3,5.1,22.8,14.8,30.8c1.9,1.6,3.6,3.5,5.2,5.4
			c-1.6,4.2-2.8,9.2-2.5,12.6c0.4,4.4,1.2,8.8,2.6,12.9c-0.2,0.7-0.4,1.4-0.6,2.2c0,0.1-0.3,0.1-0.5,0.3
			c-3.2-7.5-6.9-14.8-11.9-21.4c-2.4-3.1-3.8-6.9-5.7-10.4c-0.9-1.7-2.9-5.4-3.5-4.7s0.7,12.8,2.3,17.1c2.4,6.6,5.4,12.9,8.4,19.3
			c1.9,3.9,3.3,7.9,3.5,12.3c0.3,6.3-0.1,12.5-2.3,18.5c-2.9,7.9-2.4,15.9-0.5,23.9c0.4,1.9,1.2,7.4,3.7,6.3c2.5-1.1-1.5-7.2-1.8-10
			c-0.8-6.6,1-12.3,7-15.7c4.8-2.6,8.7-6.2,12.9-9.3c1.4-1,2.6-2.2,3.7-3.3c1.8,3.5,2.8,7.4,2.2,11.6c-0.8,5.5-1.2,11-1.1,16.5
			c0,4.1,0.4,8.4,2.7,12.3c2.9-1.9,0.7-4.6,1.5-7c1-2.9,3.5-6.2,5.4-8.5c3-3.8,6.5-7.2,10.2-10.3c5.3-4.3,7.9-10,8.9-16.4
			c0.7-4.1-0.2-8.1-3.2-12.5c-0.9,2.4-1.6,3.8-2.1,5.3c-1.1,3.2-3,5.7-5.3,8.1c-4.2,4.3-12.2,10.8-14.5,16.1
			c0.7-5.5,1.6-10.8,3.5-15.8c4.8-13.1,3.8-11.8,17.7-16.1c4.2-1.3,8.3-3.2,12.3-5.2c7.4-3.7,12.4-9.8,16.6-16.7
			c3.3-5.4,2.3-17,0.8-17.3s-3.4,6.3-11.8,12.2c-7.3,5.2-23.3,16.5-23.9,16.2c3.8-9.8,8.2-21,12.1-30.7c0.4-1,1.3-2.1,2.3-2.6
			c2.9-1.5,5.9-2.9,8.9-4c3.8-1.5,7.9-2.4,11.6-4.2c8.2-3.9,13.9-10.1,16.8-18.8c1.8-5.4,1.1-10.7-0.8-16.1
			c-0.9,0.5-2.3,7.4-14.2,15.1c-5.5,3.6-10.8,7.5-16.1,11.2c-0.8,0.5-1.7,1-2.7,1.7c0.9-5.9,1.9-11.5,2.5-17.1
			c1.4-13.7,1.3-13.1,12.7-15.5c9.5-2,16.3-7.1,20.5-15.7c1.5-3.1,2.9-6.3,3.4-9.6C642.1,484.2,641.9,480.2,641.6,476.2z
			 M587.7,626.1c-1.4-1.2-10.8,8.2-14.3,10.6c3.5-8.6,13.9-13.4,18-22c1.9,6.7-0.7,12.1-4.3,16.6c-3.2,4.1-10.8,11.9-14.3,12.7
			C574.6,637.4,589.1,627.3,587.7,626.1z M566,530.1c1,1.5,1.8,2.4,2.4,3.5c1,1.5,2,3,3,4.5c-1.1,1.9-2.4,3.8-3.7,5.6
			C566.3,539.6,565.6,535.1,566,530.1z M560.9,556.6c1.4-2.5,3.1-4.9,4.7-7.3c3.2-5,6.5-9.9,9.6-15c1.1-1.7,1.6-3.8,2.5-5.9
			c4.6,12.1-3,25.2-17.8,31.9C559.9,559.2,560.5,557.3,560.9,556.6z M580.2,562.5c-2.4-2.7-4.8-5.6-6.9-8.5c0.4-0.4,0.8-0.9,1.1-1.3
			C576.7,556.7,579.3,560.9,580.2,562.5z M564.7,560c2.2-1.1,4.4-2.4,6.3-3.9c2.3,3.3,4.6,6.6,7.1,9.8c-1.9,2.4-3.7,4.3-6,6.4
			c-3.4,3.1-6.8,6.2-10.1,9.4c-1.9-3.9-3.3-7.5-4.3-10.4C558.2,566.4,559.9,562.4,564.7,560z M566.9,595.4c1,2.1,1.7,4.2,2.2,6.3
			c-1,1.6-2.1,3-3.3,4.4c-1.3-4.4-3-8.9-4.7-12.8c1.3-0.6,2.6-1.2,3.9-1.8C565.7,592.8,566.3,594.1,566.9,595.4z M555.4,587.8
			c-0.2,0.2-0.5,0.5-0.9,0.8c0.2-0.6,0.3-1.2,0.5-1.7C555.2,587.1,555.3,587.5,555.4,587.8z M558.8,596.1c2.1,4.1,3.5,8.4,4.3,12.9
			c-0.7,0.7-1.5,1.4-2.2,2.1c-1-1.3-1.9-2.6-2.7-3.9c-1.8-2.9-3.3-5.9-4.5-9.1c1.3-1.3,2.9-2.3,4.5-3.2
			C558.4,595.2,558.6,595.7,558.8,596.1z M554.9,593.8c1.8-5.3,5.4-8.4,8.8-11.6c6-5.7,19.1-18.4,19.7-18.5
			c-0.4,7.7-3.2,15.4-9.3,20.3C568.6,588.4,562.4,591.3,554.9,593.8z M549.4,504c0.5-1,1.6,2,1.9,2.8c2.4,8.2,4.9,16.3,7,24.5
			c0.9,3.4,0.5,6.9-0.9,11.1C550.4,530.3,548.9,505,549.4,504z M556.3,582.3c0.3-2.1,0.6-4.2,0.8-6.3c1.2,2.3,2.4,4.6,3.6,6.9
			c-1,1-2.1,1.9-3.1,2.9c-0.5-1-1-1.9-1.5-2.7C556.2,582.8,556.2,582.5,556.3,582.3z M539.1,556.3c-6.9-9.4-7.7-21.4-7.1-21.6
			c0.6-0.2,2.6,5,3.5,6c2.8,3.4,5.3,7.2,8.6,10.1c4.2,3.7,6.8,8.1,8.4,13.3c0.6,1.9,1.1,3.7,1.7,5.8
			C551.5,568.9,541,559.4,539.1,556.3z M550.5,585.8c-0.6-4.2,0-8.4,1.5-12.7c0.4,0.4,0.8,0.8,1.2,1.2c1.4,1.5,2,3.1,1.5,5
			c-0.1,0.4-0.2,0.7-0.3,1.1c-0.1-0.1-0.1-0.1-0.2-0.1c-0.7,0.1-0.7,1.3-0.4,2.4c-0.7,2.8-1.4,5.7-2.2,8.5
			C551.1,589.5,550.8,587.7,550.5,585.8z M549.6,605.2c0.4-1.8,1.1-3.3,2-4.6c1.8,4.4,4.2,8.5,7.2,12.3c-4.7,3.9-9.9,7.3-14.8,11.1
			C545.7,617.6,548.1,611.5,549.6,605.2z M537,590.2c-2.3-5.1-4.2-10.4-6.1-15.7c-0.5-1.5-0.6-3.2-0.4-4.9c4.7,7.9,9.6,15.7,14,23.8
			c2.7,5,3.6,10.6,1.7,16.3c-0.2,0.6-0.4,1.1-0.7,1.7c-0.1,0.2-1.1,3.3-1.5-1.1C543.4,602.9,539.9,596.7,537,590.2z M568.2,620
			c0-0.8,0-1.7-0.1-2.6c0.5-0.8,0.9-1.6,1.4-2.4C569.2,616.6,568.7,618.3,568.2,620z M599.2,586.6c6.6-4.9,14.5-8,20.1-15.9
			c0.7,4.8,0,8.1-1.6,11c-7.1,12.5-23,23-33.9,22.4c2-1.8,3.5-3.6,5.3-4.6c4.4-2.4,8.9-4.5,13.4-6.5c4.1-1.8,10-7.9,9-9.1
			c-1-1.2-2.3,0.5-2.6,1.1c-1.8,3.6-5.1,4.9-8.4,6.5c-6,2.9-11.9,6.1-17.7,9.1c0.2-0.3,0.5-1.2,1.1-1.8
			C589,594.8,594,590.5,599.2,586.6z M582.9,591.8c-3.2,6.7-6,13.6-9,20.3c-0.3,0.8-1,1.4-1.5,2.1c0.3-2.7,0.3-5.3-0.1-7.8
			c0.6-2.6,0.9-5.4-1.5-8c-0.1,0.2-0.2,0.3-0.3,0.5c-1-2.9-2.3-5.6-3.8-8.3c1.4-0.7,2.8-1.4,4.1-2.2c5.4-3.3,9.7-7.2,12.2-12.2
			c0.5,1.7,1,3.5,1.4,5.3C585.5,585.5,584.5,588.4,582.9,591.8z M587.9,577.1c-0.2-3.5-1.1-6.6-2.3-9.7c0.1-0.9,0.1-1.8,0.1-2.8
			c0-2,0.4-4.7-2-6.3c-0.6,0.8-1.1,1.5-1.6,2.2c-1.4-2.3-2.8-4.6-4.2-6.9c-0.2-0.4-0.9-1.8-1.7-3.5c0.5-0.9,1.1-1.7,1.5-2.6
			c1.9,2.8,3.7,5.7,5.5,8.5c3.6,5.8,4.7,12.6,5.4,19.3C588.7,575.8,588.4,576.5,587.9,577.1z M587.8,514.8c3,2.8,6.8,4.8,8.4,8.9
			c0.2,0.6,0.4,1.2,1,2.9c-7-4.5-13.3-8.1-18-13.5c-3.9-4.4-5.9-10.1-6.4-16.1c-0.2-3.1,0-6.2,0.8-9.6c1.1,2,2.2,3.9,3.1,5.9
			c2.9,6.5,8.3,10.8,13.3,15.6c0.2,0.2,4.9,5.5,6.1,7.2c1.6,2.3,3.5,4.3,4.8,6.7c0.8,1.5,0.9,3.4,0.9,5.4
			c-3.2-9.5-16.4-20.8-18.5-19.5C581.1,509.8,585.9,513,587.8,514.8z M606.9,545.6c5.1-3.5,10.3-6.9,15.3-10.6c4-2.9,7.8-6,11.9-9.2
			c1.3,6.5-1.2,12-5.1,16.9c-4.3,5.4-10.2,8.8-16.6,11.1c-3.5,1.3-7.2,1.9-10.8,2.9c5.9-6.5,24.4-14.3,24.6-16.3
			c0.3-2-7.9,0.7-24.2,11.4C603.1,548.8,604.8,547,606.9,545.6z M594.2,471c-1.7,0.3-0.3,3.6,0.3,4.8c1.9,4.1,5.6,13.5,7.3,17.6
			c0.8,1.8,1.2,3.8,1.7,5.8c-8.8-8.8-19.1-37.4-18.7-49.3c1,0.9,1.8,1.5,2.3,2.3c4,6.5,8,12.9,11.8,19.5c1.6,2.8,2.9,5.9,4.4,8.8
			c3,5.8,4.2,11.9,3.8,18.4C603.7,491.7,595.8,470.7,594.2,471z M612.2,511.5c2.3-1.5,4.5-3.1,6.9-4.3c5.7-2.9,15.8-14.7,14.4-15.5
			s-3.8,3.5-5.1,4.8c-4.2,4-7.6,7.7-12.7,10.2c-2.9,1.5-5.4,3.5-8.6,4.9c1.4-1.6,2.6-3.3,4.2-4.7c3.1-2.7,6.3-5.3,9.7-7.8
			c8.6-6.5,15.8-25.4,17.2-25.8C639.6,472.8,646.9,507.4,612.2,511.5z"/>
		<path class="st0" d="M203.7,558.1c-1-0.7-2.1-1-3.2-1c-1.2,0-2.3,0.4-3.3,1.1c-1.6,1.2-2.8,2.4-3.6,3.6
			c-5.8,9.8-15.7,11.7-26.2,13.8h-0.2c0.5-1.5,1-2.9,1.4-4.3c1.5-4.7,3-9.2,4.6-13.7c0.3-0.9,1.4-1.7,2.3-2.1
			c6.1-2.9,10.9-7.5,14.3-11.2c1.9-2.1,3.8-3.6,5.6-4.7c2.8-1.7,4.9-4.3,6.2-7.9c0.5-1.4,0.1-3.7-0.8-4.9c-0.7-0.8-2.2-0.9-2.9-0.9
			c-0.6,0-1.1,0.1-1.6,0.2c-1.4,0.3-3.2,1.4-3.7,2.6c-2.2,4.1-2.6,7.7-2.8,9.9c-0.1,0.9-0.2,1.7-0.3,1.9c-3.8,5-8.5,8.9-14.4,11.8
			c0-0.2,0-0.5,0-0.7c0-0.6,0-1.1,0.1-1.6c0.2-1.5,0.5-3,0.8-4.5c0.6-3.1,1.2-6.3,1.3-9.5c0.2-5.5-0.1-10.9-0.9-16.1
			c-0.5-3.1-3.9-5.6-6.4-5.6c-0.4,0-0.8,0.1-1.2,0.2c-0.8,0.3-1.4,1.1-1.8,2.2c-0.7,1.9-0.6,4.5,0.3,6.5c0.8,1.8,1.9,3.5,2.9,5.1
			c0.6,0.9,1.1,1.8,1.7,2.7c0.3,0.5,0.6,1,1,1.5c1.1,1.6,2.1,3,1.7,5c-0.6,3.4-1.3,6.9-1.9,10.4l-0.7,3.9c-3.8-2.2-9.2-9.5-9.8-13.2
			c-0.1-0.4-0.1-0.8-0.2-1.3c-0.5-3.5-1.3-8.3-4.5-8.3c-0.2,0-0.5,0-0.7,0.1c-1.3,0.3-2.1,1-2.5,2.1c-0.8,2.2,0.4,5.4,1.9,7.3
			c3.3,4.3,6.7,8.4,10.2,12.8c1.4,1.8,2.9,3.6,4.4,5.5l-7,19.5c-0.3-0.2-0.5-0.4-0.7-0.5c-0.5-0.3-0.8-0.6-1-0.8
			c-4.3-6.8-9.1-14.6-13.7-22.3c-0.5-0.8-0.6-2.1-0.2-3.1c1.5-4.4-0.4-8.3-2.1-11.7l-0.3-0.7c-0.6-1.3-2.2-3.6-4.2-3.6
			c-0.3,0-0.6,0.1-0.9,0.2c-2.3,0.9-2.6,5.2-2.3,6.6c0.6,2.6,1.7,4.6,2.8,6.6c0.4,0.8,0.9,1.6,1.3,2.5c1.8,3.7,4,7.2,6.2,10.6
			c0.5,0.8,1,1.5,1.4,2.3c0.8,1.2,1.5,2.5,2.2,3.7c2.8,4.7,5.6,9.6,10.1,13.3l-10.6,18.9c-0.7-0.9-1.3-1.8-1.9-2.6
			c-1.4-2-2.6-3.7-3.8-5.4c-2.4-3.5-3.7-7.4-5-11.3c-0.6-1.9-1.3-3.9-2.1-5.8c-1-2.4-1.1-4.5-0.5-7.1c1.2-4.7,0.6-9.1-1.9-12.9
			c-0.8-1.2-1.9-1.8-3-1.8c-1.3,0-2.4,0.9-3,2.4c-0.6,1.6-0.8,3.5-0.5,5c0.5,2.5,1.5,5,2.6,7.7c1.5,3.7,3,7.3,4.6,10.9l0.9,2.1
			c0.4,1,0.9,2.1,1.3,3.1c1.2,2.8,2.4,5.7,3.8,8.4c1.3,2.6,2.9,5,4.4,7.4c0.6,1,1.2,1.9,1.8,2.8l-13.1,24.1
			c-0.3-0.4-0.5-0.8-0.7-1.2c-0.5-0.8-0.8-1.3-1-1.9c-0.7-1.8-1.4-3.7-2.1-5.5c-1.9-5-3.8-10.1-5.4-15.3c-1.5-5.2-1.2-9.7,1.1-13.9
			c1.3-2.4,2-5.3,1.9-7.6c-0.1-2.2-1.1-3.5-3.2-4.3c-0.5-0.2-0.9-0.3-1.4-0.3c-1.2,0-2.3,0.6-3.4,2c-2.4,3-3.3,8.4-0.6,11.7
			c1.6,2.1,1.8,4.1,2,6.4l0.1,0.8c1.2,13.6,5.1,23.8,12,32.1c-0.4,0.9-0.8,1.8-1.2,2.7c-1,2.2-2,4.5-2.7,6.8
			c-1.1,3.8-1.8,7.5-2,10.9c0,0.4-0.1,0.8-0.1,1.3c-0.2,3.1-0.6,7.3,0.6,8.6c0.3,0.3,0.6,0.4,0.9,0.4c0.1,0,0.2,0,0.2,0
			c0.6-0.1,1.1-0.4,1.3-0.8c0.4-0.7,0.2-1.7-0.1-2.6c-0.1-0.4-0.2-0.8-0.3-1.2c-0.5-8.9,2.3-17,5.2-23.8c1.1-2.7,2.6-3.3,5.3-3.7
			l2.9-0.4c9.2-1.3,18.7-2.6,27.4-6.7c1.1-0.5,2.4-0.6,3.7-0.6h0.5c0.3,0,0.6,0,0.9,0c0.6,0,1.1,0,1.7,0s1.2,0,1.7,0
			c0.8,0,1.5,0,2.2-0.1c1.6-0.2,2.9-1,3.8-2.2c0.8-1.1,1.2-2.5,1-3.9c-0.4-2.2-2.2-3.8-4.5-3.8c-0.6,0-1.2,0.1-1.8,0.3
			c-2.8,0.9-5.3,2.3-6.9,4.1c-2.7,2.9-5.5,4.7-8.7,5.4c-3.4,0.8-7.1,1.5-11.5,2.4c-3,0.6-6.1,1.1-9.1,1.7l-2.3,0.4
			c-0.8,0.2-0.8,0.2-3.4,0.5h-0.1c1.9-3.4,3.7-6.9,5.4-10.2c1.2-2.3,2.3-4.6,3.5-6.7c2.1-3.9,5-5.6,9.1-5.6c0.5,0,1.1,0,1.7,0.1
			c1.2,0.1,2.4,0.2,3.6,0.2c4.7,0,9.7-0.9,15.9-2.7c1.6-0.5,3.3-0.7,5.1-0.7c1.1,0,2.3,0.1,3.6,0.3c1.1,0.1,2.3,0.3,3.5,0.3
			c1.4,0,2.5-0.2,3.5-0.6c1.9-0.7,3.9-2.8,4.4-4.6s-0.8-3.6-3.5-4.9c-1.3-0.6-2.6-0.9-3.9-0.9c-2.7,0-5,1.3-6.8,3.7
			c-2.8,3.8-6.4,4.7-10.5,5.5c-4.2,0.8-9.2,1.7-14.2,1.7c-1.9,0-3.8-0.1-5.6-0.4c0.1-0.2,0.1-0.5,0.2-0.7c0.2-0.7,0.4-1.3,0.7-1.8
			c0.7-1.2,1.4-2.4,2.1-3.6c0.9-1.5,1.9-3.1,2.7-4.7l0.1-0.2c4.2-7.8,4.2-7.8,13-10.1c0.3-0.1,0.5-0.1,0.8-0.2
			c0.6-0.1,1.1-0.2,1.7-0.5c1-0.4,2-0.8,3-1.2c2.9-1.1,5.8-2.3,8.6-3.7c2.3-1.2,4.2-2,6.5-2c0.1,0,0.3,0,0.4,0c0.3,0,0.5,0,0.8,0
			c1.8,0,3.7-0.2,5.8-0.7c2.3-0.5,3.9-2.2,4.4-4.9C206.6,561.7,205.7,559.5,203.7,558.1z"/>
		<g>
			<path class="st0" d="M98.1,565.5c-11.1-1.8-16.5-7.4-14.9-15.1c6.2,0.2,10.5,4.6,15.4,7.6c3.5-12,7-23.7,10.4-35.2
				c-1.7-2-4-4-5.4-6.5c-2.8-4.8-5.5-9.8-0.9-15.2c0.6-0.7,0.3-2,0.6-3c0.7-3,2.2-5.8,5.2-6.6c2.5-0.7,4.3-1.9,6-3.6
				c0.8-0.8,2-1.4,3.2-1.8c6.6-2.4,14,0.8,13.9,8.9c0,1.8,0.5,3.7,1.2,5.3c1.1,2.5,1.1,4.7-0.4,6.9c-0.8,1.1-1.6,2.2-2.3,3.2
				c1.7,3.6,1.7,4.4-1,6.2c-2.4,1.6-5.3,2.9-7.9,3.8c-6.7,2.2-10.5,5.1-12.4,11.4c-0.1,0.5-2.7,6.7-2.7,11
				c5.6-6.5,11.9-7.2,18.7-6.5c-1.2,8-8.1,12.2-20.9,12.6c-2.6,13.3-6.1,26.5-3.2,40.7c5.8-4.2,11-9.2,19.2-7.1
				c-3.2,9.1-10.7,10.6-18.8,11.9c2.6,12.5,5.2,24.8,7.8,37.5c5.3-4.9,11.3-6.5,17.8-6.2c1.5,2.4-0.5,5.8-1.5,7.6
				c-3.6,4.6-6,4.4-10.9,4.7c-1.7,0.1-3.4,0.1-5.3,0.1c0,3.6,0.4,6.9,0,10.1c-0.4,3.3-0.5,10.1-2.1,11c-1.7,0.9-2.1-2.3-1.9-1.3
				c0.2,1,3.5-18.4-1.2-41.4c-11.8,3.9-18.2,2.9-21.1-3.7c6.2-3.5,12.5-2.5,19.5-0.8C98.8,596.3,96.2,581,98.1,565.5z"/>
			<g>
				<path class="st1" d="M117.4,504.3c-3.9-1.8-4.3,5.7-6.1,9.1c-0.7-0.9-1.5-1.5-1.8-2.2c-0.9-2.2-1.5-4.5-2.6-6.7
					c-0.3-0.7-1.8-1.3-2.5-1.2c-0.6,0.1-1.3,1.5-1.4,2.3c-0.2,5,1.9,9.2,5.2,12.6c1.1,1.2,3.5,1.5,5.3,1.6
					c3.9,0.3,15.3-5.1,15.1-6.3c-0.3-2.4-4.7-1-6.9-0.4s-5.4,3.2-6.7,2.6C113.6,515.3,121.3,506.1,117.4,504.3z"/>
				<path class="st2" d="M127.6,508.5c3.6-1.6,4.5-6.7,1.6-8.9c-0.9-0.7-2.6-1.3-3.7-1c-2.2,0.6-4.3,1.9-6.3,2.8
					c3.1,3.7,2.7,6.5,1.5,9.4C123,510.1,125.4,509.5,127.6,508.5z"/>
				<path class="st2" d="M110.9,505.9c1-2.2,1.9-3.3,3.4-4.2c2-1.1,3.3-2.6,2.7-4.3c-0.7-1.7-2.4-3.2-4.1-4c-2-1-4.2-0.1-5.4,1.8
					c-0.9,1.4-1.2,3.1-1.7,4.4C108,500.7,109.2,501.9,110.9,505.9z"/>
				<path class="st2" d="M128.4,495.6c0.7-3.5,0.1-5.5-2-6.6c-4.2-2.2-7.4-1.7-10.8,1.9c3.4,1.8,4.1,3.4,4.9,6.4
					C123.3,495.7,125.4,494.5,128.4,495.6z"/>
				<path class="st3" d="M110.5,634.1c6.1,2.8,12.2-0.1,13.6-6.3C118.7,628.2,113.9,629.6,110.5,634.1z"/>
				<path class="st3" d="M121.2,539.2c-4.8-1.9-8.5-0.4-14.9,6.7C113,545.8,117.5,543.5,121.2,539.2z"/>
				<path class="st3" d="M98,561.8c-3.5-4-6.8-7-12.5-8C87.5,560.3,91,562.5,98,561.8z"/>
				<path class="st3" d="M103.9,590.2c4.9,0.5,9.4-1.9,11.7-6.2C110.7,584.3,107.3,587,103.9,590.2z"/>
				<path class="st3" d="M86,613.5c5.8,3.3,7.4,3.4,14.3,0.7C95.2,612.4,91.1,613.3,86,613.5z"/>
			</g>
		</g>
		<g>
			<path class="st0" d="M88.9,564.8c-1.3-2.1-3.1-3.1-5.9-3.1c-0.5,0-1.1,0-1.7,0.1c-4.2,0.5-6.6,3.1-8.6,5.8
				c-0.8,1.2-1.5,2.5-2.1,3.8c-0.2,0.4-0.4,0.8-0.6,1.2c-0.7-0.9-1.3-1.9-2-2.8c-1.9-2.7-3.7-5.2-5.6-7.6c-1-1.3-2.6-2.5-4.4-3.4
				c-1-0.5-2.5-1.1-3.9-1.1c-1,0-1.7,0.3-2.1,1c-1,1.4-1.1,3.4-0.4,5.7c0.3,1,0.8,2.1,1.4,3.1c2.6,4.7,6.3,8,10.9,9.8
				c2.4,0.9,3.6,2.6,4,5.4l0.1,0.7c0.3,2.4,0.8,5.8-0.4,9.8c-0.9-0.7-1.8-1.7-2.7-2.6c-1.5-1.6-2.8-3.1-4.3-3.1
				c-0.3,0-0.5,0.1-0.8,0.2c-0.7,0.3-1.2,0.7-1.4,1.3c-0.5,1.3,0.3,2.9,0.8,4.1l0.1,0.3c1.5,3.3,4.8,4.4,7.2,4.8l-1.2,25.4l-0.3-0.3
				c-0.7-0.6-1.4-1.1-2.1-1.6c-0.2-0.2-0.4-0.3-0.6-0.5c-0.6-0.4-1.1-0.9-1.8-1.3c-0.7-0.4-1.3-0.6-2-0.6c-1,0-1.9,0.5-2.5,1.6
				c-1.1,1.8,0.5,3.1,1.2,3.7c0.7,0.6,1.6,1,2.4,1.4l0.2,0.1c0.5,0.2,1,0.4,1.6,0.6c0.9,0.3,1.8,0.7,2.6,1.2
				c1.2,0.8,2.1,1.9,2.4,2.8c0.6,2,1,4.1,1.4,6.1c0.2,0.9,0.4,1.9,0.6,2.8c1.2,5.6,4.3,13.7,8.3,19.1c1,1.4,1.8,2.1,2.5,2.1
				c0.4,0,0.8-0.3,0.9-0.8c0.1-0.2-0.1-0.6-1.1-2.7c-3-6.6-12.2-26.6-10.9-46c0.8-0.2,1.6-0.3,2.4-0.5c1.8-0.4,3.5-0.7,5.1-1.2
				c2.3-0.6,3.5-1.3,4-2.2c0.3-0.6,0.3-1.3,0.1-2.1c-0.5-1.5-1.7-2.5-3.4-2.5c-0.9,0-1.8,0.2-2.8,0.7c-1.1,0.5-2.4,1.5-3.6,2.3
				c-0.5,0.4-1,0.8-1.5,1c0.2-3.1,0.8-6.2,1.3-9.3c0.9-5.5,1.9-11.1,1.2-16.4c1-0.1,1.9-0.2,2.8-0.3c2.1-0.2,4.2-0.4,6.1-0.9
				c3.9-0.8,6.9-2.7,8.9-5.7C90.8,571.4,90.8,568,88.9,564.8z"/>
			<path class="st3" d="M54.2,560.7c0.3-0.2,0.7-0.3,1.1-0.3c3.4,0,9.9,7.7,11.7,15.2c-5.9-2.2-10-5.8-12.5-11l-0.1-0.1
				C53.7,563,53.1,561.5,54.2,560.7z"/>
			<path class="st4" d="M71.2,577.7c1.2-4,2.5-7.8,5.6-10.6c1.1-1,2.5-1.8,3.7-2.2c0.8-0.3,1.6-0.4,2.3-0.4c1.9,0,3.4,0.9,4.3,2.4
				c1.3,2.3,0.4,5.8-1.8,7.4c-3.4,2.5-7,3.8-10.8,3.8C73.5,578,72.4,577.9,71.2,577.7z"/>
		</g>
		<path class="st3" d="M198.5,566.6c-0.9,0-1.8,0-2.9-0.1c-0.6,0-1.3-0.1-2.1-0.1l1.3-1.7c0.9-1.2,1.6-2.2,2.3-3.1
			c0.7-0.9,1.7-1.4,2.7-1.4c0.6,0,1.2,0.2,1.8,0.5c0.8,0.5,1.6,1.8,1.6,2.8c0,1.8-1.3,3-3.2,3.1C199.5,566.6,199,566.6,198.5,566.6z
			"/>
		<path class="st5" d="M157.2,531.7c0.1,0,0.3,0.1,0.6,0.5c0.9,1.3,1.6,4.1,1.3,5.7c-0.9-0.7-3.1-3.4-3.1-5
			C156.2,532.2,156.5,531.9,157.2,531.7L157.2,531.7z"/>
		<path class="st3" d="M169.9,517.9c0.2-0.1,0.5-0.2,0.8-0.2c0.5,0,1,0.3,1.5,0.8c1.5,1.6,2.8,5.4,2.7,10.7
			c-3.8-4.7-5.8-8.6-5.5-10.4C169.4,518.4,169.6,518.1,169.9,517.9z"/>
		<path class="st5" d="M199.6,530.4c-0.1,1.9-2.6,4.5-5.9,6.3c-0.6-2.7,0.4-5.1,1.5-6.5c0.8-1.1,1.8-1.7,2.7-1.7
			c0.4,0,0.7,0.1,1,0.3C199.4,529.2,199.7,529.8,199.6,530.4z"/>
		<path class="st3" d="M142.1,537.8c0.3,0,0.6,0.2,0.9,0.5c1.5,1.6,2.4,6.3,2.4,9.7c-2.8-2.4-4.8-6.7-4.5-8.9
			c0.1-0.6,0.4-1.1,0.8-1.2C141.9,537.8,142,537.8,142.1,537.8z"/>
		<path class="st5" d="M132.9,556.2c0.2-0.7,0.5-1.2,1.1-1.3c0.1,0,0.2,0,0.3,0c0.3,0,0.6,0.2,0.8,0.5c1.3,1.5,1.6,6.2,1.1,9.5
			C133.7,562.1,132.4,558.2,132.9,556.2z"/>
		<path class="st3" d="M126,578.4c0.5,0.1,0.7,0.7,0.9,1.2c0.6,2.2-0.2,6.7-1.9,8.7c-2.2-2.1-2.2-5.1-1.4-7.3
			C124.2,579.5,125.1,578.4,126,578.4C125.9,578.4,126,578.4,126,578.4z"/>
		<path class="st3" d="M184.9,612.5c0.7,0,1.3,0.1,1.7,0.4c0.2,0.3,0.3,0.7,0.2,1.2c-0.2,1.4-3.6,2.6-7.4,2.6
			c-0.8,0-1.5-0.1-2.2-0.2c2-2.8,4.2-4.1,7-4.1L184.9,612.5z"/>
		<path class="st5" d="M196.3,593.1c0.1,0.7-0.1,1.3-0.5,1.7c-0.6,0.7-1.9,1.1-3.9,1.1c-1.4,0-3.2-0.2-5.2-0.6c2.3-3,5-4,6.9-4
			C195.2,591.2,196.2,591.9,196.3,593.1z"/>
		<g>
			<path class="st3" d="M587.7,626.1c-1.4-1.2-10.8,8.2-14.3,10.6c3.5-8.6,13.9-13.4,18-22c1.9,6.7-0.7,12.1-4.3,16.6
				c-3.2,4.1-10.8,11.9-14.3,12.7C574.6,637.4,589.1,627.3,587.7,626.1z"/>
			<path class="st3" d="M566,530.1c1,1.5,1.8,2.4,2.4,3.5c1,1.5,2,3,3,4.5c-1.1,1.9-2.4,3.8-3.7,5.6
				C566.3,539.6,565.6,535.1,566,530.1z"/>
			<path class="st3" d="M560.9,556.6c1.4-2.5,3.1-4.9,4.7-7.3c3.2-5,6.5-9.9,9.6-15c1.1-1.7,1.6-3.8,2.5-5.9
				c4.6,12.1-3,25.2-17.8,31.9C559.9,559.2,560.5,557.3,560.9,556.6z"/>
			<path class="st3" d="M580.2,562.5c-2.4-2.7-4.8-5.6-6.9-8.5c0.4-0.4,0.8-0.9,1.1-1.3C576.7,556.7,579.3,560.9,580.2,562.5z"/>
			<path class="st3" d="M566.9,595.4c1,2.1,1.7,4.2,2.2,6.3c-1,1.6-2.1,3-3.3,4.4c-1.3-4.4-3-8.9-4.7-12.8c1.3-0.6,2.6-1.2,3.9-1.8
				C565.7,592.8,566.3,594.1,566.9,595.4z"/>
			<path class="st3" d="M555.4,587.8c-0.2,0.2-0.5,0.5-0.9,0.8c0.2-0.6,0.3-1.2,0.5-1.7C555.2,587.1,555.3,587.5,555.4,587.8z"/>
			<path class="st3" d="M558.8,596.1c2.1,4.1,3.5,8.4,4.3,12.9c-0.7,0.7-1.5,1.4-2.2,2.1c-1-1.3-1.9-2.6-2.7-3.9
				c-1.8-2.9-3.3-5.9-4.5-9.1c1.3-1.3,2.9-2.3,4.5-3.2C558.4,595.2,558.6,595.7,558.8,596.1z"/>
			<path class="st6" d="M554.9,593.8c1.8-5.3,5.4-8.4,8.8-11.6c6-5.7,19.1-18.4,19.7-18.5c-0.4,7.7-3.2,15.4-9.3,20.3
				C568.6,588.4,562.4,591.3,554.9,593.8z"/>
			<path class="st3" d="M549.4,504c0.5-1,1.6,2,1.9,2.8c2.4,8.2,4.9,16.3,7,24.5c0.9,3.4,0.5,6.9-0.9,11.1
				C550.4,530.3,548.9,505,549.4,504z"/>
			<path class="st3" d="M556.3,582.3c0.3-2.1,0.6-4.2,0.8-6.3c1.2,2.3,2.4,4.6,3.6,6.9c-1,1-2.1,1.9-3.1,2.9c-0.5-1-1-1.9-1.5-2.7
				C556.2,582.8,556.2,582.5,556.3,582.3z"/>
			<path class="st6" d="M539.1,556.3c-6.9-9.4-7.7-21.4-7.1-21.6c0.6-0.2,2.6,5,3.5,6c2.8,3.4,5.3,7.2,8.6,10.1
				c4.2,3.7,6.8,8.1,8.4,13.3c0.6,1.9,1.1,3.7,1.7,5.8C551.5,568.9,541,559.4,539.1,556.3z"/>
			<path class="st3" d="M550.5,585.8c-0.6-4.2,0-8.4,1.5-12.7c0.4,0.4,0.8,0.8,1.2,1.2c1.4,1.5,2,3.1,1.5,5
				c-0.1,0.4-0.2,0.7-0.3,1.1c-0.1-0.1-0.1-0.1-0.2-0.1c-0.7,0.1-0.7,1.3-0.4,2.4c-0.7,2.8-1.4,5.7-2.2,8.5
				C551.1,589.5,550.8,587.7,550.5,585.8z"/>
			<path class="st3" d="M537,590.2c-2.3-5.1-4.2-10.4-6.1-15.7c-0.5-1.5-0.6-3.2-0.4-4.9c4.7,7.9,9.6,15.7,14,23.8
				c2.7,5,3.6,10.6,1.7,16.3c-0.2,0.6-0.4,1.1-0.7,1.7c-0.1,0.2-1.1,3.3-1.5-1.1C543.4,602.9,539.9,596.7,537,590.2z"/>
			<path class="st3" d="M568.2,620c0-0.8,0-1.7-0.1-2.6c0.5-0.8,0.9-1.6,1.4-2.4C569.2,616.6,568.7,618.3,568.2,620z"/>
			<path class="st6" d="M599.2,586.6c6.6-4.9,14.5-8,20.1-15.9c0.7,4.8,0,8.1-1.6,11c-7.1,12.5-23,23-33.9,22.4
				c2-1.8,3.5-3.6,5.3-4.6c4.4-2.4,8.9-4.5,13.4-6.5c4.1-1.8,10-7.9,9-9.1c-1-1.2-2.3,0.5-2.6,1.1c-1.8,3.6-5.1,4.9-8.4,6.5
				c-6,2.9-11.9,6.1-17.7,9.1c0.2-0.3,0.5-1.2,1.1-1.8C589,594.8,594,590.5,599.2,586.6z"/>
			<path class="st3" d="M587.9,577.1c-0.2-3.5-1.1-6.6-2.3-9.7c0.1-0.9,0.1-1.8,0.1-2.8c0-2,0.4-4.7-2-6.3c-0.6,0.8-1.1,1.5-1.6,2.2
				c-1.4-2.3-2.8-4.6-4.2-6.9c-0.2-0.4-0.9-1.8-1.7-3.5c0.5-0.9,1.1-1.7,1.5-2.6c1.9,2.8,3.7,5.7,5.5,8.5c3.6,5.8,4.7,12.6,5.4,19.3
				C588.7,575.8,588.4,576.5,587.9,577.1z"/>
			<path class="st6" d="M587.8,514.8c3,2.8,6.8,4.8,8.4,8.9c0.2,0.6,0.4,1.2,1,2.9c-7-4.5-13.3-8.1-18-13.5
				c-3.9-4.4-5.9-10.1-6.4-16.1c-0.2-3.1,0-6.2,0.8-9.6c1.1,2,2.2,3.9,3.1,5.9c2.9,6.5,8.3,10.8,13.3,15.6c0.2,0.2,4.9,5.5,6.1,7.2
				c1.6,2.3,3.5,4.3,4.8,6.7c0.8,1.5,0.9,3.4,0.9,5.4c-3.2-9.5-16.4-20.8-18.5-19.5C581.1,509.8,585.9,513,587.8,514.8z"/>
			<path class="st3" d="M606.9,545.6c5.1-3.5,10.3-6.9,15.3-10.6c4-2.9,7.8-6,11.9-9.2c1.3,6.5-1.2,12-5.1,16.9
				c-4.3,5.4-10.2,8.8-16.6,11.1c-3.5,1.3-7.2,1.9-10.8,2.9c5.9-6.5,24.4-14.3,24.6-16.3c0.3-2-7.9,0.7-24.2,11.4
				C603.1,548.8,604.8,547,606.9,545.6z"/>
			<path class="st3" d="M594.2,471c-1.7,0.3-0.3,3.6,0.3,4.8c1.9,4.1,5.6,13.5,7.3,17.6c0.8,1.8,1.2,3.8,1.7,5.8
				c-8.8-8.8-19.1-37.4-18.7-49.3c1,0.9,1.8,1.5,2.3,2.3c4,6.5,8,12.9,11.8,19.5c1.6,2.8,2.9,5.9,4.4,8.8c3,5.8,4.2,11.9,3.8,18.4
				C603.7,491.7,595.8,470.7,594.2,471z"/>
			<path class="st6" d="M612.2,511.5c2.3-1.5,4.5-3.1,6.9-4.3c5.7-2.9,15.8-14.7,14.4-15.5s-3.8,3.5-5.1,4.8
				c-4.2,4-7.6,7.7-12.7,10.2c-2.9,1.5-5.4,3.5-8.6,4.9c1.4-1.6,2.6-3.3,4.2-4.7c3.1-2.7,6.3-5.3,9.7-7.8
				c8.6-6.5,15.8-25.4,17.2-25.8C639.6,472.8,646.9,507.4,612.2,511.5z"/>
		</g>
		<path class="st3" d="M548.5,631.8c-2.5,1.3-4.6,3.5-7.4,5.8c-0.1-5.8,2.7-9.7,6.5-12.9c3-2.6,6.2-5,9.2-7.5c2.5-2,5-4.1,7.3-6.3
			c2.1-2.1,6.7-8.2,7.2-7.8c0.5,0.3-2.2,10.9-5.6,14.6C560.6,623.2,555.2,628.3,548.5,631.8z"/>
		<line class="st7" x1="14.7" y1="659" x2="608.9" y2="659"/>
		<circle class="st8" cx="421" cy="589.9" r="91.6"/>
		<circle class="st8" cx="258.8" cy="654.1" r="27.4"/>
		<g>
			<line class="st9" x1="489.5" y1="529" x2="358.9" y2="657.2"/>
			<polyline class="st9" points="389.3,675.9 415.1,593.1 415.1,498.5 428.5,681.6 428.5,593 			"/>
			<line class="st9" x1="427.3" y1="590" x2="489.6" y2="650.7"/>
			<line class="st9" x1="510" y1="611.8" x2="338.3" y2="556.2"/>
			<line class="st9" x1="506.2" y1="556.2" x2="424.2" y2="587.4"/>
			<line class="st9" x1="502.7" y1="631.5" x2="424.6" y2="598.5"/>
			<line class="st9" x1="415.1" y1="589.9" x2="340.3" y2="633.3"/>
			<line class="st9" x1="421" y1="596.2" x2="334.6" y2="620.4"/>
			<line class="st9" x1="330.3" y1="577.1" x2="421" y2="587.4"/>
			<polyline class="st9" points="345.2,538.6 414.5,595 457.6,673.9 391.6,503.2 			"/>
			<polyline class="st9" points="272.1,629 258.8,652.9 261.5,680.1 			"/>
			<polyline class="st9" points="252.3,629 257,650.7 252.3,677.6 			"/>
			<polyline class="st9" points="272.1,675.2 259.7,651.2 239.9,633.1 			"/>
			<polyline class="st9" points="282.7,645.1 259.7,651.2 233.5,663.5 			"/>
			<polyline class="st9" points="231.5,650.6 258.8,652.9 282,667.4 			"/>
			<polyline class="st9" points="239.9,672.7 257,654.1 285.8,657 			"/>
		</g>
		<circle class="st10" cx="420.4" cy="591" r="9.1"/>
		<path class="st0" d="M307.9,531.7H260c-3.8,0-6.9-3.1-6.9-6.9l0,0c0-3.8,3.1-6.9,6.9-6.9h47.9c3.8,0,6.9,3.1,6.9,6.9l0,0
			C314.8,528.6,311.7,531.7,307.9,531.7z"/>
		<path class="st0" d="M437.3,633.7h-47.9c-3.8,0-6.9-3.1-6.9-6.9l0,0c0-3.8,3.1-6.9,6.9-6.9h47.9c3.8,0,6.9,3.1,6.9,6.9l0,0
			C444.2,630.6,441.1,633.7,437.3,633.7z"/>
		<path class="st0" d="M481.6,574.8h-47.9c-3.8,0-6.9-3.1-6.9-6.9l0,0c0-3.8,3.1-6.9,6.9-6.9h47.9c3.8,0,6.9,3.1,6.9,6.9l0,0
			C488.5,571.7,485.4,574.8,481.6,574.8z"/>
		<path class="st11" d="M270.6,531.7c0,0,4.3,14.3,19.9,25.6"/>
		<line class="st11" x1="465.2" y1="571.8" x2="446.6" y2="587.4"/>
		<path class="st12" d="M491.1,553.6c0,0,12-87.8-9.7-113.3c-18.9-22.2-41.5-23-60.6-20.5c13.4-63.6,44.9-132.5,56.5-158.9l0,0
			c4.3-8.2,6.8-17.6,6.8-27.6c0-32.8-26.6-59.5-59.5-59.5c-10.9,0-21.1,2.9-29.8,8l0,0c-0.1,0.1-0.2,0.1-0.3,0.2
			c-0.8,0.5-1.6,1-2.4,1.5c-107.7,67-149.6,177-159.3,244c-1.3,6.1-2,12.5-2,19c0,46.5,34.8,84.9,79.7,90.6
			c33.8,4.8,56.3,14,59.2,29.2c2.9,15.6,3.1,46.3,8,52.9c4.9,6.6,57.2,5.8,68.9,3.5s-3.1-11.1-3.1-11.1s2.9-21.2,3.3-45.8
			c17.5,1.1,40.2,0.3,47.4-1.2C506,562.4,491.1,553.6,491.1,553.6z"/>
		<path class="st13" d="M513.9,295.4"/>
		<path class="st12" d="M446.3,332.4c0.1,1.4,0.2,2.8,0.4,4.3"/>
		<path class="st13" d="M491.1,553.6c0,0,12-87.8-9.7-113.3c-18.9-22.2-41.5-23-60.6-20.5c13.4-63.6,44.9-132.5,56.5-158.9l0,0
			c4.3-8.2,6.8-17.6,6.8-27.6c0-32.8-26.6-59.5-59.5-59.5c-10.9,0-21.1,2.9-29.8,8l0,0c-0.1,0.1-0.2,0.1-0.3,0.2
			c-0.8,0.5-1.6,1-2.4,1.5c-107.7,67-149.6,177-159.3,244c-1.3,6.1-2,12.5-2,19c0,46.5,34.8,84.9,79.7,90.6
			c33.8,4.8,56.3,14,59.2,29.2c2.9,15.6,3.1,46.3,8,52.9c4.9,6.6,57.2,5.8,68.9,3.5s-3.1-11.1-3.1-11.1s2.9-21.2,3.3-45.8
			c17.5,1.1,40.2,0.3,47.4-1.2C506,562.4,491.1,553.6,491.1,553.6z"/>
		<path class="st12" d="M401.6,200.2c-11.6-21.4-30.4-23-36.8-16.1s-3.1,29.5,15.3,33.2C398.4,221,401.6,200.2,401.6,200.2z"/>
		<path class="st13" d="M374.2,202.5c-2.6-5,3.7-15.3,20,0"/>
		<path class="st13" d="M401.6,200.2c-11.6-21.4-30.4-23-36.8-16.1c-4.7,5-4.2,18.6,3.7,26.9"/>
		<path class="st12" d="M439.9,180.8c16.3-13.8,41.2-19,47.9-16.6c6.8,2.4-1.5,18.3-12.3,21.8c10.8,2.4,4.4,15-10.4,14.2"/>
		<path class="st13" d="M439.9,180.8c16.3-13.8,41.2-19,47.9-16.6c6.8,2.4-1.5,18.3-12.3,21.8c10.8,2.4,4.4,15-10.4,14.2"/>
		<path class="st12" d="M254.8,472.5c-9.2-17.7-34.3-20.4-32.1-9.4c-11.9-0.2-17.1,6.1-11,8.5c-10.9,8.3-14.1,30.9-4.2,45.1
			c9.9,14.2,36.1,21,60.9,0.3C283.2,489.1,254.8,472.5,254.8,472.5z"/>
		<path class="st13" d="M237.1,457.7c-8.3-2.6-15.6-0.8-14.4,5.4c-11.9-0.2-17.1,6.1-11,8.5c-10.9,8.3-14.1,30.9-4.2,45.1
			c9.9,14.2,36.1,21,60.9,0.3"/>
		<path class="st12" d="M424.3,405.5c17.4,26.2,45.4,31.4,54.9,30.5c15.1-1.5,27.6-18.2,9.9-33.2c-16.8-14.2-39.3-40.9-42.5-66.1
			l-13.3,36.6L424.3,405.5z"/>
		<path class="st13" d="M424.3,405.5c17.4,26.2,45.4,31.4,54.9,30.5c15.1-1.5,27.6-18.2,9.9-33.2c-16.8-14.2-39.3-40.9-42.5-66.1
			L433,374.1L424.3,405.5z"/>
		<path class="st14" d="M461.5,245.5c-25.3,0-29.1,41.4-7.6,45.2c19.1,3.4,28-2.3,37.3-9.6c9.3-7.3,16.7-22.3,14-26.6
			C502.4,250.1,496.8,245.5,461.5,245.5z"/>
		<path class="st0" d="M484.2,246.5c1.4,7.4,6.7,17.3,16.7,23.3c3.9-6.3,5.9-12.7,4.2-15.3C503.1,251.2,499.6,248.1,484.2,246.5z"/>
		<path class="st13" d="M459,272c-2.2,6.6,4,11.3,7.7,11.3"/>
		<path class="st13" d="M453.9,290.7c19.1,3.4,28-2.3,37.3-9.6c9.3-7.3,16.7-22.3,14-26.6c-2.7-4.4-8.3-9-43.6-9"/>
		<ellipse class="st0" cx="438" cy="243.7" rx="4.1" ry="7.9"/>
		<g>
			<path class="st15" d="M476.3,409c3.7,3.2,17.3,18.2,13.2,20.1l-76.2,35"/>
			<line class="st15" x1="446.6" y1="448.8" x2="421" y2="589.9"/>
			<path class="st15" d="M433.8,498.3c-17.7-8.4-90.4-14.7-128.2,35s-46.9,119.6-46.9,119.6"/>
			<circle class="st11" cx="421" cy="589.9" r="91.6"/>
			<circle class="st11" cx="258.8" cy="654.1" r="27.4"/>
		</g>
		<path class="st12" d="M369.8,335c-4.3,36,24.9,72.7,50.7,89.7s12,41.1-7.8,45.5s-103.3-8.6-89.8-129.5"/>
		<path class="st13" d="M369.8,335c-4.3,36,24.9,72.7,50.7,89.7s12,41.1-7.8,45.5s-103.3-8.6-89.8-129.5"/>
		<path class="st12" d="M365.2,479.1c20.6-3.5,47-6.2,68.7,19.3c21.7,25.5,9.7,113.3,9.7,113.3s14.9,8.7,3.1,11.1
			c-11.8,2.3-64.1,3.1-68.9-3.5c-4.9-6.6-5.1-37.3-8-52.9c-2.9-15.6-26.8-22.7-61.5-29.5c-7.4-1.4-20.3-5.2-25.4-7.8
			C301.9,498.4,365.2,479.1,365.2,479.1z"/>
		<path class="st13" d="M365.2,479.1c20.6-3.5,47-6.2,68.7,19.3c21.7,25.5,9.7,113.3,9.7,113.3s14.9,8.7,3.1,11.1
			c-11.8,2.3-64.1,3.1-68.9-3.5c-4.9-6.6-5.1-37.3-8-52.9c-2.9-15.6-26.4-24.8-61.5-29.5c0,0-18.6-4.2-25.4-7.8"/>
		<path class="st13" d="M418.2,441.9c4.4,9,13.9,12.7,13.9,12.7"/>
		<path class="st13" d="M398.8,455.8c1,5.5,11,13.3,17.2,13.4"/>
		<path class="st13" d="M409.6,449.1c2.6,4.9,11,13.3,17.2,13.4"/>
		<path class="st16" d="M451.2,479.6c10-8.1,3.6-31.9,3.6-31.9s-5.5,20.4,1.2,18.2s0.8-18.2,0.8-18.2s2.6,11.9,6.9,16.3
			c4.4,4.4,1-12.7-6.9-18.7"/>
		<path class="st17" d="M6.5,382.7c0,0,132.9,0,150.9,0c0-14-13.9-28.5-39.7-23.3c-4-12-22.6-23.9-42.1-23.9s-39.1,16-39.1,23.5
			C25.2,350.5-3.5,362.3,6.5,382.7z"/>
		<path class="st17" d="M503.7,104h176.1c0,0-3.8-41.8-32.3-34.3c4.6-15.7-9.3-37.5-39.5-37.5s-49.9,25.9-49.9,36.9
			C545.7,56.6,503.7,67.4,503.7,104z"/>
		<path class="st17" d="M565.8,104c-9.7,23.2-32.5,39.5-59.2,39.5c-35.4,0-64.1-28.7-64.1-64.1s28.7-64.1,64.1-64.1
			c26.2,0,48.8,15.8,58.7,38.3"/>
		<path class="st13" d="M470.3,236.1c0.7-2.5,0.4-5.3-0.8-7.6"/>
		<path class="st13" d="M457.4,220.3c0.9,1.7,1.8,3.5,2.6,5.2"/>
		<path class="st13" d="M469.7,213.5c1.2,1.6,1.7,3.6,1.5,5.6"/>
		<path class="st13" d="M458,206.9c0.8,1.7,1.5,3.3,2.3,5"/>
		<path class="st13" d="M477.5,236.1c0.6-1.1,0.8-2.4,0.6-3.6"/>
		<path class="st13" d="M448.6,214.4c-1.3-2-2.6-4-3.9-6"/>
		<path class="st13" d="M459.7,234.6c1.2,1.4,2.3,3,3.2,4.7"/>
		<path class="st13" d="M239.2,442.2c0.6-2.6,1.1-5.3,1.7-7.9"/>
		<path class="st13" d="M248.8,450.2c0.3-3.2,0.6-6.3,0.9-9.5"/>
		<path class="st13" d="M247.3,424.1c-0.8-1.4-1-3.1-0.8-4.7"/>
		<path class="st13" d="M256.9,435.1c0.4-3.2,0.8-6.4,1.2-9.5"/>
		<path class="st13" d="M264.7,447.8c0-1.8,0-3.7,0-5.5"/>
		<path class="st13" d="M265.5,413c0.8-3.1,1.1-6.3,0.7-9.5"/>
		<path class="st13" d="M252.8,409c-0.3-1.3-0.5-2.6-0.8-4"/>
		<path class="st13" d="M269.5,427.2c0.8-2,1.1-4.2,0.7-6.3"/>
		<path class="st13" d="M258.2,390.8c-0.3-2.1-0.5-4.2-0.8-6.3"/>
		<path class="st13" d="M273.6,398.8c0.3-1.3,0.5-2.6,0.8-4"/>
		<path class="st13" d="M267.1,382.1c0.3-2.4,0.6-4.7,0.9-7.1"/>
		<path class="st13" d="M261.5,362.3c0.5-1.6,1.1-3.2,1.6-4.7"/>
		<path class="st13" d="M274.2,376.6c1.4-2.4,2-5.2,1.6-7.9"/>
		<path class="st13" d="M281.3,382.1c0.8-1.7,1.1-3.7,0.7-5.5"/>
		<path class="st13" d="M272,353.7c0.5-2.4,1-4.8,1.5-7.1"/>
		<path class="st13" d="M283,355.2c0.3-1.1,0.5-2.1,0.8-3.2"/>
		<path class="st13" d="M288.7,365.5c0.5-3.2,1-6.3,1.5-9.5"/>
		<path class="st13" d="M282,333.8c0.3-1.3,0.5-2.6,0.8-4"/>
		<path class="st13" d="M288.3,342.5c0.5-1.3,1.1-2.6,1.6-4"/>
		<path class="st13" d="M294.8,344.1c0.3-1.1,0.5-2.1,0.8-3.2"/>
		<path class="st13" d="M282.1,314.9c-0.3-2.6,0.6-5.3,2.4-7.1"/>
		<path class="st13" d="M271.8,336.2c-0.1-1.7,0.5-3.4,1.6-4.8"/>
		<path class="st13" d="M292.4,317.2c0.8-2.4,1.5-4.8,2.3-7.1"/>
		<path class="st13" d="M297.8,331.5c0.7-3.8,1.8-7.5,3.3-11"/>
		<path class="st13" d="M243.2,408.2c0.3-2.4,0.5-4.7,0.8-7.1"/>
		<path class="st13" d="M249.8,381.3c-0.3-2.6-0.7-5.3-1-7.9"/>
		<path class="st13" d="M295.1,288c0.4-2.4,0.7-4.8,1.1-7.2"/>
		<path class="st13" d="M302.8,296.7c1.3-2.1,2.6-4.2,3.9-6.4"/>
		<path class="st13" d="M309.8,305.4c1.7-1.2,3.1-2.9,3.9-4.8"/>
		<path class="st13" d="M310.7,272.9c0.6-2.6,1.1-5.3,1.7-7.9"/>
		<path class="st13" d="M316.8,281.6c0.8-1.3,1.6-2.6,2.4-4"/>
		<path class="st13" d="M332,277.7c0.8-2.6,1.6-5.3,2.4-7.9"/>
		<path class="st13" d="M323.1,259.5c-0.8-2.9-0.5-6.1,1-8.7"/>
		<path class="st13" d="M334.3,257.1c1.6-1.8,3.2-3.7,4.7-5.5"/>
		<path class="st13" d="M335.1,241.3c-0.1-2.1,0.8-4.2,2.4-5.5"/>
		<path class="st13" d="M347,256.3c1.3-2.6,2.6-5.3,3.9-7.9"/>
		<path class="st13" d="M347.8,230.2c0.5-2.3,1.9-4.4,3.9-5.6"/>
		<path class="st13" d="M359.6,235.7c1.6-1.3,3.2-2.6,4.7-4"/>
		<path class="st13" d="M363.6,217.6c0.8-1.6,1.6-3.2,2.4-4.7"/>
		<path class="st13" d="M330.3,294.3c-1,2.7-1.9,5.3-2.9,8"/>
		<path class="st13" d="M315.4,322c0.3-0.8,0.5-1.6,0.8-2.4"/>
		<path class="st13" d="M308.2,356c0-3,0.6-5.9,1.7-8.7"/>
		<path class="st13" d="M308.2,335.4c0.1,1.7-0.5,3.4-1.6,4.8"/>
		<path class="st13" d="M298.7,378.2c-0.4-3.7-0.1-7.5,0.7-11.1"/>
		<path class="st13" d="M309,379.7c0.8-1.6,1.6-3.2,2.4-4.8"/>
		<path class="st13" d="M299.5,401.9c0-1.1,0-2.1,0-3.2"/>
		<path class="st13" d="M287.6,393.2c0-1.6,0-3.2,0-4.7"/>
		<path class="st13" d="M288.4,423.3c0-2.6,0-5.3,0-7.9"/>
		<path class="st13" d="M301.1,424.8c-0.1-2.8,0.8-5.6,2.4-7.9"/>
		<path class="st13" d="M304.2,441.5c0.3-2.9,0.6-5.8,1-8.7"/>
		<path class="st13" d="M286.9,450.2c0.3-2.2-0.3-4.5-1.6-6.3"/>
		<path class="st13" d="M372.3,485.7c2.3-0.9,4.8-1.1,7.1-0.7"/>
		<path class="st13" d="M371.5,494.6c1.3,0.3,2.6,0.5,4,0.8"/>
		<path class="st13" d="M387.3,487.5c1.1,0.3,2.1,0.5,3.2,0.8"/>
		<path class="st13" d="M400,485c2.4,0.8,4.6,2.1,6.5,3.8"/>
		<path class="st13" d="M389.7,500c1.9,2.1,3.7,4.2,5.6,6.3"/>
		<path class="st13" d="M409.5,500.8c0.8,1.3,1.6,2.6,2.4,4"/>
		<path class="st13" d="M419.8,499.2c1.7,2.1,3.1,4.5,4,7.1"/>
		<path class="st13" d="M413.4,521.4c1,1.6,1.6,3.6,1.6,5.5"/>
		<path class="st13" d="M428.4,519.8c0.3,2.1,0.6,4.2,1,6.3"/>
		<path class="st13" d="M417.4,515.8c-0.2,1.1,0,2.3,0.8,3.2"/>
		<path class="st13" d="M427.7,543.5c0-2.9,0-5.8,0-8.7"/>
		<path class="st13" d="M437.2,540.4c0.2-3.2,0-6.4-0.8-9.5"/>
		<path class="st13" d="M449.2,433.3c2.1,0.9,4.2,1.7,6.2,2.6"/>
		<path class="st13" d="M475.1,450.2c0,1.8,1,3.6,2.6,4.5"/>
		<path class="st13" d="M470.3,458.9c0.5,1.6,1.1,3.2,1.6,4.7"/>
		<path class="st13" d="M482.9,468.4c0.3,2.1,0.6,4.2,0.8,6.3"/>
		<path class="st13" d="M475.2,474.7c0,1.3,0,2.6,0,4"/>
		<path class="st13" d="M481.7,459.6c0.3,0.8,0.5,1.6,0.8,2.4"/>
		<path class="st13" d="M463.3,469.1c0.5,1.3,1.1,2.6,1.6,4"/>
		<path class="st13" d="M482.3,487.3c0.5,1.6,1.1,3.1,1.6,4.7"/>
		<g>
			<path class="st13" d="M338.3,405.4c-0.2,2.8,0.2,5.6,1.2,8.2"/>
			<path class="st13" d="M347.1,410c0.8,2.6,2,5.1,3.4,7.4c0.2-0.7,0.4-1.3,0.6-2"/>
			<path class="st13" d="M351.7,402.6c0.6,1.2,1.1,2.4,1.7,3.6"/>
			<path class="st13" d="M347.2,425.2c1.4,1.5,3.1,2.7,5.1,3.3"/>
			<path class="st13" d="M359.4,418.5c1.2,1,2.3,2,3.5,3"/>
			<path class="st13" d="M362.7,407.7c1.1,1.3,2.3,2.5,3.4,3.8"/>
			<path class="st13" d="M362.5,429.3c1.2,2.4,3.8,4.1,6.5,4.2"/>
		</g>
		<path class="st13" d="M449.8,375c1.3,2.4,2.6,4.8,3.9,7.1"/>
		<path class="st13" d="M445.7,384.6c1.1,1.6,2.2,3.1,3.3,4.7"/>
		<path class="st13" d="M455.4,393.2c1.5,0.5,2.7,1.6,3.3,3.1"/>
		<path class="st13" d="M441.2,393.1c1,1.8,2.7,3.3,4.6,4.1"/>
		<path class="st13" d="M436.5,376.5c1,1.6,2.1,3.2,3.1,4.8"/>
		<path class="st13" d="M441.2,369.4c1.1,1.6,2.2,3.1,3.2,4.7"/>
		<path class="st13" d="M212.5,507.1c0.5,3.3,2.5,6.4,5.4,8.1"/>
		<path class="st13" d="M225.1,519c1.7,0.8,3.7,1.1,5.5,0.7"/>
		<path class="st13" d="M222,506.3c1.3,0.5,2.6,1.1,4,1.6"/>
		<path class="st13" d="M240.2,512.6c1.6,0.3,3.3,0.1,4.8-0.7"/>
		<path class="st13" d="M247.3,520.6c1.8-0.6,3.3-2.2,3.9-4"/>
		<path class="st13" d="M233.8,504.8c2.2,0.8,4.8,0.1,6.3-1.6"/>
		<path class="st13" d="M256.8,511.1c1.2,0.1,2.6,0.1,3.4-0.8c0.8-0.9,0.1-2.8-1-2.4"/>
		<path class="st13" d="M414.3,308.7c-6.5,3.6-10.7,11-10.6,18.4c0,1.3,0.2,2.7,1.2,3.6c1.4,1.2,3.7,0.5,5.2-0.7
			c1.4-1.2,2.5-2.9,4.2-3.8c-2.1,5.2-2.3,11.2-0.5,16.6c0.3,0.9,0.8,2,1.8,2.2c2.1,0.4,3.4-3.5,5.4-2.6c-0.2,1.7-0.5,3.6,0,5.2
			c0.5,1.7,1.9,3.2,3.7,3.3c1.8,0,3.4-2.1,2.5-3.6"/>
		<g>
			<path class="st16" d="M460.1,441.1C317,422.8,229.9,361.9,223.5,242.3c-5.8-109-79.6-172.7-79.6-172.7"/>
			<path class="st16" d="M453.5,441.5c-41.7,1.7-175,0.7-222.8-73.6c-39.9-62-167.6-117.7-202.3-132"/>
			<path class="st18" d="M161,43.5c6.2-1.7,13.3-42.3,39.3-42.5c53.9-0.4,53.1,88.8,10.8,150.6c18,16.4,18,16.4,18,16.4l-35.9,20.4
				c0,0,8.2-17,5.2-29.3c-77-8.4-137.4-95.8-85.6-127.9C135.1,17.4,154.8,45.2,161,43.5z"/>
			<path class="st3" d="M56.5,194c6.6-7-11.1-32.8,11.2-48.5c44.1-31,93.6,61,75,133.5c22.5,9.2,22.5,9.2,22.5,9.2l-26.8,31.4
				c0,0,1.9-18.7-5.1-29.3C61.4,307.9-16.1,261,4.5,208.8C15.3,181.4,51,199.8,56.5,194z"/>
			<path class="st16" d="M454.4,445c-37.2-50.2-90.3-100.4-152.9-109.8c-79.7-12-129.2-91.3-140.7-143.5"/>
			<path class="st2" d="M123.8,81.9c7.3-4.2,7.2-38.8,33.2-40.1c58-3,66.3,103.3,16.1,164.7c17.1,18.5,20.8,22.7,20.8,22.7
				l-33.7,9.6c0,0,1.2-12.7-0.8-25.7c-73.8-14.5-136.9-97-93.3-132.6C89.8,61.2,117,82.7,123.8,81.9z"/>
			<path class="st16" d="M142.6,279c0,0-3.4,6.7-9.3,11.3"/>
			<path class="st16" d="M173.5,208.6c0,0-6.3,4.1-13.7,5.2"/>
			<path class="st16" d="M136,288c-10.6,15.1-5.7,20.5-3,18.1s5.2-18.2,5.2-18.2s3,16.5,9.5,13.3s-9.6-15.4-9.6-15.4
				c0.9,14.5-5.6,32.1-13.4,37.3"/>
			<path class="st19" d="M211.2,152.4c0,0-4.5,5.8-11.4,9.2"/>
			<path class="st19" d="M203,159.8c-13.3,12.5-8.9,18.3-5.8,16.5c3.2-1.8,8.1-16.3,8.1-16.3s0.7,15.9,7.9,13.9s-7.7-15.9-7.7-15.9
				c-1.2,13.7-0.3,25.6-6.6,32.2"/>
			<path class="st16" d="M166.7,212.5c-8.9,13.4-20.2,12.4-17.6,9.7c2.7-2.7,12.8-8.5,12.8-8.5l6.9-2.6c0,0,5.7,18.4,1.1,18.6
				C166.6,229.8,164.6,215.8,166.7,212.5c-4.7,8.9-4.4,27.3,4,32.9"/>
			<path class="st16" d="M168.9,211c-3,5.5-2.9,23.8,15.9,38.6"/>
			<g>
				<path class="st9" d="M200.3,1c-23.5,0.2-31.6,33.2-37.5,40.9c40.1,3.3,53.2,62.8,35.6,117.2l0,0c3,12.4-5.2,29.3-5.2,29.3
					l35.9-20.4c0,0,0,0-18-16.4C253.5,89.8,254.3,0.5,200.3,1z"/>
				<path class="st9" d="M123.8,81.9c7.2-4.1,7.2-38.1,32.5-40c-8.8-5.5-25.2-21.9-43.3-10.7c-16,9.9-21.3,25.2-18.7,41.7
					C108.1,74.7,119.7,82.4,123.8,81.9z"/>
				<path class="st9" d="M64.3,148.2c-17,15.8-1.6,39.1-7.9,45.8c-5.4,5.8-41.1-12.6-52,14.8c-20.6,52.2,56.9,99.1,128.8,81.5
					c7,10.6,5.1,29.3,5.1,29.3l26.8-31.4c0,0,0,0-22.5-9.2c5.9-23.1,4.9-48.2-0.6-70.6C109.1,197.1,80.1,173.3,64.3,148.2z"/>
				<path class="st9" d="M162.9,41.9c-1.9-0.2-3.9-0.2-5.9-0.1c-0.2,0-0.4,0-0.7,0.1c-25.3,1.9-25.3,35.9-32.5,40
					c-4.1,0.5-15.8-7.2-29.6-9.1c-9-1.2-18.8,0.1-28.1,7.7c-20.1,16.4-17.6,42.7-1.8,67.7c15.8,25.1,44.8,48.9,77.7,60.2
					c5.7,2,11.5,3.5,17.3,4.7c2,13,0.8,25.7,0.8,25.7l33.7-9.6c0,0-3.7-4.2-20.8-22.7c11.5-14.1,19.9-30.5,25.4-47.5
					C216,104.7,203,45.2,162.9,41.9z"/>
			</g>
		</g>
	</g>
	<path class="st20" d="M402.1,258.4c-12.1,2.4-16.6,12.2-13,18.5s11.9,11.5,22.2,7.9s14.8-12.2,13.3-16.6
		C423.2,263.8,416.3,255.7,402.1,258.4z"/>
</g>
</svg>
