<?xml version="1.0" encoding="utf-8"?>
<!-- Generator: Adobe Illustrator 24.1.1, SVG Export Plug-In . SVG Version: 6.00 Build 0)  -->
<svg version="1.1" xmlns="http://www.w3.org/2000/svg" xmlns:xlink="http://www.w3.org/1999/xlink" x="0px" y="0px"
	 viewBox="0 0 656.7 606.8" style="enable-background:new 0 0 656.7 606.8;" xml:space="preserve">
<style type="text/css">
	.st0{fill:none;stroke:#686472;stroke-width:2;stroke-linecap:round;stroke-linejoin:round;stroke-miterlimit:10;}
	.st1{fill:none;stroke:#686472;stroke-width:1.7313;stroke-linecap:round;stroke-linejoin:round;stroke-miterlimit:10;}
	.st2{fill:#4F847B;}
	.st3{fill:none;stroke:#464454;stroke-width:4;stroke-linecap:round;stroke-linejoin:round;stroke-miterlimit:10;}
	.st4{fill:none;stroke:#464454;stroke-width:1.9105;stroke-linecap:round;stroke-linejoin:round;stroke-miterlimit:10;}
	.st5{fill:#38796E;}
	.st6{fill:#006B5E;}
	.st7{fill:none;stroke:#898592;stroke-width:6.9142;stroke-linecap:round;stroke-linejoin:round;stroke-miterlimit:10;}
	.st8{fill:#ACA9B2;}
	.st9{opacity:0.5;fill:#E46C0D;}
	.st10{fill:none;stroke:#464454;stroke-width:2.7095;stroke-linecap:round;stroke-linejoin:round;stroke-miterlimit:10;}
	.st11{fill:#C9C6CD;}
	.st12{fill:#464454;}
	.st13{fill:none;stroke:#686472;stroke-width:1.9654;stroke-linecap:round;stroke-linejoin:round;stroke-miterlimit:10;}
	.st14{fill:none;stroke:#686472;stroke-width:1.6461;stroke-linecap:round;stroke-linejoin:round;stroke-miterlimit:10;}
	.st15{fill:none;stroke:#686472;stroke-width:2.4112;stroke-linecap:round;stroke-linejoin:round;stroke-miterlimit:10;}
	.st16{fill:#9ED8F1;}
	.st17{fill:#E46C0D;stroke:#686472;stroke-width:1.6461;stroke-miterlimit:10;}
</style>
<g id="Calque_7">
</g>
<g id="Calque_3">
</g>
<g id="Calque_5">
</g>
<g id="Calque_2">
</g>
<g id="Calque_6">
	<g>
		<g>
			<path class="st0" d="M57.8,199.7c-5.3,11.1-12.2,23.8,0,23.8C70.1,223.5,63.1,210.8,57.8,199.7z"/>
			<path class="st0" d="M103.4,199.7c-5.3,11.1-12.2,23.8,0,23.8C115.7,223.5,108.7,210.8,103.4,199.7z"/>
			<path class="st0" d="M80.6,233.8c-5.3,11.1-12.2,23.8,0,23.8C92.9,257.7,85.9,244.9,80.6,233.8z"/>
			<path class="st0" d="M31.1,233.8c-5.3,11.1-12.2,23.8,0,23.8C43.3,257.7,36.4,244.9,31.1,233.8z"/>
			<path class="st0" d="M126.2,233.8c-5.3,11.1-12.2,23.8,0,23.8C138.5,257.7,131.5,244.9,126.2,233.8z"/>
		</g>
		<path class="st1" d="M9.1,185.1c0,0,132.9,0,150.9,0c0-14-13.9-28.5-39.7-23.3c-4-12-22.6-23.9-42.1-23.9s-39.1,16-39.1,23.5
			C27.8,152.9-0.9,164.8,9.1,185.1z"/>
		<g>
			<g>
				<path class="st2" d="M55.1,549.2c0,0,64.1-418.6,117.5-418.7s126.2,418.7,126.2,418.7H55.1z"/>
				<path class="st3" d="M55.1,549.2c0,0,64.1-418.6,117.5-418.7s126.2,418.7,126.2,418.7H55.1z"/>
				<line class="st4" x1="172.6" y1="130.5" x2="172.6" y2="551.7"/>
				<polyline class="st4" points="134.7,187.5 172.6,250.1 213.3,191.7 				"/>
				<polyline class="st4" points="109.9,271.2 172.6,335.8 239.8,276.9 				"/>
				<polyline class="st4" points="90,358 172.6,435.7 262,366.8 				"/>
				<polyline class="st4" points="72.9,445 172.6,517.6 282.5,463.2 				"/>
				<line class="st4" x1="83.6" y1="389.3" x2="125.4" y2="483.2"/>
				<line class="st4" x1="145.8" y1="498.1" x2="59.6" y2="521.3"/>
				<line class="st4" x1="141.2" y1="303.5" x2="123.5" y2="221.5"/>
			</g>
			<g>
				<path class="st5" d="M159.7,549.2c0,0,99.2-547.1,181.9-547.2c82.7-0.1,195.3,547.2,195.3,547.2H159.7z"/>
				<path class="st3" d="M159.7,549.2c0,0,99.2-547.1,181.9-547.2c82.7-0.1,195.3,547.2,195.3,547.2H159.7z"/>
				<line class="st4" x1="341.6" y1="2" x2="341.6" y2="549.2"/>
				<polyline class="st4" points="284.3,73.4 341.6,150.6 402.4,77.2 				"/>
				<line class="st4" x1="379.3" y1="33.6" x2="369" y2="117.6"/>
				<polyline class="st4" points="260.5,135.6 341.6,233.7 426,135.6 				"/>
				<polyline class="st4" points="232.1,228.8 341.6,342.7 455.3,224.1 				"/>
				<polyline class="st4" points="206.6,328.2 343,431.4 484.6,328.2 				"/>
				<line class="st4" x1="249.1" y1="170.6" x2="294.1" y2="293.3"/>
				<line class="st4" x1="436.7" y1="166" x2="386.8" y2="295.5"/>
			</g>
			<g>
				<path class="st6" d="M370.9,549.2c0,0,62.8-304.7,115.1-304.8c52.3-0.1,123.5,304.8,123.5,304.8H370.9z"/>
				<path class="st3" d="M370.9,549.2c0,0,62.8-304.7,115.1-304.8c52.3-0.1,123.5,304.8,123.5,304.8H370.9z"/>
				<polyline class="st4" points="433.5,321.7 485.9,357.1 456.7,271.2 				"/>
				<line class="st4" x1="536.9" y1="311.6" x2="485.9" y2="357.1"/>
				<polyline class="st4" points="412.6,383.8 485.9,435 558.7,370.8 				"/>
				<polyline class="st4" points="396,449.5 486.1,505.8 582.1,445.5 				"/>
				<line class="st4" x1="565.3" y1="390.4" x2="536.9" y2="473.9"/>
				<polyline class="st4" points="379.8,508.8 485.9,549.2 485.9,244.4 				"/>
				<polyline class="st4" points="600.3,512.3 485.9,549.2 428,469.5 				"/>
			</g>
		</g>
		<line class="st7" x1="3.5" y1="551.7" x2="653.3" y2="551.7"/>
		<g>
			<path class="st0" d="M493.3,67.2h160c0,0-3.5-38-29.3-31.1c4.2-14.2-8.4-34-35.9-34s-45.4,23.5-45.4,33.5
				C531.4,24.2,493.3,33.9,493.3,67.2z"/>
			<g>
				<path class="st0" d="M556.7,82.3c-5.3,11.1-12.2,23.8,0,23.8C568.9,106.2,561.9,93.4,556.7,82.3z"/>
				<path class="st0" d="M602.3,82.3c-5.3,11.1-12.2,23.8,0,23.8C614.5,106.2,607.6,93.4,602.3,82.3z"/>
				<path class="st0" d="M579.5,116.5c-5.3,11.1-12.2,23.8,0,23.8C591.7,140.3,584.8,127.6,579.5,116.5z"/>
				<path class="st0" d="M530,116.5c-5.3,11.1-12.2,23.8,0,23.8C542.2,140.3,535.2,127.6,530,116.5z"/>
				<path class="st0" d="M625.1,116.5c-5.3,11.1-12.2,23.8,0,23.8C637.4,140.3,630.4,127.6,625.1,116.5z"/>
			</g>
		</g>
		<g>
			<path class="st8" d="M548.5,516.1c-2.3,3.1-6.3,4.3-9.8,2.8c-11.8-4.8-23.3-12.5-39.8-12.1c-7.4,0.2-12.8,1.4-16.8,2.8
				c-5.1,1.9-10.5-1.6-11.2-7.1c-8.5-66-50.6-330.9-142.6-330.9S194.3,436.6,185.8,502.6c-0.7,5.5-6.1,9-11.2,7.1
				c-3.9-1.5-9.4-2.6-16.8-2.8c-17.8-0.5-24.9,5.9-38.8,12c-3.4,1.5-7.4,0.5-9.8-2.5c-4.2-5.3-12.1-9.5-12.1-4.7v70.7
				c0,4.8,3.8,8.8,8.5,8.8h222.7H551c4.7,0,8.5-3.9,8.5-8.8v-70.7C559.5,506.9,552.4,510.9,548.5,516.1z"/>
			<g>
				<path class="st9" d="M268.4,271.8c-12.1,2.4-16.6,12.2-13,18.5s11.9,11.5,22.2,7.9c10.3-3.6,14.8-12.2,13.3-16.6
					C289.5,277.2,282.6,269.1,268.4,271.8z"/>
				<path class="st9" d="M388.3,271.8c12.1,2.4,16.6,12.2,13,18.5c-3.6,6.3-11.9,11.5-22.2,7.9c-10.3-3.6-14.8-12.2-13.3-16.6
					C367.2,277.2,374.2,269.1,388.3,271.8z"/>
			</g>
			<g>
				<path class="st10" d="M293.1,251.6c0,7.6,0.2,14.1,4.8,14.1c4.3,0,6.5-9.1,6.5-13.4"/>
				<path class="st10" d="M363.6,251.6c0,7.6-0.2,14.1-4.8,14.1c-4.3,0-6.5-9.1-6.5-13.4"/>
			</g>
			<path class="st11" d="M328.4,258c-11.3,0.6-33,13.9-32,30.9s16.5,39.1,32,39.1c15.5,0,31.1-22.1,32-39.1
				C361.3,271.9,339.7,258.7,328.4,258z"/>
			<path class="st12" d="M348.7,273.3c-13.4-2.6-27.3-2.6-40.7,0c3,6.4,15.5,17.4,20.4,17.4S345.7,279.7,348.7,273.3z"/>
			<path class="st0" d="M344.5,309.8c-1.7-6.7-9.5-7.4-12.6-5.4"/>
			<path class="st0" d="M327.2,384.1c-6.5,3.6-10.7,11-10.6,18.4c0,1.3,0.2,2.7,1.2,3.6c1.4,1.2,3.7,0.5,5.2-0.7
				c1.4-1.2,2.5-2.9,4.2-3.8c-2.1,5.2-2.3,11.2-0.5,16.6c0.3,0.9,0.8,2,1.8,2.2c2.1,0.4,3.4-3.5,5.4-2.6c-0.2,1.7-0.5,3.6,0,5.2
				c0.5,1.7,1.9,3.2,3.7,3.3c1.8,0,3.4-2.1,2.5-3.6"/>
			<path class="st13" d="M548.5,516.1c-2.3,3.1-6.3,4.3-9.8,2.8c-11.8-4.8-23.3-12.5-39.8-12.1c-7.4,0.2-12.8,1.4-16.8,2.8
				c-5.1,1.9-10.5-1.6-11.2-7.1c-8.5-66-50.6-330.9-142.6-330.9S194.3,436.6,185.8,502.6c-0.7,5.5-6.1,9-11.2,7.1
				c-3.9-1.5-9.4-2.6-16.8-2.8c-17.8-0.5-24.9,5.9-38.8,12c-3.4,1.5-7.4,0.5-9.8-2.5c-4.2-5.3-12.1-9.5-12.1-4.7v70.7
				c0,4.8,3.8,8.8,8.5,8.8h222.7H551c4.7,0,8.5-3.9,8.5-8.8v-70.7C559.5,506.9,552.4,510.9,548.5,516.1z"/>
			<g>
				<g>
					<path class="st8" d="M290.3,229c-11.6-21.4-30.4-23-36.8-16.1c-6.4,6.9-3.1,29.5,15.3,33.2C287.1,249.8,290.3,229,290.3,229z"
						/>
					<path class="st0" d="M262.9,231.3c-2.6-5,3.7-15.3,20,0"/>
					<path class="st0" d="M290.3,229c-11.6-21.4-30.4-23-36.8-16.1c-4.7,5-4.2,18.6,3.7,26.9"/>
				</g>
				<g>
					<path class="st8" d="M372.5,222.4c17.4-17,35.8-13,39.9-4.6s-5.8,29.1-24.4,27.3C369.4,243.2,372.5,222.4,372.5,222.4z"/>
					<path class="st0" d="M398.1,232.7c4-4,1-15.7-19.2-5.9"/>
					<path class="st0" d="M372.5,222.4c17.4-17,35.8-13,39.9-4.6c3,6.2-1.5,19-11.5,24.6"/>
				</g>
			</g>
			<g>
				<path class="st8" d="M334.1,185.9c18.2,9.4,25.3,18.2,27.2,25.1c1.9,6.9-15.8,9.3-24.9,2.4c4.2,10.2-9.8,12.2-17.6-0.4"/>
				<path class="st0" d="M334.1,185.9c18.2,9.4,25.3,18.2,27.2,25.1c1.9,6.9-15.8,9.3-24.9,2.4c4.2,10.2-9.8,12.2-17.6-0.4"/>
			</g>
			<g>
				<path class="st8" d="M240.1,410.1C227.7,446,251.2,580.3,277.1,598c21.6,14.8,52.8,9.2,60.8-18.1c8-27.3-51.5-123-47.4-149.7"/>
				<path class="st14" d="M240.1,410.1C227.7,446,251.2,580.3,277.1,598c21.6,14.8,52.8,9.2,60.8-18.1c8-27.3-51.5-123-47.4-149.7"
					/>
				<g>
					<path class="st15" d="M314.8,575.6c3.9,11.4,14.8,17.3,14.8,17.3"/>
					<path class="st15" d="M289.4,586.4c0.4,6.8,11.2,17.5,18.7,18.5"/>
					<path class="st15" d="M301.7,581.9c2.5,6.3,11.2,17.5,18.7,18.5"/>
				</g>
			</g>
			<g>
				<path class="st8" d="M422.1,410.1c18.8,67-11,171.3-37.1,187.9c-22.2,14.1-52.8,9.2-60.8-18.1c-8-27.3,51.1-113.6,46.9-140.4"/>
				<path class="st14" d="M422.1,410.1c18.8,67-11,171.3-37.1,187.9c-22.2,14.1-52.8,9.2-60.8-18.1c-8-27.3,51.1-113.6,46.9-140.4"
					/>
			</g>
			<path class="st0" d="M316,323.8c3.9,2.7,8.1,4.4,12.4,4.4c15.5,0,31.1-22.1,32-39.1c0.5-8.4-4.6-15.9-11.2-21.4"/>
			<path class="st16" d="M359.2,270.7c-4.7,9.6-10.8,20.7,0,20.7C370,291.4,363.8,280.3,359.2,270.7z"/>
			<path class="st16" d="M359.2,303.7c-6.3,13.1-14.7,28.1,0,28.1C373.9,331.8,365.5,316.8,359.2,303.7z"/>
			<g>
				<path class="st15" d="M347.8,576.5c-4.2,11.3-15.2,16.9-15.2,16.9"/>
				<path class="st15" d="M371.6,586.6c-0.5,6.8-11.6,17.2-19.1,18.1"/>
				<path class="st15" d="M360.7,583.1c-2.6,6.2-11.6,17.2-19.1,18.1"/>
			</g>
		</g>
		<path class="st17" d="M279.6,341.1c0,0-46.7,117.9-100.2,135.6l30.8,28.8c30.8-14.8,104.2-119.3,113.3-161.2
			C317.2,344.7,279.6,341.1,279.6,341.1z"/>
		<path class="st17" d="M229.3,301.4c14.4,13,47.2,28.1,86.7,37.4c38.3,9,83.1,12.7,123.7,3.9c5.1,19.8,9.6,38.7,9.6,38.7
			c-47.6,5.8-175.3-2.8-231.5-41.5C222.9,322,229.3,301.4,229.3,301.4z"/>
		<path class="st17" d="M269,321.5c0,0-71.7,104.6-127.8,110l23.6,34.9c33.3-7.6,128.1-93.2,146.2-132
			C304.9,333.3,269,321.5,269,321.5z"/>
		<line class="st17" x1="323.5" y1="339.9" x2="321" y2="374.9"/>
		<line class="st17" x1="348.3" y1="344.8" x2="353.2" y2="379.4"/>
		<line class="st17" x1="375.3" y1="347.4" x2="375.7" y2="381.4"/>
		<line class="st17" x1="400.9" y1="347.5" x2="406.4" y2="382.9"/>
		<line class="st17" x1="412.6" y1="346.7" x2="412.6" y2="383.8"/>
		<line class="st17" x1="316" y1="338.8" x2="316" y2="374"/>
		<line class="st17" x1="256.4" y1="318.4" x2="242" y2="353"/>
		<line class="st17" x1="236.7" y1="306.6" x2="230.2" y2="347.4"/>
		<line class="st17" x1="262" y1="331.2" x2="300.9" y2="350.8"/>
		<line class="st17" x1="253.2" y1="342.7" x2="296.3" y2="358"/>
		<line class="st17" x1="236.7" y1="361.8" x2="269" y2="387.7"/>
		<line class="st17" x1="224" y1="376.7" x2="256.4" y2="400.1"/>
		<line class="st17" x1="204.2" y1="396.2" x2="232.1" y2="422.2"/>
		<line class="st17" x1="174.8" y1="418.6" x2="206.6" y2="442.6"/>
		<line class="st17" x1="164.4" y1="424.4" x2="195.9" y2="450.2"/>
		<line class="st17" x1="301.4" y1="393.9" x2="274.8" y2="381.4"/>
		<line class="st17" x1="288.1" y1="415.7" x2="249.2" y2="406.9"/>
		<line class="st17" x1="240.2" y1="417.7" x2="276.4" y2="433.1"/>
		<line class="st17" x1="219.9" y1="445.5" x2="256.4" y2="460"/>
		<line class="st17" x1="213.3" y1="452.9" x2="243.4" y2="475.7"/>
		<line class="st17" x1="198.4" y1="466.3" x2="230.2" y2="489.8"/>
		<path class="st0" d="M319.6,251.2c-1.1-2.9-2.2-5.7-3.3-8.6"/>
		<path class="st0" d="M326.7,252.7c0-1.9,0-3.9,0-5.8"/>
		<path class="st0" d="M336.4,253.2c0.4-1.9,0.7-3.9,1.1-5.8"/>
		<path class="st0" d="M342.5,240.5c1-2.1,1.3-4.6,0.8-6.9"/>
		<path class="st0" d="M329,240c-0.2-2.6-1.2-5.2-2.8-7.3"/>
		<path class="st0" d="M318.3,232.1c-0.2-2.2-0.7-4.3-1.6-6.3"/>
		<path class="st0" d="M348.8,247.4c0.6-1.7,1.1-3.5,1.7-5.2"/>
		<path class="st0" d="M352,226.8c0.2-1.6,0.4-3.2,0.6-4.7"/>
		<path class="st0" d="M342,227.4c0-1.4,0-2.8,0-4.2"/>
		<path class="st0" d="M254.4,498c0.4,3.3,0.8,6.7,1.2,10"/>
		<path class="st0" d="M257.6,519.6c0.9,2.5,1.8,4.9,2.7,7.4"/>
		<path class="st0" d="M267.2,524.9c0.4,1.8,1.3,3.4,2.6,4.8"/>
		<path class="st0" d="M262.4,510.1c0.3,2.2,1,4.4,2,6.4"/>
		<path class="st0" d="M267.1,503.8c0.8,1.8,1.7,3.6,2.5,5.3"/>
		<path class="st0" d="M268.2,490c0.9,1,1.5,2.4,1.5,3.7"/>
		<path class="st0" d="M276.7,506.4c0.7,2.3,1.4,4.6,2.2,6.8"/>
		<path class="st0" d="M272.4,518c0.9,1.9,1.8,3.8,2.7,5.8"/>
		<path class="st0" d="M393.5,487.4c0.2,3.2-0.3,6.5-1.4,9.5"/>
		<path class="st0" d="M393.2,508c-0.9,2.6-1.7,5.3-2.6,7.9"/>
		<path class="st0" d="M387,495.9c-0.5,3.4-1.5,6.8-2.7,10"/>
		<path class="st0" d="M401.1,500.6c0,2.5-0.3,5-1.1,7.4"/>
		<path class="st0" d="M407.4,483.2c0.2,2.5,0.1,5-0.5,7.4"/>
		<path class="st0" d="M416,493.2c-0.7,4.2-1.4,8.4-2.2,12.7"/>
		<path class="st0" d="M409.5,515.9c-2,3.5-3.9,7-5.9,10.5"/>
		<path class="st0" d="M408.5,504.8c0,2-0.4,3.9-1.1,5.8"/>
		<path class="st0" d="M402.2,480.6c-0.2,1.8-0.4,3.5-0.7,5.3"/>
		<path class="st0" d="M396.4,527.5c0.3-1.6,0.7-3.2,1-4.7"/>
		<path class="st0" d="M136.8,523.8c1-2.3,3-4.2,5.3-5.2"/>
		<path class="st0" d="M153.7,518.5c1.2,0,2.5,0,3.7,0"/>
		<path class="st0" d="M149.5,531.6c1.2-0.7,2.5-1.3,3.7-2"/>
		<path class="st0" d="M147.9,516.8c2.1-1.2,4.2-2.4,6.4-3.6"/>
		<path class="st0" d="M145.8,526.3c1.4-0.2,2.8-0.3,4.2-0.5"/>
		<path class="st0" d="M169,525.9c2.1,0.2,4.2,0.4,6.3,0.6"/>
		<path class="st0" d="M165.3,517.4c1.3-0.5,2.8-0.7,4.2-0.5"/>
		<path class="st0" d="M163.8,534.9c0.9,0,1.8,0,2.6,0"/>
		<path class="st0" d="M137.9,538.1c-1.6-0.3-3.4,0-4.8,1"/>
		<path class="st0" d="M491.4,517.5c2.2-1.3,4.8-1.8,7.3-1.7"/>
		<path class="st0" d="M505,516.3c2.1,0.2,4.2,0.4,6.3,0.6"/>
		<path class="st0" d="M516.1,518c1.3,0.1,2.6,1,3.2,2.1"/>
		<path class="st0" d="M507.1,526.1c2.3,0.6,4.5,1.6,6.5,2.9"/>
		<path class="st0" d="M497.6,528.5c1.5,0.2,3,1.3,3.6,2.7"/>
		<path class="st0" d="M502.9,536.4c1.6,0.2,3.2,0.4,4.7,0.6"/>
		<path class="st0" d="M499.7,524.3c1.1,0.5,2.5,0.7,3.7,0.5"/>
		<path class="st0" d="M485.5,526c1.7,0.1,3.3,1.1,4.3,2.5"/>
		<path class="st0" d="M493.4,535.4c2-0.1,4-0.6,5.8-1.6"/>
		<path class="st0" d="M517.2,534.3c1.2,0.3,2.5,0.4,3.7,0.2"/>
		<path class="st0" d="M524,528.5c1.2,0,2.5,0,3.7,0"/>
	</g>
</g>
</svg>
