<?xml version="1.0" encoding="utf-8"?>
<!-- Generator: Adobe Illustrator 24.1.1, SVG Export Plug-In . SVG Version: 6.00 Build 0)  -->
<svg version="1.1" xmlns="http://www.w3.org/2000/svg" xmlns:xlink="http://www.w3.org/1999/xlink" x="0px" y="0px"
	 viewBox="0 0 656.7 606.8" style="enable-background:new 0 0 656.7 606.8;" xml:space="preserve">
<style type="text/css">
	.st0{fill:#4F847B;}
	.st1{fill:none;stroke:#464454;stroke-width:4;stroke-linecap:round;stroke-linejoin:round;stroke-miterlimit:10;}
	.st2{fill:none;stroke:#464454;stroke-width:1.9105;stroke-linecap:round;stroke-linejoin:round;stroke-miterlimit:10;}
	.st3{fill:#38796E;}
	.st4{fill:#006B5E;}
	.st5{fill:none;stroke:#898592;stroke-width:6.9142;stroke-linecap:round;stroke-linejoin:round;stroke-miterlimit:10;}
	.st6{fill:#ACA9B2;}
	.st7{fill:none;stroke:#686472;stroke-width:1.9654;stroke-linecap:round;stroke-linejoin:round;stroke-miterlimit:10;}
	.st8{fill:none;stroke:#686472;stroke-width:1.6461;stroke-linecap:round;stroke-linejoin:round;stroke-miterlimit:10;}
	.st9{fill:none;stroke:#686472;stroke-width:2.4112;stroke-linecap:round;stroke-linejoin:round;stroke-miterlimit:10;}
	.st10{fill:none;stroke:#686472;stroke-width:2;stroke-linecap:round;stroke-linejoin:round;stroke-miterlimit:10;}
	.st11{fill:#E46C0D;stroke:#686472;stroke-width:1.646;stroke-miterlimit:10;}
	.st12{fill:#E46C0D;stroke:#686472;stroke-width:1.5167;stroke-miterlimit:10;}
	.st13{opacity:0.2;}
	.st14{fill:#686472;}
	.st15{opacity:0.5;fill:#E46C0D;}
	.st16{fill:#C9C6CD;}
	.st17{fill:#464454;}
	.st18{fill:#E46C0D;stroke:#686472;stroke-width:1.6461;stroke-miterlimit:10;}
	.st19{fill:none;stroke:#464454;stroke-width:2;stroke-linecap:round;stroke-linejoin:round;stroke-miterlimit:10;}
	.st20{fill:none;stroke:#686472;stroke-width:1.9586;stroke-linecap:round;stroke-linejoin:round;stroke-miterlimit:10;}
	.st21{fill:none;stroke:#686472;stroke-width:1.6594;stroke-linecap:round;stroke-linejoin:round;stroke-miterlimit:10;}
	.st22{fill:#EE9B57;}
	.st23{fill:#FFFFFF;}
</style>
<g id="Calque_7">
</g>
<g id="Calque_3">
</g>
<g id="Calque_5">
</g>
<g id="Calque_2">
</g>
<g id="Calque_6">
	<g>
		<g>
			<g>
				<path class="st0" d="M55.1,549.2c0,0,64.1-418.6,117.5-418.7s126.2,418.7,126.2,418.7H55.1z"/>
				<path class="st1" d="M55.1,549.2c0,0,64.1-418.6,117.5-418.7s126.2,418.7,126.2,418.7H55.1z"/>
				<line class="st2" x1="172.6" y1="130.5" x2="172.6" y2="551.7"/>
				<polyline class="st2" points="134.7,187.5 172.6,250.1 213.3,191.7 				"/>
				<polyline class="st2" points="109.9,271.2 172.6,335.8 239.8,276.9 				"/>
				<polyline class="st2" points="90,358 172.6,435.7 262,366.8 				"/>
				<polyline class="st2" points="72.9,445 172.6,517.6 282.5,463.2 				"/>
				<line class="st2" x1="83.6" y1="389.3" x2="125.4" y2="483.2"/>
				<line class="st2" x1="145.8" y1="498.1" x2="59.6" y2="521.3"/>
				<line class="st2" x1="141.2" y1="303.5" x2="123.5" y2="221.5"/>
			</g>
			<g>
				<path class="st3" d="M159.7,549.2c0,0,99.2-547.1,181.9-547.2c82.7-0.1,195.3,547.2,195.3,547.2H159.7z"/>
				<path class="st1" d="M159.7,549.2c0,0,99.2-547.1,181.9-547.2c82.7-0.1,195.3,547.2,195.3,547.2H159.7z"/>
				<line class="st2" x1="341.6" y1="2" x2="341.6" y2="549.2"/>
				<polyline class="st2" points="284.3,73.4 341.6,150.6 402.4,77.2 				"/>
				<line class="st2" x1="379.3" y1="33.6" x2="369" y2="117.6"/>
				<polyline class="st2" points="260.5,135.6 341.6,233.7 426,135.6 				"/>
				<polyline class="st2" points="232.1,228.8 341.6,342.7 455.3,224.1 				"/>
				<polyline class="st2" points="206.6,328.2 343,431.4 484.6,328.2 				"/>
				<line class="st2" x1="249.1" y1="170.6" x2="294.1" y2="293.3"/>
				<line class="st2" x1="436.7" y1="166" x2="386.8" y2="295.5"/>
			</g>
			<g>
				<path class="st4" d="M370.9,549.2c0,0,62.8-304.7,115.1-304.8c52.3-0.1,123.5,304.8,123.5,304.8H370.9z"/>
				<path class="st1" d="M370.9,549.2c0,0,62.8-304.7,115.1-304.8c52.3-0.1,123.5,304.8,123.5,304.8H370.9z"/>
				<polyline class="st2" points="433.5,321.7 485.9,357.1 456.7,271.2 				"/>
				<line class="st2" x1="536.9" y1="311.6" x2="485.9" y2="357.1"/>
				<polyline class="st2" points="412.6,383.8 485.9,435 558.7,370.8 				"/>
				<polyline class="st2" points="396,449.5 486.1,505.8 582.1,445.5 				"/>
				<line class="st2" x1="565.3" y1="390.4" x2="536.9" y2="473.9"/>
				<polyline class="st2" points="379.8,508.8 485.9,549.2 485.9,244.4 				"/>
				<polyline class="st2" points="600.3,512.3 485.9,549.2 428,469.5 				"/>
			</g>
		</g>
		<line class="st5" x1="3.5" y1="551.7" x2="653.3" y2="551.7"/>
		<g>
			<g>
				<path class="st6" d="M548.5,516.1c-2.3,3.1-6.3,4.3-9.8,2.8c-11.8-4.8-23.3-12.5-39.8-12.1c-7.4,0.2-12.8,1.4-16.8,2.8
					c-5.1,1.9-10.5-1.6-11.2-7.1c-8.5-66-50.6-330.9-142.6-330.9S194.3,436.6,185.8,502.6c-0.7,5.5-6.1,9-11.2,7.1
					c-3.9-1.5-9.4-2.6-16.8-2.8c-17.8-0.5-24.9,5.9-38.8,12c-3.4,1.5-7.4,0.5-9.8-2.5c-4.2-5.3-12.1-9.5-12.1-4.7v70.7
					c0,4.8,3.8,8.8,8.5,8.8h222.7H551c4.7,0,8.5-3.9,8.5-8.8v-70.7C559.5,506.9,552.4,510.9,548.5,516.1z"/>
				<path class="st7" d="M548.5,516.1c-2.3,3.1-6.3,4.3-9.8,2.8c-11.8-4.8-23.3-12.5-39.8-12.1c-7.4,0.2-12.8,1.4-16.8,2.8
					c-5.1,1.9-10.5-1.6-11.2-7.1c-8.5-66-50.6-330.9-142.6-330.9S194.3,436.6,185.8,502.6c-0.7,5.5-6.1,9-11.2,7.1
					c-3.9-1.5-9.4-2.6-16.8-2.8c-17.8-0.5-24.9,5.9-38.8,12c-3.4,1.5-7.4,0.5-9.8-2.5c-4.2-5.3-12.1-9.5-12.1-4.7v70.7
					c0,4.8,3.8,8.8,8.5,8.8h222.7H551c4.7,0,8.5-3.9,8.5-8.8v-70.7C559.5,506.9,552.4,510.9,548.5,516.1z"/>
				<g>
					<g>
						<path class="st6" d="M240.1,410.1C227.7,446,251.2,580.3,277.1,598c21.6,14.8,52.8,9.2,60.8-18.1c8-27.3-51.5-123-47.4-149.7"
							/>
						<path class="st8" d="M240.1,410.1C227.7,446,251.2,580.3,277.1,598c21.6,14.8,52.8,9.2,60.8-18.1c8-27.3-51.5-123-47.4-149.7"
							/>
						<g>
							<path class="st9" d="M314.8,575.6c3.9,11.4,14.8,17.3,14.8,17.3"/>
							<path class="st9" d="M289.4,586.4c0.4,6.8,11.2,17.5,18.7,18.5"/>
							<path class="st9" d="M301.7,581.9c2.5,6.3,11.2,17.5,18.7,18.5"/>
						</g>
					</g>
					<path class="st10" d="M254.4,498c0.4,3.3,0.8,6.7,1.2,10"/>
					<path class="st10" d="M257.6,519.6c0.9,2.5,1.8,4.9,2.7,7.4"/>
					<path class="st10" d="M267.2,524.9c0.4,1.8,1.3,3.4,2.6,4.8"/>
					<path class="st10" d="M262.4,510.1c0.3,2.2,1,4.4,2,6.4"/>
					<path class="st10" d="M267.1,503.8c0.8,1.8,1.7,3.6,2.5,5.3"/>
					<path class="st10" d="M268.2,490c0.9,1,1.5,2.4,1.5,3.7"/>
					<path class="st10" d="M276.7,506.4c0.7,2.3,1.4,4.6,2.2,6.8"/>
					<path class="st10" d="M272.4,518c0.9,1.9,1.8,3.8,2.7,5.8"/>
				</g>
				<g>
					<path class="st11" d="M320.2,369.4c-6.1,0.2-34.1,13.8-36.2,17.4s14.6,21.9,25.3,25.9c6.7,0.5,11.5-6,11.1-9.8
						c-0.8-8.1,6.3-17.6,6.3-17.6L320.2,369.4z"/>
					<path class="st12" d="M324.7,367.6c-13-18.2-21.3-27.4-36-24.9c-3.8,2.5-8.3,29.4-3.1,41.4c2,4.5,9.5,3.5,14.9,2.5
						c5.4-1,19.3-6.9,19.3-6.9L324.7,367.6z"/>
					<path class="st11" d="M341.2,369.4c6.1,0.2,34.1,13.8,36.2,17.4s-9.7,20.9-20.4,24.9c-3.3,3-16.5-5-16.1-8.8
						c0.8-8.1-6.3-17.6-6.3-17.6L341.2,369.4z"/>
					<path class="st12" d="M332,370.9c8.6-20.6,20.2-29.6,35-30.4c2.9,3.1,12.4,26.9,10.3,39c-0.9,4.9-12,4.4-17.5,4.6
						c-5.5,0.2-22.8-2.7-22.8-2.7L332,370.9z"/>
					<path class="st11" d="M322.7,364.8c-4.5,0.5-3.7,22.5,4.1,23.5c5.9,0.8,10.3,0,11.2-4.4c0.6-3,1.7-14.1-3.5-18.6
						C332,363.2,327.8,364.3,322.7,364.8z"/>
					<g class="st13">
						<path class="st14" d="M323.7,388.9c-1.6-0.6-3.5-0.6-5.1,0.2c-3,1.4-4.3,4.8-2.1,7.5c1,1.2,2.6,1.9,4.2,1.8"/>
						<path class="st14" d="M309.2,383.5c-0.5,1.3,0.1,2.9,1.3,3.6c2,1.3,5.5,1.2,7-0.9c1-1.4,1-3.2,1-4.9"/>
						<path class="st14" d="M300.7,390.6c-1.3,0.1-2.5,0.7-2.9,1.9c-0.4,1.2,0.2,2.6,1.3,3.2c0.6,0.3,1.3,0.4,2,0.5
							c1.3,0.1,2.6,0.2,3.8-0.5c1.1-0.6,1.8-2.2,1.1-3.3c-0.4-0.6-1-0.9-1.6-1.2C303.5,390.9,302.1,390.5,300.7,390.6z"/>
						<path class="st14" d="M298.3,404.7c-0.7-1.4,0.1-3.1,1.5-3.9c1.3-0.8,3-0.7,4.5-0.4c0.8,0.1,1.6,0.4,2.3,0.8
							c1.6,0.9,2.6,2.7,2.5,4.6s-1.4,3.5-3.1,4.2"/>
						<path class="st14" d="M313.5,353.7c-1.2-0.6-2.7,0.1-3.5,1.1c-0.8,1.1-1,2.4-1.1,3.7c-0.1,1.1-0.1,2.3,0.3,3.3
							c0.8,2.4,3.6,3.9,6,3.3c2.4-0.6,4.2-3.3,3.8-5.8"/>
						<path class="st14" d="M305.7,370.1c-1.3,0.1-2.5,0.8-3.1,1.9c-0.5,0.8-0.6,1.7-0.6,2.5c0,1.6,0.5,3.2,1.7,4.4
							c1.1,1.1,2.8,1.7,4.4,1.3c0.8-0.2,1.6-0.7,2.3-1.2c0.6-0.5,1.2-1,1.6-1.7c0.7-1.2,0.8-2.7,0.3-3.9
							C311.2,371.4,307.8,369.9,305.7,370.1z"/>
						<path class="st14" d="M296.2,358.4c1.1-0.4,2.4-0.3,3.7,0.4c1.2,0.6,2.1,1.8,1.9,3.1c-0.1,1-0.8,1.8-1.6,2.3
							c-0.9,0.5-1.9,0.5-2.9,0.4c-0.6-0.1-1.3-0.3-1.8-0.7C292.6,361.7,293.8,359.1,296.2,358.4z"/>
						<path class="st14" d="M295,368.8c0.3,0.3,0.6,0.6,0.8,0.9c2.6,3.9-0.5,9.6-5,10.3c-4.9,0.8-5.4-4.5-5.9-7.9
							C284.2,366.7,291.7,365.9,295,368.8z"/>
						<path class="st14" d="M295.6,386.6c-1.6-0.3-2.5-2.4-1.8-4s2.4-2.4,4-2.6c1-0.1,2.6,1.1,3.2,1.9c0.2,0.3-0.1-0.4,0,0
							c0.3,1.6,1,4.1-0.5,4.7"/>
						<path class="st14" d="M295,342.1c-1.8,0-3.5,1.1-4.4,2.7c-0.8,1.6-0.7,3.6,0.3,5.1c0.5,0.7,1.1,1.2,1.8,1.7
							c2.3,1.4,5.5,1.3,7.7-0.2c1.1-0.8,2-1.9,2.3-3.2s-0.1-2.8-1.1-3.6"/>
						<path class="st14" d="M350.5,358.7c2.5,0.7,5.1-0.8,7.3-2.3c0.4-0.3,0.8-0.6,1.1-1c3.7-4.9-3.7-11.1-8.5-9
							C345.5,348.4,344.7,357.1,350.5,358.7z"/>
						<path class="st14" d="M374.2,356.9c-2.3-0.5-4.8-0.9-6.8,0.4c-2.3,1.4-2.9,4.5-3,7.1c0,0.8-0.1,1.6,0.3,2.3
							c0.3,0.6,0.8,1,1.4,1.3c1.8,1.1,4.2,1.6,6.2,0.9c2.1-0.7,3.7-2.6,3.8-4.8"/>
						<path class="st14" d="M356.5,364.6c-0.6-0.2-1.2-0.2-1.8-0.3c-2.9-0.3-3.2,1.4-3,4.2c0,0.3,0,0.6,0.2,0.8
							c0.1,0.2,0.4,0.4,0.6,0.5c1.3,0.6,2.8,0.9,4.1,0.4c1.3-0.5,2.3-1.8,2.2-3.2C358.6,365.6,357.6,364.9,356.5,364.6z"/>
						<path class="st14" d="M338,369.2c-0.1-1-0.2-2,0.4-2.8c0.6-0.7,1.5-1,2.4-1.1c2-0.4,4.3-0.5,5.6,1.1c0.4,0.5,0.6,1.2,0.8,1.9
							c0.6,1.9,0.9,4.3-0.4,5.8c-0.8,0.8-1.9,1.2-3,1.4c-1,0.2-2,0.3-3,0.1c-1-0.2-2-0.8-2.5-1.7"/>
						<path class="st14" d="M362.2,383.5c0.3-0.7,0.6-1.3,0.8-2c0.6-1.5,1.3-3.2,0.5-4.7c-0.6-1.2-1.8-1.8-3-2.3
							c-2.2-0.8-4.7-1.3-6.7-0.1c-3.7,2.1-3.1,7.8,0.9,9.2"/>
						<path class="st14" d="M369.6,377.2c1.8,2.2,4.7,0.2,3.7-2.3c-1.1-2.7-3.7-2.7-4.1,0.4C369.1,376,369.1,376.7,369.6,377.2z"/>
						<path class="st14" d="M351.8,392.2c-0.4,0.1-0.8,0.2-1.2,0.5c-0.4,0.3-0.6,0.9-0.8,1.4c-3.3,9,10.5,8.2,10.1,1
							c0-0.3-0.1-0.6-0.2-0.8c-0.1-0.3-0.3-0.6-0.6-0.8C357.2,391.5,354.4,391.4,351.8,392.2z"/>
						<path class="st14" d="M345.1,382.2c-1.5,0-2.7,1.5-2.8,3s0.9,2.9,2.2,3.7s2.8,1,4.3,1c1.2,0,2.4-0.2,3.2-1
							c1-1.2,0.6-3,0.1-4.5"/>
						<path class="st14" d="M375.1,384.9c-1.7-0.6-3.7-0.7-5.4,0.1c-1.7,0.8-3,2.4-3.2,4.3s0.8,3.8,2.4,4.6c0.9,0.4,2,0.5,3,0.6
							c0.5,0,1.1,0,1.6-0.2c0.8-0.4,1.3-1.4,2.2-1.6"/>
						<path class="st14" d="M365.9,398.3c-0.7-0.4-1.7-0.3-2.3,0.2s-0.8,1.5-0.4,2.2c0.6,1.1,2.1,1.3,3.3,1.2c0.3-0.1,0.7-0.1,1-0.3
							c1-0.6,0.8-2.2-0.1-3s-2.2-0.7-3.3-0.6"/>
						<path class="st14" d="M343.9,407c-0.3-1.3-0.5-2.8,0.3-3.9c0.9-1.2,2.6-1.3,4.1-1.3c1.3,0,2.7,0,3.9,0.6
							c1.6,0.9,2.4,2.9,1.8,4.6c-0.6,1.8-2.5,2.9-4.3,3.3"/>
					</g>
				</g>
				<path class="st6" d="M326.7,388.4c-6.5,3.6-10.3,6.7-10.2,14.1c0,1.3,0.2,2.7,1.2,3.6c1.4,1.2,3.7,0.5,5.2-0.7
					c1.4-1.2,2.5-2.9,4.2-3.8c-2.1,5.2-2.3,11.2-0.5,16.6c0.3,0.9,0.8,2,1.8,2.2c2.1,0.4,3.4-3.5,5.4-2.6c-0.2,1.7-0.5,3.6,0,5.2
					c0.5,1.7,1.9,3.2,3.7,3.3c1.8,0,3.4-2.1,2.5-3.6"/>
				<path class="st7" d="M326.7,388.4c-6.5,3.6-10.3,6.7-10.2,14.1c0,1.3,0.2,2.7,1.2,3.6c1.4,1.2,3.7,0.5,5.2-0.7
					c1.4-1.2,2.5-2.9,4.2-3.8c-2.1,5.2-2.3,11.2-0.5,16.6c0.3,0.9,0.8,2,1.8,2.2c2.1,0.4,3.4-3.5,5.4-2.6c-0.2,1.7-0.5,3.6,0,5.2
					c0.5,1.7,1.9,3.2,3.7,3.3c1.8,0,3.4-2.1,2.5-3.6"/>
			</g>
			<g>
				<path class="st15" d="M268.4,271.8c-12.1,2.4-16.6,12.2-13,18.5s11.9,11.5,22.2,7.9c10.3-3.6,14.8-12.2,13.3-16.6
					C289.5,277.2,282.6,269.1,268.4,271.8z"/>
				<path class="st15" d="M388.3,271.8c12.1,2.4,16.6,12.2,13,18.5c-3.6,6.3-11.9,11.5-22.2,7.9c-10.3-3.6-14.8-12.2-13.3-16.6
					C367.2,277.2,374.2,269.1,388.3,271.8z"/>
			</g>
			<path class="st16" d="M328.4,258c-11.3,0.6-33,13.9-32,30.9s16.5,39.1,32,39.1c15.5,0,31.1-22.1,32-39.1
				C361.3,271.9,339.7,258.7,328.4,258z"/>
			<path class="st17" d="M348.7,273.3c-13.4-2.6-27.3-2.6-40.7,0c3,6.4,15.5,17.4,20.4,17.4S345.7,279.7,348.7,273.3z"/>
			<g>
				<g>
					<path class="st6" d="M286.7,229c-11.6-21.4-30.4-23-36.8-16.1c-6.4,6.9-3.1,29.5,15.3,33.2S286.7,229,286.7,229z"/>
					<path class="st10" d="M259.3,231.3c-2.6-5,3.7-15.3,20,0"/>
					<path class="st10" d="M286.7,229c-11.6-21.4-30.4-23-36.8-16.1c-4.7,5-4.2,18.6,3.7,26.9"/>
				</g>
				<g>
					<path class="st6" d="M369,222.4c17.4-17,35.8-13,39.9-4.6s-5.8,29.1-24.4,27.3C365.9,243.2,369,222.4,369,222.4z"/>
					<path class="st10" d="M394.5,232.7c4-4,1-15.7-19.2-5.9"/>
					<path class="st10" d="M369,222.4c17.4-17,35.8-13,39.9-4.6c3,6.2-1.5,19-11.5,24.6"/>
				</g>
			</g>
			<g>
				<path class="st6" d="M334.1,185.9c18.2,9.4,25.3,18.2,27.2,25.1c1.9,6.9-15.8,9.3-24.9,2.4c4.2,10.2-9.8,12.2-17.6-0.4"/>
				<path class="st10" d="M334.1,185.9c18.2,9.4,25.3,18.2,27.2,25.1c1.9,6.9-15.8,9.3-24.9,2.4c4.2,10.2-9.8,12.2-17.6-0.4"/>
			</g>
			<path class="st10" d="M316,323.8c3.9,2.7,8.1,4.4,12.4,4.4c15.5,0,31.1-22.1,32-39.1c0.5-8.4-4.6-15.9-11.2-21.4"/>
			<ellipse class="st18" cx="329" cy="309.4" rx="4.3" ry="10"/>
			<g>
				<ellipse class="st17" cx="298.6" cy="255.5" rx="4.1" ry="7.9"/>
				<ellipse class="st17" cx="358.1" cy="255.5" rx="4.1" ry="7.9"/>
			</g>
			<path class="st19" d="M352.3,231.3c3.7,0,9.8,3.3,11.2,8.5"/>
			<path class="st19" d="M304.4,227.1c-3.7,0.8-9,2.8-11.2,8.5"/>
			<path class="st10" d="M319.6,251.2c-1.1-2.9-2.2-5.7-3.3-8.6"/>
			<path class="st10" d="M328.9,253c0-1.9,0-3.9,0-5.8"/>
			<path class="st10" d="M336.4,253.2c0.4-1.9,0.7-3.9,1.1-5.8"/>
			<path class="st10" d="M318.3,232.1c-0.2-2.2-0.7-4.3-1.6-6.3"/>
			<path class="st10" d="M342,227.4c0-1.4,0-2.8,0-4.2"/>
			<path class="st10" d="M328.2,231.4c0.4,2.7,0.8,5.5,1.2,8.2"/>
			<path class="st10" d="M342.6,234.8c-1.5,1.9-2.7,4.1-3.5,6.5"/>
			<path class="st6" d="M380.8,316.2c-10.7-4.4-30.8-12.1-35.2-5.9c-4.4,6.2,7.8,19.7,16.7,22.3c-9.7,8.5-12.9,33.8-7.6,40.2
				c5.4,6.4,12.6,11,35,20.7s48.5,9.4,30.5,28.6c8.7,10.1,28.5,28.3,28.5,28.3s36.3-0.7,46.4-47.3
				C505.3,356.5,390.4,320.1,380.8,316.2z"/>
			<path class="st8" d="M448.8,450.4c0,0,36.3-0.7,46.4-47.3c10.2-46.6-104.8-83.1-114.3-86.9c-10.7-4.4-30.8-12.1-35.2-5.9
				c-4.4,6.2,7.8,19.7,16.7,22.3c-9.7,8.5-12.9,33.8-7.6,40.2c5.4,6.4,12.6,11,35,20.7s48.5,9.4,30.5,28.6"/>
			<path class="st10" d="M478.8,378.1c-2.5-2.2-5.1-4.4-7.6-6.6"/>
			<path class="st10" d="M462,364.1c-2.3-1.2-4.6-2.4-6.9-3.7"/>
			<path class="st10" d="M451.3,366.7c-1.5-1-3.3-1.7-5.1-1.8"/>
			<path class="st10" d="M464.7,374.5c-1.7-1.4-3.7-2.6-5.8-3.4"/>
			<path class="st10" d="M465.5,382.3c-1.8-0.8-3.6-1.5-5.4-2.3"/>
			<path class="st10" d="M473.9,393.2c-1.4-0.1-2.7-0.8-3.6-1.7"/>
			<path class="st10" d="M456.7,386.8c-2.1-1.2-4.1-2.4-6.2-3.6"/>
			<path class="st10" d="M452,375.3c-2-0.8-3.9-1.6-5.9-2.5"/>
		</g>
		<path class="st10" d="M136.8,523.8c1-2.3,3-4.2,5.3-5.2"/>
		<path class="st10" d="M153.7,518.5c1.2,0,2.5,0,3.7,0"/>
		<path class="st10" d="M149.5,531.6c1.2-0.7,2.5-1.3,3.7-2"/>
		<path class="st10" d="M147.9,516.8c2.1-1.2,4.2-2.4,6.4-3.6"/>
		<path class="st10" d="M145.8,526.3c1.4-0.2,2.8-0.3,4.2-0.5"/>
		<path class="st10" d="M169,525.9c2.1,0.2,4.2,0.4,6.3,0.6"/>
		<path class="st10" d="M165.3,517.4c1.3-0.5,2.8-0.7,4.2-0.5"/>
		<path class="st10" d="M163.8,534.9c0.9,0,1.8,0,2.6,0"/>
		<path class="st10" d="M137.9,538.1c-1.6-0.3-3.4,0-4.8,1"/>
		<path class="st10" d="M491.4,517.5c2.2-1.3,4.8-1.8,7.3-1.7"/>
		<path class="st10" d="M505,516.3c2.1,0.2,4.2,0.4,6.3,0.6"/>
		<path class="st10" d="M516.1,518c1.3,0.1,2.6,1,3.2,2.1"/>
		<path class="st10" d="M507.1,526.1c2.3,0.6,4.5,1.6,6.5,2.9"/>
		<path class="st10" d="M497.6,528.5c1.5,0.2,3,1.3,3.6,2.7"/>
		<path class="st10" d="M502.9,536.4c1.6,0.2,3.2,0.4,4.7,0.6"/>
		<path class="st10" d="M499.7,524.3c1.1,0.5,2.5,0.7,3.7,0.5"/>
		<path class="st10" d="M485.5,526c1.7,0.1,3.3,1.1,4.3,2.5"/>
		<path class="st10" d="M493.4,535.4c2-0.1,4-0.6,5.8-1.6"/>
		<path class="st10" d="M517.2,534.3c1.2,0.3,2.5,0.4,3.7,0.2"/>
		<path class="st10" d="M524,528.5c1.2,0,2.5,0,3.7,0"/>
		<path class="st20" d="M127.7,124.9C97,124.9,72,101,72,71.4C72,49.1,86.3,30,106.5,22c-0.1,0-0.2,0-0.2,0
			C73,22,46.1,47.9,46.1,79.8c0,31.9,27,57.7,60.2,57.7c16.4,0,31.2-6.3,42-16.4C142,123.5,135,124.9,127.7,124.9z"/>
		<polygon class="st21" points="566.2,196.8 556,188.8 545.2,196.1 549.7,183.9 539.4,175.9 552.4,176.4 556.8,164.2 560.3,176.7 
			573.3,177 562.6,184.3 		"/>
		<polygon class="st21" points="609.5,211.2 601.8,210.6 597.1,216.8 595.3,209.3 588,206.7 594.5,202.7 594.7,195 600.6,199.9 
			608,197.7 605.1,204.9 		"/>
		<polygon class="st21" points="604.3,107.2 578.8,95.8 559.8,116.3 562.7,88.5 537.3,76.8 564.7,71 568,43.2 581.9,67.5 609.4,62 
			590.6,82.8 		"/>
		<polygon class="st21" points="65.9,206.9 53,204 44.1,213.8 42.8,200.6 30.8,195.1 42.9,189.8 44.4,176.7 53.2,186.6 66.1,184 
			59.4,195.4 		"/>
		<polygon class="st21" points="171.7,95.1 161.4,94.9 156.2,103.8 153.2,94 143.2,91.7 151.5,85.8 150.6,75.6 158.8,81.7 
			168.2,77.7 164.9,87.4 		"/>
		<g>
			<path class="st22" d="M396.4,46.7c31.2,2.1,95.7,15.6,91,83c-3.7,53.2-37.7,76-55.1,84.2c5.5-10.7,2.6-24,2.6-24l0,0
				c-14.3,6.8-31.1,10.2-48.8,9c-48.8-3.3-86-40-83.1-82C305.8,74.8,347.6,43.4,396.4,46.7z"/>
			<g>
				<g>
					<path class="st23" d="M379.3,140.2c-4.5,0.5-7.8,1.9-10.5-1.8c-4.1-5.6-1.9-15.6-1-21.8c0.3-1.6,0.6-3.3,1.5-4.7
						c0.9-1.4,2.3-2.5,3.6-3.6c6.9-5.8,6.9-8.9,6.8-17.4c0-2.6-0.5-5.4-2.3-7.2c-2.9-3-7.8-2.5-11.9-1.7c-1.8,0.3-3.7,0.8-4.9,2.1
						c-5.3,6.2,3.3,10.7,1.2,16.3c-1.5,4.1-7.1,5.1-10.9,5.5c-8,0.9-12.3-1.7-13-7.9c-0.5-4.3,1-8.3,3.8-11.6c2.5-3,5.2-7.7,8.5-9.7
						c6.2-3.8,14.4-6.8,21.7-7.2c7.9-0.4,17.4,0.5,23.8,5.6c7.6,6,6.5,19.8,2.9,27.9c-1.4,3.2-3.6,5.9-5.9,8.5
						c-3.3,3.8-7.1,7.2-8.6,12.1c-1.3,4.2,1,11.9-1.3,15.3C382.4,139.6,381.3,140,379.3,140.2z M377.2,147.3
						c3.3-0.4,6.1,0.1,8.4,1.6c2.3,1.4,3.6,3.3,3.8,5.7c0.3,2.3-0.6,4.5-2.6,6.5c-2,2-4.5,3.3-7.6,3.6c-3,0.3-5.6-0.2-7.8-1.5
						c-2.2-1.4-3.4-3.3-3.7-5.7c-0.3-2.4,0.4-4.6,2.1-6.6C371.6,148.9,374,147.7,377.2,147.3z"/>
				</g>
				<path class="st23" d="M417.2,142.9c-1.6,0.5-3.4,0.1-5.4-1.8c-5.4-5-0.8-16.5,0.2-22.5c1.5-9.2,3.8-18.3,5.6-27.4
					c1.8-9,5.2-22.5,17.2-20.3c2.4,0.4,4.8,1.4,6.6,3.1c5.8,5.3,1.9,20.5-0.6,26.9c-3.8,9.5-8.3,18.7-13.3,27.5
					C425.4,131.8,422.1,141.4,417.2,142.9z M411.8,148.3c3.1,1,5.4,2.5,6.9,4.7c1.5,2.2,1.9,4.4,1.2,6.6c-0.7,2.1-2.3,3.7-4.8,4.8
					c-2.5,1.1-5.3,1.2-8.3,0.2c-2.9-0.9-5-2.4-6.4-4.5c-1.4-2.1-1.7-4.2-1-6.5c0.7-2.2,2.2-3.9,4.5-5
					C406.1,147.5,408.8,147.4,411.8,148.3z"/>
			</g>
		</g>
	</g>
</g>
</svg>
