<?xml version="1.0" encoding="utf-8"?>
<!-- Generator: Adobe Illustrator 24.1.1, SVG Export Plug-In . SVG Version: 6.00 Build 0)  -->
<svg version="1.1" id="Calque_1" xmlns="http://www.w3.org/2000/svg" xmlns:xlink="http://www.w3.org/1999/xlink" x="0px" y="0px"
	 viewBox="0 0 100.98 100" style="enable-background:new 0 0 100.98 100;" xml:space="preserve">
<style type="text/css">
	.st0{fill:#FFFFFF;}
	.st1{fill:#161827;}
</style>
<g>
	<g>
		<g>
			<path class="st0" d="M35.72,15.13c-0.33,0.02-0.65,0.1-0.96,0.22L35.72,15.13 M43.41,12.92c-0.87,0-1.74,0.34-2.34,0.96
				l3.37-0.79C44.1,12.97,43.76,12.92,43.41,12.92"/>
			<path class="st1" d="M46.62,39.75c-0.04,0-0.14-0.03-0.15-0.06c-0.02-0.05,0.02-0.12,0.04-0.21c0.1,0.04,0.2,0.06,0.2,0.09
				c0,0.05-0.03,0.12-0.08,0.16C46.64,39.75,46.63,39.75,46.62,39.75 M46.2,33.56l-0.42,2.71L43.2,37.2l2.45,1.24l0.09,2.74
				l1.93-1.94l2.64,0.76l-1.25-2.44l1.54-2.27l-2.71,0.44L46.2,33.56"/>
			<path class="st1" d="M53.93,33.61l-0.11,0.69c0.37,0.36,0.33,0.68-0.14,1.07c-0.01,0.01-0.02,0.02-0.03,0.02l-0.03,0.19
				l-1.88,0.68l1.78,0.9l0.06,2L55,37.74l1.92,0.56l-0.91-1.78l1.12-1.65l-1.97,0.32L53.93,33.61"/>
			<path class="st1" d="M39.23,37.4l-0.31,1.97l-1.88,0.68l1.78,0.9l0.07,2l1.41-1.42l0.8,0.23c0.01-0.05,0.05-0.09,0.12-0.12
				c0.04-0.02,0.08-0.03,0.12-0.03c0.08,0,0.17,0.04,0.18,0.1c0.01,0.05-0.01,0.1-0.03,0.16l0.74,0.21l-0.63-1.22
				c-0.07,0.07-0.15,0.13-0.26,0.17c-0.06,0.02-0.12,0.03-0.19,0.03c-0.26,0-0.59-0.14-0.68-0.32c-0.12-0.23,0.08-0.56,0.41-0.68
				c0.1-0.04,0.2-0.06,0.3-0.06c0.11,0,0.21,0.02,0.29,0.07l0.97-1.43l-0.24,0.04c-0.07,0.24-0.19,0.47-0.53,0.48
				c-0.37,0.25-0.77,0.18-1.15,0.24c-0.01,0-0.02,0-0.03,0c-0.08,0-0.17-0.03-0.24-0.07c-0.39-0.18-0.71-0.8-0.49-1.19
				c0.01-0.02,0.02-0.03,0.03-0.05L39.23,37.4"/>
			<path class="st1" d="M57.89,70.43l-1.93,1.94l-2.64-0.76l1.25,2.43c0.08,0.02,0.18,0.04,0.28,0.06c-0.13,0.2-0.19,0.4-0.3,0.43
				c-0.01,0-0.02,0-0.04,0c-0.07,0-0.14-0.02-0.22-0.06l-1.26,1.86l2.71-0.44l1.68,2.17l0.42-2.71l2.58-0.93l-2.45-1.24L57.89,70.43
				"/>
			<polyline class="st1" points="50.03,72.45 48.62,73.87 46.7,73.31 47.61,75.09 46.49,76.74 48.46,76.43 49.69,78 50,76.03 
				51.87,75.35 50.09,74.45 50.03,72.45 			"/>
			<polyline class="st1" points="64.73,68.67 63.33,70.08 61.41,69.52 62.32,71.3 61.2,72.95 63.17,72.64 64.39,74.21 64.7,72.24 
				66.58,71.57 64.8,70.66 64.73,68.67 			"/>
			<path class="st1" d="M3.18,57.07c-0.04,0-0.13-0.04-0.14-0.06c-0.01-0.06,0.02-0.13,0.04-0.24c0.12,0.06,0.19,0.1,0.26,0.13
				c-0.05,0.06-0.09,0.12-0.15,0.17C3.19,57.07,3.19,57.07,3.18,57.07 M21.64,52.73c-0.07,0-0.16-0.05-0.18-0.11
				c-0.04-0.1,0-0.19,0.12-0.22c0.01,0,0.03,0,0.04,0c0.07,0,0.15,0.02,0.27,0.04c-0.07,0.12-0.1,0.22-0.17,0.27
				C21.7,52.72,21.67,52.73,21.64,52.73 M32.71,50.07c-0.07,0-0.14-0.02-0.21-0.04c0.12-0.14,0.24-0.2,0.44-0.2
				c0.08,0,0.18,0.01,0.31,0.03C33.01,50,32.86,50.07,32.71,50.07 M68.22,40.06c0.03-0.18,0.01-0.35,0.09-0.4
				c0.03-0.02,0.07-0.02,0.12-0.02c0.09,0,0.2,0.02,0.27,0.06c0.06,0.03,0.05,0.24-0.01,0.27C68.59,40.04,68.43,40.03,68.22,40.06
				 M75.18,38.43c-0.04-0.03-0.1-0.07-0.1-0.11c0-0.03,0.06-0.07,0.1-0.11c0.04,0.04,0.1,0.07,0.1,0.11
				C75.28,38.35,75.21,38.39,75.18,38.43 M83.57,36.81c-0.06,0-0.14-0.04-0.2-0.05c0.03-0.07,0.06-0.13,0.1-0.24
				c0.11,0.04,0.22,0.06,0.22,0.09c0,0.07-0.03,0.17-0.09,0.19C83.59,36.81,83.58,36.81,83.57,36.81 M95.1,32.66l-7.05,1.82
				l-2.75,0.71l-2.11,0.54l-1.49,0.38l-0.32,0.08c0.01,0.06,0.02,0.12,0.02,0.19c-0.02,0.43-0.34,0.67-0.81,0.67
				c-0.06,0-0.13,0-0.2-0.01c-0.39-0.05-0.7-0.18-0.9-0.36l-3.4,0.88c-0.03,0.07-0.08,0.13-0.16,0.16c-0.05,0.02-0.1,0.03-0.14,0.03
				c-0.07,0-0.15-0.02-0.21-0.06l-21.23,5.47c0,0.02,0,0.05,0,0.08c-0.07-0.01-0.13-0.02-0.19-0.03L15.02,53.29l-1.49,0.38
				l-0.79,0.2c0,0.18-0.16,0.38-0.37,0.46c-0.1,0.03-0.19,0.05-0.28,0.05c-0.19,0-0.35-0.08-0.42-0.24l-0.24,0.06l-4.04,1.04
				l-7.28,1.87l0.33,1.27l25.41-6.54c-0.01-0.01-0.02-0.01-0.04-0.02c-0.08-0.04-0.07-0.33,0.01-0.46c0.07-0.11,0.21-0.16,0.35-0.16
				c0.13,0,0.26,0.04,0.33,0.14c0.06,0.07,0.07,0.17,0.1,0.31l2.16-0.56c0,0,0-0.01-0.01-0.01c-0.12-0.21,0-0.54,0.23-0.64
				c0.09-0.04,0.18-0.06,0.27-0.06c0.2,0,0.37,0.09,0.46,0.25c0.03,0.07,0.05,0.13,0.05,0.19l16.72-4.31
				c-0.07-0.01-0.13-0.02-0.19-0.03c0.01-0.04,0.02-0.07,0.04-0.11c0.06,0.03,0.12,0.07,0.19,0.1l-0.01,0.03l48.92-12.6L95.1,32.66"
				/>
			<path class="st1" d="M100.66,54.26L5.67,78.72L6,79.99l7.13-1.84l4.16-1.07l2.1-0.54l1.5-0.39l2.51-0.65c0-0.03,0-0.07,0.02-0.09
				c0.02-0.04,0.12-0.05,0.17-0.07c0.01,0.03,0.02,0.07,0.03,0.11l34.07-8.78c0.08-0.32,0.38-0.45,0.91-0.55
				c-0.03,0.13-0.07,0.25-0.12,0.34l29.11-7.5l1.5-0.39l2.1-0.54l2.8-0.72l6.99-1.8L100.66,54.26"/>
			<path class="st1" d="M48.67,18.82c0.03,0.01,0.06,0.04,0.09,0.05C48.73,18.85,48.7,18.83,48.67,18.82 M48.63,18.81
				C48.63,18.81,48.62,18.81,48.63,18.81C48.62,18.81,48.63,18.81,48.63,18.81 M48.63,18.81L48.63,18.81L48.63,18.81L48.63,18.81"/>
			<path class="st0" d="M36.79,93.36c-0.01,0.01-0.03,0.02-0.04,0.03c0.07,0.09,0.12,0.2,0.21,0.28c0.09,0.09,0.21,0.15,0.32,0.15
				c0.08,0,0.16-0.03,0.23-0.09c0.02-0.02,0.05-0.04,0.07-0.07C37.32,93.56,37.06,93.46,36.79,93.36"/>
			<path class="st0" d="M92.02,71.54c-0.03,0.06-0.05,0.09-0.07,0.13c0.03,0.01,0.07,0.02,0.1,0.03c0.03-0.03,0.07-0.07,0.1-0.1
				C92.11,71.57,92.07,71.56,92.02,71.54"/>
			<path class="st0" d="M73.8,91.52c-0.05,0-0.09,0.01-0.12,0.02c-0.08,0.05-0.06,0.22-0.09,0.4c0.22-0.03,0.38-0.02,0.47-0.08
				c0.06-0.04,0.06-0.25,0.01-0.28C74,91.55,73.89,91.52,73.8,91.52"/>
			<path class="st0" d="M82.18,84.82c-0.03,0.06-0.08,0.12-0.14,0.15C82,84.99,81.96,85,81.92,85c-0.1,0-0.2-0.05-0.25-0.12
				c-0.01-0.01-0.01-0.02-0.02-0.04h0c-0.39,0.13-0.7,0.65-0.57,0.96c0.1,0.25,0.46,0.41,0.83,0.41c0.22-0.11,0.44-0.19,0.66-0.24
				c0.19-0.2,0.26-0.51,0.14-0.76C82.61,85.02,82.41,84.89,82.18,84.82"/>
			<path class="st0" d="M56.83,97.76c-0.05,0.4-0.16,0.63-0.09,0.82c0.07,0.17,0.23,0.27,0.43,0.27c0.09,0,0.19-0.02,0.29-0.06
				c0.33-0.14,0.41-0.4,0.21-0.61C57.52,98.02,57.24,97.96,56.83,97.76"/>
			<path class="st0" d="M69.67,94.54c-0.06,0.36-0.13,0.56-0.1,0.75c0.02,0.13,0.1,0.23,0.21,0.28c0.09,0.01,0.17,0.01,0.27,0.01
				c0.02,0,0.04,0,0.07,0c0.01,0,0.02-0.01,0.03-0.01c0.33-0.11,0.44-0.36,0.26-0.59C70.28,94.82,70.03,94.75,69.67,94.54"/>
			<path class="st0" d="M47.99,96.16c-0.08,0-0.17,0.02-0.26,0.07c-0.13,0.07-0.24,0.37-0.17,0.46c0.13,0.16,0.4,0.24,0.76,0.42
				c0.06-0.33,0.16-0.52,0.11-0.66C48.35,96.27,48.18,96.16,47.99,96.16"/>
			<path class="st0" d="M58.6,66.13c-0.53,0.09-0.82,0.22-0.91,0.55l0.79-0.2C58.53,66.37,58.57,66.26,58.6,66.13"/>
			<path class="st0" d="M54.56,74.04l0.01,0.01l-0.28,0.41c0.07,0.04,0.15,0.06,0.22,0.06c0.02,0,0.03,0,0.04,0
				c0.11-0.02,0.17-0.23,0.3-0.43C54.74,74.08,54.65,74.06,54.56,74.04"/>
			<path class="st0" d="M66.68,93.04l-0.04,0.06c0.03,0.04,0.07,0.07,0.12,0.1c0.03-0.04,0.06-0.08,0.08-0.12
				C66.78,93.07,66.73,93.05,66.68,93.04"/>
			<path class="st0" d="M91.39,64.32c-0.15,0-0.31,0.02-0.46,0.06c-0.31,0.09-0.5,0.26-0.65,0.46c-0.07,0.3-0.14,0.6-0.21,0.9
				c0.09,0.26,0.29,0.5,0.51,0.6c0.07,0.03,0.16,0.07,0.23,0.07c0.01,0,0.02,0,0.03,0c0.38-0.05,0.78,0.01,1.15-0.23
				c0.37-0.01,0.48-0.27,0.55-0.53c0.07-0.26,0.12-0.52-0.04-0.77C92.29,64.52,91.86,64.32,91.39,64.32"/>
			<path class="st0" d="M84.33,73.33c-0.1,0-0.22,0.02-0.33,0.07c-0.18,0.06-0.22,0.22-0.29,0.36c-0.06,0.13-0.17,0.3-0.03,0.4
				c0.17,0.12,0.4,0.22,0.62,0.26c0.02,0,0.03,0,0.05,0c0.04,0,0.08-0.01,0.13-0.02c0.13-0.24,0.26-0.48,0.39-0.72
				c-0.03-0.08-0.08-0.16-0.17-0.22C84.59,73.37,84.46,73.33,84.33,73.33"/>
			<path class="st0" d="M91.51,67.02c-0.09,0-0.2,0.02-0.3,0.06c-0.32,0.12-0.52,0.45-0.41,0.68c0.09,0.18,0.41,0.32,0.68,0.32
				c0.07,0,0.13-0.01,0.19-0.03c0.34-0.13,0.49-0.47,0.34-0.75C91.92,67.12,91.73,67.02,91.51,67.02"/>
			<path class="st0" d="M81.97,84.52c-0.05,0-0.11,0.01-0.16,0.04c-0.13,0.07-0.19,0.17-0.15,0.28c0,0.01,0.01,0.02,0.02,0.04
				c0.05,0.08,0.15,0.12,0.25,0.12c0.04,0,0.08-0.01,0.12-0.02c0.06-0.03,0.11-0.08,0.14-0.15c0.03-0.07,0.04-0.15,0-0.2
				C82.14,84.55,82.06,84.52,81.97,84.52"/>
			<path class="st0" d="M77.1,82.1c-0.03,0-0.07,0.01-0.1,0.02c-0.15,0.05-0.23,0.21-0.16,0.33c0.05,0.07,0.11,0.14,0.21,0.14
				c0.02,0,0.05,0,0.08-0.01c0.13-0.04,0.28-0.26,0.24-0.34C77.33,82.15,77.21,82.1,77.1,82.1"/>
			<path class="st0" d="M82.96,76.92c-0.04,0.03-0.07,0.06-0.11,0.11c0.01,0,0.02,0.01,0.03,0.01C82.91,77,82.94,76.96,82.96,76.92"
				/>
			<path class="st0" d="M91.68,68.62c-0.04,0-0.08,0.01-0.12,0.03c-0.11,0.06-0.15,0.15-0.08,0.23c0.05,0.06,0.17,0.08,0.31,0.13
				c0.04-0.13,0.09-0.22,0.07-0.29C91.85,68.65,91.76,68.62,91.68,68.62"/>
			<path class="st0" d="M88.08,78.53c-0.02,0-0.04,0-0.06,0.01c-0.12,0.04-0.17,0.15-0.12,0.25c0.03,0.07,0.09,0.1,0.16,0.1
				c0.04,0,0.07-0.01,0.11-0.03c0.08-0.05,0.11-0.15,0.2-0.28C88.25,78.56,88.16,78.53,88.08,78.53"/>
			<path class="st0" d="M82.77,81.28c-0.01,0.11-0.04,0.2-0.01,0.25c0.02,0.03,0.11,0.05,0.16,0.05c0.02,0,0.03,0,0.04-0.01
				c0.05-0.05,0.08-0.14,0.07-0.2C83.02,81.33,82.9,81.32,82.77,81.28"/>
			<path class="st0" d="M78.99,89.69c-0.03,0-0.06,0-0.08,0.01l-0.03,0.12c0.04,0.04,0.11,0.04,0.21,0.08
				c0.01-0.08,0.04-0.16,0.01-0.19C79.07,89.7,79.03,89.69,78.99,89.69"/>
			<path class="st0" d="M90.75,70.8c-0.04,0-0.1,0.03-0.19,0.09c0.12,0.02,0.22,0.04,0.38,0.06C90.85,70.84,90.81,70.8,90.75,70.8"
				/>
			<path class="st0" d="M79.08,89.08c-0.02,0-0.03,0.01-0.06,0.03c0.04,0.06,0.09,0.12,0.14,0.17
				C79.13,89.13,79.11,89.08,79.08,89.08"/>
			<path class="st0" d="M76.32,84.58c-0.1,0.01-0.17,0.02-0.25,0.03c0.05,0.05,0.08,0.08,0.11,0.1
				C76.23,84.67,76.28,84.62,76.32,84.58"/>
			<path class="st0" d="M89.73,73.11c-0.01,0.03-0.03,0.08-0.02,0.1c0.02,0.02,0.07,0.03,0.15,0.05c0-0.06,0.02-0.11-0.01-0.13
				C89.83,73.11,89.78,73.11,89.73,73.11"/>
			<path class="st0" d="M85.22,69.36c-0.01,0.02-0.02,0.04-0.02,0.06c0.06,0.01,0.11,0.02,0.18,0.03
				C85.31,69.39,85.27,69.37,85.22,69.36"/>
			<path class="st0" d="M78.5,85.4c-0.03,0.02-0.06,0.05-0.09,0.08l0.06,0.01C78.5,85.48,78.51,85.43,78.5,85.4"/>
			<path class="st0" d="M26.17,51.21c-0.14,0-0.28,0.06-0.35,0.16c-0.08,0.13-0.1,0.42-0.01,0.46c0.01,0.01,0.02,0.01,0.04,0.02
				l0.75-0.19c-0.02-0.13-0.03-0.23-0.1-0.31C26.43,51.26,26.3,51.21,26.17,51.21"/>
			<path class="st0" d="M23.6,75.34c-0.06,0.02-0.15,0.03-0.17,0.07c-0.02,0.02-0.02,0.06-0.02,0.09l0.22-0.06
				C23.61,75.41,23.61,75.38,23.6,75.34"/>
			<path class="st0" d="M7.43,53.36c-0.01,0.02-0.01,0.04-0.02,0.07c0.01,0,0.02,0,0.02,0l0.01-0.06
				C7.44,53.37,7.43,53.36,7.43,53.36"/>
			<path class="st0" d="M19.6,38.31c-0.65,0.06-1.29,0.29-1.97,0.61c0.43,0.27,0.85,0.5,1.29,0.65
				C19.14,39.14,19.37,38.72,19.6,38.31"/>
			<path class="st0" d="M12.74,53.87l-1.08,0.28c0.07,0.15,0.23,0.24,0.42,0.24c0.09,0,0.18-0.02,0.28-0.05
				C12.58,54.26,12.73,54.06,12.74,53.87"/>
			<path class="st0" d="M3.09,56.76C3.07,56.87,3.03,56.94,3.05,57c0.01,0.02,0.1,0.06,0.14,0.06c0.01,0,0.01,0,0.01,0
				c0.06-0.04,0.1-0.11,0.15-0.17C3.27,56.86,3.21,56.82,3.09,56.76"/>
			<path class="st0" d="M39.77,38.1c-0.01,0.02-0.02,0.03-0.03,0.05c-0.22,0.39,0.1,1.01,0.49,1.19c0.07,0.03,0.16,0.07,0.24,0.07
				c0.01,0,0.02,0,0.03,0c0.38-0.05,0.78,0.01,1.15-0.24c0.35-0.01,0.46-0.23,0.53-0.48l-1.74,0.28L39.77,38.1"/>
			<path class="st0" d="M41.16,40.02c-0.09,0-0.2,0.02-0.3,0.06c-0.32,0.12-0.52,0.45-0.41,0.68c0.09,0.18,0.41,0.32,0.68,0.32
				c0.07,0,0.13-0.01,0.19-0.03c0.11-0.04,0.19-0.1,0.26-0.17l-0.28-0.56l0.15-0.22C41.37,40.04,41.27,40.02,41.16,40.02"/>
			<path class="st0" d="M29.26,50.39c-0.09,0-0.18,0.02-0.27,0.06c-0.23,0.1-0.36,0.43-0.23,0.64c0,0,0,0.01,0.01,0.01l1.01-0.26
				c0-0.06-0.02-0.12-0.05-0.19C29.64,50.48,29.46,50.39,29.26,50.39"/>
			<path class="st0" d="M32.93,49.82c-0.2,0-0.31,0.06-0.44,0.2c0.07,0.03,0.14,0.04,0.21,0.04c0.15,0,0.3-0.07,0.53-0.21
				C33.12,49.83,33.02,49.82,32.93,49.82"/>
			<path class="st0" d="M41.33,41.61c-0.04,0-0.08,0.01-0.12,0.03c-0.06,0.03-0.1,0.07-0.12,0.12l0.38,0.11
				c0.02-0.06,0.04-0.11,0.03-0.16C41.49,41.65,41.41,41.61,41.33,41.61"/>
			<path class="st0" d="M21.62,52.39c-0.02,0-0.03,0-0.04,0c-0.12,0.03-0.16,0.12-0.12,0.22c0.02,0.07,0.11,0.11,0.18,0.11
				c0.03,0,0.06-0.01,0.07-0.02c0.07-0.06,0.09-0.15,0.17-0.27C21.77,52.42,21.69,52.39,21.62,52.39"/>
			<path class="st0" d="M46.52,39.48c-0.02,0.09-0.07,0.16-0.04,0.21c0.01,0.03,0.1,0.06,0.15,0.06c0.01,0,0.02,0,0.02,0
				c0.05-0.04,0.09-0.11,0.08-0.16C46.72,39.55,46.62,39.53,46.52,39.48"/>
			<path class="st0" d="M46.33,46.39c-0.01,0.04-0.02,0.07-0.04,0.11c0.07,0.01,0.13,0.02,0.19,0.03l0.02,0l0.01-0.03
				C46.46,46.46,46.39,46.43,46.33,46.39"/>
			<path class="st0" d="M75.67,21.3c0.07,0.24,0.06,0.41,0.16,0.5c0.03,0.03,0.12,0.04,0.21,0.04c0.09,0,0.18-0.02,0.2-0.04
				c0.07-0.11,0.11-0.31,0.04-0.4C76.19,21.33,75.96,21.35,75.67,21.3"/>
			<path class="st0" d="M72.7,20.63c-0.05,0-0.08,0-0.09,0.02c-0.06,0.11-0.07,0.23-0.12,0.4c0.1,0,0.21,0,0.28,0
				c0.04,0,0.07,0,0.07-0.01c0.03-0.13,0.03-0.27,0.04-0.41c-0.01,0-0.02,0-0.03,0c-0.02,0-0.05,0-0.08,0
				C72.75,20.64,72.72,20.63,72.7,20.63"/>
			<path class="st0" d="M53.82,34.3l-0.17,1.09c0.01-0.01,0.02-0.02,0.03-0.02C54.15,34.98,54.2,34.66,53.82,34.3"/>
			<path class="st0" d="M65.3,21.03c0.07,0.27,0.05,0.44,0.15,0.53c0.09,0.08,0.2,0.13,0.32,0.13c0.11,0,0.22-0.04,0.3-0.13
				c0.04-0.05,0.06-0.15,0.04-0.23c-0.22-0.09-0.44-0.18-0.65-0.27C65.41,21.04,65.36,21.04,65.3,21.03"/>
			<path class="st0" d="M68.43,39.64c-0.05,0-0.09,0.01-0.12,0.02c-0.08,0.04-0.06,0.22-0.09,0.4c0.22-0.03,0.38-0.02,0.47-0.08
				c0.06-0.04,0.07-0.25,0.01-0.27C68.63,39.67,68.52,39.64,68.43,39.64"/>
			<path class="st0" d="M54.35,43.16l-0.19,0.05c0.06,0.01,0.12,0.02,0.19,0.03C54.35,43.21,54.35,43.18,54.35,43.16"/>
			<path class="st0" d="M48.63,18.81L48.63,18.81L48.63,18.81c0.02,0,0.03,0.01,0.04,0.01c0.03,0.01,0.06,0.04,0.09,0.05l0,0l0,0
				l0,0c-0.02,0.04-0.05,0.09-0.07,0.13c-0.06-0.03-0.13-0.06-0.19-0.09l0,0l0,0C48.54,18.87,48.57,18.82,48.63,18.81L48.63,18.81
				C48.62,18.81,48.63,18.81,48.63,18.81L48.63,18.81L48.63,18.81 M49.76,18.33c-0.86,0.04-1.73,0.1-2.6,0.2
				c-0.2,0.35-0.23,0.77-0.06,1.14c0.05,0.11,0.13,0.22,0.24,0.31c0.89-0.1,1.77-0.17,2.66-0.2c0.14-0.34,0.15-0.76-0.03-1.14
				C49.91,18.53,49.84,18.42,49.76,18.33"/>
			<path class="st0" d="M67,15.11c-0.47,0.11-0.94,0.29-1.43,0.52c0.74,0.46,1.45,0.82,2.3,0.82c0.01,0,0.02,0,0.03,0
				c0.26,0,0.56-0.15,0.8-0.31C68.26,15.63,67.65,15.27,67,15.11"/>
			<path class="st0" d="M54.54,15.89c-0.11,0-0.22,0.02-0.31,0.05c-0.18,0.06-0.33,0.2-0.44,0.36c0.57,0.03,1.15,0.08,1.72,0.14
				C55.32,16.11,54.93,15.89,54.54,15.89"/>
			<path class="st0" d="M81.38,36.2l-1.89,0.49c0.2,0.18,0.51,0.31,0.9,0.36c0.07,0.01,0.13,0.01,0.2,0.01
				c0.47,0,0.79-0.24,0.81-0.67C81.39,36.32,81.39,36.26,81.38,36.2"/>
			<path class="st0" d="M53.23,14.25c-0.64,0.11-0.94,0.28-0.93,0.78C52.84,15.01,53.1,14.8,53.23,14.25"/>
			<path class="st0" d="M63.34,16.92c-0.01,0.19-0.04,0.29,0,0.37c0.02,0.04,0.14,0.07,0.21,0.07c0.02,0,0.03,0,0.03-0.01
				c0.07-0.06,0.16-0.18,0.13-0.24C63.68,17.05,63.53,17.02,63.34,16.92"/>
			<path class="st0" d="M75.17,38.21c-0.03,0.04-0.1,0.08-0.1,0.11c0,0.04,0.07,0.07,0.1,0.11c0.03-0.04,0.1-0.07,0.09-0.11
				C75.27,38.28,75.21,38.24,75.17,38.21"/>
			<path class="st0" d="M48.63,18.81L48.63,18.81C48.63,18.81,48.62,18.81,48.63,18.81L48.63,18.81c-0.06,0.01-0.09,0.07-0.13,0.1
				l0,0c0.06,0.03,0.13,0.06,0.19,0.09c0.02-0.04,0.05-0.09,0.07-0.13l0,0l0,0c-0.03-0.02-0.06-0.04-0.09-0.05
				C48.66,18.81,48.65,18.81,48.63,18.81L48.63,18.81L48.63,18.81"/>
			<path class="st0" d="M82.75,31.55c0.21,0.26,0.41,0.53,0.61,0.8c0.18-0.37-0.1-0.79-0.59-0.8
				C82.76,31.55,82.76,31.55,82.75,31.55"/>
			<path class="st0" d="M73.79,25.71c-0.11,0.14-0.14,0.35-0.06,0.5c0.08,0.14,0.23,0.22,0.41,0.22c0.08,0,0.17-0.02,0.27-0.06
				c0.06-0.02,0.11-0.05,0.15-0.08C74.31,26.09,74.05,25.9,73.79,25.71"/>
			<path class="st0" d="M76.08,37.56l-0.51,0.13c0.06,0.04,0.13,0.06,0.21,0.06c0.05,0,0.1-0.01,0.14-0.03
				C76,37.69,76.05,37.63,76.08,37.56"/>
			<path class="st0" d="M69.35,22.88c-0.12,0.06-0.18,0.17-0.13,0.27c0.04,0.08,0.11,0.12,0.19,0.12c0.03,0,0.06,0,0.08-0.01
				c0.11-0.04,0.17-0.12,0.17-0.2C69.57,23,69.46,22.94,69.35,22.88"/>
			<path class="st0" d="M77.91,24.94c-0.2,0-0.31,0.06-0.44,0.2c0.07,0.03,0.14,0.04,0.22,0.04c0.15,0,0.3-0.07,0.53-0.21
				C78.1,24.95,78,24.94,77.91,24.94"/>
			<path class="st0" d="M82.6,26.68c-0.08,0.05-0.11,0.14-0.07,0.23c0.03,0.06,0.09,0.1,0.16,0.1c0.01,0,0.02,0,0.03,0
				C82.67,26.89,82.63,26.79,82.6,26.68"/>
			<path class="st0" d="M84.24,30.71c-0.03,0.11-0.09,0.2-0.07,0.23c0.04,0.04,0.14,0.08,0.21,0.08c0.01,0,0.02,0,0.02,0
				c0.11-0.02,0.16-0.11,0.1-0.19C84.47,30.78,84.36,30.76,84.24,30.71"/>
			<path class="st0" d="M83.47,36.52c-0.05,0.1-0.07,0.17-0.1,0.24c0.07,0.02,0.15,0.05,0.2,0.05c0.01,0,0.02,0,0.03-0.01
				c0.06-0.02,0.09-0.13,0.09-0.19C83.69,36.58,83.57,36.56,83.47,36.52"/>
			<path class="st0" d="M77.4,29.39c-0.01,0.12-0.04,0.2-0.01,0.25c0.02,0.02,0.11,0.05,0.16,0.05c0.02,0,0.03,0,0.04-0.01
				c0.05-0.05,0.08-0.14,0.07-0.2C77.64,29.45,77.52,29.44,77.4,29.39"/>
			<path class="st0" d="M75.09,20.99c-0.01,0-0.01,0-0.01,0c-0.06,0.05-0.1,0.12-0.14,0.19c0.04,0.02,0.1,0.06,0.13,0.06
				c0,0,0.01,0,0.01,0c0.07-0.03,0.13-0.09,0.24-0.18C75.21,21.03,75.13,20.99,75.09,20.99"/>
			<path class="st0" d="M80.46,32.04c-0.01,0-0.02,0-0.02,0c-0.04,0.02-0.06,0.09-0.08,0.14c0.06,0.02,0.12,0.05,0.17,0.05
				c0,0,0.01,0,0.01,0c0.02,0,0.04-0.03,0.06-0.06c-0.03-0.04-0.07-0.08-0.1-0.12C80.48,32.04,80.47,32.04,80.46,32.04"/>
		</g>
	</g>
	<g>
		<path d="M13.28,68.55c0.02,0.07,0.02,0.19-0.01,0.35c-0.02,0.16-0.03,0.27-0.01,0.35c0.08,0.3,0.09,0.65,0.05,1.06
			c-0.09,0.94-0.18,1.51-0.27,1.72c-0.21,0.49-0.61,1.04-1.22,1.64c-0.45,0.45-1.12,0.79-2,1.01c-0.15-0.08-0.5-0.09-1.05-0.03
			c-0.55,0.06-1,0.01-1.36-0.17c-1.28-0.61-2-1.01-2.17-1.19C4.86,72.86,4.5,72.3,4.17,71.6c-0.08-0.15-0.34-0.77-0.77-1.85
			c-0.24-0.57-0.36-0.85-0.36-0.84c-0.16-0.63-0.25-1.45-0.25-2.44c0-0.05,0.02-0.87,0.06-2.46c0.31-0.54,0.63-1.09,0.95-1.62
			c0.32-0.54,0.75-1.01,1.27-1.41c0.26-0.08,0.51-0.15,0.74-0.21c0.32-0.08,0.56-0.14,0.69-0.16c0.22-0.03,0.58,0,1.09,0.1
			s0.82,0.13,0.93,0.1c0.07-0.11,0.14-0.17,0.23-0.2c0.09-0.02,0.17,0,0.26,0.07l0.71-0.38l0.32,0.1c0.19-0.12,0.28-0.17,0.26-0.17
			c0.11-0.03,0.18,0,0.2,0.09c0.02,0.06,0.03,0.14,0.03,0.24c0.01,0.1,0.02,0.17,0.03,0.22c0.03,0.11,0.09,0.26,0.17,0.45
			c0.09,0.19,0.15,0.34,0.17,0.45c0.17,0.67,0.31,1.24,0.41,1.72c0.1,0.6,0.13,0.83,0.1,0.71c0.01,0.05,0.09,0.15,0.24,0.31
			c0.15,0.16,0.23,0.27,0.27,0.34l-0.03,0.05c-0.12,0.03-0.31,0.11-0.54,0.24s-0.43,0.21-0.56,0.24c-0.21,0.05-0.41,0.03-0.61-0.06
			c-0.21-0.03-0.46-0.09-0.77-0.2c-0.01-0.18-0.03-0.36-0.07-0.52c-0.14-0.56-0.46-0.97-0.96-1.23c-0.5-0.26-1.03-0.32-1.58-0.18
			c-1.19,0.31-1.91,1.29-2.16,2.94c-0.08,0.55-0.07,1.03,0.03,1.42c0.09,0.36,0.25,0.7,0.48,1.03c0.06,0.08,0.16,0.17,0.29,0.27
			c0.07,0.05,0.13,0.19,0.19,0.43c0.01,0.04-0.04,0.16-0.16,0.38c0.09,0.1,0.22,0.34,0.38,0.75c0.16,0.4,0.28,0.63,0.36,0.69
			c0.08-0.01,0.14,0.04,0.19,0.15c0.05,0.11,0.09,0.21,0.13,0.31c-0.01,0.08,0.03,0.13,0.12,0.14c0.08,0.01,0.13,0.03,0.16,0.07
			c0.05,0.2,0.19,0.47,0.41,0.83c0.61,0.53,1.65,0.61,3.13,0.23c0.32-0.08,0.53-0.21,0.63-0.38c0.22-0.37,0.42-0.86,0.59-1.46
			c0.2-0.67,0.26-1.18,0.18-1.52c-0.01-0.05-0.03-0.12-0.06-0.22s-0.04-0.17-0.06-0.22c-0.13-0.52,0.05-0.85,0.54-0.97
			c0.22-0.06,0.45-0.03,0.68,0.09C13.07,68.15,13.22,68.32,13.28,68.55z"/>
		<path d="M26.51,69.43c0.05,0.21,0.02,0.42-0.1,0.62c-0.12,0.2-0.28,0.33-0.48,0.38l-1.12,0.29c-0.16,0.04-0.4,0.08-0.7,0.11
			c-0.31,0.03-0.53,0.06-0.67,0.08c-0.07-0.03-0.16-0.04-0.24-0.02c-0.07,0.02-0.17,0.07-0.28,0.14c-0.11,0.07-0.2,0.12-0.26,0.14
			c-0.29-0.19-0.49-0.27-0.62-0.24c-0.15,0.04-0.26,0.14-0.33,0.29c-0.07,0.16-0.13,0.25-0.17,0.27c-0.04,0.02-0.34,0.11-0.9,0.25
			c-0.25,0.07-0.61,0.16-1.08,0.3c-0.47,0.13-0.82,0.23-1.06,0.29c-0.26,0.07-0.6,0.07-1.03,0.02c-0.11,0.03-0.27,0.09-0.49,0.19
			c-0.21,0.1-0.37,0.17-0.49,0.19c-0.36,0.09-0.58-0.03-0.67-0.38c-0.07-0.28,0.06-0.67,0.41-1.17c0.34-0.49,0.51-0.82,0.5-0.97
			c-0.06-0.22-0.11-0.56-0.16-0.99c0.02-0.12,0.04-0.31,0.06-0.55c0.02-0.24-0.16-1.07-0.52-2.47c-0.15-0.58-0.25-0.9-0.29-0.96
			c-0.16-0.12-0.26-0.24-0.3-0.38c-0.02-0.06-0.02-0.16-0.02-0.28c0-0.12-0.01-0.22-0.02-0.28c-0.03-0.12-0.1-0.27-0.19-0.43
			c-0.13-0.22-0.21-0.36-0.23-0.42c-0.13-0.34-0.32-0.85-0.57-1.54c-0.09-0.22-0.22-0.3-0.38-0.26c-0.05,0.01-0.12,0.04-0.2,0.08
			c-0.08,0.04-0.14,0.07-0.18,0.07c-0.1,0.02-0.2,0.01-0.31-0.06s-0.17-0.14-0.2-0.23l0.03-0.12c-0.27-0.22-0.44-0.47-0.51-0.74
			c-0.04-0.16-0.02-0.27,0.05-0.33c0.01,0,0.12-0.04,0.33-0.11l7.22-2.35c0.2-0.06,0.39-0.12,0.59-0.17
			c0.3-0.08,0.52-0.12,0.66-0.15c0.31-0.06,0.63,0.01,0.95,0.19c0.32,0.18,0.52,0.43,0.6,0.74c0.02,0.06,0.02,0.16,0,0.3
			c-0.02,0.14-0.02,0.24,0,0.32c0.25,0.98,0.4,1.7,0.43,2.15c0.02,0.25-0.07,0.39-0.26,0.45c-0.09,0.02-0.22,0.04-0.38,0.07
			c-0.17,0.02-0.29,0.04-0.36,0.06c-0.24,0.06-0.56,0-0.97-0.17c-0.41-0.17-0.64-0.36-0.69-0.57c-0.01-0.02,0-0.05,0.03-0.08
			c0.02-0.03,0.03-0.06,0.03-0.08c-0.01-0.05-0.05-0.11-0.1-0.17l-0.01-0.43l-0.25-0.19c-0.11,0.03-0.22,0.05-0.34,0.07
			c-0.19,0.02-0.28,0.01-0.27-0.05l-3.09,0.8c-0.52,0.13-0.65,0.7-0.39,1.71c0.22,0.84,0.47,1.32,0.77,1.45
			c0.24,0.1,0.79,0.03,1.66-0.19c0.36-0.09,0.56-0.18,0.61-0.27c0.13-0.3,0.35-0.53,0.65-0.68c0.3-0.16,0.59-0.31,0.86-0.46
			c0.2,0.15,0.33,0.35,0.4,0.61c0.06,0.24,0.03,0.42-0.09,0.56c0.17,0.5,0.39,1.25,0.68,2.25c0,0.12,0,0.25,0,0.39
			c0,0.14-0.07,0.23-0.21,0.26c-0.71,0.18-1.18,0.16-1.43-0.07c-0.03-0.11-0.1-0.27-0.22-0.46c-0.07-0.09-0.25-0.15-0.52-0.18
			c-0.27-0.03-0.49-0.03-0.63,0c-0.07,0.02-0.19,0.06-0.34,0.13c-0.16,0.07-0.27,0.11-0.34,0.13c-0.52,0.13-0.7,0.53-0.53,1.19
			c0.26,1,0.55,1.74,0.87,2.23c0.17,0.26,0.36,0.42,0.56,0.47c0.16,0.04,0.39,0.02,0.7-0.06c0.11-0.03,0.27-0.09,0.46-0.18
			c0.2-0.09,0.35-0.15,0.46-0.18c0.09-0.02,0.23-0.04,0.43-0.07c0.2-0.02,0.37-0.05,0.52-0.09l0.04,0.02
			c0.06-0.09,0.14-0.18,0.27-0.29c0.12-0.18,0.23-0.28,0.3-0.3c0.07-0.02,0.18-0.02,0.33,0c0.14,0.02,0.26,0.02,0.33,0
			c0.14-0.03,0.27-0.15,0.41-0.35c0.13-0.2,0.2-0.37,0.18-0.51l-0.2-2c0.07-0.03,0.17-0.06,0.29-0.1c0.12-0.03,0.31-0.05,0.54-0.05
			c0.24,0,0.42-0.02,0.54-0.05c0.05-0.01,0.12-0.04,0.2-0.09c0.08-0.05,0.15-0.08,0.2-0.09c0.06-0.02,0.11,0.04,0.15,0.18
			s0.08,0.35,0.13,0.64c0.06,0.29,0.1,0.51,0.13,0.64c0.03,0.14,0.1,0.33,0.19,0.58c0.09,0.25,0.15,0.44,0.19,0.57
			s0.11,0.32,0.24,0.57C26.39,69.1,26.47,69.29,26.51,69.43z"/>
		<path d="M38.29,65.74c0.05,0.2,0.07,0.44,0.05,0.72c-0.01,0.37-0.08,0.58-0.22,0.61l-1.36,0.35c-0.08,0.15-0.2,0.25-0.36,0.29
			c-0.12,0.03-0.27,0-0.44-0.1s-0.3-0.14-0.37-0.12l-0.12,0.05c-0.13,0.22-0.47,0.4-1.01,0.54c-0.36,0.09-0.56,0.06-0.6-0.1
			c-0.02-0.1-0.02-0.27,0.02-0.51c0.04-0.24,0.05-0.41,0.04-0.51c0.04-0.04,0.18-0.08,0.4-0.14c0.22-0.06,0.31-0.16,0.28-0.31
			c-0.04-0.17-0.52-0.89-1.43-2.16l0.14-0.22l-0.39-0.04c-0.1-0.15-0.52-0.46-1.25-0.95c-0.73-0.49-1.17-0.75-1.32-0.77l-0.43,0.11
			c-0.29,0.07-0.46,0.17-0.54,0.31c-0.07,0.13-0.06,0.34,0.02,0.64c-0.02,0.11-0.02,0.22,0.01,0.34c0.01,0.05,0.03,0.12,0.06,0.22
			s0.04,0.17,0.06,0.22c0.02,0.1,0.05,0.24,0.07,0.42c0.02,0.18,0.04,0.32,0.07,0.42c0.01,0.05,0.07,0.16,0.19,0.34
			s0.18,0.33,0.22,0.47c0.02,0.09,0.05,0.21,0.1,0.37c0.04,0.16,0.07,0.28,0.09,0.35c0.09,0.35,0.26,0.57,0.51,0.66
			c0.45-0.01,0.79-0.01,1.03,0.01c0.41,0.03,0.73,0.1,0.97,0.21c0.07,0.16,0.12,0.29,0.14,0.4c0.07,0.25-0.05,0.52-0.34,0.82
			c-0.44,0.14-0.7,0.22-0.77,0.24c-0.4,0.1-1.02,0.21-1.85,0.32c-0.84,0.11-1.47,0.22-1.89,0.35c-0.28-0.58-0.42-0.85-0.41-0.81
			c-0.03-0.11-0.02-0.24,0.04-0.39c0.61-0.53,0.84-1.04,0.71-1.55c-0.05-0.19-0.15-0.45-0.31-0.78c-0.16-0.34-0.26-0.59-0.31-0.76
			c-0.58-1.98-1.14-4.05-1.7-6.22c-0.05-0.19-0.26-0.42-0.62-0.71c-0.08-0.05-0.29-0.12-0.63-0.22c-0.2-0.05-0.33-0.22-0.41-0.49
			c-0.06-0.24-0.06-0.46,0.01-0.69c0.07-0.22,0.21-0.36,0.42-0.41c0.15-0.04,0.33,0.01,0.55,0.14c0.12-0.04,0.3-0.12,0.52-0.24
			c0.23-0.12,0.41-0.19,0.55-0.21l3.41-0.88c0.05,0.03,0.13,0.02,0.26-0.01c0.07-0.02,0.19-0.05,0.33-0.09
			c0.15-0.04,0.26-0.07,0.33-0.09c0.17-0.04,0.34-0.03,0.51,0.03c0.16,0.07,0.29,0.1,0.38,0.1c0.57,0,0.9,0.01,1,0.04
			c0.27,0.06,0.54,0.27,0.82,0.62c0.55,0.69,0.83,1.05,0.83,1.07c0.24,0.93,0.29,1.61,0.15,2.04c-0.11,0.19-0.26,0.47-0.45,0.85
			c-0.19,0.38-0.41,0.75-0.67,1.13c-0.2,0.13-0.46,0.31-0.78,0.54c0.03,0.08,0.3,0.31,0.8,0.67c0.5,0.36,0.76,0.61,0.8,0.74
			c0.03,0.13,0.2,0.31,0.49,0.55c0.29,0.24,0.46,0.43,0.5,0.6c0.01,0.02,0.01,0.07,0.02,0.15c0.02,0.06,0.03,0.11,0.04,0.15
			c0.07,0.27,0.34,0.58,0.81,0.92c0.47,0.34,0.84,0.48,1.1,0.41c0.06-0.02,0.15-0.06,0.27-0.13c0.12-0.07,0.21-0.11,0.28-0.13
			c0.06-0.02,0.17,0.01,0.33,0.06C38.18,65.62,38.27,65.68,38.29,65.74z M32.66,57.84c-0.13-0.51-0.55-0.81-1.27-0.9
			c-0.26-0.04-0.85,0.06-1.77,0.3c-1,0.26-1.67,0.5-1.98,0.73c0.01,0.34,0.05,0.67,0.13,0.98c0.1,0.4,0.3,1,0.59,1.82
			c0.06,0.09,0.12,0.17,0.19,0.24c0.07,0.07,0.23,0.07,0.49,0c0.16-0.04,0.4-0.13,0.7-0.28c0.31-0.15,0.54-0.24,0.7-0.28
			c0.06-0.02,0.16-0.03,0.28-0.03c0.12-0.01,0.22-0.02,0.28-0.03c0.19-0.05,0.31-0.17,0.38-0.36c0.17-0.07,0.34-0.14,0.52-0.2
			c0.18-0.07,0.33-0.18,0.44-0.33c0.11-0.16,0.2-0.42,0.27-0.79C32.7,58.32,32.71,58.03,32.66,57.84z"/>
		<path d="M45.95,55.96c0.03,0.12-0.08,0.31-0.32,0.55c-0.25,0.24-0.45,0.38-0.6,0.42c-0.19,0.05-0.39-0.01-0.6-0.17
			c-0.06-0.24-0.16-0.58-0.31-1.03c-0.21-0.13-0.32-0.24-0.34-0.33c-0.01-0.02,0.01-0.05,0.05-0.08c0.04-0.03,0.05-0.07,0.04-0.12
			c-0.06-0.22-0.19-0.41-0.39-0.58c-0.2-0.16-0.41-0.21-0.64-0.15c-0.33,0.09-0.58,0.46-0.75,1.11l0.13,0.58
			c0.12,0.47,0.31,0.84,0.56,1.11c-0.05,0.22-0.05,0.42-0.01,0.58c0.01,0.05,0.04,0.12,0.09,0.22c0.05,0.09,0.08,0.17,0.09,0.22
			c0.02,0.06,0.01,0.12-0.03,0.19l0.15,0.6c0.12,0.48,0.28,0.87,0.46,1.15c-0.12,0.03-0.17,0.13-0.12,0.29
			c0.14,0.03,0.23,0.12,0.27,0.27c0.02,0.07,0.04,0.2,0.05,0.36s0.03,0.29,0.05,0.36c0.04,0.16,0.11,0.37,0.2,0.62
			c0.11,0.33,0.18,0.54,0.2,0.62c0.06,0.17,0.1,0.28,0.12,0.32c0.06,0.08,0.15,0.15,0.27,0.21c0.27,0.1,0.61,0.19,1.04,0.25
			c0.53,0.07,0.87,0.14,1.03,0.19c0.19,0.17,0.31,0.34,0.35,0.49c0.03,0.14,0.02,0.32-0.03,0.56c0.02,0.1-0.03,0.2-0.18,0.31
			c-0.14,0.11-0.28,0.18-0.4,0.21l-1.17,0.3c-1.54,0.4-2.75,0.61-3.63,0.64c-0.42,0.02-0.66-0.11-0.73-0.37
			c-0.02-0.06-0.02-0.21-0.03-0.43c0.12-0.22,0.34-0.47,0.66-0.78c0.32-0.3,0.55-0.53,0.66-0.7c0.2-0.29,0.26-0.68,0.18-1.16
			c-0.42-2.21-0.79-3.9-1.09-5.08c-0.56-2.17-1.06-3.2-1.51-3.08l-0.43,0.43c-0.07-0.01-0.13-0.05-0.19-0.11
			c-0.08,0.03-0.2,0.1-0.34,0.21c-0.17,0.19-0.15,0.73,0.08,1.63c0.12,0.47,0.13,0.84,0.03,1.09c-0.1,0.26-0.19,0.4-0.28,0.42
			c-0.4,0.1-0.72,0.01-0.97-0.29c-0.15-0.18-0.42-1.02-0.8-2.51c-0.05-0.2-0.03-0.43,0.07-0.7s0.23-0.45,0.41-0.55
			c0.76-0.37,1.95-0.76,3.55-1.17l1.64-0.42c1.05-0.27,1.76-0.23,2.12,0.13c0.16,0.17,0.43,0.8,0.8,1.88
			c0.04,0.11,0.13,0.32,0.27,0.65C45.83,55.57,45.91,55.79,45.95,55.96z"/>
		<path d="M60.08,60.1c0.03,0.27,0.05,0.54,0.07,0.82c0.01,0.4-0.08,0.62-0.27,0.66c-0.04,0.01-0.09,0.01-0.17-0.01
			c-0.07-0.01-0.13-0.02-0.17-0.01c-0.06,0.02-0.15,0.06-0.28,0.12c-0.12,0.07-0.22,0.11-0.28,0.12l-6.07,1.56
			c-0.71,0.18-1.12,0.03-1.25-0.45c-0.13-0.5,0.06-0.87,0.56-1.12c0.02-0.02,0.51-0.18,1.47-0.48c0.52-0.17,0.75-0.4,0.68-0.67
			c-0.02-0.1-0.08-0.24-0.16-0.41c-0.08-0.18-0.13-0.32-0.16-0.42c-0.04-0.15-0.04-0.4,0.01-0.75c0.04-0.35,0.04-0.61,0-0.78
			c-0.01-0.05-0.04-0.12-0.08-0.21c-0.04-0.09-0.07-0.16-0.08-0.21l-1.27-4.93c-0.05-0.2-0.36-0.39-0.92-0.58
			c-0.51,0.08-1.02,0.16-1.52,0.25c-0.63,0.02-1.01-0.22-1.14-0.72l-0.19-0.73c0.17-0.22,0.45-0.37,0.83-0.47
			c0.57-0.15,1.43-0.36,2.57-0.62s1.99-0.47,2.55-0.62c0.11-0.03,0.27-0.08,0.48-0.17c0.21-0.08,0.37-0.13,0.48-0.17
			c0.3-0.08,0.71,0,1.23,0.22c0.01,0.75-0.08,1.26-0.26,1.52c-0.18,0.26-0.61,0.54-1.3,0.83l-0.06,0.02
			c-0.06,0.02-0.15,0.02-0.26,0.03s-0.2,0.01-0.26,0.03l-0.02,0.01c-0.22,0.26-0.26,0.69-0.1,1.3c0.17,0.67,0.33,1.09,0.46,1.27
			c0.02,0.09,0.06,0.23,0.11,0.44c0.05,0.21,0.09,0.36,0.12,0.47c0.06,0.22,0.12,0.41,0.18,0.55c0.07,0.04,0.1,0.08,0.12,0.13
			c0.02,0.06,0,0.12-0.06,0.17l0.01,0.1c0.02,0.06,0.06,0.15,0.13,0.27c0.07,0.12,0.11,0.2,0.13,0.27c0.06,0.24,0.13,0.6,0.22,1.08
			c0.08,0.48,0.16,0.84,0.22,1.08c0.07,0.26,0.27,0.49,0.59,0.68c0.16,0.17,0.37,0.36,0.62,0.56C57.89,60.24,58.72,60.23,60.08,60.1
			z"/>
		<path d="M69.77,46.69c0.06,0.22,0.04,0.43-0.06,0.63l0.62,2.42l0.03,0.03c0.03,0.23-0.04,0.46-0.22,0.68
			c-0.18,0.22-0.39,0.37-0.62,0.43c-0.14,0.03-0.33-0.22-0.59-0.76c-0.26-0.54-0.41-0.82-0.46-0.84c-0.09-0.28-0.17-0.56-0.26-0.85
			c-0.13-0.41-0.25-0.66-0.35-0.74c-0.27-0.22-0.48-0.31-0.63-0.27c-0.01,0-0.06,0.06-0.15,0.18c-0.09,0.12-0.18,0.19-0.28,0.21
			c-0.04,0.01-0.09,0.02-0.15,0.04c-0.06,0.02-0.11,0.03-0.15,0.04c-0.05,0.01-0.24,0.13-0.56,0.36c-0.11,0.03-0.28,0.03-0.51,0
			c-0.22-0.03-0.4-0.03-0.51,0l-0.48,0.12c-0.22,0.06-0.39,0.13-0.5,0.23c-0.13,0.31-0.16,0.63-0.07,0.96
			c0.2,0.76,0.39,1.22,0.59,1.37c0.57,0.09,1.09,0.07,1.57-0.05c0.07-0.02,0.22-0.12,0.43-0.31c0.21-0.19,0.35-0.33,0.4-0.42
			l0.05-0.05c0.08-0.01,0.18,0.02,0.3,0.08c0.12,0.06,0.22,0.08,0.28,0.07l0.06-0.02c0.07,0,0.23-0.03,0.5-0.09l0.03,0.11
			c0.02,0.07,0.05,0.18,0.08,0.33c0.04,0.15,0.07,0.26,0.08,0.33c0.01,0.05-0.02,0.21-0.09,0.46c-0.07,0.26-0.1,0.44-0.09,0.52
			c0.07,0,0.18-0.04,0.35-0.11l0.02,0.06c0.03,0.12-0.01,0.28-0.14,0.47l0.05,0.19c-0.01,0.16-0.02,0.33-0.03,0.51
			c-0.04,0.22-0.12,0.35-0.26,0.38c-0.15,0.04-0.49,0.02-1.02-0.04s-0.87-0.08-1.02-0.04c-0.5,0.13-0.76,0.44-0.79,0.94
			c-0.04,0.67-0.02,1.14,0.04,1.4c0.28,1.1,0.65,1.77,1.09,1.98c0.35,0.03,0.71,0.06,1.09,0.09c0.37,0.03,0.64,0.38,0.82,1.05
			c0.12,0.47-0.02,0.76-0.41,0.86c-0.31,0.08-0.78,0.2-1.42,0.36c-0.62,0.16-1.09,0.28-1.4,0.36c-0.07,0.02-0.18,0.05-0.32,0.08
			c-0.14,0.04-0.25,0.07-0.32,0.08c-0.1,0.02-0.25,0.05-0.45,0.07c-0.2,0.02-0.34,0.05-0.43,0.07l-0.21-1.12
			c-0.02-0.15,0.08-0.36,0.33-0.64c0.25-0.27,0.38-0.47,0.39-0.58c0.05-0.33-0.17-1.43-0.65-3.3c-0.15-0.57-0.3-0.86-0.46-0.87
			c-0.32-1.61-0.49-2.43-0.49-2.45c-0.07-0.27-0.25-0.62-0.53-1.05s-0.54-0.7-0.77-0.81c-0.32-0.1-0.75-0.3-1.28-0.6l-0.09-0.33
			c-0.13-0.44-0.1-0.71,0.09-0.8c0.68-0.33,1.39-0.6,2.14-0.79c0.65-0.17,1.49-0.36,2.53-0.57c1.38-0.28,2.23-0.45,2.55-0.52
			c0.83-0.19,1.33-0.28,1.53-0.3C69.25,45.93,69.64,46.18,69.77,46.69z"/>
		<path d="M83.36,54.11c0.03,0.27,0.05,0.54,0.07,0.82c0.01,0.4-0.08,0.62-0.27,0.66c-0.04,0.01-0.09,0.01-0.17-0.01
			c-0.07-0.01-0.13-0.02-0.17-0.01c-0.06,0.02-0.15,0.06-0.28,0.12c-0.12,0.07-0.22,0.11-0.28,0.12l-6.07,1.56
			c-0.71,0.18-1.12,0.03-1.25-0.45c-0.13-0.5,0.06-0.87,0.56-1.12c0.02-0.02,0.51-0.18,1.47-0.48c0.52-0.17,0.75-0.4,0.68-0.67
			c-0.02-0.1-0.08-0.24-0.16-0.41c-0.08-0.18-0.13-0.32-0.16-0.42c-0.04-0.15-0.04-0.4,0.01-0.75c0.04-0.35,0.04-0.61,0-0.78
			c-0.01-0.05-0.04-0.12-0.08-0.21s-0.07-0.16-0.08-0.21l-1.27-4.93c-0.05-0.2-0.36-0.39-0.92-0.58c-0.51,0.08-1.02,0.16-1.52,0.25
			c-0.63,0.02-1.01-0.22-1.14-0.72l-0.19-0.73c0.17-0.22,0.45-0.37,0.83-0.47c0.57-0.15,1.43-0.36,2.57-0.62s1.99-0.47,2.55-0.62
			c0.11-0.03,0.27-0.08,0.48-0.17c0.21-0.08,0.37-0.13,0.48-0.17c0.3-0.08,0.71,0,1.23,0.22c0.01,0.75-0.08,1.26-0.26,1.52
			c-0.18,0.26-0.61,0.54-1.3,0.83l-0.06,0.02c-0.06,0.02-0.15,0.02-0.26,0.03s-0.2,0.01-0.26,0.03l-0.02,0.01
			c-0.22,0.26-0.26,0.69-0.1,1.3c0.17,0.67,0.33,1.09,0.46,1.27c0.02,0.09,0.06,0.23,0.11,0.44c0.05,0.21,0.09,0.36,0.12,0.47
			c0.06,0.22,0.12,0.41,0.18,0.55c0.07,0.04,0.1,0.08,0.12,0.13c0.02,0.06,0,0.12-0.06,0.17l0.01,0.1c0.02,0.06,0.06,0.15,0.13,0.27
			c0.07,0.12,0.11,0.2,0.13,0.27c0.06,0.24,0.13,0.6,0.22,1.08c0.08,0.48,0.16,0.84,0.22,1.08c0.07,0.26,0.27,0.49,0.59,0.68
			c0.16,0.17,0.37,0.36,0.62,0.56C81.17,54.24,81.99,54.24,83.36,54.11z"/>
		<path d="M96.34,51.44c0.05,0.21,0.02,0.42-0.1,0.62c-0.12,0.2-0.28,0.33-0.48,0.38l-1.12,0.29c-0.16,0.04-0.4,0.08-0.7,0.11
			c-0.31,0.03-0.53,0.06-0.67,0.08c-0.07-0.03-0.16-0.04-0.24-0.02c-0.07,0.02-0.17,0.07-0.28,0.14c-0.11,0.07-0.2,0.12-0.26,0.14
			c-0.29-0.19-0.49-0.27-0.62-0.24c-0.15,0.04-0.26,0.14-0.33,0.29c-0.07,0.16-0.13,0.25-0.17,0.27c-0.04,0.02-0.34,0.11-0.9,0.25
			c-0.25,0.07-0.61,0.16-1.08,0.3s-0.82,0.23-1.06,0.29c-0.26,0.07-0.6,0.07-1.03,0.02c-0.11,0.03-0.27,0.09-0.49,0.19
			c-0.21,0.1-0.37,0.17-0.49,0.19c-0.36,0.09-0.59-0.03-0.67-0.38c-0.07-0.28,0.06-0.67,0.41-1.17c0.34-0.49,0.51-0.82,0.5-0.97
			c-0.06-0.22-0.11-0.56-0.16-0.99c0.02-0.12,0.04-0.31,0.06-0.55c0.02-0.24-0.16-1.07-0.52-2.47c-0.15-0.58-0.25-0.9-0.29-0.96
			c-0.16-0.12-0.26-0.24-0.3-0.38c-0.02-0.06-0.02-0.16-0.02-0.28c0-0.12-0.01-0.22-0.02-0.28c-0.03-0.12-0.1-0.27-0.19-0.43
			c-0.13-0.22-0.21-0.36-0.23-0.42c-0.13-0.34-0.32-0.85-0.57-1.54c-0.09-0.22-0.22-0.3-0.38-0.26c-0.05,0.01-0.12,0.04-0.2,0.08
			c-0.08,0.04-0.14,0.07-0.18,0.07c-0.1,0.02-0.2,0.01-0.31-0.06s-0.17-0.14-0.2-0.23l0.03-0.12c-0.27-0.22-0.44-0.47-0.51-0.74
			c-0.04-0.16-0.02-0.27,0.05-0.33c0.01,0,0.12-0.04,0.33-0.11l7.22-2.35c0.2-0.06,0.39-0.12,0.59-0.17
			c0.3-0.08,0.52-0.12,0.65-0.15c0.32-0.06,0.63,0.01,0.95,0.19c0.32,0.18,0.52,0.43,0.6,0.74c0.02,0.06,0.02,0.16,0,0.3
			c-0.02,0.14-0.02,0.24,0,0.32c0.25,0.98,0.4,1.7,0.43,2.15c0.02,0.25-0.07,0.39-0.26,0.45c-0.09,0.02-0.21,0.04-0.38,0.07
			c-0.17,0.02-0.29,0.04-0.36,0.06c-0.24,0.06-0.56,0-0.97-0.17s-0.64-0.36-0.69-0.57c-0.01-0.02,0-0.05,0.03-0.08
			s0.03-0.06,0.03-0.08c-0.01-0.05-0.05-0.11-0.1-0.17l-0.01-0.43l-0.25-0.19c-0.11,0.03-0.22,0.05-0.34,0.07
			c-0.19,0.02-0.28,0.01-0.27-0.05l-3.09,0.8c-0.52,0.13-0.65,0.7-0.39,1.71c0.22,0.84,0.47,1.32,0.77,1.45
			c0.24,0.1,0.79,0.03,1.66-0.19c0.36-0.09,0.56-0.18,0.61-0.27c0.13-0.3,0.35-0.53,0.65-0.68c0.3-0.16,0.59-0.31,0.86-0.46
			c0.2,0.15,0.33,0.35,0.4,0.61c0.06,0.24,0.03,0.42-0.09,0.56c0.17,0.5,0.39,1.25,0.68,2.25c0,0.12,0,0.25,0,0.39
			c0,0.14-0.07,0.23-0.21,0.26c-0.71,0.18-1.19,0.16-1.43-0.07c-0.03-0.11-0.1-0.27-0.22-0.46c-0.07-0.09-0.25-0.15-0.52-0.18
			c-0.27-0.03-0.49-0.03-0.63,0c-0.07,0.02-0.19,0.06-0.34,0.13c-0.16,0.07-0.27,0.11-0.34,0.13c-0.52,0.13-0.7,0.53-0.53,1.19
			c0.26,1,0.55,1.74,0.87,2.23c0.17,0.26,0.36,0.42,0.56,0.47c0.16,0.04,0.39,0.02,0.7-0.06c0.11-0.03,0.27-0.09,0.46-0.18
			c0.2-0.09,0.35-0.15,0.46-0.18c0.09-0.02,0.23-0.04,0.43-0.07c0.2-0.02,0.37-0.05,0.52-0.09l0.04,0.02
			c0.06-0.09,0.14-0.18,0.27-0.29c0.12-0.18,0.23-0.28,0.3-0.3c0.07-0.02,0.18-0.02,0.33,0c0.14,0.02,0.26,0.02,0.33,0
			c0.14-0.03,0.27-0.15,0.41-0.35s0.2-0.37,0.18-0.51l-0.2-2c0.07-0.03,0.17-0.06,0.29-0.1c0.12-0.03,0.31-0.05,0.54-0.05
			c0.24,0,0.42-0.02,0.54-0.05c0.05-0.01,0.12-0.04,0.2-0.09c0.08-0.05,0.15-0.08,0.2-0.09c0.06-0.02,0.11,0.04,0.15,0.18
			c0.03,0.14,0.08,0.35,0.13,0.64c0.06,0.29,0.1,0.51,0.13,0.64c0.03,0.14,0.1,0.33,0.19,0.58c0.09,0.25,0.15,0.44,0.19,0.57
			c0.03,0.13,0.11,0.32,0.24,0.57C96.22,51.11,96.3,51.3,96.34,51.44z M89.99,36.58l0.04,0.94c-0.42,0.43-0.97,0.86-1.65,1.32
			c-0.61,0.38-1.21,0.76-1.81,1.14c-0.29-0.03-0.49-0.15-0.61-0.36c1.33-2.04,2.26-3.12,2.79-3.26c0.17-0.04,0.4-0.05,0.67-0.02
			C89.7,36.38,89.89,36.46,89.99,36.58z"/>
	</g>
	<g>
		<path d="M22.06,47.33c0.03,0.01,0.05,0.02,0.08,0.04l0.4,0.11c0.04,0.22,0.05,0.36,0.04,0.41c-0.02,0.07-0.07,0.25-0.16,0.56
			c-0.03,0.03-0.06,0.07-0.11,0.12c0.05,0.05,0.07,0.09,0.06,0.12c0,0.01-0.02,0.02-0.04,0.03c-0.02,0.01-0.04,0.03-0.04,0.05
			c-0.01,0.05-0.02,0.13-0.02,0.24c0,0.11,0,0.19-0.02,0.24l-0.25,0.83c-0.02,0.08-0.25,0.06-0.69-0.06
			c-0.05-0.11-0.07-0.18-0.08-0.21c-0.01-0.05-0.01-0.12,0.02-0.22c0.01-0.04,0.02-0.1,0.03-0.17c0.01-0.08,0.02-0.14,0.03-0.17
			c0.02-0.06,0.05-0.14,0.09-0.24c0.05-0.11,0.08-0.18,0.09-0.23c0.01-0.02,0.01-0.05,0.01-0.09c0-0.04,0-0.07,0-0.08
			c0.01-0.02,0.02-0.05,0.04-0.09c0.02-0.04,0.04-0.07,0.04-0.09c0.02-0.07,0.03-0.17,0.03-0.31c0.01-0.14,0.02-0.24,0.03-0.3
			c0.03-0.11,0.07-0.21,0.13-0.31C21.9,47.37,21.98,47.31,22.06,47.33z"/>
		<path d="M25.75,42.89c0.18,0.08,0.25,0.23,0.21,0.45c-0.02,0.08-0.08,0.26-0.2,0.53c-0.15,0.34-0.3,0.47-0.46,0.4
			c-0.03-0.01-0.06-0.03-0.11-0.05c-0.04-0.02-0.08-0.04-0.1-0.05c0.02-0.03,0.03-0.09,0.04-0.16c0.01-0.07,0.03-0.12,0.04-0.16
			c0.01-0.01,0.02-0.03,0.04-0.06c0.02-0.02,0.04-0.04,0.05-0.06c0.03-0.06-0.02-0.14-0.13-0.22c-0.08-0.07-0.16-0.12-0.25-0.16
			c-0.07-0.03-0.19-0.08-0.35-0.14c-0.16-0.06-0.27-0.1-0.35-0.14l-0.06-0.02l0.05-0.02c0.01-0.04-0.01-0.08-0.07-0.13
			c-0.02,0-0.05,0.02-0.11,0.06c-0.03,0.02-0.11-0.01-0.25-0.07c-0.02-0.01-0.04-0.02-0.07-0.05c-0.03-0.02-0.06-0.04-0.08-0.05
			c-0.07-0.03-0.15-0.05-0.25-0.06c-0.12,0-0.2,0.02-0.22,0.08c-0.02,0.04,0,0.09,0.05,0.16c0.04,0.05,0.07,0.09,0.11,0.14
			c0.01,0.02,0.03,0.08,0.07,0.2c0.01,0.02,0.07,0.16,0.2,0.4c0.06,0.02,0.12,0.04,0.19,0.07c0.23,0.1,0.39,0.21,0.48,0.32l0.01,0
			c0.01,0,0.02,0.04,0.02,0.11s0.02,0.11,0.05,0.12c0.02,0.01,0.06,0.02,0.11,0.02c0.05,0.01,0.09,0.02,0.12,0.03
			c0.09,0.04,0.14,0.07,0.17,0.11c0.03,0.05,0.02,0.12-0.02,0.23l-0.03,0.08c-0.03,0.08-0.13,0.1-0.29,0.06
			c-0.03-0.01-0.09-0.02-0.19-0.02c-0.08-0.01-0.14-0.02-0.19-0.04c-0.02-0.01-0.04-0.02-0.06-0.04c-0.02-0.02-0.04-0.03-0.05-0.04
			c-0.36,0.02-0.9,0.04-1.61,0.08l-0.05,0.11c-0.05,0.11-0.04,0.18,0.03,0.21l1.75,0.77c0.06,0.03,0.12,0,0.17-0.08
			c0.07-0.14,0.12-0.22,0.15-0.23c0.09-0.07,0.21-0.08,0.35-0.02c0.12,0.05,0.19,0.1,0.22,0.13c0.05,0.06,0.06,0.14,0.01,0.25
			c-0.13,0.29-0.29,0.55-0.48,0.79c-0.03,0.04-0.06,0.08-0.08,0.12c-0.04,0.07-0.08,0.09-0.1,0.08c-0.02-0.01-0.05-0.02-0.09-0.04
			c-0.04-0.02-0.08-0.03-0.1-0.04c-0.15-0.06-0.22-0.13-0.21-0.2c0.01-0.12,0-0.2-0.01-0.23l-2.83-1.24
			c-0.2-0.09-0.33-0.13-0.39-0.13c-0.02,0.03-0.08,0.06-0.19,0.08c-0.12,0-0.25-0.02-0.39-0.08c-0.05-0.02-0.09-0.04-0.12-0.06
			c0.01-0.09,0.08-0.27,0.2-0.54c0.01-0.03,0.02-0.08,0.03-0.14c0.01-0.06,0.02-0.11,0.03-0.14s0.06-0.07,0.14-0.12
			c0.08-0.05,0.13-0.07,0.16-0.06c0.06,0.08,0.11,0.13,0.14,0.15c0.09,0.04,0.23,0.07,0.42,0.08c0.19,0.01,0.33,0.04,0.42,0.08
			c0.11-0.06,0.23-0.08,0.37-0.05c0.06,0.01,0.18,0.05,0.37,0.13c0.1-0.04,0.24-0.07,0.41-0.1c0.17,0.03,0.33,0.07,0.49,0.11
			c0.18,0.01,0.31-0.07,0.39-0.25c0.05-0.12,0.04-0.22-0.05-0.31c-0.09-0.07-0.18-0.13-0.27-0.2c-0.02-0.01-0.05-0.06-0.09-0.13
			c-0.04-0.05-0.08-0.09-0.12-0.11c-0.21-0.09-0.3-0.16-0.26-0.19c-0.01-0.06-0.02-0.1-0.04-0.12c0-0.01-0.04-0.03-0.11-0.06
			c-0.07-0.03-0.16-0.11-0.28-0.21c-0.12-0.11-0.22-0.18-0.29-0.22c-0.02-0.05-0.1-0.1-0.23-0.16c-0.07-0.03-0.15-0.09-0.25-0.17
			c-0.11-0.1-0.19-0.17-0.24-0.2c-0.04-0.08-0.04-0.17,0.01-0.29c0.16-0.36,0.31-0.55,0.47-0.57c0.06,0.07,0.21,0.21,0.45,0.42
			c0.25,0.22,0.41,0.34,0.47,0.36c0.02,0.01,0.05,0.02,0.09,0.04c0.04,0.02,0.08,0.03,0.1,0.04c0.03,0.01,0.04,0.03,0.03,0.05
			c-0.01,0.04-0.01,0.06,0,0.06l0.03-0.01l0.05,0.02c0.1,0.02,0.22,0.06,0.38,0.13c0.07-0.04,0.14-0.04,0.22-0.01
			c0.03,0.01,0.07,0.04,0.12,0.09c0.05,0.04,0.09,0.07,0.12,0.09c0.01,0.01,0.04,0.01,0.07,0c0.04-0.01,0.07,0,0.1,0.01
			c0.02,0.01,0.04,0.02,0.06,0.02l0.01,0.01c0.11,0.05,0.27,0.11,0.49,0.18c0.22,0.07,0.38,0.13,0.49,0.18
			c0.03,0.02,0.08,0.04,0.15,0.07c0.07,0.03,0.11,0.05,0.14,0.06c0.09,0.04,0.17,0.02,0.23-0.06
			C25.57,42.86,25.65,42.85,25.75,42.89z"/>
		<path d="M28.19,39.5c0.1,0.06,0.08,0.2-0.04,0.41c-0.12,0.21-0.3,0.49-0.52,0.83c-0.18,0.29-0.3,0.41-0.37,0.36
			c-0.02-0.01-0.04-0.03-0.05-0.05l-0.04-0.68c-0.12-0.08-0.19-0.14-0.22-0.16c-0.14-0.09-0.28-0.12-0.41-0.08
			c-0.01,0-0.09,0.02-0.24,0.04c-0.13,0.02-0.19,0.04-0.2,0.04c-0.01,0.02-0.02,0.04-0.02,0.07c-0.01,0.03-0.02,0.06-0.02,0.07
			c-0.04,0.06-0.11,0.12-0.22,0.21c-0.11,0.08-0.18,0.15-0.22,0.21c-0.1,0.15-0.13,0.27-0.1,0.35c0.01,0.04,0.04,0.08,0.1,0.13
			c0.06,0.05,0.09,0.08,0.11,0.11c0.16,0.24,0.28,0.38,0.34,0.42c0.05,0.03,0.12,0.04,0.2,0.02c0.16-0.12,0.28-0.19,0.37-0.21
			c0.13-0.04,0.27-0.01,0.41,0.08L26.21,43c-0.09,0.15-0.22,0.17-0.37,0.07c-0.09-0.05-0.13-0.12-0.14-0.2
			c-0.01-0.08-0.01-0.16-0.01-0.24c-0.02-0.14-0.07-0.26-0.16-0.37c-0.04-0.04-0.11-0.11-0.19-0.2c-0.07-0.14-0.2-0.33-0.39-0.57
			l-0.02-0.02c-0.02-0.01-0.04-0.02-0.08-0.02c-0.04-0.01-0.06-0.01-0.08-0.02c-0.04-0.02-0.07-0.06-0.11-0.12
			c-0.04-0.07-0.07-0.12-0.09-0.14c-0.14-0.17-0.35-0.43-0.63-0.76c-0.12-0.1-0.27-0.28-0.47-0.52c-0.08-0.1-0.2-0.26-0.36-0.46
			c-0.03-0.05-0.08-0.12-0.14-0.2c-0.13-0.16-0.2-0.31-0.19-0.45c0.25-0.22,0.44-0.28,0.58-0.19c0.01,0.01,0.02,0.01,0.03,0.02
			c0.01,0.01,0.02,0.02,0.03,0.02c0.05,0.03,0.13,0.05,0.25,0.05c0.12,0.01,0.2,0.02,0.26,0.06c0.03,0.01,0.06,0.03,0.09,0.06
			c0.04,0.03,0.07,0.05,0.09,0.07c0.07,0.04,0.23,0.09,0.49,0.15c0.17,0.04,0.35,0.08,0.53,0.13c0.42,0.13,0.85,0.27,1.28,0.41
			c0.55,0.16,0.97,0.19,1.28,0.11c0.11-0.05,0.26-0.12,0.46-0.2L28.19,39.5z M25.41,39.83c-0.08-0.05-0.15-0.07-0.21-0.07
			l-0.43-0.25c-0.07-0.04-0.19-0.06-0.37-0.06c-0.18,0-0.28,0.02-0.32,0.08c-0.01,0.02-0.01,0.04,0.02,0.06
			c0.02,0.02,0.03,0.04,0.02,0.06c0.01,0.04,0.11,0.18,0.3,0.41c0.19,0.23,0.32,0.36,0.37,0.4l0.17,0.11l0.07,0.04
			c0.04-0.02,0.08-0.05,0.11-0.09c0.02-0.02,0.05-0.07,0.08-0.12c0.04-0.07,0.07-0.11,0.08-0.12c0.02-0.02,0.04-0.05,0.09-0.09
			c0.04-0.03,0.07-0.07,0.08-0.08c0.03-0.04,0.04-0.09,0.03-0.15C25.48,39.9,25.45,39.86,25.41,39.83z"/>
		<path d="M29.68,35.22c0.02,0.02,0.05,0.1,0.09,0.24c0.04,0.14,0.12,0.27,0.24,0.37c0.05,0.04,0.08,0.12,0.1,0.23
			c0.03,0.15,0.05,0.23,0.06,0.26c0.06,0.12,0.08,0.19,0.08,0.2c0.03,0.08,0.04,0.15,0.05,0.21c0,0.29-0.08,0.58-0.23,0.85
			c-0.11,0.19-0.28,0.43-0.54,0.71c-0.04,0.05-0.12,0.12-0.22,0.22c-0.1,0.1-0.17,0.17-0.22,0.22c-0.03,0.04-0.08,0.11-0.13,0.2
			c-0.05,0.09-0.09,0.16-0.13,0.2l-0.22,0.25c-0.02,0.02-0.06,0.03-0.1,0.06c-0.19,0.1-0.38,0.07-0.57-0.09
			c-0.04-0.03-0.02-0.12,0.06-0.26c0.05-0.11,0.11-0.19,0.16-0.25c0.02-0.02,0.06-0.06,0.12-0.09c0.06-0.04,0.1-0.07,0.12-0.09
			c0.01-0.02-0.01-0.05-0.06-0.1c-0.06-0.02-0.11-0.05-0.14-0.07l-0.02-0.12c-0.03-0.02-0.06-0.03-0.1-0.03l-0.03,0.02
			c-0.03-0.04-0.05-0.07-0.05-0.1l0.03,0c0-0.01-0.01-0.02-0.02-0.03c-0.03-0.02-0.08-0.05-0.15-0.08
			c-0.07-0.02-0.12-0.05-0.16-0.08c-0.04-0.03-0.1-0.09-0.17-0.17c-0.08-0.08-0.14-0.13-0.17-0.17c-0.12-0.1-0.22-0.17-0.33-0.19
			c-0.59-0.46-1.01-0.82-1.27-1.06c-0.04-0.01-0.12-0.07-0.24-0.17c-0.06-0.05-0.13-0.05-0.21,0c-0.15,0.09-0.23,0.14-0.24,0.14
			c-0.1,0.04-0.2,0.01-0.31-0.08c-0.02-0.02-0.05-0.04-0.08-0.08s-0.07-0.07-0.08-0.08c0.37-0.48,0.62-0.8,0.76-0.96
			c0.35-0.41,0.72-0.74,1.11-1c0.08-0.05,0.2-0.1,0.36-0.14c0.17-0.04,0.28-0.05,0.35-0.03c0.07,0.02,0.16,0.03,0.28,0.03
			c0.1,0.01,0.25,0.03,0.45,0.06c0.15,0.02,0.33,0.1,0.54,0.24c0.03,0.02,0.19,0.14,0.49,0.36c0.1,0.01,0.24,0.1,0.45,0.27
			c0.02,0.02,0.07,0.05,0.13,0.08C29.61,35.17,29.66,35.2,29.68,35.22z M29,35.56c-0.09-0.07-0.16-0.12-0.22-0.14
			c-0.08-0.01-0.16-0.02-0.24-0.02c-0.01-0.01-0.02-0.01-0.02-0.02c-0.02-0.02-0.05-0.05-0.07-0.09c-0.03-0.04-0.05-0.07-0.07-0.09
			c-0.02-0.02-0.07-0.05-0.12-0.08c-0.06-0.03-0.1-0.06-0.12-0.08c-0.02-0.01-0.07-0.02-0.18-0.03c-0.36-0.02-0.62-0.02-0.79,0.02
			c-0.26,0.05-0.48,0.18-0.67,0.38l-0.05,0.06c-0.13,0.15-0.17,0.27-0.12,0.37c0.01,0.01,0.1,0.11,0.29,0.32
			c0.19,0.21,0.29,0.32,0.31,0.34c0.1,0.09,0.27,0.21,0.5,0.37c0.23,0.16,0.4,0.28,0.5,0.37c0.08,0.07,0.15,0.17,0.21,0.31
			c0.3,0.21,0.5,0.32,0.61,0.35c0.21,0.05,0.41-0.04,0.61-0.27c0.26-0.3,0.34-0.65,0.24-1.08C29.5,36.15,29.3,35.82,29,35.56z"/>
		<path d="M34.15,33.51c0.05,0.06,0.07,0.14,0.07,0.23c-0.01,0.09-0.04,0.16-0.1,0.21l-0.33,0.28c-0.05,0.04-0.12,0.09-0.22,0.15
			c-0.1,0.06-0.17,0.11-0.22,0.14c-0.03,0-0.06,0.01-0.08,0.03c-0.02,0.02-0.05,0.05-0.07,0.09c-0.02,0.04-0.05,0.07-0.07,0.09
			c-0.13-0.02-0.21-0.01-0.25,0.02c-0.04,0.04-0.07,0.09-0.07,0.15c0,0.07,0,0.11-0.01,0.12c-0.01,0.02-0.1,0.09-0.26,0.23
			c-0.07,0.06-0.18,0.16-0.31,0.28s-0.24,0.21-0.31,0.27c-0.08,0.07-0.19,0.12-0.34,0.18c-0.03,0.03-0.08,0.08-0.13,0.15
			c-0.06,0.07-0.1,0.12-0.13,0.15c-0.11,0.09-0.2,0.08-0.29-0.02c-0.07-0.08-0.09-0.24-0.05-0.46c0.03-0.22,0.04-0.36,0.01-0.41
			c-0.06-0.07-0.13-0.17-0.22-0.31c-0.01-0.05-0.04-0.11-0.07-0.2c-0.03-0.08-0.23-0.34-0.58-0.75c-0.15-0.17-0.23-0.27-0.26-0.28
			c-0.07-0.01-0.13-0.04-0.16-0.08c-0.02-0.02-0.03-0.05-0.05-0.09c-0.02-0.04-0.04-0.07-0.05-0.09c-0.03-0.04-0.07-0.07-0.13-0.12
			c-0.08-0.05-0.13-0.09-0.15-0.11c-0.1-0.09-0.25-0.24-0.45-0.43c-0.07-0.06-0.12-0.07-0.17-0.02c-0.02,0.01-0.03,0.03-0.05,0.06
			c-0.02,0.03-0.04,0.05-0.05,0.06c-0.03,0.02-0.07,0.03-0.12,0.03c-0.05,0-0.08-0.02-0.1-0.04l-0.01-0.05
			c-0.13-0.03-0.22-0.09-0.29-0.17c-0.04-0.05-0.05-0.09-0.04-0.12c0,0,0.03-0.03,0.09-0.09l2.06-1.98
			c0.06-0.05,0.11-0.11,0.17-0.16c0.09-0.07,0.16-0.13,0.2-0.16c0.1-0.07,0.22-0.1,0.36-0.09c0.14,0.01,0.25,0.06,0.32,0.15
			c0.02,0.02,0.03,0.05,0.05,0.1s0.03,0.08,0.05,0.11c0.25,0.29,0.41,0.51,0.5,0.66c0.05,0.08,0.04,0.14-0.02,0.19
			c-0.02,0.02-0.07,0.05-0.12,0.08c-0.05,0.03-0.09,0.06-0.11,0.08c-0.07,0.06-0.19,0.09-0.36,0.1c-0.17,0.01-0.28-0.02-0.33-0.08
			c-0.01-0.01-0.01-0.02,0-0.03c0-0.02,0-0.02,0-0.03c-0.01-0.02-0.03-0.03-0.06-0.04l-0.07-0.14l-0.12-0.02
			c-0.03,0.03-0.07,0.05-0.1,0.08c-0.06,0.04-0.09,0.05-0.1,0.03l-0.92,0.78c-0.16,0.13-0.11,0.35,0.15,0.65
			c0.21,0.25,0.38,0.37,0.5,0.36c0.1-0.01,0.27-0.12,0.53-0.34c0.11-0.09,0.16-0.16,0.16-0.19c0-0.12,0.03-0.24,0.11-0.34
			c0.08-0.1,0.15-0.2,0.22-0.3c0.09,0.02,0.17,0.07,0.23,0.14c0.06,0.07,0.08,0.14,0.06,0.21c0.14,0.14,0.34,0.36,0.6,0.65
			c0.02,0.04,0.04,0.08,0.06,0.13c0.02,0.05,0.01,0.09-0.03,0.12c-0.21,0.18-0.37,0.25-0.5,0.21c-0.03-0.03-0.08-0.07-0.15-0.12
			c-0.04-0.02-0.11-0.01-0.21,0.02c-0.1,0.03-0.17,0.07-0.22,0.11c-0.02,0.02-0.05,0.05-0.1,0.1c-0.04,0.05-0.07,0.08-0.1,0.1
			c-0.16,0.13-0.15,0.29,0.02,0.49c0.25,0.3,0.47,0.5,0.66,0.61c0.1,0.06,0.19,0.08,0.27,0.07c0.06-0.01,0.13-0.06,0.23-0.13
			c0.03-0.03,0.07-0.07,0.13-0.14c0.05-0.06,0.09-0.11,0.13-0.14c0.02-0.02,0.07-0.05,0.13-0.09c0.07-0.04,0.12-0.08,0.16-0.12h0.02
			c0.01-0.04,0.02-0.08,0.04-0.14c0.01-0.08,0.03-0.13,0.05-0.15c0.02-0.02,0.06-0.04,0.11-0.05c0.05-0.02,0.09-0.03,0.11-0.05
			c0.04-0.03,0.07-0.1,0.08-0.19C33,33.61,33,33.54,32.97,33.5l-0.39-0.65c0.02-0.02,0.05-0.05,0.08-0.08
			c0.04-0.03,0.1-0.07,0.17-0.11c0.08-0.04,0.14-0.07,0.17-0.11c0.02-0.01,0.03-0.03,0.05-0.06c0.02-0.03,0.04-0.05,0.05-0.06
			c0.02-0.02,0.04,0,0.08,0.04c0.03,0.04,0.08,0.11,0.15,0.2c0.07,0.09,0.12,0.15,0.15,0.19c0.03,0.04,0.09,0.1,0.16,0.17
			c0.07,0.07,0.12,0.12,0.16,0.16s0.09,0.09,0.17,0.16C34.06,33.42,34.12,33.47,34.15,33.51z"/>
		<path d="M39.02,30.47c0.03,0.1,0.07,0.19,0.1,0.29c0.04,0.14,0.02,0.23-0.04,0.27c-0.01,0.01-0.03,0.01-0.06,0.01
			c-0.03,0-0.05,0.01-0.06,0.01c-0.02,0.01-0.05,0.03-0.09,0.07c-0.04,0.03-0.07,0.06-0.09,0.07l-2.09,1.09
			c-0.24,0.13-0.41,0.11-0.5-0.06c-0.09-0.17-0.05-0.32,0.11-0.46c0.01-0.01,0.17-0.11,0.5-0.3c0.18-0.11,0.24-0.21,0.19-0.31
			c-0.02-0.03-0.05-0.08-0.09-0.14c-0.04-0.06-0.07-0.11-0.09-0.14c-0.03-0.05-0.05-0.14-0.06-0.27c-0.02-0.13-0.04-0.23-0.07-0.29
			c-0.01-0.02-0.02-0.04-0.05-0.07s-0.04-0.05-0.05-0.07l-0.89-1.7c-0.03-0.07-0.17-0.11-0.39-0.13c-0.18,0.07-0.36,0.15-0.54,0.22
			c-0.23,0.06-0.39,0-0.48-0.17l-0.13-0.25c0.04-0.09,0.13-0.17,0.27-0.24c0.2-0.1,0.49-0.25,0.89-0.45c0.4-0.2,0.69-0.34,0.88-0.44
			c0.04-0.02,0.09-0.05,0.16-0.1c0.07-0.05,0.12-0.08,0.16-0.1c0.1-0.05,0.26-0.06,0.47-0.02c0.07,0.27,0.08,0.47,0.03,0.58
			c-0.04,0.11-0.18,0.25-0.41,0.41l-0.02,0.01c-0.02,0.01-0.05,0.02-0.09,0.03s-0.07,0.02-0.09,0.03l-0.01,0
			c-0.06,0.11-0.04,0.27,0.07,0.48c0.12,0.23,0.21,0.37,0.28,0.43c0.02,0.03,0.04,0.08,0.08,0.15c0.04,0.07,0.07,0.12,0.08,0.17
			c0.04,0.08,0.08,0.14,0.11,0.19c0.03,0.01,0.04,0.02,0.05,0.04c0.01,0.02,0.01,0.04-0.01,0.07l0.01,0.03
			c0.01,0.02,0.03,0.05,0.07,0.09s0.06,0.07,0.07,0.09c0.04,0.08,0.1,0.21,0.17,0.38c0.07,0.17,0.13,0.3,0.17,0.38
			c0.05,0.09,0.14,0.16,0.27,0.2c0.07,0.05,0.17,0.1,0.27,0.15C38.23,30.7,38.53,30.63,39.02,30.47z"/>
		<path d="M42.23,25.19c0,0.02-0.04,0.08-0.1,0.17c-0.07,0.09-0.1,0.17-0.09,0.25c0,0.05,0.01,0.11,0.04,0.2
			c0.02,0.08,0.04,0.16,0.03,0.23c-0.02,0.11,0.04,0.33,0.15,0.67c0.01,0.02,0,0.05-0.03,0.09c-0.03,0.04-0.04,0.06-0.05,0.07
			c0.03,0.04,0.06,0.04,0.1,0.01l0.02,0.01c0.01,0.04,0.02,0.1,0.04,0.18c0.01,0.08,0.02,0.13,0.03,0.17
			c0.01,0.03,0.03,0.04,0.05,0.02c0.03,0.08,0.04,0.16,0.03,0.22l-0.01-0.02c0,0.02,0.01,0.04,0.02,0.07
			c0.02,0.05,0.05,0.12,0.1,0.22c0.05,0.1,0.08,0.17,0.1,0.22c0.01,0.03,0.02,0.08,0.03,0.16c0.01,0.07,0.02,0.12,0.03,0.16
			c-0.01-0.02,0.02,0.05,0.09,0.21c0.07,0.16,0.17,0.42,0.29,0.8c0.06,0.19,0.04,0.3-0.07,0.34c-0.14,0.05-0.25,0.02-0.35-0.07
			c-0.17-0.17-0.25-0.26-0.26-0.27c-0.01,0-0.03,0-0.08,0c-0.05,0-0.07,0-0.08-0.01c-0.01-0.02-0.01-0.04-0.02-0.08
			s-0.01-0.06-0.02-0.08c-0.02-0.07-0.07-0.13-0.14-0.18c-0.08-0.07-0.14-0.12-0.16-0.15c-0.07-0.08-0.23-0.25-0.49-0.51
			c-0.04-0.04-0.11-0.07-0.22-0.11c-0.08-0.02-0.16-0.11-0.24-0.24c-0.08-0.14-0.18-0.25-0.31-0.32c-0.13-0.07-0.27-0.15-0.41-0.22
			c-0.06-0.06-0.15-0.14-0.28-0.23c-0.01,0-0.03-0.01-0.07-0.03c-0.04-0.02-0.06-0.02-0.07-0.02c-0.09,0.03-0.09,0.17-0.01,0.41
			l0.74,2.19c0.01,0.02,0.03,0.04,0.09,0.06c0.05,0.02,0.09,0.03,0.11,0.02c0.02-0.01,0.04-0.02,0.08-0.03
			c0.03-0.02,0.06-0.03,0.08-0.03c0.02-0.01,0.08,0,0.17,0.01c0.1,0.01,0.16,0.02,0.17,0.04c0.02,0.01,0.03,0.04,0.05,0.08
			c0.04,0.12,0.02,0.22-0.04,0.33c-0.81,0.35-1.27,0.54-1.37,0.58c-0.17,0.06-0.27,0.01-0.32-0.13c-0.05-0.14-0.06-0.23-0.03-0.29
			c0.01-0.03,0.06-0.07,0.14-0.11c0.08-0.05,0.14-0.1,0.19-0.17c0.09-0.14,0.08-0.39-0.02-0.77c-0.01-0.04-0.11-0.31-0.27-0.8
			c-0.03-0.1-0.08-0.25-0.14-0.46c-0.06-0.21-0.1-0.36-0.14-0.46c-0.02-0.06-0.07-0.14-0.14-0.24c-0.07-0.1-0.12-0.19-0.14-0.25
			c0-0.01,0.02-0.03,0.06-0.06c0.04-0.02,0.07-0.05,0.06-0.07s-0.08-0.07-0.22-0.16l-0.16-0.32l-0.61,0.04
			c-0.04-0.02-0.07-0.07-0.09-0.14c-0.05-0.15-0.06-0.24-0.04-0.28c0.02,0,0.06,0.01,0.12,0.02s0.1,0.02,0.14,0.01
			c0.03-0.01,0.04-0.03,0.03-0.07c-0.01-0.04-0.01-0.07,0.01-0.08c0.02-0.01,0.06-0.03,0.13-0.06c0.22-0.07,0.36-0.12,0.44-0.14
			c0.04-0.01,0.1-0.01,0.18-0.02c0.08,0,0.14-0.01,0.18-0.02c0.02-0.01,0.04-0.02,0.07-0.04c0.03-0.02,0.06-0.03,0.07-0.04
			c0.02-0.01,0.04,0.01,0.06,0.06c0.01,0.02,0.04,0.1,0.1,0.26c0.05,0.11,0.08,0.2,0.09,0.25c0.21,0.12,0.35,0.23,0.42,0.33
			c0.02,0.04,0.08,0.08,0.17,0.1c0.07,0.02,0.13,0.08,0.16,0.17c0,0.01,0.02,0.03,0.04,0.04c0.1,0.08,0.25,0.23,0.45,0.44
			c0.09,0.04,0.2,0.12,0.33,0.24c0.08,0.05,0.19,0.14,0.31,0.27c0.13,0.14,0.24,0.23,0.31,0.28l0.27,0.19
			c0.03-0.02,0.05-0.05,0.06-0.1l-0.07-0.22c-0.03-0.1-0.09-0.25-0.16-0.44c-0.07-0.19-0.12-0.33-0.16-0.42
			c-0.03-0.08-0.04-0.13-0.04-0.16c-0.12-0.52-0.18-0.78-0.18-0.79c-0.02-0.06-0.07-0.14-0.16-0.23c-0.17-0.05-0.34-0.11-0.51-0.17
			c-0.25-0.09-0.39-0.18-0.42-0.26c-0.03-0.09-0.03-0.15-0.01-0.17c0.1-0.08,0.42-0.22,0.97-0.41l0.45-0.15
			c0.12,0.01,0.19,0.02,0.2,0.05L42.23,25.19z"/>
		<path d="M49.08,24.06c0.01,0.09-0.01,0.16-0.06,0.23l0.1,0.94l0.01,0.01c0,0.09-0.04,0.17-0.12,0.24
			c-0.08,0.07-0.17,0.12-0.26,0.12c-0.05,0.01-0.11-0.1-0.18-0.31c-0.07-0.22-0.11-0.33-0.12-0.34c-0.02-0.11-0.03-0.22-0.05-0.33
			c-0.03-0.16-0.06-0.26-0.09-0.3c-0.09-0.1-0.16-0.14-0.22-0.14c-0.01,0-0.03,0.02-0.07,0.06c-0.04,0.04-0.08,0.06-0.12,0.06
			c-0.02,0-0.03,0-0.06,0.01c-0.02,0-0.04,0-0.06,0.01c-0.02,0-0.1,0.04-0.23,0.11c-0.04,0-0.11,0-0.19-0.03
			c-0.08-0.02-0.15-0.03-0.19-0.03l-0.19,0.02c-0.09,0.01-0.15,0.03-0.2,0.06c-0.07,0.11-0.09,0.23-0.08,0.36
			c0.03,0.3,0.08,0.48,0.15,0.54c0.21,0.07,0.4,0.09,0.59,0.07c0.03,0,0.09-0.03,0.18-0.09c0.09-0.06,0.15-0.1,0.17-0.13l0.02-0.02
			c0.03,0,0.07,0.02,0.11,0.05c0.04,0.03,0.07,0.04,0.1,0.04l0.02,0c0.02,0,0.09,0,0.19-0.01l0,0.04c0,0.03,0.01,0.07,0.01,0.13
			c0.01,0.06,0.01,0.1,0.01,0.13c0,0.02-0.02,0.07-0.06,0.17c-0.04,0.09-0.06,0.16-0.06,0.19c0.02,0,0.07-0.01,0.14-0.02l0,0.02
			c0.01,0.05-0.02,0.1-0.08,0.17l0.01,0.07c-0.01,0.06-0.02,0.12-0.04,0.19c-0.02,0.08-0.07,0.12-0.12,0.13
			c-0.06,0.01-0.18-0.02-0.38-0.07c-0.2-0.05-0.32-0.08-0.38-0.07c-0.19,0.02-0.31,0.12-0.35,0.31c-0.05,0.25-0.07,0.42-0.06,0.52
			c0.05,0.43,0.14,0.69,0.3,0.8c0.13,0.03,0.26,0.06,0.4,0.09c0.14,0.03,0.22,0.18,0.25,0.44c0.02,0.18-0.05,0.28-0.2,0.3
			c-0.12,0.01-0.3,0.03-0.55,0.06c-0.24,0.02-0.42,0.04-0.54,0.06c-0.03,0-0.07,0.01-0.12,0.01c-0.06,0.01-0.1,0.01-0.12,0.01
			c-0.04,0-0.1,0.01-0.17,0c-0.07,0-0.13,0-0.16,0l-0.02-0.43c0-0.06,0.05-0.13,0.16-0.22c0.11-0.09,0.17-0.15,0.17-0.19
			c0.03-0.12,0.02-0.54-0.06-1.27c-0.02-0.22-0.07-0.34-0.12-0.35c-0.03-0.62-0.05-0.93-0.05-0.94c-0.01-0.11-0.06-0.25-0.14-0.42
			c-0.08-0.17-0.16-0.29-0.24-0.35c-0.11-0.06-0.26-0.15-0.45-0.29l-0.02-0.12c-0.02-0.17,0-0.27,0.08-0.29
			c0.27-0.09,0.55-0.15,0.84-0.18c0.25-0.03,0.57-0.05,0.98-0.07c0.53-0.03,0.86-0.05,0.98-0.05c0.32-0.02,0.51-0.03,0.59-0.03
			C48.93,23.74,49.06,23.86,49.08,24.06z"/>
		<path d="M54.1,28.21c0,0.08-0.02,0.17-0.06,0.27c-0.04,0.13-0.09,0.2-0.15,0.2l-0.53-0.02c-0.05,0.05-0.1,0.07-0.16,0.07
			c-0.05,0-0.1-0.03-0.15-0.09s-0.09-0.08-0.12-0.08l-0.05,0.01c-0.07,0.07-0.21,0.09-0.42,0.08c-0.14-0.01-0.21-0.04-0.21-0.1
			c0-0.04,0.02-0.1,0.06-0.18c0.04-0.08,0.06-0.14,0.07-0.18c0.02-0.01,0.07-0.01,0.16-0.01c0.09,0,0.13-0.02,0.13-0.08
			c0-0.07-0.09-0.38-0.28-0.93l0.07-0.06l-0.13-0.06c-0.02-0.06-0.14-0.22-0.34-0.48c-0.21-0.26-0.34-0.4-0.39-0.42l-0.17-0.01
			c-0.11-0.01-0.19,0.01-0.23,0.05c-0.04,0.04-0.06,0.12-0.06,0.23c-0.02,0.04-0.03,0.08-0.03,0.12c0,0.02,0,0.05,0,0.08
			c0,0.04,0,0.07,0,0.08c0,0.04-0.01,0.09-0.02,0.16c-0.01,0.07-0.02,0.12-0.02,0.16c0,0.02,0.01,0.07,0.03,0.14
			c0.02,0.07,0.03,0.14,0.03,0.19c0,0.03,0,0.08-0.01,0.14c0,0.06-0.01,0.11-0.01,0.14c-0.01,0.13,0.03,0.23,0.11,0.3
			c0.17,0.05,0.29,0.08,0.37,0.12c0.14,0.06,0.25,0.12,0.33,0.18c0.01,0.06,0.01,0.12,0.01,0.16c0,0.1-0.07,0.18-0.22,0.26
			c-0.17,0-0.27,0-0.31,0c-0.15-0.01-0.39-0.04-0.7-0.09c-0.31-0.05-0.55-0.08-0.72-0.08c-0.04-0.24-0.06-0.35-0.06-0.34
			c0-0.04,0.02-0.09,0.06-0.13c0.28-0.12,0.42-0.28,0.43-0.48c0-0.07-0.01-0.18-0.02-0.31c-0.02-0.14-0.03-0.24-0.02-0.31
			c0.01-0.78,0.04-1.58,0.07-2.42c0-0.07-0.04-0.18-0.14-0.32c-0.02-0.02-0.09-0.07-0.2-0.15c-0.07-0.04-0.1-0.12-0.09-0.22
			c0-0.09,0.03-0.17,0.08-0.25c0.05-0.07,0.12-0.11,0.2-0.1c0.06,0,0.12,0.04,0.18,0.11c0.05,0,0.12-0.01,0.22-0.03
			c0.09-0.02,0.17-0.02,0.22-0.02l1.32,0.06c0.01,0.02,0.04,0.02,0.09,0.02c0.03,0,0.07,0,0.13,0.01c0.06,0,0.1,0.01,0.13,0.01
			c0.07,0,0.13,0.02,0.18,0.07c0.05,0.04,0.09,0.07,0.13,0.08c0.21,0.06,0.32,0.1,0.36,0.12c0.09,0.05,0.17,0.16,0.22,0.31
			c0.12,0.31,0.18,0.47,0.18,0.48c-0.02,0.36-0.07,0.61-0.17,0.75c-0.06,0.06-0.15,0.14-0.26,0.26c-0.11,0.12-0.23,0.22-0.37,0.33
			c-0.09,0.02-0.2,0.06-0.34,0.11c0,0.03,0.07,0.14,0.21,0.33c0.14,0.18,0.21,0.3,0.21,0.35c0,0.05,0.04,0.13,0.12,0.25
			c0.08,0.12,0.12,0.21,0.12,0.27c0,0.01,0,0.03-0.01,0.06c0,0.02,0,0.04,0,0.06c-0.01,0.11,0.06,0.25,0.19,0.42
			c0.13,0.17,0.25,0.27,0.35,0.27c0.02,0,0.06,0,0.11-0.02c0.05-0.01,0.09-0.02,0.12-0.02c0.02,0,0.06,0.02,0.11,0.06
			C54.08,28.15,54.1,28.18,54.1,28.21z M52.95,24.74c0.01-0.2-0.11-0.35-0.36-0.46c-0.09-0.04-0.31-0.07-0.67-0.09
			c-0.39-0.02-0.65,0-0.79,0.04c-0.03,0.12-0.06,0.25-0.06,0.37c-0.01,0.15,0,0.39,0.01,0.72c0.01,0.04,0.03,0.07,0.04,0.11
			c0.02,0.03,0.07,0.05,0.17,0.06c0.06,0,0.16-0.01,0.28-0.02c0.13-0.02,0.22-0.02,0.28-0.02c0.02,0,0.06,0.01,0.1,0.02
			c0.05,0.01,0.08,0.02,0.1,0.02c0.07,0,0.13-0.02,0.18-0.09c0.07-0.01,0.14-0.01,0.21-0.02c0.07,0,0.14-0.03,0.2-0.07
			c0.06-0.04,0.12-0.13,0.19-0.25C52.91,24.92,52.94,24.82,52.95,24.74z"/>
		<path d="M58.17,29.39c-0.02,0.11-0.15,0.15-0.39,0.11c-0.24-0.04-0.56-0.11-0.96-0.19c-0.33-0.07-0.49-0.14-0.47-0.22
			c0.01-0.02,0.02-0.05,0.03-0.07l0.62-0.28c0.04-0.14,0.06-0.23,0.07-0.26c0.03-0.17,0.01-0.3-0.07-0.41
			c-0.01-0.01-0.05-0.08-0.12-0.21c-0.07-0.11-0.1-0.17-0.11-0.17c-0.02,0-0.04,0-0.08,0c-0.03,0.01-0.06,0.01-0.08,0
			c-0.07-0.01-0.16-0.06-0.27-0.13c-0.11-0.07-0.2-0.12-0.27-0.13c-0.17-0.03-0.3-0.02-0.36,0.03c-0.03,0.02-0.06,0.07-0.08,0.14
			c-0.02,0.07-0.05,0.12-0.06,0.14c-0.17,0.24-0.26,0.4-0.27,0.47c-0.01,0.06,0.01,0.12,0.05,0.2c0.17,0.1,0.28,0.19,0.33,0.27
			c0.08,0.11,0.11,0.25,0.07,0.41l-1.53-0.31c-0.17-0.03-0.24-0.14-0.2-0.32c0.02-0.1,0.07-0.17,0.14-0.2
			c0.07-0.03,0.15-0.07,0.22-0.1c0.12-0.06,0.22-0.16,0.29-0.28c0.02-0.05,0.07-0.14,0.12-0.25c0.1-0.12,0.23-0.31,0.4-0.57
			l0.01-0.02c0-0.02,0-0.05-0.01-0.08c-0.01-0.04-0.01-0.06-0.01-0.08c0.01-0.04,0.03-0.09,0.07-0.14c0.05-0.07,0.08-0.11,0.09-0.14
			c0.11-0.19,0.27-0.48,0.48-0.86c0.05-0.15,0.16-0.36,0.32-0.62c0.07-0.12,0.17-0.28,0.31-0.5c0.03-0.05,0.08-0.12,0.14-0.2
			c0.1-0.18,0.22-0.29,0.35-0.34c0.29,0.15,0.42,0.31,0.38,0.47c0,0.01-0.01,0.02-0.02,0.03c-0.01,0.01-0.01,0.02-0.02,0.03
			c-0.01,0.06,0,0.14,0.04,0.25c0.04,0.11,0.05,0.2,0.04,0.26c0,0.03-0.01,0.07-0.02,0.11c-0.02,0.05-0.02,0.09-0.03,0.11
			c-0.02,0.07-0.01,0.25,0.03,0.51c0.02,0.18,0.05,0.36,0.07,0.54c0.03,0.44,0.05,0.89,0.08,1.34c0.05,0.57,0.17,0.98,0.36,1.24
			c0.08,0.08,0.2,0.2,0.36,0.36L58.17,29.39z M56.87,26.9c0.02-0.09,0.02-0.17-0.01-0.22l0.08-0.49c0.01-0.08-0.01-0.2-0.07-0.36
			c-0.06-0.17-0.12-0.26-0.19-0.27c-0.02-0.01-0.04,0.01-0.05,0.04c-0.01,0.03-0.03,0.04-0.05,0.04c-0.04,0.02-0.13,0.16-0.28,0.43
			c-0.15,0.26-0.23,0.43-0.24,0.49l-0.04,0.2L56,26.84c0.03,0.03,0.07,0.05,0.13,0.07c0.03,0.01,0.08,0.02,0.14,0.03
			c0.07,0.02,0.12,0.02,0.14,0.03c0.03,0.01,0.07,0.02,0.12,0.05c0.05,0.03,0.08,0.04,0.11,0.05c0.05,0.01,0.1,0,0.15-0.03
			C56.83,27,56.86,26.96,56.87,26.9z"/>
		<path d="M63.57,26.87c-0.02,0.02-0.08,0.04-0.19,0.07c-0.11,0.03-0.18,0.07-0.23,0.13c-0.03,0.03-0.06,0.1-0.09,0.18
			c-0.03,0.08-0.07,0.15-0.12,0.2c-0.08,0.07-0.18,0.28-0.31,0.62c-0.01,0.02-0.03,0.03-0.08,0.05c-0.05,0.01-0.07,0.02-0.08,0.02
			c0,0.05,0.02,0.07,0.07,0.07l0.01,0.02c-0.02,0.04-0.04,0.09-0.08,0.16c-0.04,0.07-0.07,0.12-0.08,0.16
			c-0.01,0.03,0,0.05,0.03,0.05c-0.03,0.08-0.07,0.15-0.11,0.19l0-0.02c-0.01,0.02-0.02,0.04-0.03,0.07
			c-0.02,0.05-0.04,0.13-0.06,0.23c-0.02,0.11-0.04,0.18-0.06,0.23c-0.01,0.03-0.04,0.08-0.07,0.14c-0.04,0.06-0.06,0.11-0.07,0.14
			c0.01-0.02-0.01,0.05-0.06,0.22c-0.05,0.17-0.14,0.44-0.27,0.8c-0.07,0.19-0.16,0.26-0.27,0.22c-0.14-0.05-0.21-0.14-0.22-0.27
			c-0.02-0.24-0.03-0.36-0.03-0.37c0-0.01-0.02-0.02-0.06-0.05c-0.04-0.03-0.06-0.05-0.05-0.06c0.01-0.02,0.02-0.04,0.04-0.07
			c0.02-0.03,0.03-0.05,0.04-0.07c0.02-0.07,0.03-0.14,0.01-0.23c-0.02-0.11-0.03-0.18-0.03-0.21c0-0.11-0.02-0.34-0.07-0.7
			c-0.01-0.05-0.04-0.13-0.1-0.22c-0.05-0.07-0.06-0.18-0.03-0.34c0.03-0.16,0.01-0.31-0.04-0.45c-0.06-0.14-0.12-0.28-0.17-0.43
			c-0.01-0.08-0.03-0.2-0.07-0.36c-0.01-0.01-0.02-0.03-0.04-0.07c-0.02-0.04-0.03-0.06-0.04-0.06c-0.09-0.03-0.17,0.07-0.26,0.31
			l-0.8,2.17c-0.01,0.02,0,0.05,0.03,0.1c0.03,0.05,0.05,0.08,0.07,0.08c0.02,0.01,0.05,0.02,0.08,0.02
			c0.04,0.01,0.07,0.02,0.08,0.02c0.02,0.01,0.06,0.05,0.13,0.12c0.07,0.07,0.11,0.12,0.11,0.14c0.01,0.02,0,0.05-0.02,0.09
			c-0.04,0.11-0.12,0.19-0.24,0.23c-0.85-0.23-1.33-0.37-1.43-0.41c-0.16-0.06-0.22-0.16-0.17-0.3c0.05-0.14,0.1-0.22,0.16-0.24
			c0.02-0.02,0.08-0.02,0.18,0c0.09,0.02,0.17,0.01,0.25-0.01c0.15-0.05,0.31-0.26,0.47-0.61c0.02-0.04,0.11-0.31,0.29-0.8
			c0.04-0.1,0.1-0.25,0.18-0.44c0.08-0.2,0.15-0.34,0.18-0.44c0.02-0.06,0.04-0.15,0.05-0.27c0.01-0.12,0.03-0.22,0.05-0.28
			c0.01-0.01,0.03-0.02,0.08-0.01c0.05,0.01,0.08,0,0.09-0.02c0.01-0.02-0.02-0.1-0.07-0.26l0.07-0.35l-0.5-0.35
			c-0.02-0.04-0.01-0.1,0.02-0.17c0.05-0.14,0.1-0.23,0.15-0.25c0.02,0.01,0.04,0.04,0.07,0.09s0.07,0.08,0.11,0.09
			c0.03,0.01,0.05,0,0.07-0.04c0.02-0.04,0.03-0.06,0.06-0.06c0.02,0,0.07,0.01,0.14,0.04c0.22,0.08,0.36,0.13,0.43,0.17
			c0.03,0.02,0.08,0.05,0.15,0.1c0.07,0.05,0.12,0.08,0.16,0.1c0.02,0.01,0.05,0.01,0.08,0.02c0.04,0,0.07,0.01,0.08,0.02
			c0.02,0.01,0.02,0.03,0.01,0.08c-0.01,0.02-0.03,0.11-0.08,0.26c-0.03,0.12-0.06,0.2-0.09,0.25c0.09,0.22,0.13,0.4,0.12,0.52
			c-0.01,0.05,0.02,0.11,0.07,0.19c0.04,0.07,0.05,0.14,0.02,0.23c-0.01,0.01,0,0.03,0,0.06c0.02,0.13,0.05,0.34,0.07,0.63
			c0.04,0.09,0.08,0.22,0.11,0.4c0.03,0.09,0.06,0.23,0.07,0.4c0.02,0.19,0.04,0.33,0.07,0.41l0.08,0.32
			c0.03,0.01,0.07-0.01,0.11-0.04l0.08-0.22c0.04-0.1,0.09-0.25,0.15-0.44c0.06-0.2,0.11-0.34,0.15-0.43
			c0.03-0.08,0.05-0.13,0.07-0.14c0.23-0.48,0.35-0.72,0.36-0.73c0.02-0.06,0.03-0.16,0.02-0.29c-0.1-0.15-0.2-0.3-0.3-0.46
			c-0.14-0.22-0.19-0.38-0.16-0.47c0.03-0.09,0.07-0.13,0.1-0.13c0.13,0,0.47,0.09,1.01,0.29l0.45,0.17
			c0.09,0.08,0.13,0.14,0.12,0.16L63.57,26.87z"/>
		<path d="M66.45,31.35c-0.02,0.02-0.04,0.06-0.09,0.09c-0.05,0.04-0.08,0.07-0.09,0.09c-0.06,0.1-0.14,0.2-0.26,0.3
			c-0.27,0.23-0.44,0.37-0.52,0.4c-0.18,0.08-0.44,0.13-0.76,0.13c-0.24,0.01-0.51-0.07-0.81-0.24c-0.02-0.06-0.12-0.15-0.28-0.28
			c-0.17-0.12-0.27-0.26-0.33-0.4c-0.19-0.5-0.29-0.79-0.29-0.89c0-0.22,0.05-0.46,0.14-0.74c0.02-0.06,0.11-0.3,0.27-0.7
			c0.08-0.22,0.12-0.33,0.12-0.32c0.12-0.22,0.31-0.46,0.56-0.73c0.01-0.02,0.23-0.23,0.65-0.66c0.22-0.07,0.45-0.13,0.68-0.2
			c0.23-0.07,0.46-0.08,0.71-0.06c0.09,0.04,0.18,0.09,0.26,0.13c0.11,0.06,0.19,0.11,0.23,0.14c0.07,0.05,0.16,0.15,0.27,0.31
			s0.19,0.25,0.23,0.27c0.05-0.01,0.08-0.01,0.11,0c0.03,0.02,0.05,0.04,0.05,0.09l0.3,0.08l0.06,0.11
			c0.08,0.02,0.12,0.02,0.11,0.02c0.04,0.02,0.05,0.05,0.03,0.07c-0.01,0.02-0.03,0.05-0.05,0.07c-0.02,0.03-0.04,0.05-0.05,0.07
			c-0.02,0.04-0.04,0.09-0.07,0.17s-0.05,0.13-0.07,0.17c-0.12,0.23-0.24,0.42-0.33,0.58c-0.13,0.19-0.18,0.26-0.16,0.22
			c-0.01,0.02-0.02,0.07-0.02,0.15s-0.01,0.13-0.02,0.16l-0.02,0.01c-0.04-0.02-0.11-0.05-0.21-0.07c-0.1-0.03-0.17-0.05-0.22-0.08
			c-0.07-0.04-0.12-0.1-0.15-0.17c-0.05-0.06-0.1-0.14-0.16-0.25c0.05-0.05,0.08-0.11,0.11-0.16c0.11-0.19,0.12-0.39,0.05-0.59
			s-0.2-0.35-0.39-0.46c-0.41-0.22-0.85-0.14-1.35,0.25c-0.17,0.13-0.28,0.26-0.36,0.4c-0.07,0.12-0.11,0.26-0.13,0.41
			c0,0.04,0,0.08,0.01,0.15c0.01,0.03-0.02,0.08-0.06,0.17c-0.01,0.01-0.05,0.03-0.14,0.06c0,0.05-0.03,0.15-0.09,0.3
			c-0.06,0.15-0.08,0.25-0.08,0.28c0.02,0.02,0.03,0.05,0.01,0.09c-0.02,0.04-0.03,0.08-0.04,0.12c-0.02,0.02-0.02,0.04,0,0.07
			c0.02,0.02,0.03,0.04,0.02,0.06c-0.04,0.07-0.07,0.18-0.1,0.33c0.03,0.3,0.3,0.59,0.8,0.87c0.11,0.06,0.2,0.08,0.27,0.06
			c0.16-0.05,0.34-0.13,0.54-0.25c0.23-0.13,0.37-0.26,0.44-0.37c0.01-0.02,0.02-0.04,0.04-0.07c0.02-0.03,0.03-0.06,0.04-0.07
			c0.1-0.18,0.23-0.22,0.4-0.13c0.07,0.04,0.13,0.11,0.16,0.2C66.49,31.2,66.49,31.28,66.45,31.35z"/>
		<path d="M69.26,35.43c-0.05,0.07-0.12,0.1-0.21,0.12c-0.09,0.01-0.16-0.01-0.22-0.05l-0.34-0.27c-0.05-0.04-0.12-0.1-0.2-0.18
			c-0.08-0.08-0.14-0.14-0.18-0.18c-0.01-0.03-0.02-0.06-0.05-0.07c-0.02-0.02-0.06-0.03-0.11-0.05c-0.05-0.02-0.08-0.03-0.1-0.05
			c-0.01-0.13-0.03-0.21-0.07-0.24c-0.05-0.03-0.1-0.05-0.17-0.03c-0.06,0.02-0.1,0.02-0.12,0.01c-0.02-0.01-0.11-0.07-0.28-0.21
			c-0.08-0.06-0.19-0.14-0.34-0.25c-0.15-0.11-0.26-0.19-0.33-0.25c-0.08-0.06-0.16-0.16-0.25-0.3c-0.03-0.02-0.09-0.06-0.17-0.1
			c-0.08-0.04-0.14-0.07-0.17-0.1c-0.11-0.08-0.12-0.18-0.04-0.29c0.07-0.09,0.22-0.14,0.44-0.15c0.22-0.01,0.36-0.04,0.4-0.08
			c0.05-0.07,0.14-0.16,0.26-0.28c0.04-0.02,0.1-0.06,0.18-0.11c0.07-0.05,0.28-0.29,0.61-0.73c0.14-0.18,0.21-0.28,0.22-0.31
			c0-0.07,0.01-0.13,0.04-0.17c0.02-0.02,0.04-0.04,0.08-0.07c0.04-0.03,0.06-0.05,0.08-0.07c0.03-0.04,0.06-0.09,0.08-0.16
			c0.03-0.09,0.06-0.14,0.07-0.17c0.07-0.12,0.18-0.29,0.32-0.53c0.04-0.08,0.04-0.14-0.01-0.17c-0.02-0.01-0.04-0.02-0.07-0.04
			c-0.03-0.02-0.05-0.03-0.06-0.03c-0.03-0.02-0.05-0.06-0.06-0.11c-0.01-0.05,0-0.08,0.02-0.11l0.04-0.02
			c0-0.13,0.04-0.24,0.1-0.32c0.04-0.05,0.07-0.07,0.11-0.06c0,0,0.04,0.03,0.11,0.07l2.37,1.59c0.07,0.04,0.13,0.09,0.19,0.13
			c0.09,0.07,0.16,0.12,0.2,0.16c0.09,0.08,0.14,0.19,0.17,0.33c0.02,0.14-0.01,0.25-0.08,0.35c-0.02,0.02-0.04,0.04-0.09,0.07
			c-0.04,0.03-0.07,0.05-0.09,0.07c-0.23,0.3-0.41,0.51-0.54,0.63c-0.07,0.06-0.13,0.07-0.19,0.02c-0.03-0.02-0.06-0.05-0.11-0.1
			c-0.05-0.04-0.08-0.07-0.1-0.09c-0.07-0.06-0.13-0.17-0.17-0.33c-0.04-0.16-0.04-0.27,0.01-0.34c0.01-0.01,0.02-0.01,0.03-0.01
			s0.02,0,0.03-0.01c0.01-0.02,0.02-0.04,0.02-0.07l0.12-0.1V31.5c-0.03-0.02-0.07-0.06-0.1-0.08c-0.05-0.05-0.07-0.08-0.05-0.09
			l-0.95-0.73c-0.16-0.12-0.36-0.03-0.6,0.28c-0.2,0.26-0.28,0.45-0.25,0.56c0.02,0.09,0.17,0.24,0.44,0.45
			c0.11,0.08,0.18,0.12,0.22,0.12c0.12-0.03,0.24-0.02,0.35,0.03c0.12,0.05,0.23,0.1,0.34,0.15c0,0.09-0.03,0.18-0.09,0.26
			c-0.06,0.07-0.12,0.11-0.19,0.1c-0.11,0.17-0.28,0.41-0.51,0.72c-0.03,0.03-0.07,0.06-0.12,0.09s-0.08,0.03-0.13,0
			c-0.22-0.17-0.32-0.31-0.31-0.44c0.02-0.03,0.06-0.09,0.08-0.17c0.01-0.04-0.02-0.11-0.07-0.2c-0.05-0.09-0.1-0.15-0.15-0.19
			c-0.02-0.02-0.06-0.04-0.12-0.07c-0.06-0.03-0.09-0.06-0.12-0.07c-0.16-0.12-0.32-0.08-0.48,0.12c-0.24,0.31-0.39,0.56-0.46,0.78
			c-0.04,0.11-0.04,0.2-0.01,0.27c0.02,0.06,0.08,0.12,0.18,0.19c0.03,0.03,0.09,0.06,0.16,0.1c0.07,0.04,0.12,0.07,0.16,0.1
			c0.03,0.02,0.07,0.06,0.12,0.11s0.1,0.1,0.15,0.13l0.01,0.02c0.04,0,0.09,0,0.15,0.01c0.08,0,0.13,0,0.16,0.02
			c0.02,0.02,0.05,0.05,0.07,0.1c0.03,0.05,0.05,0.08,0.07,0.1c0.04,0.03,0.11,0.04,0.2,0.04c0.09-0.01,0.16-0.03,0.2-0.07
			l0.55-0.52c0.02,0.01,0.06,0.03,0.1,0.07c0.04,0.03,0.08,0.08,0.14,0.15c0.06,0.07,0.1,0.12,0.14,0.15
			c0.02,0.01,0.04,0.02,0.07,0.04c0.03,0.01,0.06,0.02,0.07,0.04c0.02,0.02,0.01,0.04-0.02,0.08c-0.03,0.04-0.08,0.11-0.16,0.19
			c-0.07,0.08-0.13,0.15-0.16,0.19c-0.03,0.04-0.07,0.11-0.13,0.19c-0.05,0.08-0.09,0.15-0.12,0.19c-0.03,0.04-0.07,0.11-0.12,0.2
			C69.33,35.32,69.29,35.38,69.26,35.43z"/>
		<path d="M72.95,36.58c-0.02,0.02-0.05,0.03-0.08,0.04l-0.3,0.28c-0.21-0.08-0.34-0.14-0.37-0.18c-0.05-0.05-0.18-0.19-0.39-0.43
			c-0.01-0.04-0.02-0.09-0.05-0.16c-0.07,0.01-0.11,0.01-0.13-0.01c-0.01-0.01-0.01-0.02-0.01-0.05c0-0.03-0.01-0.05-0.02-0.06
			c-0.04-0.04-0.1-0.08-0.2-0.14c-0.09-0.05-0.16-0.1-0.2-0.14l-0.58-0.65c-0.06-0.06,0.08-0.25,0.41-0.56
			c0.12,0.02,0.2,0.03,0.22,0.04c0.05,0.02,0.11,0.06,0.18,0.13c0.03,0.03,0.07,0.07,0.13,0.12c0.06,0.05,0.1,0.09,0.13,0.12
			c0.04,0.04,0.09,0.11,0.16,0.21c0.07,0.1,0.12,0.16,0.15,0.2c0.02,0.02,0.04,0.03,0.07,0.05c0.03,0.02,0.06,0.03,0.07,0.05
			c0.02,0.02,0.03,0.05,0.05,0.08c0.02,0.04,0.04,0.07,0.05,0.08c0.05,0.05,0.13,0.12,0.25,0.2c0.12,0.08,0.2,0.14,0.24,0.18
			c0.08,0.08,0.14,0.17,0.19,0.27C73.01,36.43,73.02,36.53,72.95,36.58z"/>
	</g>
	<g>
		<g>
			<path d="M32.5,80.53c-0.02,0.03-0.05,0.05-0.09,0.07l-0.33,0.4c-0.28-0.07-0.44-0.13-0.49-0.17c-0.07-0.05-0.25-0.21-0.55-0.47
				c-0.02-0.05-0.04-0.11-0.08-0.18c-0.08,0.02-0.14,0.02-0.17,0c-0.01-0.01-0.02-0.03-0.02-0.06c0-0.03-0.02-0.06-0.03-0.07
				c-0.05-0.04-0.14-0.09-0.27-0.14s-0.21-0.1-0.27-0.14l-0.81-0.72c-0.08-0.07,0.06-0.31,0.42-0.75c0.15,0,0.25,0.01,0.28,0.02
				c0.06,0.01,0.14,0.06,0.24,0.14c0.04,0.03,0.1,0.07,0.18,0.13c0.08,0.06,0.14,0.1,0.18,0.13c0.06,0.05,0.13,0.12,0.22,0.23
				s0.17,0.18,0.22,0.23c0.02,0.02,0.06,0.04,0.1,0.05c0.04,0.02,0.07,0.03,0.09,0.05c0.02,0.02,0.05,0.05,0.08,0.1
				c0.03,0.04,0.06,0.07,0.08,0.1c0.07,0.06,0.18,0.12,0.34,0.21c0.16,0.08,0.27,0.14,0.33,0.19c0.11,0.09,0.2,0.19,0.28,0.31
				C32.55,80.32,32.57,80.45,32.5,80.53z"/>
			<path d="M39.68,81.37c-0.05,0.1-0.12,0.16-0.22,0.2l-0.56,1.03v0.02c-0.06,0.09-0.16,0.14-0.3,0.17c-0.13,0.02-0.25,0-0.35-0.05
				c-0.06-0.03-0.04-0.18,0.04-0.45c0.08-0.27,0.12-0.41,0.11-0.43c0.06-0.12,0.12-0.25,0.18-0.37c0.09-0.19,0.13-0.31,0.12-0.37
				c-0.02-0.16-0.07-0.26-0.13-0.3c-0.01,0-0.04,0-0.11,0.01s-0.12,0.01-0.17-0.02c-0.02-0.01-0.04-0.02-0.06-0.03
				c-0.02-0.02-0.05-0.02-0.06-0.03c-0.02-0.01-0.12-0.03-0.31-0.06c-0.05-0.02-0.11-0.08-0.17-0.16s-0.13-0.14-0.17-0.16
				l-0.21-0.11c-0.1-0.05-0.18-0.08-0.24-0.08c-0.14,0.07-0.26,0.17-0.33,0.31c-0.18,0.33-0.26,0.55-0.23,0.66
				c0.17,0.22,0.35,0.38,0.56,0.49c0.03,0.02,0.12,0.03,0.25,0.03c0.13,0,0.22,0,0.27-0.02l0.03,0c0.03,0.02,0.06,0.07,0.08,0.12
				s0.05,0.1,0.07,0.11l0.02,0.01c0.02,0.02,0.09,0.06,0.2,0.13l-0.02,0.05c-0.02,0.03-0.04,0.08-0.08,0.14s-0.06,0.11-0.08,0.14
				c-0.01,0.02-0.07,0.07-0.18,0.13c-0.11,0.07-0.17,0.12-0.2,0.15c0.02,0.02,0.07,0.04,0.16,0.07l-0.01,0.02
				c-0.03,0.05-0.09,0.09-0.2,0.12l-0.04,0.08c-0.06,0.05-0.11,0.11-0.17,0.17c-0.08,0.07-0.15,0.08-0.21,0.05
				c-0.06-0.03-0.18-0.15-0.34-0.34c-0.16-0.19-0.27-0.31-0.34-0.34c-0.21-0.12-0.4-0.09-0.57,0.07c-0.23,0.22-0.37,0.38-0.43,0.5
				C35,83.48,34.91,83.82,35,84.04c0.11,0.12,0.23,0.25,0.35,0.38c0.12,0.13,0.1,0.34-0.06,0.62c-0.11,0.2-0.25,0.26-0.42,0.17
				c-0.13-0.07-0.33-0.18-0.61-0.33c-0.27-0.14-0.46-0.25-0.6-0.32c-0.03-0.02-0.08-0.04-0.14-0.07c-0.06-0.03-0.11-0.06-0.14-0.07
				c-0.04-0.02-0.1-0.06-0.18-0.12c-0.07-0.06-0.13-0.09-0.17-0.11l0.29-0.45c0.04-0.06,0.15-0.1,0.32-0.12
				c0.17-0.02,0.28-0.04,0.32-0.07c0.12-0.1,0.4-0.55,0.83-1.34c0.13-0.24,0.17-0.39,0.12-0.45c0.41-0.66,0.61-0.99,0.62-1
				c0.06-0.12,0.12-0.29,0.16-0.53c0.04-0.24,0.04-0.41,0-0.52c-0.08-0.14-0.16-0.34-0.25-0.62l0.08-0.14
				c0.1-0.19,0.19-0.27,0.29-0.24c0.34,0.1,0.67,0.24,0.99,0.41c0.27,0.15,0.63,0.36,1.05,0.61c0.56,0.35,0.91,0.56,1.04,0.64
				c0.34,0.2,0.55,0.33,0.62,0.39C39.74,80.94,39.79,81.16,39.68,81.37z"/>
			<path d="M43.39,88.24c-0.04,0.14-0.21,0.17-0.5,0.08c-0.29-0.08-0.68-0.21-1.17-0.36c-0.4-0.13-0.59-0.24-0.56-0.33
				c0.01-0.03,0.02-0.06,0.04-0.08l0.8-0.27c0.07-0.17,0.11-0.27,0.12-0.31c0.06-0.2,0.05-0.37-0.03-0.52
				c-0.01-0.02-0.05-0.11-0.12-0.27c-0.07-0.15-0.11-0.22-0.12-0.23c-0.02-0.01-0.06-0.01-0.1-0.01c-0.04,0-0.07,0-0.1-0.01
				c-0.08-0.02-0.19-0.09-0.32-0.19c-0.13-0.1-0.24-0.17-0.32-0.19c-0.21-0.07-0.36-0.07-0.45-0.01c-0.04,0.02-0.08,0.08-0.12,0.16
				c-0.04,0.08-0.07,0.14-0.09,0.16c-0.24,0.27-0.37,0.46-0.4,0.55c-0.02,0.07-0.01,0.15,0.03,0.25c0.19,0.15,0.32,0.27,0.37,0.37
				c0.09,0.15,0.1,0.32,0.04,0.52l-1.86-0.59c-0.21-0.07-0.28-0.21-0.21-0.43c0.04-0.12,0.11-0.2,0.2-0.23
				c0.1-0.03,0.19-0.06,0.29-0.09c0.17-0.06,0.3-0.17,0.39-0.31c0.04-0.06,0.1-0.16,0.18-0.3c0.14-0.13,0.33-0.35,0.57-0.66
				l0.02-0.02c0.01-0.02,0.01-0.06,0-0.1c0-0.05,0-0.08,0-0.1c0.02-0.05,0.05-0.11,0.11-0.17c0.07-0.08,0.12-0.13,0.13-0.16
				c0.17-0.22,0.4-0.56,0.71-1.01c0.09-0.17,0.25-0.42,0.48-0.73c0.1-0.13,0.25-0.33,0.45-0.58c0.05-0.05,0.12-0.13,0.2-0.23
				c0.15-0.21,0.31-0.34,0.48-0.37c0.34,0.23,0.48,0.44,0.42,0.63c0,0.01-0.01,0.02-0.02,0.04c-0.01,0.02-0.02,0.03-0.02,0.04
				c-0.02,0.07-0.02,0.17,0.02,0.32s0.03,0.25,0.01,0.32c-0.01,0.04-0.02,0.08-0.04,0.13c-0.02,0.06-0.04,0.1-0.05,0.13
				c-0.03,0.09-0.04,0.31-0.03,0.64c0.01,0.22,0.01,0.45,0.02,0.68c-0.02,0.56-0.05,1.11-0.08,1.67c-0.01,0.71,0.08,1.24,0.28,1.58
				c0.09,0.11,0.22,0.27,0.4,0.49L43.39,88.24z M42.1,84.98c0.03-0.11,0.04-0.2,0.02-0.28l0.16-0.6c0.02-0.09,0.01-0.25-0.04-0.46
				c-0.05-0.22-0.12-0.34-0.2-0.36c-0.03-0.01-0.05,0.01-0.07,0.04c-0.02,0.04-0.04,0.05-0.07,0.04c-0.05,0.02-0.18,0.19-0.4,0.49
				c-0.22,0.31-0.34,0.5-0.36,0.58l-0.08,0.25l-0.03,0.09c0.04,0.04,0.09,0.08,0.15,0.1c0.04,0.02,0.1,0.04,0.17,0.05
				c0.09,0.03,0.15,0.05,0.17,0.05c0.03,0.01,0.08,0.04,0.14,0.07c0.06,0.04,0.1,0.07,0.13,0.07c0.06,0.02,0.13,0.02,0.19-0.02
				C42.04,85.09,42.08,85.04,42.1,84.98z"/>
			<path d="M49.14,88.53c-0.03,0.12-0.07,0.25-0.1,0.37c-0.06,0.17-0.14,0.26-0.23,0.25c-0.02,0-0.04-0.01-0.07-0.03
				c-0.03-0.02-0.06-0.03-0.07-0.03c-0.03,0-0.08,0-0.14,0.01c-0.07,0.01-0.11,0.01-0.14,0.01l-2.93-0.32
				c-0.34-0.04-0.5-0.17-0.47-0.41c0.02-0.24,0.17-0.37,0.43-0.4c0.01,0,0.25,0.01,0.72,0.03c0.26,0.01,0.4-0.05,0.41-0.18
				c0.01-0.05,0.01-0.12,0-0.21c-0.01-0.09-0.01-0.16,0-0.21c0.01-0.07,0.05-0.18,0.13-0.33c0.08-0.15,0.12-0.26,0.13-0.35
				c0-0.02,0-0.06,0-0.11c0-0.05-0.01-0.08,0-0.11l0.26-2.38c0.01-0.1-0.09-0.23-0.31-0.41c-0.24-0.05-0.47-0.1-0.71-0.14
				c-0.28-0.1-0.41-0.27-0.38-0.51l0.04-0.35c0.11-0.07,0.26-0.09,0.44-0.07c0.27,0.03,0.69,0.08,1.24,0.15
				c0.55,0.07,0.95,0.12,1.23,0.15c0.05,0.01,0.13,0.01,0.24,0.01c0.11,0,0.19,0,0.24,0.01c0.14,0.02,0.31,0.12,0.51,0.3
				c-0.12,0.33-0.24,0.54-0.36,0.62c-0.12,0.08-0.36,0.13-0.71,0.15l-0.03,0c-0.03,0-0.07-0.01-0.12-0.03
				C48.31,84.01,48.27,84,48.24,84h-0.01c-0.14,0.07-0.23,0.26-0.26,0.56c-0.03,0.32-0.04,0.54-0.01,0.64
				c0,0.04-0.01,0.11-0.02,0.21c-0.01,0.1-0.02,0.17-0.02,0.23c-0.01,0.11-0.02,0.2-0.01,0.27c0.02,0.03,0.03,0.05,0.03,0.07
				c0,0.03-0.02,0.05-0.06,0.07l-0.01,0.04c0,0.03,0,0.07,0.01,0.14c0.01,0.06,0.02,0.11,0.01,0.14c-0.01,0.12-0.04,0.28-0.08,0.51
				c-0.04,0.22-0.07,0.4-0.08,0.51c-0.01,0.12,0.03,0.26,0.15,0.4c0.04,0.1,0.1,0.22,0.18,0.35C48.16,88.22,48.52,88.35,49.14,88.53
				z"/>
			<path d="M54.81,84.67c0.01,0.06-0.06,0.14-0.19,0.23c-0.13,0.09-0.24,0.14-0.31,0.15c-0.09,0.01-0.18-0.03-0.27-0.12
				c-0.01-0.12-0.03-0.28-0.06-0.5c-0.08-0.08-0.13-0.14-0.13-0.18c0-0.01,0.01-0.02,0.03-0.03s0.03-0.03,0.03-0.05
				c-0.01-0.11-0.05-0.21-0.13-0.3c-0.08-0.09-0.17-0.13-0.28-0.12c-0.16,0.02-0.31,0.17-0.43,0.46l0.02,0.28
				c0.02,0.23,0.08,0.41,0.17,0.56c-0.04,0.1-0.06,0.19-0.05,0.27c0,0.02,0.01,0.06,0.03,0.11s0.02,0.08,0.03,0.11
				c0,0.03-0.01,0.06-0.03,0.08l0.02,0.29c0.02,0.23,0.06,0.42,0.12,0.57c-0.06,0.01-0.09,0.05-0.08,0.12
				c0.06,0.02,0.1,0.07,0.1,0.15c0,0.04,0,0.09,0,0.17c-0.01,0.08-0.01,0.14,0,0.17c0.01,0.08,0.02,0.18,0.04,0.31
				c0.02,0.16,0.04,0.26,0.04,0.31c0.01,0.08,0.02,0.14,0.03,0.16c0.02,0.04,0.06,0.08,0.11,0.12c0.12,0.07,0.27,0.13,0.46,0.2
				c0.24,0.07,0.39,0.13,0.46,0.17c0.07,0.1,0.12,0.18,0.12,0.25c0.01,0.07-0.01,0.15-0.06,0.26c0,0.05-0.03,0.09-0.11,0.13
				c-0.07,0.04-0.14,0.06-0.2,0.07l-0.57,0.05c-0.75,0.07-1.32,0.07-1.73,0.02c-0.2-0.02-0.3-0.1-0.31-0.23c0-0.03,0-0.1,0.02-0.2
				c0.07-0.09,0.19-0.19,0.37-0.31s0.3-0.21,0.36-0.27c0.12-0.12,0.17-0.29,0.17-0.52c-0.02-1.06-0.06-1.87-0.11-2.44
				c-0.09-1.05-0.25-1.57-0.46-1.55l-0.23,0.17c-0.03-0.01-0.06-0.03-0.08-0.07c-0.04,0.01-0.1,0.03-0.17,0.07
				c-0.1,0.07-0.12,0.33-0.09,0.76c0.02,0.23,0,0.4-0.07,0.51c-0.07,0.11-0.12,0.17-0.16,0.17c-0.19,0.02-0.33-0.05-0.43-0.21
				c-0.06-0.1-0.12-0.51-0.18-1.23c-0.01-0.1,0.02-0.2,0.08-0.32c0.07-0.12,0.14-0.19,0.23-0.22c0.38-0.11,0.96-0.2,1.74-0.27
				l0.79-0.07c0.51-0.04,0.84,0.03,0.97,0.22c0.06,0.09,0.14,0.4,0.23,0.93c0.01,0.05,0.03,0.16,0.07,0.32
				C54.77,84.48,54.8,84.58,54.81,84.67z"/>
			<path d="M66.19,84.73c0.1,0.22,0.03,0.42-0.2,0.59c-0.08,0.06-0.3,0.17-0.63,0.31c-0.42,0.18-0.67,0.17-0.76-0.03
				c-0.02-0.03-0.03-0.08-0.05-0.14c-0.02-0.06-0.04-0.1-0.05-0.13c0.04-0.02,0.1-0.06,0.17-0.11c0.07-0.05,0.13-0.09,0.17-0.11
				c0.02-0.01,0.05-0.01,0.09-0.01c0.04,0,0.07-0.01,0.1-0.02c0.08-0.03,0.1-0.14,0.07-0.31c-0.02-0.12-0.05-0.24-0.1-0.35
				c-0.04-0.09-0.11-0.23-0.2-0.42c-0.09-0.19-0.16-0.33-0.21-0.43l-0.03-0.07l0.07,0.02c0.04-0.02,0.06-0.08,0.05-0.18
				c-0.01-0.02-0.06-0.02-0.15-0.03c-0.04-0.01-0.09-0.1-0.17-0.28c-0.01-0.02-0.02-0.06-0.02-0.1c-0.01-0.05-0.02-0.08-0.03-0.11
				c-0.04-0.08-0.1-0.17-0.18-0.27c-0.11-0.11-0.2-0.15-0.27-0.12c-0.05,0.02-0.08,0.08-0.09,0.19c-0.01,0.07-0.01,0.15-0.01,0.22
				c0,0.02-0.04,0.1-0.1,0.24c-0.01,0.03-0.07,0.21-0.16,0.53c0.03,0.06,0.07,0.14,0.11,0.23c0.13,0.29,0.18,0.52,0.17,0.7l0,0.01
				c0.01,0.01-0.02,0.05-0.07,0.12c-0.05,0.07-0.07,0.12-0.05,0.16c0.01,0.03,0.04,0.07,0.08,0.12c0.04,0.05,0.07,0.09,0.08,0.12
				c0.05,0.11,0.07,0.19,0.07,0.24c-0.01,0.07-0.08,0.13-0.22,0.2l-0.1,0.04c-0.1,0.04-0.2-0.02-0.31-0.19
				c-0.02-0.03-0.07-0.09-0.15-0.18c-0.07-0.07-0.11-0.14-0.14-0.2c-0.01-0.02-0.02-0.05-0.02-0.09c-0.01-0.04-0.01-0.07-0.01-0.08
				c-0.34-0.29-0.86-0.72-1.55-1.28l-0.13,0.06c-0.14,0.06-0.19,0.13-0.15,0.22l0.96,2.19c0.03,0.08,0.11,0.1,0.23,0.07
				c0.18-0.06,0.3-0.09,0.34-0.09c0.14,0.01,0.25,0.1,0.33,0.28c0.06,0.14,0.09,0.25,0.08,0.31c0,0.1-0.07,0.18-0.2,0.24
				c-0.36,0.16-0.73,0.27-1.11,0.32c-0.06,0.01-0.12,0.03-0.18,0.04c-0.1,0.02-0.15,0.02-0.16-0.01c-0.01-0.03-0.03-0.07-0.05-0.12
				c-0.02-0.06-0.04-0.1-0.06-0.12c-0.08-0.18-0.09-0.3-0.02-0.36c0.11-0.11,0.17-0.18,0.18-0.22l-1.55-3.54
				c-0.11-0.25-0.19-0.4-0.25-0.46c-0.04,0.01-0.12-0.02-0.24-0.08c-0.12-0.1-0.21-0.24-0.29-0.41c-0.03-0.06-0.05-0.12-0.06-0.16
				c0.09-0.07,0.3-0.18,0.64-0.33c0.04-0.02,0.09-0.05,0.14-0.1c0.06-0.05,0.1-0.08,0.14-0.1c0.04-0.02,0.12-0.02,0.23,0.01
				c0.12,0.02,0.18,0.05,0.19,0.08c-0.02,0.12-0.02,0.21,0,0.26c0.05,0.11,0.16,0.25,0.32,0.43c0.17,0.17,0.27,0.32,0.31,0.43
				c0.15,0.03,0.28,0.12,0.38,0.27c0.05,0.06,0.12,0.2,0.23,0.43c0.13,0.05,0.28,0.14,0.47,0.26c0.12,0.17,0.24,0.34,0.36,0.51
				c0.16,0.17,0.35,0.2,0.57,0.11c0.15-0.07,0.22-0.17,0.22-0.32c-0.03-0.14-0.05-0.28-0.07-0.41c0-0.02,0-0.09,0.02-0.2
				c0.01-0.08,0-0.15-0.02-0.2c-0.11-0.26-0.14-0.39-0.08-0.4c0.04-0.07,0.06-0.11,0.06-0.14c0-0.01-0.01-0.06-0.04-0.15
				c-0.03-0.09-0.06-0.23-0.07-0.43s-0.04-0.35-0.08-0.45c0.02-0.06-0.01-0.17-0.08-0.34c-0.04-0.09-0.07-0.21-0.08-0.37
				c-0.02-0.19-0.03-0.32-0.05-0.38c0.02-0.11,0.11-0.2,0.25-0.26c0.45-0.2,0.75-0.24,0.92-0.13c0,0.11,0.02,0.37,0.06,0.76
				c0.05,0.41,0.09,0.66,0.12,0.74c0.01,0.03,0.03,0.07,0.05,0.12c0.02,0.06,0.04,0.1,0.05,0.12c0.02,0.03,0.01,0.06-0.01,0.07
				c-0.04,0.03-0.05,0.05-0.05,0.05l0.03,0.02l0.02,0.06c0.07,0.1,0.15,0.25,0.24,0.44c0.1,0.02,0.17,0.08,0.21,0.17
				c0.02,0.04,0.03,0.1,0.03,0.18c0.01,0.08,0.02,0.14,0.03,0.18c0.01,0.02,0.03,0.04,0.07,0.06c0.04,0.02,0.07,0.06,0.09,0.1
				c0.01,0.02,0.02,0.05,0.03,0.07l0.01,0.02c0.06,0.13,0.16,0.32,0.29,0.58c0.14,0.25,0.23,0.45,0.29,0.58
				c0.02,0.04,0.05,0.11,0.08,0.19c0.03,0.08,0.06,0.14,0.08,0.18c0.05,0.11,0.13,0.16,0.26,0.14
				C66.05,84.55,66.14,84.61,66.19,84.73z"/>
			<path d="M71.46,81.47c0.08,0.12,0,0.27-0.25,0.45c-0.25,0.18-0.58,0.41-1,0.71c-0.35,0.24-0.55,0.32-0.6,0.24
				c-0.02-0.02-0.03-0.05-0.04-0.08l0.28-0.8c-0.09-0.16-0.15-0.25-0.18-0.28c-0.12-0.17-0.27-0.27-0.43-0.29
				c-0.02,0-0.12-0.03-0.29-0.07c-0.16-0.04-0.24-0.05-0.25-0.04c-0.02,0.01-0.04,0.04-0.07,0.07c-0.02,0.03-0.04,0.06-0.07,0.07
				c-0.07,0.05-0.19,0.09-0.35,0.13c-0.16,0.04-0.28,0.08-0.35,0.13c-0.18,0.13-0.28,0.25-0.28,0.35c0,0.05,0.01,0.11,0.05,0.2
				c0.04,0.08,0.06,0.14,0.07,0.17c0.07,0.36,0.13,0.57,0.19,0.65c0.04,0.06,0.12,0.1,0.22,0.12c0.24-0.06,0.41-0.08,0.53-0.07
				c0.17,0.02,0.31,0.12,0.43,0.29l-1.6,1.12c-0.18,0.12-0.33,0.09-0.46-0.1c-0.07-0.1-0.09-0.2-0.06-0.3
				c0.03-0.1,0.07-0.19,0.11-0.28c0.05-0.17,0.05-0.34-0.01-0.5c-0.02-0.07-0.07-0.18-0.12-0.32c-0.02-0.19-0.07-0.48-0.17-0.85
				l-0.01-0.03c-0.01-0.02-0.04-0.04-0.08-0.07c-0.04-0.02-0.07-0.05-0.08-0.07c-0.03-0.04-0.05-0.11-0.07-0.19
				c-0.02-0.11-0.03-0.17-0.04-0.2c-0.07-0.27-0.19-0.66-0.36-1.18c-0.08-0.17-0.18-0.45-0.29-0.83c-0.05-0.16-0.11-0.4-0.19-0.71
				c-0.01-0.07-0.03-0.17-0.07-0.3c-0.08-0.25-0.08-0.45,0-0.61c0.39-0.13,0.64-0.11,0.76,0.06c0.01,0.01,0.01,0.02,0.02,0.04
				c0.01,0.02,0.01,0.03,0.02,0.04c0.04,0.06,0.13,0.12,0.26,0.18c0.13,0.06,0.22,0.12,0.27,0.19c0.02,0.02,0.05,0.06,0.08,0.11
				c0.03,0.06,0.06,0.1,0.07,0.12c0.06,0.08,0.22,0.22,0.49,0.41c0.18,0.13,0.36,0.27,0.55,0.4c0.42,0.36,0.85,0.72,1.28,1.09
				c0.55,0.45,1.03,0.7,1.43,0.75c0.14,0,0.36-0.01,0.63-0.01L71.46,81.47z M68.09,80.5c-0.07-0.09-0.13-0.16-0.21-0.19l-0.38-0.5
				c-0.06-0.07-0.19-0.16-0.39-0.25c-0.2-0.09-0.34-0.11-0.41-0.06c-0.02,0.02-0.03,0.04-0.01,0.08c0.02,0.04,0.02,0.07-0.01,0.08
				c-0.01,0.05,0.03,0.26,0.15,0.62c0.11,0.36,0.19,0.57,0.24,0.64l0.15,0.21l0.06,0.08c0.06,0,0.11-0.02,0.17-0.05
				c0.04-0.02,0.09-0.05,0.15-0.1c0.08-0.06,0.13-0.09,0.15-0.1c0.03-0.02,0.08-0.04,0.14-0.06c0.07-0.02,0.11-0.04,0.14-0.06
				c0.05-0.04,0.09-0.09,0.1-0.16C68.14,80.62,68.13,80.55,68.09,80.5z"/>
			<path d="M75.2,77.09c0.08,0.1,0.16,0.2,0.23,0.31c0.1,0.16,0.12,0.27,0.06,0.33c-0.01,0.01-0.03,0.02-0.07,0.04
				c-0.03,0.01-0.06,0.03-0.07,0.04c-0.02,0.02-0.05,0.06-0.08,0.12c-0.03,0.06-0.06,0.09-0.08,0.12l-2.05,2.12
				c-0.24,0.25-0.44,0.29-0.61,0.13c-0.17-0.17-0.19-0.36-0.05-0.59c0-0.01,0.16-0.2,0.47-0.55c0.17-0.2,0.2-0.35,0.11-0.44
				c-0.03-0.03-0.09-0.07-0.17-0.13c-0.07-0.05-0.13-0.09-0.17-0.13c-0.05-0.05-0.11-0.15-0.18-0.3s-0.13-0.26-0.19-0.31
				c-0.02-0.02-0.05-0.04-0.08-0.06c-0.04-0.02-0.07-0.05-0.08-0.06l-1.72-1.66c-0.07-0.07-0.24-0.07-0.51,0
				c-0.18,0.16-0.37,0.31-0.55,0.48c-0.25,0.16-0.46,0.16-0.63-0.01l-0.26-0.24c0.02-0.13,0.09-0.26,0.22-0.39
				c0.19-0.2,0.48-0.49,0.88-0.88c0.39-0.39,0.68-0.68,0.87-0.88c0.04-0.04,0.09-0.1,0.15-0.18c0.07-0.08,0.12-0.15,0.15-0.18
				c0.1-0.1,0.28-0.17,0.55-0.22c0.19,0.3,0.28,0.52,0.27,0.67s-0.11,0.36-0.32,0.65l-0.02,0.02c-0.02,0.02-0.05,0.05-0.1,0.07
				c-0.04,0.03-0.08,0.05-0.1,0.07l-0.01,0.01c-0.03,0.16,0.07,0.34,0.28,0.55c0.23,0.22,0.4,0.36,0.5,0.39
				c0.03,0.03,0.08,0.08,0.15,0.15c0.07,0.07,0.13,0.12,0.17,0.16c0.08,0.07,0.15,0.13,0.21,0.18c0.03,0,0.06,0.01,0.08,0.02
				c0.02,0.02,0.03,0.05,0.02,0.08l0.03,0.04c0.02,0.02,0.06,0.05,0.12,0.07c0.06,0.03,0.09,0.05,0.12,0.07
				c0.08,0.08,0.2,0.21,0.35,0.38s0.27,0.3,0.35,0.38c0.09,0.09,0.23,0.13,0.41,0.13c0.11,0.03,0.24,0.05,0.38,0.07
				C74.36,77.69,74.69,77.48,75.2,77.09z"/>
			<path d="M74.97,68.83c0.01,0.02,0.02,0.11,0.03,0.25c0.01,0.14,0.04,0.25,0.1,0.31c0.03,0.04,0.1,0.1,0.19,0.16
				c0.09,0.06,0.16,0.13,0.21,0.2c0.07,0.12,0.29,0.3,0.67,0.54c0.02,0.01,0.03,0.05,0.04,0.11c0,0.06,0.01,0.09,0.01,0.1
				c0.06,0.02,0.1-0.01,0.11-0.07l0.02-0.01c0.05,0.03,0.1,0.08,0.17,0.15c0.07,0.07,0.13,0.12,0.17,0.14
				c0.03,0.02,0.06,0.02,0.07-0.02c0.09,0.06,0.16,0.12,0.2,0.18l-0.02-0.01c0.02,0.02,0.04,0.03,0.07,0.05
				c0.06,0.04,0.14,0.08,0.27,0.14c0.12,0.06,0.21,0.1,0.27,0.14c0.03,0.02,0.08,0.07,0.15,0.13c0.06,0.06,0.11,0.11,0.15,0.13
				c-0.02-0.02,0.06,0.03,0.25,0.13c0.19,0.1,0.49,0.29,0.9,0.55c0.21,0.13,0.27,0.27,0.19,0.39c-0.1,0.15-0.23,0.22-0.4,0.2
				c-0.3-0.04-0.45-0.06-0.46-0.06c-0.01,0-0.04,0.02-0.08,0.06c-0.05,0.04-0.07,0.05-0.08,0.05c-0.02-0.01-0.05-0.03-0.07-0.07
				c-0.03-0.03-0.06-0.05-0.07-0.07c-0.07-0.05-0.17-0.07-0.28-0.07c-0.13,0-0.22-0.01-0.27-0.02c-0.13-0.03-0.42-0.07-0.88-0.11
				c-0.07-0.01-0.17,0.02-0.3,0.07c-0.1,0.04-0.24,0.02-0.42-0.06c-0.18-0.07-0.37-0.1-0.56-0.07c-0.19,0.03-0.38,0.06-0.57,0.09
				c-0.1-0.01-0.25-0.02-0.46-0.01c-0.01,0.01-0.04,0.02-0.1,0.03s-0.08,0.02-0.09,0.03c-0.06,0.1,0.04,0.23,0.31,0.41l2.42,1.57
				c0.02,0.01,0.07,0.01,0.13-0.01c0.07-0.02,0.11-0.04,0.12-0.06c0.01-0.02,0.03-0.05,0.05-0.1c0.02-0.04,0.04-0.07,0.05-0.1
				c0.01-0.02,0.07-0.06,0.18-0.13c0.11-0.07,0.17-0.1,0.2-0.1c0.02,0,0.06,0.01,0.11,0.04c0.13,0.08,0.2,0.2,0.21,0.35
				c-0.52,0.97-0.82,1.52-0.89,1.63c-0.12,0.18-0.26,0.22-0.41,0.12c-0.15-0.1-0.24-0.18-0.25-0.26c-0.01-0.04,0-0.11,0.05-0.22
				c0.04-0.11,0.06-0.21,0.05-0.31c-0.02-0.2-0.23-0.45-0.62-0.74c-0.05-0.03-0.34-0.22-0.89-0.57c-0.11-0.07-0.27-0.19-0.49-0.34
				c-0.22-0.16-0.38-0.27-0.49-0.34c-0.07-0.04-0.17-0.09-0.32-0.13c-0.15-0.05-0.26-0.09-0.33-0.14c-0.02-0.01-0.01-0.04,0.01-0.1
				c0.02-0.06,0.02-0.1,0.01-0.11c-0.02-0.01-0.13-0.01-0.33,0.01l-0.41-0.19l-0.56,0.51c-0.06,0.01-0.12-0.02-0.21-0.07
				c-0.16-0.11-0.25-0.19-0.26-0.24c0.02-0.02,0.06-0.04,0.13-0.07c0.07-0.03,0.12-0.06,0.14-0.1c0.02-0.03,0.01-0.07-0.03-0.1
				s-0.06-0.06-0.05-0.08c0.01-0.03,0.03-0.08,0.08-0.16c0.16-0.24,0.27-0.4,0.32-0.48c0.03-0.04,0.08-0.09,0.16-0.15
				c0.08-0.07,0.13-0.12,0.16-0.17c0.01-0.02,0.03-0.05,0.04-0.1c0.02-0.04,0.03-0.08,0.04-0.1c0.02-0.02,0.05-0.02,0.1,0.01
				c0.02,0.01,0.12,0.07,0.3,0.17c0.13,0.07,0.23,0.13,0.28,0.18c0.3-0.05,0.52-0.05,0.67,0c0.06,0.02,0.14,0.01,0.25-0.03
				c0.09-0.03,0.19-0.02,0.28,0.04c0.02,0.01,0.04,0.01,0.07,0.01c0.16,0,0.42,0.03,0.79,0.08c0.12-0.03,0.29-0.04,0.51-0.02
				c0.12-0.01,0.29,0,0.51,0.03c0.24,0.03,0.41,0.04,0.52,0.03l0.41-0.02c0.02-0.04,0.01-0.09-0.02-0.15l-0.24-0.16
				c-0.11-0.07-0.28-0.17-0.5-0.31c-0.22-0.13-0.38-0.23-0.48-0.3c-0.09-0.06-0.14-0.1-0.16-0.12c-0.52-0.41-0.79-0.63-0.8-0.63
				c-0.07-0.05-0.18-0.08-0.34-0.1c-0.21,0.08-0.42,0.16-0.64,0.23c-0.31,0.11-0.52,0.13-0.61,0.07c-0.1-0.07-0.15-0.12-0.14-0.15
				c0.03-0.16,0.24-0.54,0.64-1.15l0.32-0.5c0.13-0.09,0.21-0.12,0.23-0.11L74.97,68.83z"/>
			<path d="M79.19,65.91c0.03,0.01,0.06,0.03,0.09,0.07l0.48,0.19c0.02,0.29,0.01,0.46-0.01,0.52c-0.03,0.08-0.13,0.3-0.28,0.66
				c-0.04,0.03-0.09,0.07-0.15,0.13c0.05,0.07,0.07,0.12,0.05,0.16c0,0.01-0.02,0.02-0.05,0.04c-0.03,0.01-0.05,0.03-0.06,0.05
				c-0.02,0.06-0.04,0.16-0.05,0.3c-0.01,0.13-0.03,0.23-0.05,0.29l-0.44,0.99c-0.04,0.1-0.32,0.04-0.85-0.17
				c-0.04-0.15-0.07-0.24-0.07-0.27c-0.01-0.06,0.01-0.15,0.06-0.27c0.02-0.04,0.04-0.12,0.07-0.21s0.05-0.17,0.07-0.21
				c0.03-0.07,0.08-0.16,0.15-0.28s0.12-0.22,0.15-0.28c0.01-0.03,0.02-0.07,0.02-0.11c0-0.05,0.01-0.08,0.02-0.11
				c0.01-0.03,0.03-0.06,0.07-0.11c0.03-0.04,0.06-0.08,0.07-0.11c0.03-0.08,0.07-0.21,0.09-0.39c0.03-0.17,0.06-0.3,0.08-0.37
				c0.05-0.13,0.12-0.25,0.21-0.36C78.97,65.93,79.09,65.87,79.19,65.91z"/>
		</g>
	</g>
	<path class="st1" d="M11.02,14.34C3.17,16.36-1.56,24.36,0.47,32.22c1.35,5.24,5.36,9.08,10.22,10.46
		c0.36-0.82,0.48-1.77,0.26-2.56c-0.38-1.37,0.36-3,1.64-3.62c0.46-0.22,0.89-0.59,1.23-1.03c-1.81-0.74-3.26-2.29-3.78-4.33
		c-0.36-1.38-0.23-2.76,0.27-3.98c-0.06-0.02-0.11-0.04-0.17-0.07c-0.37-0.16-0.79-0.16-1.19-0.24c-0.69-0.14-1.38-0.73-0.79-1.33
		c0.35-0.36,1.29-0.62,2.01-0.83c0.09-0.03,0.19-0.06,0.28-0.08c0.14-0.04,0.27-0.08,0.38-0.12c0.07-0.03,0.16-0.05,0.24-0.07
		c0.17-0.06,0.39-0.09,0.49,0.06c0.02,0.04,0.03,0.08,0.04,0.13c0.03,0.08,0.04,0.17,0.04,0.25c0,0.08,0.01,0.16,0.01,0.23
		c0.79-0.82,1.81-1.44,2.99-1.74c2.13-0.55,4.29,0.04,5.83,1.4c0.54-0.67,1.34-1.14,2.19-1.2c1.42-0.1,2.93-1.29,3.35-2.65
		c0.11-0.36,0.3-0.69,0.54-0.98C23.11,15.19,17.03,12.79,11.02,14.34z M8.43,20.43c-0.24,0.23-0.47,0.47-0.71,0.7
		c-0.08,0.08-0.19,0.17-0.31,0.16c-0.16-0.02-0.24-0.2-0.27-0.36c-0.08-0.53,0.1-1.1,0.48-1.49l0.1,0.01
		c0.34-0.17,0.81-0.3,1.03,0.01C8.98,19.77,8.7,20.16,8.43,20.43z M15.66,19.02c-0.18-0.02-0.31-0.27-0.24-0.4
		c-0.02-0.09-0.03-0.18-0.05-0.27c0.17-0.25,0.62-0.2,0.74,0.08C16.24,18.7,15.96,19.06,15.66,19.02z M19.91,18.53
		c0.22-0.12,0.47,0.2,0.38,0.44s-0.36,0.34-0.61,0.38c-0.27,0.04-0.55,0.03-0.81-0.03c-0.08-0.02-0.16-0.04-0.22-0.1
		c-0.1-0.1-0.08-0.28,0.01-0.4c0.09-0.12,0.23-0.18,0.36-0.23c0.53-0.21,1.09-0.31,1.66-0.32L19.91,18.53z"/>
	<g>
		<path class="st1" d="M84,73.39c0.12-0.04,0.22-0.07,0.33-0.07c0.14,0,0.26,0.04,0.37,0.12c0.09,0.07,0.14,0.14,0.17,0.22
			c2.41-4.63,3.88-9.76,4.23-15.09l-1.5,0.39c-0.28,3.6-1.09,7.09-2.37,10.39c0.05,0.01,0.08,0.03,0.16,0.08
			c-0.07-0.01-0.12-0.02-0.18-0.03C81.09,79.93,72.15,88.38,60.39,91.4c-3.04,0.78-6.1,1.16-9.1,1.16
			c-12.27,0-23.72-6.25-30.39-16.41l-1.5,0.39c6.9,10.82,18.96,17.49,31.89,17.49c3.12,0,6.3-0.39,9.47-1.21
			c5.91-1.52,11.13-4.36,15.43-8.11c-0.03-0.02-0.06-0.05-0.11-0.1c0.08-0.01,0.15-0.02,0.25-0.03c2.52-2.22,4.72-4.76,6.56-7.54
			c-0.01,0-0.02-0.01-0.03-0.01c0.04-0.04,0.07-0.08,0.11-0.11c0.54-0.82,1.05-1.67,1.52-2.53c-0.04,0.02-0.09,0.02-0.13,0.02
			c-0.02,0-0.03,0-0.05,0c-0.22-0.04-0.44-0.14-0.62-0.26c-0.15-0.1-0.03-0.27,0.03-0.4C83.78,73.61,83.82,73.45,84,73.39z
			 M77.13,82.57c-0.03,0.01-0.05,0.01-0.08,0.01c-0.1,0-0.16-0.06-0.21-0.14c-0.07-0.12,0.01-0.28,0.16-0.33
			c0.03-0.01,0.07-0.02,0.1-0.02c0.11,0,0.23,0.05,0.27,0.13C77.41,82.31,77.26,82.53,77.13,82.57z"/>
		<path class="st1" d="M41.35,17.5c3.34-0.86,6.69-1.27,9.98-1.27c0.82,0,1.64,0.02,2.45,0.07c0.11-0.16,0.26-0.3,0.44-0.36
			c0.1-0.03,0.21-0.05,0.31-0.05c0.39,0,0.78,0.22,0.96,0.56c10.75,1.14,20.61,6.63,27.25,15.1c0.01,0,0.01,0,0.02,0
			c0.49,0.01,0.77,0.42,0.59,0.8c0.68,0.92,1.33,1.86,1.93,2.85l2.75-0.71c-0.32-0.62-0.5-1.32-0.45-1.96
			c0.1-1.42-0.94-2.88-2.32-3.23c-1.07-0.28-2.08-1.22-2.55-2.29c-0.01,0-0.02,0-0.03,0c-0.07,0-0.13-0.03-0.16-0.1
			c-0.04-0.09-0.02-0.18,0.07-0.23c-0.07-0.2-0.11-0.41-0.14-0.61c-0.14-1.17-1.06-2.21-2.17-2.59l0,0
			c2.57-3.44,3.62-7.97,2.46-12.45C80.72,3.17,72.71-1.55,64.86,0.47c-6.17,1.59-10.4,6.86-10.96,12.86
			c0.13,0.05,0.27,0.1,0.41,0.14c-0.46-0.14-0.9-0.35-1.25-0.64c-0.54-0.45-1.26-0.67-1.97-0.68h-0.02c-0.72,0-1.44,0.23-1.99,0.69
			c-0.65,0.54-1.59,0.83-2.51,0.83c-0.63,0-1.24-0.13-1.75-0.41c-0.13-0.07-0.26-0.13-0.4-0.18l-3.37,0.79
			c-0.05,0.05-0.09,0.1-0.14,0.16c-0.69,0.85-1.93,1.37-3.09,1.37c-0.35,0-0.69-0.05-1.01-0.15c-0.28-0.09-0.57-0.13-0.87-0.13
			c-0.08,0-0.17,0-0.25,0.01l-0.96,0.22c-0.68,0.27-1.27,0.75-1.61,1.39c-0.62,1.15-2.11,2-3.44,2c-0.12,0-0.24-0.01-0.36-0.02
			c-0.11-0.01-0.22-0.02-0.32-0.02c-1.31,0-2.62,0.93-3.02,2.18c-0.42,1.36-1.93,2.55-3.35,2.65c-1.42,0.1-2.71,1.34-2.87,2.76
			s-1.41,2.87-2.79,3.24c-1.38,0.37-2.41,1.83-2.3,3.25c0.11,1.42-0.84,3.09-2.12,3.71c-1.28,0.62-2.02,2.25-1.64,3.62
			c0.38,1.37-0.24,3.19-1.38,4.04c-1.14,0.85-1.56,2.59-0.92,3.87c0.63,1.28,0.36,3.18-0.59,4.24c-0.28,0.31-0.49,0.69-0.62,1.09
			c0,0,0.01,0,0.01,0.01l-0.01,0.06c-0.01,0-0.02,0-0.02,0c-0.17,0.59-0.18,1.23-0.02,1.82l4.04-1.04
			C12.25,37.2,23.99,21.97,41.35,17.5z M84.24,30.71c0.12,0.05,0.22,0.07,0.27,0.12c0.07,0.08,0.01,0.17-0.1,0.19
			c-0.01,0-0.02,0-0.02,0c-0.07,0-0.16-0.04-0.21-0.08C84.15,30.91,84.21,30.82,84.24,30.71z M54.77,13.58
			c0.28,0.05,0.56,0.07,0.84,0.07c-0.02,0-0.04,0-0.07,0C55.29,13.65,55.03,13.62,54.77,13.58z M61.47,14.21
			c0.03,0.02,0.05,0.05,0.08,0.08C61.53,14.26,61.5,14.24,61.47,14.21z M63.57,17.36c-0.01,0.01-0.02,0.01-0.03,0.01
			c-0.06,0-0.19-0.04-0.21-0.07c-0.04-0.08,0-0.18,0-0.37c0.19,0.1,0.34,0.13,0.36,0.19C63.73,17.18,63.65,17.3,63.57,17.36z
			 M72.84,21.04c0,0-0.03,0.01-0.07,0.01c-0.07,0-0.17,0-0.28,0c0.04-0.17,0.05-0.29,0.12-0.4c0.01-0.01,0.04-0.02,0.09-0.02
			c0.02,0,0.05,0,0.08,0c0.02,0,0.05,0,0.08,0c0.01,0,0.02,0,0.03,0C72.87,20.77,72.87,20.91,72.84,21.04z M75.08,21.24
			C75.08,21.24,75.08,21.24,75.08,21.24c-0.04,0-0.1-0.04-0.14-0.06c0.04-0.07,0.08-0.14,0.14-0.19c0,0,0.01,0,0.01,0
			c0.03,0,0.12,0.04,0.23,0.07C75.21,21.15,75.16,21.21,75.08,21.24z M75.2,19.28c0.01,0.01,0.01,0.01,0.02,0.02
			C75.21,19.29,75.21,19.29,75.2,19.28z M76.23,21.8c-0.02,0.02-0.11,0.04-0.2,0.04c-0.09,0-0.18-0.01-0.21-0.04
			c-0.1-0.08-0.09-0.25-0.16-0.5c0.3,0.05,0.53,0.02,0.6,0.1C76.34,21.49,76.3,21.69,76.23,21.8z M75.51,19.57
			c0.02,0.02,0.03,0.03,0.04,0.04C75.54,19.59,75.52,19.58,75.51,19.57z M77.69,25.19c-0.07,0-0.14-0.02-0.22-0.04
			c0.13-0.14,0.24-0.2,0.44-0.2c0.08,0,0.18,0.01,0.31,0.03C77.99,25.12,77.83,25.19,77.69,25.19z M79.57,23.33
			C79.57,23.33,79.57,23.33,79.57,23.33L79.57,23.33c-1.42-0.09-2.94-1.27-3.37-2.63c0,0,0,0,0,0c0,0,0,0,0,0
			C76.64,22.06,78.15,23.24,79.57,23.33z M79.97,23.39c-0.02,0-0.04-0.01-0.06-0.01C79.93,23.38,79.95,23.39,79.97,23.39z
			 M75.79,19.9c0.01,0.02,0.03,0.04,0.04,0.06C75.82,19.94,75.81,19.92,75.79,19.9z M76.03,20.28c0.01,0.02,0.02,0.03,0.02,0.05
			C76.04,20.32,76.03,20.3,76.03,20.28z M76.68,7.92l-0.1-0.21c0.18-0.09,0.41-0.03,0.53,0.12c0.12,0.15,0.12,0.39,0,0.55
			c-0.13,0.09-0.29,0.15-0.44,0.12c-0.15-0.03-0.29-0.16-0.29-0.31C76.37,8.03,76.53,7.88,76.68,7.92z M72.61,8.69L73,8.62
			c-0.1,0.04-0.19,0.11-0.27,0.19c0.41,0.29,1.52,0.52,0.9,1.09c-0.16,0.15-0.41,0.17-0.61,0.1c-0.28-0.1-0.48-0.39-0.49-0.68
			c0-0.19,0.07-0.37,0.2-0.51C72.68,8.77,72.63,8.73,72.61,8.69z M70.3,4.05c0.17-0.15,0.4-0.2,0.62-0.2l0.08-0.05
			c0.16,0.2,0.26,0.45,0.29,0.7c0.01,0.07,0.01,0.14-0.02,0.19c-0.04,0.07-0.13,0.1-0.22,0.12c-0.31,0.08-0.71,0.11-0.87-0.17
			C70.06,4.46,70.14,4.2,70.3,4.05z M66.05,10.1c2.56-0.66,5.15,0.32,6.67,2.29c0.46-0.3,0.97-0.53,1.29-0.57
			c0.73-0.1,2.1,0.22,2.69,0.66c0.34,0.26,0.55,0.73,0.38,1.12c-0.16,0.36-0.57,0.52-0.94,0.62c-0.72,0.2-1.47,0.3-2.21,0.36
			c-0.03,0-0.07,0-0.1,0.01c0.01,0.04,0.02,0.07,0.03,0.11c0.34,1.33,0.24,2.68-0.22,3.87c0,0,0.01,0,0.01,0
			c-0.15-0.02-0.31-0.04-0.46-0.04c-0.12,0-0.23,0.01-0.34,0.02c-0.12,0.02-0.25,0.02-0.38,0.02c-1.33,0-2.81-0.83-3.43-1.97
			c-0.1-0.17-0.21-0.34-0.34-0.49c-0.24,0.17-0.54,0.31-0.8,0.31c-0.01,0-0.02,0-0.03,0c-0.85,0-1.56-0.36-2.3-0.82
			c0.49-0.22,0.96-0.41,1.43-0.52c-0.25-0.06-0.51-0.09-0.77-0.09c-0.3,0-0.6,0.04-0.89,0.14c-0.32,0.11-0.67,0.16-1.03,0.16
			c-0.98,0-2.02-0.37-2.74-1.01C62.23,12.3,63.86,10.66,66.05,10.1z M74.88,19.05c-0.01-0.01-0.02-0.01-0.03-0.02
			C74.86,19.04,74.87,19.05,74.88,19.05z M74.5,18.85c-0.02-0.01-0.03-0.02-0.05-0.02C74.47,18.83,74.48,18.84,74.5,18.85z
			 M74.08,18.68c-0.02-0.01-0.04-0.01-0.06-0.02C74.05,18.67,74.07,18.68,74.08,18.68z M61.23,13.96c-0.07-0.08-0.14-0.16-0.21-0.23
			C61.1,13.81,61.17,13.88,61.23,13.96z M59.1,12.88c-0.09-0.01-0.19-0.01-0.28-0.02C58.91,12.87,59,12.87,59.1,12.88z M60.95,13.67
			c-0.06-0.05-0.11-0.1-0.17-0.14C60.84,13.57,60.9,13.62,60.95,13.67z M60.7,13.47c-0.07-0.05-0.14-0.09-0.21-0.13
			C60.56,13.38,60.63,13.42,60.7,13.47z M60.43,13.29c-0.09-0.05-0.18-0.1-0.28-0.14C60.25,13.2,60.34,13.24,60.43,13.29z
			 M60.08,13.13c-0.07-0.03-0.15-0.06-0.22-0.08C59.93,13.07,60,13.09,60.08,13.13z M59.75,13.01c-0.07-0.02-0.15-0.04-0.22-0.06
			C59.61,12.97,59.68,12.99,59.75,13.01z M59.44,12.93c-0.1-0.02-0.21-0.04-0.31-0.05C59.24,12.89,59.34,12.91,59.44,12.93z
			 M58.73,12.87c-0.09,0-0.18,0.01-0.27,0.02C58.54,12.87,58.63,12.87,58.73,12.87z M58.37,12.89c-0.11,0.01-0.22,0.03-0.33,0.06
			C58.15,12.92,58.26,12.9,58.37,12.89z M57.63,13.08c-0.1,0.04-0.21,0.09-0.31,0.14c-0.01,0-0.01,0.01-0.02,0.01
			c0.01,0,0.01-0.01,0.02-0.01C57.42,13.17,57.52,13.12,57.63,13.08z M57.98,12.97c-0.09,0.02-0.18,0.05-0.27,0.08
			C57.8,13.02,57.89,12.99,57.98,12.97z M55.82,13.63c0.08-0.01,0.16-0.01,0.24-0.02C55.99,13.62,55.91,13.63,55.82,13.63z
			 M56.3,13.57c0.07-0.01,0.14-0.02,0.21-0.04C56.44,13.55,56.37,13.56,56.3,13.57z M56.77,13.46c0.05-0.02,0.11-0.03,0.16-0.05
			C56.88,13.43,56.83,13.44,56.77,13.46z M54.74,13.57c-0.13-0.02-0.27-0.06-0.4-0.09C54.47,13.52,54.6,13.54,54.74,13.57z
			 M53.23,14.25c-0.13,0.56-0.39,0.76-0.93,0.78C52.29,14.52,52.59,14.36,53.23,14.25z"/>
		<path class="st1" d="M51.33,18.3c-0.52,0-1.05,0.01-1.57,0.03c0.08,0.09,0.14,0.2,0.2,0.31c0.18,0.39,0.18,0.8,0.03,1.14
			c0.45-0.02,0.9-0.02,1.34-0.02c12.25,0,23.68,6.23,30.36,16.35l1.49-0.38c-0.8-1.24-1.66-2.43-2.59-3.56
			c-0.02,0.03-0.04,0.06-0.06,0.06c0,0-0.01,0-0.01,0c-0.06,0-0.12-0.03-0.17-0.05c0.03-0.05,0.04-0.13,0.08-0.14
			c0.01,0,0.01,0,0.02,0s0.02,0,0.03,0.01c-1.77-2.14-3.76-4.06-5.93-5.75c-0.04,0.03-0.09,0.06-0.15,0.08
			c-0.09,0.04-0.18,0.06-0.27,0.06c-0.17,0-0.32-0.08-0.41-0.22c-0.08-0.15-0.05-0.36,0.06-0.5c-1.32-0.97-2.69-1.86-4.12-2.65
			c0,0.08-0.06,0.16-0.17,0.2c-0.03,0.01-0.06,0.01-0.08,0.01c-0.08,0-0.15-0.04-0.19-0.12c-0.05-0.1,0.01-0.21,0.13-0.27
			c-1.05-0.57-2.13-1.09-3.24-1.56c0.01,0.09,0,0.19-0.04,0.23c-0.09,0.09-0.19,0.13-0.3,0.13c-0.12,0-0.23-0.05-0.32-0.13
			c-0.09-0.09-0.08-0.26-0.15-0.53c0.06,0.01,0.11,0.02,0.16,0.02C61.03,19.26,56.25,18.3,51.33,18.3z M77.4,29.39
			c0.13,0.04,0.24,0.05,0.26,0.09c0.02,0.06-0.02,0.15-0.07,0.2c-0.01,0.01-0.02,0.01-0.04,0.01c-0.05,0-0.14-0.02-0.16-0.05
			C77.35,29.59,77.39,29.51,77.4,29.39z"/>
		<path class="st1" d="M42.23,20.92c1.7-0.44,3.41-0.75,5.1-0.94c-0.1-0.09-0.18-0.2-0.24-0.31c-0.18-0.38-0.14-0.8,0.06-1.14
			c-1.76,0.2-3.52,0.52-5.29,0.97c-16.24,4.18-27.29,18.3-28.34,34.17l1.49-0.38c0.38-4.84,1.73-9.5,3.9-13.73
			c-0.44-0.15-0.86-0.38-1.29-0.65c0.67-0.31,1.31-0.55,1.97-0.61C24.29,29.97,32.24,23.49,42.23,20.92z"/>
		<path class="st1" d="M94.41,60.2c-0.49-0.79-0.62-1.89-0.41-2.88l-2.8,0.72c-0.11,2.31-0.42,4.58-0.91,6.8
			c0.15-0.21,0.33-0.38,0.65-0.46c0.15-0.04,0.31-0.06,0.46-0.06c0.47,0,0.9,0.2,1.13,0.56c0.16,0.25,0.11,0.51,0.04,0.77
			c-0.07,0.27-0.18,0.52-0.55,0.53c-0.37,0.25-0.77,0.18-1.15,0.23c-0.01,0-0.02,0-0.03,0c-0.08,0-0.17-0.03-0.23-0.07
			c-0.22-0.1-0.42-0.34-0.51-0.6c-1.87,7.53-5.9,14.37-11.57,19.66c0.01,0.03,0,0.07-0.02,0.09l-0.06-0.01
			c-4.7,4.35-10.51,7.63-17.15,9.34c-3.34,0.86-6.69,1.27-9.98,1.27c-4.74,0-9.37-0.85-13.7-2.44c-0.02,0.02-0.04,0.04-0.07,0.07
			c-0.08,0.07-0.16,0.09-0.23,0.09c-0.12,0-0.23-0.06-0.32-0.15c-0.08-0.08-0.14-0.18-0.21-0.28c0.01-0.01,0.03-0.02,0.04-0.03
			c-8-3.13-14.9-8.79-19.5-16.28l-4.16,1.07c0.36,0.69,0.95,1.26,1.67,1.52c1.34,0.49,2.46,2.05,2.49,3.47
			c0.03,1.43,1.21,2.77,2.62,3c1.4,0.22,2.8,1.55,3.11,2.94c0.3,1.36,1.66,2.45,3.05,2.45c0.03,0,0.06,0,0.08,0
			c0.03,0,0.06,0,0.09,0c1.4,0,2.97,1.02,3.51,2.3c0.48,1.12,1.71,1.88,2.93,1.88c0.21,0,0.41-0.02,0.61-0.07
			c0.22-0.05,0.46-0.07,0.69-0.07c1.24,0,2.61,0.66,3.28,1.65c0.57,0.85,1.62,1.34,2.65,1.34c0.4,0,0.8-0.07,1.17-0.24
			c0.42-0.18,0.9-0.27,1.4-0.27c1.04,0,2.12,0.38,2.8,1.07c0.57,0.57,1.4,0.88,2.22,0.88h0.02c0.61,0,1.22-0.17,1.72-0.51
			c0.59-0.41,1.37-0.61,2.15-0.61c0.77,0,1.54,0.2,2.12,0.59c0.5,0.34,1.1,0.5,1.71,0.5c0.83,0,1.67-0.31,2.25-0.89
			c0.68-0.69,1.78-1.09,2.83-1.09c0.48,0,0.96,0.08,1.37,0.26c0.36,0.16,0.75,0.23,1.15,0.23c1.04,0,2.09-0.51,2.66-1.36
			c0.67-1,2.04-1.67,3.29-1.67c0.23,0,0.45,0.02,0.67,0.07c0.11,0.02,0.22,0.04,0.32,0.05c-0.11-0.05-0.19-0.15-0.21-0.28
			c-0.03-0.18,0.05-0.38,0.1-0.75c0.36,0.21,0.61,0.28,0.73,0.43c0.18,0.24,0.07,0.49-0.26,0.59c-0.01,0-0.02,0.01-0.03,0.01
			c1.2-0.03,2.41-0.79,2.88-1.9c0.54-1.29,2.11-2.33,3.52-2.33c0.02,0,0.05,0,0.07,0s0.04,0,0.07,0c1.4,0,2.77-1.1,3.05-2.47
			c0.23-1.1,1.14-2.16,2.2-2.67c-0.36,0-0.73-0.17-0.83-0.41c-0.12-0.31,0.18-0.83,0.57-0.96h0c-0.04-0.1,0.02-0.21,0.15-0.28
			c0.05-0.02,0.11-0.04,0.16-0.04c0.09,0,0.17,0.04,0.22,0.11c0.03,0.06,0.03,0.13,0,0.2c0.23,0.06,0.43,0.2,0.52,0.38
			c0.12,0.25,0.05,0.56-0.14,0.76c0.07-0.02,0.14-0.03,0.22-0.04c1.4-0.24,2.57-1.59,2.59-3.02c0.02-1.42,1.13-2.99,2.47-3.49
			c1.33-0.5,2.22-2.05,1.98-3.45c-0.25-1.4,0.55-3.15,1.76-3.9c0.17-0.11,0.33-0.23,0.48-0.37c-0.03-0.01-0.07-0.02-0.1-0.03
			c0.02-0.04,0.03-0.07,0.07-0.13c0.05,0.02,0.09,0.04,0.14,0.06c0.81-0.85,1.13-2.2,0.71-3.3c-0.51-1.33-0.06-3.2,0.99-4.16
			C94.91,63.18,95.16,61.41,94.41,60.2z M48.32,97.11c-0.36-0.19-0.63-0.27-0.76-0.42c-0.07-0.09,0.04-0.4,0.17-0.46
			c0.09-0.04,0.18-0.07,0.26-0.07c0.2,0,0.36,0.11,0.44,0.29C48.49,96.59,48.38,96.78,48.32,97.11z M57.46,98.79
			c-0.1,0.04-0.2,0.06-0.29,0.06c-0.2,0-0.36-0.09-0.43-0.27c-0.07-0.18,0.04-0.42,0.09-0.82c0.41,0.19,0.69,0.26,0.84,0.41
			C57.87,98.39,57.79,98.65,57.46,98.79z M66.75,93.2c-0.04-0.03-0.08-0.06-0.12-0.1l0.04-0.06c0.05,0.01,0.1,0.03,0.16,0.04
			C66.81,93.12,66.78,93.16,66.75,93.2z M74.07,91.86c-0.1,0.06-0.26,0.05-0.47,0.08c0.03-0.18,0.01-0.35,0.09-0.4
			c0.03-0.02,0.07-0.02,0.12-0.02c0.09,0,0.2,0.02,0.27,0.06C74.13,91.61,74.13,91.82,74.07,91.86z M79.08,89.9
			c-0.1-0.03-0.17-0.04-0.21-0.08l0.03-0.12c0.02-0.01,0.05-0.01,0.08-0.01c0.04,0,0.08,0.01,0.1,0.02
			C79.12,89.75,79.09,89.82,79.08,89.9z M79.02,89.11c0.02-0.02,0.05-0.03,0.06-0.03c0.03,0,0.05,0.06,0.07,0.21
			C79.11,89.22,79.06,89.16,79.02,89.11z M82.96,81.57c-0.01,0.01-0.02,0.01-0.04,0.01c-0.05,0-0.14-0.02-0.16-0.05
			c-0.03-0.05,0-0.13,0.01-0.25c0.13,0.04,0.24,0.05,0.26,0.09C83.04,81.43,83.01,81.52,82.96,81.57z M88.17,78.86
			c-0.03,0.02-0.07,0.03-0.11,0.03c-0.07,0-0.13-0.03-0.16-0.1c-0.05-0.1-0.01-0.21,0.12-0.25c0.02-0.01,0.04-0.01,0.06-0.01
			c0.07,0,0.17,0.03,0.3,0.04C88.29,78.71,88.25,78.81,88.17,78.86z M89.86,73.26c-0.07-0.02-0.13-0.03-0.15-0.05
			c-0.02-0.02,0.01-0.07,0.02-0.1c0.04,0.01,0.1,0,0.12,0.02C89.88,73.15,89.86,73.2,89.86,73.26z M90.56,70.88
			c0.09-0.06,0.15-0.09,0.19-0.09c0.05,0,0.09,0.05,0.19,0.15C90.78,70.92,90.68,70.91,90.56,70.88z M91.78,69.01
			c-0.14-0.06-0.26-0.07-0.31-0.13c-0.07-0.08-0.03-0.17,0.08-0.23c0.03-0.02,0.08-0.03,0.12-0.03c0.09,0,0.17,0.04,0.18,0.1
			C91.87,68.79,91.82,68.88,91.78,69.01z M91.68,68.05c-0.06,0.02-0.12,0.03-0.19,0.03c-0.26,0-0.59-0.14-0.68-0.32
			c-0.12-0.23,0.08-0.56,0.41-0.68c0.1-0.04,0.2-0.06,0.3-0.06c0.22,0,0.41,0.1,0.5,0.27C92.17,67.57,92.02,67.91,91.68,68.05z"/>
	</g>
</g>
</svg>
