<?xml version="1.0" encoding="utf-8"?>
<!-- Generator: Adobe Illustrator 24.1.1, SVG Export Plug-In . SVG Version: 6.00 Build 0)  -->
<svg version="1.1" id="Calque_1" xmlns="http://www.w3.org/2000/svg" xmlns:xlink="http://www.w3.org/1999/xlink" x="0px" y="0px"
	 viewBox="0 0 175 233.01" style="enable-background:new 0 0 175 233.01;" xml:space="preserve">
<style type="text/css">
	.st0{fill:url(#SVGID_1_);}
	.st1{fill:url(#SVGID_2_);}
	.st2{fill:url(#SVGID_3_);}
	.st3{fill:url(#SVGID_4_);}
	.st4{fill:url(#SVGID_5_);}
	.st5{fill:url(#SVGID_6_);}
	.st6{fill:url(#SVGID_7_);}
	.st7{fill:url(#SVGID_8_);}
	.st8{fill:url(#SVGID_9_);}
</style>
<g>
	<linearGradient id="SVGID_1_" gradientUnits="userSpaceOnUse" x1="1.9203" y1="24.8969" x2="213.8084" y2="280.1416">
		<stop  offset="0" style="stop-color:#D08A24"/>
		<stop  offset="0.4832" style="stop-color:#A06D9F"/>
		<stop  offset="0.9553" style="stop-color:#625AA3"/>
	</linearGradient>
	<path class="st0" d="M103.09,170.71H71.91c-11.3,0-20.5-9.2-20.5-20.5v-39.28c0-19.23,15.64-34.88,34.88-34.88h2.43
		c19.23,0,34.88,15.65,34.88,34.88v39.28C123.59,161.52,114.4,170.71,103.09,170.71z M86.28,83.06c-15.37,0-27.88,12.5-27.88,27.88
		v39.28c0,7.44,6.05,13.5,13.5,13.5h31.19c7.44,0,13.5-6.05,13.5-13.5v-39.28c0-15.37-12.5-27.88-27.88-27.88H86.28z"/>
	<linearGradient id="SVGID_2_" gradientUnits="userSpaceOnUse" x1="12.6022" y1="16.0294" x2="224.4903" y2="271.2742">
		<stop  offset="0" style="stop-color:#D08A24"/>
		<stop  offset="0.4832" style="stop-color:#A06D9F"/>
		<stop  offset="0.9553" style="stop-color:#625AA3"/>
	</linearGradient>
	<path class="st1" d="M93.7,114.34H81.3c-4.46,0-8.08-3.62-8.08-8.08v0c0-4.46,3.62-8.08,8.08-8.08h12.4c4.46,0,8.08,3.62,8.08,8.08
		v0C101.78,110.72,98.17,114.34,93.7,114.34z"/>
	<g>
		<linearGradient id="SVGID_3_" gradientUnits="userSpaceOnUse" x1="18.7501" y1="10.9258" x2="230.6382" y2="266.1706">
			<stop  offset="0" style="stop-color:#D08A24"/>
			<stop  offset="0.4832" style="stop-color:#A06D9F"/>
			<stop  offset="0.9553" style="stop-color:#625AA3"/>
		</linearGradient>
		<path class="st2" d="M19.91,49.95c-0.61,0-1.23-0.16-1.8-0.5C10.13,44.66,5.17,35.91,5.17,26.61C5.17,11.94,17.1,0,31.78,0
			C43.42,0,53.9,7.78,57.26,18.93c0.56,1.85-0.49,3.8-2.34,4.36c-1.85,0.56-3.8-0.49-4.36-2.34C48.08,12.73,40.36,7,31.78,7
			c-10.81,0-19.61,8.8-19.61,19.61c0,6.96,3.57,13.25,9.55,16.84c1.66,0.99,2.2,3.14,1.2,4.8C22.26,49.34,21.1,49.95,19.91,49.95z"
			/>
		<linearGradient id="SVGID_4_" gradientUnits="userSpaceOnUse" x1="88.7087" y1="-47.1494" x2="300.5968" y2="208.0954">
			<stop  offset="0" style="stop-color:#D08A24"/>
			<stop  offset="0.4832" style="stop-color:#A06D9F"/>
			<stop  offset="0.9553" style="stop-color:#625AA3"/>
		</linearGradient>
		<path class="st3" d="M154.12,50.5c-1.25,0-2.46-0.67-3.09-1.85c-0.91-1.7-0.27-3.83,1.43-4.74c6.4-3.42,10.37-10.06,10.37-17.3
			c0-10.81-8.8-19.61-19.61-19.61c-8.58,0-16.31,5.73-18.78,13.94c-0.56,1.85-2.51,2.9-4.36,2.34c-1.85-0.56-2.9-2.51-2.34-4.36
			C121.1,7.78,131.58,0,143.22,0c14.67,0,26.61,11.94,26.61,26.61c0,9.83-5.39,18.83-14.07,23.47
			C155.24,50.37,154.68,50.5,154.12,50.5z"/>
	</g>
	<g>
		<linearGradient id="SVGID_5_" gradientUnits="userSpaceOnUse" x1="6.5384" y1="21.0632" x2="218.4266" y2="276.3079">
			<stop  offset="0" style="stop-color:#D08A24"/>
			<stop  offset="0.4832" style="stop-color:#A06D9F"/>
			<stop  offset="0.9553" style="stop-color:#625AA3"/>
		</linearGradient>
		<circle class="st4" cx="52.83" cy="76.83" r="7.64"/>
		<linearGradient id="SVGID_6_" gradientUnits="userSpaceOnUse" x1="47.5872" y1="-13.013" x2="259.4753" y2="242.2318">
			<stop  offset="0" style="stop-color:#D08A24"/>
			<stop  offset="0.4832" style="stop-color:#A06D9F"/>
			<stop  offset="0.9553" style="stop-color:#625AA3"/>
		</linearGradient>
		<circle class="st5" cx="122.17" cy="76.83" r="7.64"/>
	</g>
	<linearGradient id="SVGID_7_" gradientUnits="userSpaceOnUse" x1="6.8368" y1="20.8155" x2="218.7249" y2="276.0602">
		<stop  offset="0" style="stop-color:#D08A24"/>
		<stop  offset="0.4832" style="stop-color:#A06D9F"/>
		<stop  offset="0.9553" style="stop-color:#625AA3"/>
	</linearGradient>
	<path class="st6" d="M105.28,133.76c-0.01,0-0.02,0-0.03,0c-1.89-0.02-3.35-0.01-5.59-0.01c-1.48,0-3.28,0.01-5.76,0.01
		c-9.89,0-9.89-7.25-9.89-11.14v-9.28c0-1.93,1.57-3.5,3.5-3.5s3.5,1.57,3.5,3.5v9.28c0,4.14,0,4.14,2.89,4.14
		c2.47,0,4.27,0,5.74-0.01c2.28-0.01,3.76-0.01,5.68,0.01c1.93,0.02,3.49,1.6,3.47,3.53C108.76,132.21,107.2,133.76,105.28,133.76z"
		/>
	<linearGradient id="SVGID_8_" gradientUnits="userSpaceOnUse" x1="-0.2992" y1="26.7393" x2="211.5889" y2="281.9841">
		<stop  offset="0" style="stop-color:#D08A24"/>
		<stop  offset="0.4832" style="stop-color:#A06D9F"/>
		<stop  offset="0.9553" style="stop-color:#625AA3"/>
	</linearGradient>
	<path class="st7" d="M69.72,133.76c-1.92,0-3.48-1.55-3.5-3.47c-0.02-1.93,1.54-3.51,3.47-3.53c1.91-0.02,3.4-0.01,5.68-0.01
		c1.47,0,3.27,0.01,5.74,0.01c2.89,0,2.89,0,2.89-4.14v-9.28c0-1.93,1.57-3.5,3.5-3.5s3.5,1.57,3.5,3.5v9.28
		c0,3.9,0,11.14-9.89,11.14c-2.48,0-4.29,0-5.76-0.01c-2.24,0-3.71-0.01-5.59,0.01C69.75,133.76,69.73,133.76,69.72,133.76z"/>
	<linearGradient id="SVGID_9_" gradientUnits="userSpaceOnUse" x1="12.6437" y1="15.9949" x2="224.5318" y2="271.2397">
		<stop  offset="0" style="stop-color:#D08A24"/>
		<stop  offset="0.4832" style="stop-color:#A06D9F"/>
		<stop  offset="0.9553" style="stop-color:#625AA3"/>
	</linearGradient>
	<path class="st8" d="M87.5,233.01c-1.93,0-3.5-1.57-3.5-3.5c0-26.78-32.75-43.17-42.97-47.63c-1.21-0.44-2.48-0.96-3.86-1.58
		l-0.09-0.03c-0.2-0.07-0.38-0.16-0.56-0.26C14.32,169.85,0,147.58,0,123.17v-25c0-48.25,39.25-87.5,87.5-87.5S175,49.92,175,98.17
		v25c0,24.41-14.33,46.69-36.53,56.85c-0.17,0.1-0.36,0.19-0.55,0.26l-0.09,0.03c-1.38,0.62-2.65,1.13-3.86,1.58
		C123.75,186.33,91,202.72,91,229.51C91,231.44,89.43,233.01,87.5,233.01z M39.85,173.84c0.03,0.01,0.05,0.02,0.08,0.03
		c1.31,0.58,2.49,1.07,3.61,1.47c0.07,0.02,0.13,0.05,0.2,0.08c11.39,4.95,34.89,17.26,43.77,37.54
		c8.88-20.29,32.38-32.59,43.77-37.54c0.06-0.03,0.13-0.05,0.2-0.08c1.12-0.41,2.3-0.89,3.61-1.47c0.02-0.01,0.05-0.02,0.08-0.03
		c0.04-0.02,0.07-0.03,0.11-0.05c19.89-8.96,32.74-28.83,32.74-50.61v-25c0-44.39-36.11-80.5-80.5-80.5S7,53.78,7,98.17v25
		c0,21.79,12.85,41.66,32.74,50.61C39.78,173.8,39.81,173.82,39.85,173.84z"/>
</g>
</svg>
